M48
; DRILL file KiCad 10.0.3 date 2026-06-07T10:07:50
; FORMAT={-:-/ absolute / metric / decimal}
; #@! TF.CreationDate,2026-06-07T10:07:50+10:00
; #@! TF.GenerationSoftware,Kicad,Pcbnew,10.0.3
; #@! TF.FileFunction,Plated,1,2,PTH
FMAT,2
METRIC
; #@! TA.AperFunction,Plated,PTH,ViaDrill
T1C0.300
; #@! TA.AperFunction,Plated,PTH,ComponentDrill
T2C0.800
%
G90
G05
T1
X124.75Y-95.0
X125.5Y-95.0
X126.25Y-95.0
X127.75Y-82.75
X127.75Y-83.5
X130.25Y-95.25
X132.7Y-83.29
X133.0Y-81.5
X133.0Y-86.0
X133.5Y-77.5
X133.5Y-82.5
X133.5Y-83.5
X133.5Y-84.5
X133.5Y-94.0
X134.0Y-86.0
X134.0Y-89.25
X135.0Y-81.0
X137.25Y-84.35
X137.5Y-100.0
X137.5Y-101.0
X138.756Y-81.082
X139.5Y-92.575
X140.0Y-87.0
X140.7Y-86.29
X141.0Y-81.29
X141.7Y-84.29
X142.7Y-84.29
X143.5Y-90.25
X143.7Y-84.29
X144.7Y-80.79
X144.7Y-84.29
X145.7Y-84.29
X150.0Y-93.0
X150.0Y-94.0
X150.0Y-95.0
X151.463Y-93.5
X152.5Y-86.0
X152.5Y-87.0
X153.631Y-86.0
X154.0Y-81.0
X154.0Y-83.0
X155.0Y-98.0
X157.5Y-105.0
X158.5Y-105.0
X159.5Y-82.0
X159.5Y-93.5
X159.5Y-105.0
X160.0Y-88.0
X160.5Y-105.0
X161.5Y-89.5
X161.5Y-90.5
X162.903Y-91.203
X163.0Y-86.5
X163.5Y-80.5
X163.5Y-81.5
X163.5Y-82.5
X163.5Y-83.5
X163.5Y-84.5
X165.0Y-79.5
X165.25Y-100.75
X166.0Y-79.5
X166.25Y-96.5
X167.0Y-79.5
X167.0Y-87.0
X167.75Y-97.75
X168.0Y-79.5
X168.35Y-103.85
X169.0Y-79.5
X169.0Y-89.5
X169.5Y-97.75
X170.0Y-79.5
X170.0Y-89.5
X170.5Y-102.5
X171.0Y-80.5
X171.0Y-81.5
X171.0Y-82.5
X171.0Y-83.5
X171.0Y-84.5
X171.0Y-85.5
X171.0Y-97.0
X171.5Y-102.5
X172.0Y-94.0
X172.75Y-102.5
X173.0Y-89.25
X173.0Y-98.5
X173.75Y-89.25
T2
X149.0Y-83.88
X149.0Y-91.5
M30
