%TF.GenerationSoftware,KiCad,Pcbnew,10.0.3*%
%TF.CreationDate,2026-06-07T10:07:49+10:00*%
%TF.ProjectId,WashingLineMonitor-P0001,57617368-696e-4674-9c69-6e654d6f6e69,AC*%
%TF.SameCoordinates,Original*%
%TF.FileFunction,Legend,Top*%
%TF.FilePolarity,Positive*%
%FSLAX46Y46*%
G04 Gerber Fmt 4.6, Leading zero omitted, Abs format (unit mm)*
G04 Created by KiCad (PCBNEW 10.0.3) date 2026-06-07 10:07:49*
%MOMM*%
%LPD*%
G01*
G04 APERTURE LIST*
%ADD10C,0.026458*%
%ADD11C,0.000000*%
%ADD12C,0.026499*%
%ADD13C,0.100000*%
%ADD14C,0.150000*%
%ADD15C,0.120000*%
G04 APERTURE END LIST*
D10*
X150753133Y-77746485D02*
X150052065Y-77545150D01*
X150052065Y-76363067D01*
X149514085Y-76363067D01*
X149514085Y-77514644D01*
X149319382Y-77514644D01*
X148836517Y-77514644D01*
X148835199Y-75842934D01*
X148842618Y-74171259D01*
X149558846Y-74171259D01*
X149558846Y-75421978D01*
X150077950Y-75421978D01*
X150077950Y-74018732D01*
X150753133Y-74018732D01*
X150753133Y-77746485D01*
D11*
G36*
X151820177Y-74519813D02*
G01*
X151916616Y-74522343D01*
X152004278Y-74526623D01*
X152083698Y-74532812D01*
X152155406Y-74541074D01*
X152219937Y-74551570D01*
X152277821Y-74564459D01*
X152329593Y-74579905D01*
X152375784Y-74598069D01*
X152416928Y-74619111D01*
X152453556Y-74643193D01*
X152486202Y-74670476D01*
X152515397Y-74701122D01*
X152541676Y-74735292D01*
X152565569Y-74773148D01*
X152575872Y-74793056D01*
X152585378Y-74815491D01*
X152601916Y-74867185D01*
X152615015Y-74926715D01*
X152624509Y-74992569D01*
X152630231Y-75063233D01*
X152632015Y-75137195D01*
X152629694Y-75212941D01*
X152623100Y-75288957D01*
X152612068Y-75363730D01*
X152596430Y-75435748D01*
X152576020Y-75503497D01*
X152563973Y-75535297D01*
X152550671Y-75565463D01*
X152536092Y-75593804D01*
X152520216Y-75620133D01*
X152503022Y-75644259D01*
X152484489Y-75665994D01*
X152464596Y-75685149D01*
X152443322Y-75701533D01*
X152420647Y-75714959D01*
X152396549Y-75725237D01*
X152340713Y-75743145D01*
X152285549Y-75757941D01*
X152231084Y-75769896D01*
X152177347Y-75779286D01*
X152124363Y-75786382D01*
X152072162Y-75791458D01*
X152020770Y-75794788D01*
X151970214Y-75796644D01*
X151871724Y-75797028D01*
X151776910Y-75794797D01*
X151685993Y-75792135D01*
X151599191Y-75791229D01*
X151598841Y-74519356D01*
X151820177Y-74519813D01*
G37*
D10*
X151858771Y-73893000D02*
X152036420Y-73896096D01*
X152136401Y-73899848D01*
X152237761Y-73906799D01*
X152339403Y-73917395D01*
X152440225Y-73932083D01*
X152539130Y-73951307D01*
X152635018Y-73975514D01*
X152726789Y-74005149D01*
X152813346Y-74040659D01*
X152893589Y-74082489D01*
X152930999Y-74105913D01*
X152966418Y-74131085D01*
X152999709Y-74158059D01*
X153030735Y-74186892D01*
X153059357Y-74217640D01*
X153085440Y-74250358D01*
X153108845Y-74285101D01*
X153129434Y-74321926D01*
X153147072Y-74360889D01*
X153161619Y-74402044D01*
X153172939Y-74445449D01*
X153180895Y-74491157D01*
X153185349Y-74539227D01*
X153186163Y-74589712D01*
X153176550Y-74837856D01*
X153153906Y-75122955D01*
X153136362Y-75272616D01*
X153113956Y-75423420D01*
X153086155Y-75572669D01*
X153052424Y-75717665D01*
X153012228Y-75855708D01*
X152965034Y-75984100D01*
X152910307Y-76100143D01*
X152879951Y-76152691D01*
X152847512Y-76201139D01*
X152812922Y-76245150D01*
X152776114Y-76284388D01*
X152737023Y-76318515D01*
X152695581Y-76347193D01*
X152651721Y-76370085D01*
X152605376Y-76386855D01*
X152556480Y-76397164D01*
X152504966Y-76400675D01*
X152341262Y-76402928D01*
X152124174Y-76402421D01*
X152013777Y-76400446D01*
X151911834Y-76396957D01*
X151825610Y-76391679D01*
X151790664Y-76388284D01*
X151762373Y-76384338D01*
X151762370Y-76384338D01*
X151758560Y-78234345D01*
X151000862Y-78214517D01*
X151000862Y-73896096D01*
X151344728Y-73892051D01*
X151678962Y-73891546D01*
X151858771Y-73893000D01*
X152043893Y-73216565D02*
X152478653Y-73257094D01*
X152888092Y-73322847D01*
X153266772Y-73414726D01*
X152928897Y-73516562D01*
X152138509Y-73764584D01*
X151678263Y-73916470D01*
X151230458Y-74072569D01*
X150836950Y-74222102D01*
X150673638Y-74291038D01*
X150539596Y-74354291D01*
X149846141Y-74720272D01*
X149392825Y-74971255D01*
X148925680Y-75242164D01*
X148487627Y-75513947D01*
X148292925Y-75644212D01*
X148121591Y-75767551D01*
X147978992Y-75881583D01*
X147870492Y-75983926D01*
X147830707Y-76029970D01*
X147801458Y-76072199D01*
X147783417Y-76110314D01*
X147777255Y-76144019D01*
X147786821Y-76185667D01*
X147814961Y-76232619D01*
X147860831Y-76284436D01*
X147923590Y-76340681D01*
X148096409Y-76464702D01*
X148326686Y-76601181D01*
X148607688Y-76746614D01*
X148932682Y-76897499D01*
X149294935Y-77050335D01*
X149687714Y-77201618D01*
X150104286Y-77347847D01*
X150537919Y-77485519D01*
X150981880Y-77611131D01*
X151429435Y-77721182D01*
X151873853Y-77812169D01*
X152308399Y-77880589D01*
X152726342Y-77922941D01*
X152926983Y-77933246D01*
X153120948Y-77935721D01*
X153027278Y-78002019D01*
X152916256Y-78064755D01*
X152646248Y-78179393D01*
X152319109Y-78279334D01*
X151943029Y-78364273D01*
X151526193Y-78433909D01*
X151076788Y-78487938D01*
X150603001Y-78526057D01*
X150113020Y-78547963D01*
X149615031Y-78553353D01*
X149117222Y-78541925D01*
X148627779Y-78513375D01*
X148154889Y-78467400D01*
X147706740Y-78403698D01*
X147291517Y-78321965D01*
X146917409Y-78221899D01*
X146592603Y-78103196D01*
X146449943Y-78035556D01*
X146319206Y-77961034D01*
X146200114Y-77880044D01*
X146092389Y-77792999D01*
X145995752Y-77700311D01*
X145909925Y-77602393D01*
X145834631Y-77499660D01*
X145769592Y-77392523D01*
X145714529Y-77281397D01*
X145669164Y-77166693D01*
X145633220Y-77048826D01*
X145606418Y-76928208D01*
X145588480Y-76805252D01*
X145579129Y-76680371D01*
X145578086Y-76553979D01*
X145585073Y-76426489D01*
X145599812Y-76298313D01*
X145622025Y-76169865D01*
X145651434Y-76041558D01*
X145687761Y-75913805D01*
X145730729Y-75787019D01*
X145780058Y-75661614D01*
X145835471Y-75538001D01*
X145896690Y-75416595D01*
X145963437Y-75297808D01*
X146035433Y-75182054D01*
X146112402Y-75069745D01*
X146194064Y-74961295D01*
X146280142Y-74857117D01*
X146370357Y-74757623D01*
X146464432Y-74663228D01*
X146562089Y-74574344D01*
X146690616Y-74470095D01*
X146831166Y-74369106D01*
X147145615Y-74177357D01*
X147500000Y-74000000D01*
X147888880Y-73837938D01*
X148306820Y-73692072D01*
X148748380Y-73563307D01*
X149208123Y-73452543D01*
X149680610Y-73360685D01*
X150160405Y-73288635D01*
X150642069Y-73237295D01*
X151120163Y-73207569D01*
X151589250Y-73200358D01*
X152043893Y-73216565D01*
G36*
X152043893Y-73216565D02*
G01*
X152478653Y-73257094D01*
X152888092Y-73322847D01*
X153266772Y-73414726D01*
X152928897Y-73516562D01*
X152138509Y-73764584D01*
X151678263Y-73916470D01*
X151230458Y-74072569D01*
X150836950Y-74222102D01*
X150673638Y-74291038D01*
X150539596Y-74354291D01*
X149846141Y-74720272D01*
X149392825Y-74971255D01*
X148925680Y-75242164D01*
X148487627Y-75513947D01*
X148292925Y-75644212D01*
X148121591Y-75767551D01*
X147978992Y-75881583D01*
X147870492Y-75983926D01*
X147830707Y-76029970D01*
X147801458Y-76072199D01*
X147783417Y-76110314D01*
X147777255Y-76144019D01*
X147786821Y-76185667D01*
X147814961Y-76232619D01*
X147860831Y-76284436D01*
X147923590Y-76340681D01*
X148096409Y-76464702D01*
X148326686Y-76601181D01*
X148607688Y-76746614D01*
X148932682Y-76897499D01*
X149294935Y-77050335D01*
X149687714Y-77201618D01*
X150104286Y-77347847D01*
X150537919Y-77485519D01*
X150981880Y-77611131D01*
X151429435Y-77721182D01*
X151873853Y-77812169D01*
X152308399Y-77880589D01*
X152726342Y-77922941D01*
X152926983Y-77933246D01*
X153120948Y-77935721D01*
X153027278Y-78002019D01*
X152916256Y-78064755D01*
X152646248Y-78179393D01*
X152319109Y-78279334D01*
X151943029Y-78364273D01*
X151526193Y-78433909D01*
X151076788Y-78487938D01*
X150603001Y-78526057D01*
X150113020Y-78547963D01*
X149615031Y-78553353D01*
X149117222Y-78541925D01*
X148627779Y-78513375D01*
X148154889Y-78467400D01*
X147706740Y-78403698D01*
X147291517Y-78321965D01*
X146917409Y-78221899D01*
X146592603Y-78103196D01*
X146449943Y-78035556D01*
X146319206Y-77961034D01*
X146200114Y-77880044D01*
X146092389Y-77792999D01*
X145995752Y-77700311D01*
X145909925Y-77602393D01*
X145834631Y-77499660D01*
X145769592Y-77392523D01*
X145714529Y-77281397D01*
X145669164Y-77166693D01*
X145633220Y-77048826D01*
X145606418Y-76928208D01*
X145588480Y-76805252D01*
X145579129Y-76680371D01*
X145578086Y-76553979D01*
X145585073Y-76426489D01*
X145599812Y-76298313D01*
X145622025Y-76169865D01*
X145651434Y-76041558D01*
X145687761Y-75913805D01*
X145730729Y-75787019D01*
X145780058Y-75661614D01*
X145835471Y-75538001D01*
X145896690Y-75416595D01*
X145963437Y-75297808D01*
X146035433Y-75182054D01*
X146112402Y-75069745D01*
X146194064Y-74961295D01*
X146280142Y-74857117D01*
X146370357Y-74757623D01*
X146464432Y-74663228D01*
X146562089Y-74574344D01*
X146690616Y-74470095D01*
X146831166Y-74369106D01*
X147145615Y-74177357D01*
X147500000Y-74000000D01*
X147888880Y-73837938D01*
X148306820Y-73692072D01*
X148748380Y-73563307D01*
X149208123Y-73452543D01*
X149680610Y-73360685D01*
X150160405Y-73288635D01*
X150642069Y-73237295D01*
X151120163Y-73207569D01*
X151589250Y-73200358D01*
X152043893Y-73216565D01*
G37*
D12*
X151598841Y-74519356D02*
X151614553Y-74519217D01*
X151630088Y-74519100D01*
X151645005Y-74519008D01*
X151659758Y-74518938D01*
X151673955Y-74518890D01*
X151687998Y-74518863D01*
X151701535Y-74518858D01*
X151714929Y-74518872D01*
X151727861Y-74518907D01*
X151740658Y-74518961D01*
X151753032Y-74519034D01*
X151765279Y-74519126D01*
X151777136Y-74519236D01*
X151788872Y-74519364D01*
X151800248Y-74519509D01*
X151811510Y-74519673D01*
X151822438Y-74519852D01*
X151833258Y-74520050D01*
X151843766Y-74520262D01*
X151854172Y-74520492D01*
X151864287Y-74520735D01*
X151874305Y-74520997D01*
X151884051Y-74521272D01*
X151893703Y-74521564D01*
X151903101Y-74521869D01*
X151912410Y-74522191D01*
X151921479Y-74522525D01*
X151930464Y-74522876D01*
X151939223Y-74523238D01*
X151947900Y-74523617D01*
X151956365Y-74524007D01*
X151964752Y-74524414D01*
X151972938Y-74524831D01*
X151981050Y-74525264D01*
X151988971Y-74525707D01*
X151996821Y-74526167D01*
X152004490Y-74526636D01*
X152012091Y-74527121D01*
X152019521Y-74527615D01*
X152026884Y-74528125D01*
X152034086Y-74528644D01*
X152041223Y-74529178D01*
X152048207Y-74529722D01*
X152055129Y-74530280D01*
X152061904Y-74530847D01*
X152068620Y-74531429D01*
X152075196Y-74532019D01*
X152081715Y-74532624D01*
X152088101Y-74533237D01*
X152094432Y-74533865D01*
X152100635Y-74534500D01*
X152106785Y-74535151D01*
X152112814Y-74535808D01*
X152118792Y-74536480D01*
X152124653Y-74537160D01*
X152130465Y-74537853D01*
X152136165Y-74538554D01*
X152141818Y-74539269D01*
X152147364Y-74539991D01*
X152152864Y-74540727D01*
X152158262Y-74541470D01*
X152163615Y-74542226D01*
X152168870Y-74542990D01*
X152174082Y-74543767D01*
X152179201Y-74544550D01*
X152184277Y-74545348D01*
X152189264Y-74546151D01*
X152194209Y-74546969D01*
X152199069Y-74547792D01*
X152203889Y-74548629D01*
X152208627Y-74549472D01*
X152213326Y-74550329D01*
X152217946Y-74551191D01*
X152222528Y-74552067D01*
X152227035Y-74552949D01*
X152231505Y-74553844D01*
X152235902Y-74554745D01*
X152240263Y-74555660D01*
X152244555Y-74556580D01*
X152248812Y-74557513D01*
X152253002Y-74558452D01*
X152257158Y-74559404D01*
X152261250Y-74560362D01*
X152265309Y-74561332D01*
X152269306Y-74562309D01*
X152273271Y-74563298D01*
X152277176Y-74564293D01*
X152281051Y-74565301D01*
X152284868Y-74566314D01*
X152288655Y-74567341D01*
X152292387Y-74568373D01*
X152296089Y-74569418D01*
X152299739Y-74570469D01*
X152303359Y-74571532D01*
X152306929Y-74572601D01*
X152310471Y-74573683D01*
X152313964Y-74574770D01*
X152317429Y-74575871D01*
X152320848Y-74576977D01*
X152324240Y-74578096D01*
X152327586Y-74579220D01*
X152330907Y-74580358D01*
X152334184Y-74581501D01*
X152337435Y-74582657D01*
X152340645Y-74583819D01*
X152343830Y-74584994D01*
X152346975Y-74586175D01*
X152350096Y-74587368D01*
X152353178Y-74588568D01*
X152356237Y-74589781D01*
X152359258Y-74591000D01*
X152362256Y-74592231D01*
X152365219Y-74593470D01*
X152368159Y-74594720D01*
X152371065Y-74595978D01*
X152373949Y-74597248D01*
X152376800Y-74598526D01*
X152379629Y-74599816D01*
X152382427Y-74601113D01*
X152385204Y-74602423D01*
X152387950Y-74603741D01*
X152390676Y-74605070D01*
X152393373Y-74606408D01*
X152396050Y-74607759D01*
X152398699Y-74609117D01*
X152401329Y-74610488D01*
X152403931Y-74611868D01*
X152406515Y-74613260D01*
X152409073Y-74614661D01*
X152411611Y-74616075D01*
X152414126Y-74617498D01*
X152416622Y-74618933D01*
X152419095Y-74620378D01*
X152421549Y-74621836D01*
X152423982Y-74623303D01*
X152426396Y-74624783D01*
X152428790Y-74626274D01*
X152431166Y-74627777D01*
X152433521Y-74629292D01*
X152435860Y-74630819D01*
X152438179Y-74632357D01*
X152440482Y-74633908D01*
X152442766Y-74635471D01*
X152445034Y-74637047D01*
X152447284Y-74638635D01*
X152449518Y-74640236D01*
X152451736Y-74641850D01*
X152453938Y-74643477D01*
X152456124Y-74645117D01*
X152458295Y-74646771D01*
X152462592Y-74650119D01*
X152466830Y-74653524D01*
X152471013Y-74656986D01*
X152475142Y-74660507D01*
X152479220Y-74664089D01*
X152483248Y-74667734D01*
X152487228Y-74671443D01*
X152491163Y-74675220D01*
X152495055Y-74679065D01*
X152498904Y-74682981D01*
X152502714Y-74686971D01*
X152506487Y-74691037D01*
X152510223Y-74695182D01*
X152513926Y-74699408D01*
X152517596Y-74703719D01*
X152521236Y-74708118D01*
X152524847Y-74712607D01*
X152528432Y-74717191D01*
X152531993Y-74721873D01*
X152535530Y-74726657D01*
X152539047Y-74731547D01*
X152542545Y-74736548D01*
X152546026Y-74741665D01*
X152549493Y-74746901D01*
X152552947Y-74752264D01*
X152556390Y-74757758D01*
X152559826Y-74763389D01*
X152563256Y-74769165D01*
X152565569Y-74773148D01*
X151610887Y-74505591D02*
X151610887Y-75807131D01*
D13*
X151610887Y-74505591D02*
X151610887Y-75807131D01*
D12*
X152396549Y-75725237D02*
X152387364Y-75728393D01*
X152378151Y-75731474D01*
X152368908Y-75734482D01*
X152359634Y-75737416D01*
X152350327Y-75740277D01*
X152340987Y-75743065D01*
X152331610Y-75745780D01*
X152322197Y-75748424D01*
X152312746Y-75750995D01*
X152303254Y-75753495D01*
X152293721Y-75755924D01*
X152284143Y-75758282D01*
X152274520Y-75760569D01*
X152264849Y-75762785D01*
X152255128Y-75764932D01*
X152245355Y-75767009D01*
X152235528Y-75769015D01*
X152225643Y-75770953D01*
X152215698Y-75772821D01*
X152205691Y-75774620D01*
X152195618Y-75776350D01*
X152185476Y-75778012D01*
X152175262Y-75779604D01*
X152164971Y-75781129D01*
X152154600Y-75782585D01*
X152144144Y-75783972D01*
X152133598Y-75785292D01*
X152122958Y-75786543D01*
X152112218Y-75787726D01*
X152101371Y-75788841D01*
X152090411Y-75789888D01*
X152079331Y-75790867D01*
X152068122Y-75791778D01*
X152056774Y-75792620D01*
X152045278Y-75793394D01*
X152033623Y-75794100D01*
X152021794Y-75794736D01*
X152009776Y-75795304D01*
X151997553Y-75795803D01*
X151985104Y-75796231D01*
X151972405Y-75796590D01*
X151959428Y-75796877D01*
X151946139Y-75797093D01*
X151932495Y-75797236D01*
X151918446Y-75797305D01*
X151903923Y-75797298D01*
X151888838Y-75797213D01*
X151873073Y-75797046D01*
X151856455Y-75796793D01*
X151838726Y-75796446D01*
X151819455Y-75795993D01*
X151797820Y-75795411D01*
X151771817Y-75794642D01*
X151753549Y-75794078D01*
X151733571Y-75793462D01*
X151713783Y-75792875D01*
X151694188Y-75792340D01*
X151684464Y-75792098D01*
X151674789Y-75791878D01*
X151665163Y-75791682D01*
X151655587Y-75791514D01*
X151646061Y-75791375D01*
X151636585Y-75791269D01*
X151627160Y-75791198D01*
X151617786Y-75791166D01*
X151608463Y-75791176D01*
X151599191Y-75791229D01*
X152565569Y-74773148D02*
X152567678Y-74776892D01*
X152569783Y-74780793D01*
X152571882Y-74784851D01*
X152573974Y-74789072D01*
X152576059Y-74793456D01*
X152578133Y-74798008D01*
X152580197Y-74802729D01*
X152582249Y-74807621D01*
X152584286Y-74812687D01*
X152586308Y-74817930D01*
X152588312Y-74823349D01*
X152590297Y-74828948D01*
X152592261Y-74834728D01*
X152594202Y-74840689D01*
X152596118Y-74846833D01*
X152598007Y-74853160D01*
X152599867Y-74859670D01*
X152601697Y-74866364D01*
X152603493Y-74873240D01*
X152605254Y-74880299D01*
X152606977Y-74887539D01*
X152608661Y-74894960D01*
X152610304Y-74902559D01*
X152611902Y-74910334D01*
X152613454Y-74918282D01*
X152614958Y-74926402D01*
X152616412Y-74934690D01*
X152617813Y-74943142D01*
X152619159Y-74951754D01*
X152620448Y-74960522D01*
X152621679Y-74969442D01*
X152622849Y-74978507D01*
X152623957Y-74987714D01*
X152624999Y-74997055D01*
X152625976Y-75006526D01*
X152626885Y-75016119D01*
X152627724Y-75025827D01*
X152628492Y-75035645D01*
X152629187Y-75045565D01*
X152629809Y-75055579D01*
X152630356Y-75065681D01*
X152630827Y-75075861D01*
X152631221Y-75086113D01*
X152631389Y-75091263D01*
X152631537Y-75096428D01*
X152631666Y-75101607D01*
X152631775Y-75106798D01*
X152631864Y-75112001D01*
X152631933Y-75117215D01*
X152631983Y-75122438D01*
X152632012Y-75127672D01*
X152632022Y-75132911D01*
X152632011Y-75138159D01*
X152631981Y-75143410D01*
X152631930Y-75148670D01*
X152631860Y-75153929D01*
X152631769Y-75159195D01*
X152631658Y-75164458D01*
X152631527Y-75169727D01*
X152631376Y-75174990D01*
X152631205Y-75180258D01*
X152631014Y-75185517D01*
X152630803Y-75190781D01*
X152630573Y-75196032D01*
X152630322Y-75201287D01*
X152630051Y-75206528D01*
X152629761Y-75211770D01*
X152629451Y-75216996D01*
X152629122Y-75222222D01*
X152628773Y-75227430D01*
X152628404Y-75232637D01*
X152628017Y-75237822D01*
X152627610Y-75243007D01*
X152627184Y-75248168D01*
X152626739Y-75253326D01*
X152626275Y-75258459D01*
X152625792Y-75263589D01*
X152625291Y-75268690D01*
X152624770Y-75273788D01*
X152624233Y-75278855D01*
X152623675Y-75283918D01*
X152623101Y-75288948D01*
X152622507Y-75293973D01*
X152621897Y-75298964D01*
X152621268Y-75303949D01*
X152620623Y-75308899D01*
X152619959Y-75313841D01*
X152619279Y-75318746D01*
X152618580Y-75323643D01*
X152617867Y-75328501D01*
X152617134Y-75333351D01*
X152616387Y-75338161D01*
X152615621Y-75342962D01*
X152614842Y-75347721D01*
X152614043Y-75352471D01*
X152613232Y-75357178D01*
X152612402Y-75361874D01*
X152611559Y-75366527D01*
X152610698Y-75371169D01*
X152609824Y-75375766D01*
X152608933Y-75380352D01*
X152608029Y-75384892D01*
X152607108Y-75389420D01*
X152606176Y-75393902D01*
X152605225Y-75398371D01*
X152604264Y-75402793D01*
X152603286Y-75407202D01*
X152602297Y-75411564D01*
X152601291Y-75415911D01*
X152600275Y-75420211D01*
X152599243Y-75424497D01*
X152598201Y-75428734D01*
X152597141Y-75432957D01*
X152596074Y-75437131D01*
X152594989Y-75441290D01*
X152593897Y-75445400D01*
X152592788Y-75449495D01*
X152591671Y-75453540D01*
X152590538Y-75457570D01*
X152589398Y-75461551D01*
X152588241Y-75465515D01*
X152587078Y-75469430D01*
X152585899Y-75473328D01*
X152584714Y-75477177D01*
X152583513Y-75481010D01*
X152582307Y-75484793D01*
X152581084Y-75488559D01*
X152579857Y-75492276D01*
X152578614Y-75495975D01*
X152577366Y-75499626D01*
X152576103Y-75503259D01*
X152574836Y-75506843D01*
X152573554Y-75510409D01*
X152572268Y-75513927D01*
X152570967Y-75517427D01*
X152569662Y-75520879D01*
X152568343Y-75524312D01*
X152567021Y-75527698D01*
X152565684Y-75531065D01*
X152564345Y-75534385D01*
X152562992Y-75537686D01*
X152561636Y-75540940D01*
X152560266Y-75544175D01*
X152558894Y-75547363D01*
X152557508Y-75550533D01*
X152556120Y-75553657D01*
X152554719Y-75556761D01*
X152553317Y-75559820D01*
X152551901Y-75562860D01*
X152550484Y-75565855D01*
X152549054Y-75568830D01*
X152547623Y-75571761D01*
X152546179Y-75574672D01*
X152544735Y-75577540D01*
X152543277Y-75580388D01*
X152541820Y-75583192D01*
X152540350Y-75585978D01*
X152538880Y-75588720D01*
X152537397Y-75591443D01*
X152535915Y-75594123D01*
X152534420Y-75596784D01*
X152532926Y-75599403D01*
X152531420Y-75602003D01*
X152529914Y-75604561D01*
X152528397Y-75607101D01*
X152526880Y-75609599D01*
X152525352Y-75612078D01*
X152523825Y-75614517D01*
X152522286Y-75616937D01*
X152520748Y-75619318D01*
X152519199Y-75621679D01*
X152517651Y-75624001D01*
X152516092Y-75626304D01*
X152514535Y-75628569D01*
X152512967Y-75630815D01*
X152511400Y-75633023D01*
X152509822Y-75635212D01*
X152508246Y-75637364D01*
X152506659Y-75639496D01*
X152505074Y-75641593D01*
X152503479Y-75643670D01*
X152501885Y-75645712D01*
X152500281Y-75647735D01*
X152498679Y-75649723D01*
X152497066Y-75651692D01*
X152495456Y-75653626D01*
X152493835Y-75655542D01*
X152492217Y-75657423D01*
X152490588Y-75659286D01*
X152488961Y-75661116D01*
X152487325Y-75662927D01*
X152485691Y-75664705D01*
X152484046Y-75666465D01*
X152482404Y-75668192D01*
X152480752Y-75669901D01*
X152479103Y-75671579D01*
X152477444Y-75673238D01*
X152475786Y-75674866D01*
X152474120Y-75676476D01*
X152472455Y-75678056D01*
X152470781Y-75679617D01*
X152469109Y-75681148D01*
X152467428Y-75682661D01*
X152465748Y-75684145D01*
X152464060Y-75685611D01*
X152462373Y-75687048D01*
X152460677Y-75688467D01*
X152458983Y-75689858D01*
X152457280Y-75691230D01*
X152455579Y-75692576D01*
X152453868Y-75693902D01*
X152452159Y-75695203D01*
X152450442Y-75696484D01*
X152448725Y-75697740D01*
X152447000Y-75698977D01*
X152445277Y-75700189D01*
X152443544Y-75701382D01*
X152441813Y-75702550D01*
X152440073Y-75703700D01*
X152438333Y-75704825D01*
X152436586Y-75705932D01*
X152434839Y-75707014D01*
X152433083Y-75708078D01*
X152431328Y-75709118D01*
X152429565Y-75710140D01*
X152427802Y-75711139D01*
X152426030Y-75712119D01*
X152424259Y-75713077D01*
X152422479Y-75714016D01*
X152420700Y-75714932D01*
X152418911Y-75715830D01*
X152417123Y-75716706D01*
X152415326Y-75717564D01*
X152413529Y-75718399D01*
X152411723Y-75719217D01*
X152409917Y-75720013D01*
X152408102Y-75720790D01*
X152406286Y-75721546D01*
X152404463Y-75722284D01*
X152402637Y-75723000D01*
X152400804Y-75723699D01*
X152398969Y-75724376D01*
X152397125Y-75725035D01*
X152396549Y-75725237D01*
D13*
X143827693Y-73920038D02*
X143732455Y-73872419D01*
X143732455Y-73872419D02*
X143589598Y-73872419D01*
X143589598Y-73872419D02*
X143446741Y-73920038D01*
X143446741Y-73920038D02*
X143351503Y-74015276D01*
X143351503Y-74015276D02*
X143303884Y-74110514D01*
X143303884Y-74110514D02*
X143256265Y-74300990D01*
X143256265Y-74300990D02*
X143256265Y-74443847D01*
X143256265Y-74443847D02*
X143303884Y-74634323D01*
X143303884Y-74634323D02*
X143351503Y-74729561D01*
X143351503Y-74729561D02*
X143446741Y-74824800D01*
X143446741Y-74824800D02*
X143589598Y-74872419D01*
X143589598Y-74872419D02*
X143684836Y-74872419D01*
X143684836Y-74872419D02*
X143827693Y-74824800D01*
X143827693Y-74824800D02*
X143875312Y-74777180D01*
X143875312Y-74777180D02*
X143875312Y-74443847D01*
X143875312Y-74443847D02*
X143684836Y-74443847D01*
X144303884Y-74872419D02*
X144303884Y-73872419D01*
X144303884Y-73872419D02*
X144875312Y-74872419D01*
X144875312Y-74872419D02*
X144875312Y-73872419D01*
X145351503Y-74872419D02*
X145351503Y-73872419D01*
X145351503Y-73872419D02*
X145589598Y-73872419D01*
X145589598Y-73872419D02*
X145732455Y-73920038D01*
X145732455Y-73920038D02*
X145827693Y-74015276D01*
X145827693Y-74015276D02*
X145875312Y-74110514D01*
X145875312Y-74110514D02*
X145922931Y-74300990D01*
X145922931Y-74300990D02*
X145922931Y-74443847D01*
X145922931Y-74443847D02*
X145875312Y-74634323D01*
X145875312Y-74634323D02*
X145827693Y-74729561D01*
X145827693Y-74729561D02*
X145732455Y-74824800D01*
X145732455Y-74824800D02*
X145589598Y-74872419D01*
X145589598Y-74872419D02*
X145351503Y-74872419D01*
X128008533Y-92303884D02*
X128008533Y-93065789D01*
X127627580Y-92684836D02*
X128389485Y-92684836D01*
X128008533Y-93541979D02*
X128008533Y-94303884D01*
D14*
X157833333Y-96954819D02*
X157500000Y-96478628D01*
X157261905Y-96954819D02*
X157261905Y-95954819D01*
X157261905Y-95954819D02*
X157642857Y-95954819D01*
X157642857Y-95954819D02*
X157738095Y-96002438D01*
X157738095Y-96002438D02*
X157785714Y-96050057D01*
X157785714Y-96050057D02*
X157833333Y-96145295D01*
X157833333Y-96145295D02*
X157833333Y-96288152D01*
X157833333Y-96288152D02*
X157785714Y-96383390D01*
X157785714Y-96383390D02*
X157738095Y-96431009D01*
X157738095Y-96431009D02*
X157642857Y-96478628D01*
X157642857Y-96478628D02*
X157261905Y-96478628D01*
X158785714Y-96954819D02*
X158214286Y-96954819D01*
X158500000Y-96954819D02*
X158500000Y-95954819D01*
X158500000Y-95954819D02*
X158404762Y-96097676D01*
X158404762Y-96097676D02*
X158309524Y-96192914D01*
X158309524Y-96192914D02*
X158214286Y-96240533D01*
X156795833Y-85039580D02*
X156748214Y-85087200D01*
X156748214Y-85087200D02*
X156605357Y-85134819D01*
X156605357Y-85134819D02*
X156510119Y-85134819D01*
X156510119Y-85134819D02*
X156367262Y-85087200D01*
X156367262Y-85087200D02*
X156272024Y-84991961D01*
X156272024Y-84991961D02*
X156224405Y-84896723D01*
X156224405Y-84896723D02*
X156176786Y-84706247D01*
X156176786Y-84706247D02*
X156176786Y-84563390D01*
X156176786Y-84563390D02*
X156224405Y-84372914D01*
X156224405Y-84372914D02*
X156272024Y-84277676D01*
X156272024Y-84277676D02*
X156367262Y-84182438D01*
X156367262Y-84182438D02*
X156510119Y-84134819D01*
X156510119Y-84134819D02*
X156605357Y-84134819D01*
X156605357Y-84134819D02*
X156748214Y-84182438D01*
X156748214Y-84182438D02*
X156795833Y-84230057D01*
X157748214Y-85134819D02*
X157176786Y-85134819D01*
X157462500Y-85134819D02*
X157462500Y-84134819D01*
X157462500Y-84134819D02*
X157367262Y-84277676D01*
X157367262Y-84277676D02*
X157272024Y-84372914D01*
X157272024Y-84372914D02*
X157176786Y-84420533D01*
X127759580Y-90842857D02*
X127807200Y-90890476D01*
X127807200Y-90890476D02*
X127854819Y-91033333D01*
X127854819Y-91033333D02*
X127854819Y-91128571D01*
X127854819Y-91128571D02*
X127807200Y-91271428D01*
X127807200Y-91271428D02*
X127711961Y-91366666D01*
X127711961Y-91366666D02*
X127616723Y-91414285D01*
X127616723Y-91414285D02*
X127426247Y-91461904D01*
X127426247Y-91461904D02*
X127283390Y-91461904D01*
X127283390Y-91461904D02*
X127092914Y-91414285D01*
X127092914Y-91414285D02*
X126997676Y-91366666D01*
X126997676Y-91366666D02*
X126902438Y-91271428D01*
X126902438Y-91271428D02*
X126854819Y-91128571D01*
X126854819Y-91128571D02*
X126854819Y-91033333D01*
X126854819Y-91033333D02*
X126902438Y-90890476D01*
X126902438Y-90890476D02*
X126950057Y-90842857D01*
X127854819Y-89890476D02*
X127854819Y-90461904D01*
X127854819Y-90176190D02*
X126854819Y-90176190D01*
X126854819Y-90176190D02*
X126997676Y-90271428D01*
X126997676Y-90271428D02*
X127092914Y-90366666D01*
X127092914Y-90366666D02*
X127140533Y-90461904D01*
X127283390Y-89319047D02*
X127235771Y-89414285D01*
X127235771Y-89414285D02*
X127188152Y-89461904D01*
X127188152Y-89461904D02*
X127092914Y-89509523D01*
X127092914Y-89509523D02*
X127045295Y-89509523D01*
X127045295Y-89509523D02*
X126950057Y-89461904D01*
X126950057Y-89461904D02*
X126902438Y-89414285D01*
X126902438Y-89414285D02*
X126854819Y-89319047D01*
X126854819Y-89319047D02*
X126854819Y-89128571D01*
X126854819Y-89128571D02*
X126902438Y-89033333D01*
X126902438Y-89033333D02*
X126950057Y-88985714D01*
X126950057Y-88985714D02*
X127045295Y-88938095D01*
X127045295Y-88938095D02*
X127092914Y-88938095D01*
X127092914Y-88938095D02*
X127188152Y-88985714D01*
X127188152Y-88985714D02*
X127235771Y-89033333D01*
X127235771Y-89033333D02*
X127283390Y-89128571D01*
X127283390Y-89128571D02*
X127283390Y-89319047D01*
X127283390Y-89319047D02*
X127331009Y-89414285D01*
X127331009Y-89414285D02*
X127378628Y-89461904D01*
X127378628Y-89461904D02*
X127473866Y-89509523D01*
X127473866Y-89509523D02*
X127664342Y-89509523D01*
X127664342Y-89509523D02*
X127759580Y-89461904D01*
X127759580Y-89461904D02*
X127807200Y-89414285D01*
X127807200Y-89414285D02*
X127854819Y-89319047D01*
X127854819Y-89319047D02*
X127854819Y-89128571D01*
X127854819Y-89128571D02*
X127807200Y-89033333D01*
X127807200Y-89033333D02*
X127759580Y-88985714D01*
X127759580Y-88985714D02*
X127664342Y-88938095D01*
X127664342Y-88938095D02*
X127473866Y-88938095D01*
X127473866Y-88938095D02*
X127378628Y-88985714D01*
X127378628Y-88985714D02*
X127331009Y-89033333D01*
X127331009Y-89033333D02*
X127283390Y-89128571D01*
X127733333Y-81959580D02*
X127685714Y-82007200D01*
X127685714Y-82007200D02*
X127542857Y-82054819D01*
X127542857Y-82054819D02*
X127447619Y-82054819D01*
X127447619Y-82054819D02*
X127304762Y-82007200D01*
X127304762Y-82007200D02*
X127209524Y-81911961D01*
X127209524Y-81911961D02*
X127161905Y-81816723D01*
X127161905Y-81816723D02*
X127114286Y-81626247D01*
X127114286Y-81626247D02*
X127114286Y-81483390D01*
X127114286Y-81483390D02*
X127161905Y-81292914D01*
X127161905Y-81292914D02*
X127209524Y-81197676D01*
X127209524Y-81197676D02*
X127304762Y-81102438D01*
X127304762Y-81102438D02*
X127447619Y-81054819D01*
X127447619Y-81054819D02*
X127542857Y-81054819D01*
X127542857Y-81054819D02*
X127685714Y-81102438D01*
X127685714Y-81102438D02*
X127733333Y-81150057D01*
X128638095Y-81054819D02*
X128161905Y-81054819D01*
X128161905Y-81054819D02*
X128114286Y-81531009D01*
X128114286Y-81531009D02*
X128161905Y-81483390D01*
X128161905Y-81483390D02*
X128257143Y-81435771D01*
X128257143Y-81435771D02*
X128495238Y-81435771D01*
X128495238Y-81435771D02*
X128590476Y-81483390D01*
X128590476Y-81483390D02*
X128638095Y-81531009D01*
X128638095Y-81531009D02*
X128685714Y-81626247D01*
X128685714Y-81626247D02*
X128685714Y-81864342D01*
X128685714Y-81864342D02*
X128638095Y-81959580D01*
X128638095Y-81959580D02*
X128590476Y-82007200D01*
X128590476Y-82007200D02*
X128495238Y-82054819D01*
X128495238Y-82054819D02*
X128257143Y-82054819D01*
X128257143Y-82054819D02*
X128161905Y-82007200D01*
X128161905Y-82007200D02*
X128114286Y-81959580D01*
X163804819Y-97072857D02*
X163328628Y-97406190D01*
X163804819Y-97644285D02*
X162804819Y-97644285D01*
X162804819Y-97644285D02*
X162804819Y-97263333D01*
X162804819Y-97263333D02*
X162852438Y-97168095D01*
X162852438Y-97168095D02*
X162900057Y-97120476D01*
X162900057Y-97120476D02*
X162995295Y-97072857D01*
X162995295Y-97072857D02*
X163138152Y-97072857D01*
X163138152Y-97072857D02*
X163233390Y-97120476D01*
X163233390Y-97120476D02*
X163281009Y-97168095D01*
X163281009Y-97168095D02*
X163328628Y-97263333D01*
X163328628Y-97263333D02*
X163328628Y-97644285D01*
X163804819Y-96120476D02*
X163804819Y-96691904D01*
X163804819Y-96406190D02*
X162804819Y-96406190D01*
X162804819Y-96406190D02*
X162947676Y-96501428D01*
X162947676Y-96501428D02*
X163042914Y-96596666D01*
X163042914Y-96596666D02*
X163090533Y-96691904D01*
X162804819Y-95787142D02*
X162804819Y-95168095D01*
X162804819Y-95168095D02*
X163185771Y-95501428D01*
X163185771Y-95501428D02*
X163185771Y-95358571D01*
X163185771Y-95358571D02*
X163233390Y-95263333D01*
X163233390Y-95263333D02*
X163281009Y-95215714D01*
X163281009Y-95215714D02*
X163376247Y-95168095D01*
X163376247Y-95168095D02*
X163614342Y-95168095D01*
X163614342Y-95168095D02*
X163709580Y-95215714D01*
X163709580Y-95215714D02*
X163757200Y-95263333D01*
X163757200Y-95263333D02*
X163804819Y-95358571D01*
X163804819Y-95358571D02*
X163804819Y-95644285D01*
X163804819Y-95644285D02*
X163757200Y-95739523D01*
X163757200Y-95739523D02*
X163709580Y-95787142D01*
X140559580Y-78456666D02*
X140607200Y-78504285D01*
X140607200Y-78504285D02*
X140654819Y-78647142D01*
X140654819Y-78647142D02*
X140654819Y-78742380D01*
X140654819Y-78742380D02*
X140607200Y-78885237D01*
X140607200Y-78885237D02*
X140511961Y-78980475D01*
X140511961Y-78980475D02*
X140416723Y-79028094D01*
X140416723Y-79028094D02*
X140226247Y-79075713D01*
X140226247Y-79075713D02*
X140083390Y-79075713D01*
X140083390Y-79075713D02*
X139892914Y-79028094D01*
X139892914Y-79028094D02*
X139797676Y-78980475D01*
X139797676Y-78980475D02*
X139702438Y-78885237D01*
X139702438Y-78885237D02*
X139654819Y-78742380D01*
X139654819Y-78742380D02*
X139654819Y-78647142D01*
X139654819Y-78647142D02*
X139702438Y-78504285D01*
X139702438Y-78504285D02*
X139750057Y-78456666D01*
X140654819Y-77980475D02*
X140654819Y-77789999D01*
X140654819Y-77789999D02*
X140607200Y-77694761D01*
X140607200Y-77694761D02*
X140559580Y-77647142D01*
X140559580Y-77647142D02*
X140416723Y-77551904D01*
X140416723Y-77551904D02*
X140226247Y-77504285D01*
X140226247Y-77504285D02*
X139845295Y-77504285D01*
X139845295Y-77504285D02*
X139750057Y-77551904D01*
X139750057Y-77551904D02*
X139702438Y-77599523D01*
X139702438Y-77599523D02*
X139654819Y-77694761D01*
X139654819Y-77694761D02*
X139654819Y-77885237D01*
X139654819Y-77885237D02*
X139702438Y-77980475D01*
X139702438Y-77980475D02*
X139750057Y-78028094D01*
X139750057Y-78028094D02*
X139845295Y-78075713D01*
X139845295Y-78075713D02*
X140083390Y-78075713D01*
X140083390Y-78075713D02*
X140178628Y-78028094D01*
X140178628Y-78028094D02*
X140226247Y-77980475D01*
X140226247Y-77980475D02*
X140273866Y-77885237D01*
X140273866Y-77885237D02*
X140273866Y-77694761D01*
X140273866Y-77694761D02*
X140226247Y-77599523D01*
X140226247Y-77599523D02*
X140178628Y-77551904D01*
X140178628Y-77551904D02*
X140083390Y-77504285D01*
X143754819Y-102461904D02*
X143754819Y-101890476D01*
X144754819Y-102176190D02*
X143754819Y-102176190D01*
X144754819Y-101557142D02*
X143754819Y-101557142D01*
X143754819Y-101557142D02*
X143754819Y-101176190D01*
X143754819Y-101176190D02*
X143802438Y-101080952D01*
X143802438Y-101080952D02*
X143850057Y-101033333D01*
X143850057Y-101033333D02*
X143945295Y-100985714D01*
X143945295Y-100985714D02*
X144088152Y-100985714D01*
X144088152Y-100985714D02*
X144183390Y-101033333D01*
X144183390Y-101033333D02*
X144231009Y-101080952D01*
X144231009Y-101080952D02*
X144278628Y-101176190D01*
X144278628Y-101176190D02*
X144278628Y-101557142D01*
X143754819Y-100652380D02*
X143754819Y-99985714D01*
X143754819Y-99985714D02*
X144754819Y-100414285D01*
X156397080Y-90680357D02*
X156444700Y-90727976D01*
X156444700Y-90727976D02*
X156492319Y-90870833D01*
X156492319Y-90870833D02*
X156492319Y-90966071D01*
X156492319Y-90966071D02*
X156444700Y-91108928D01*
X156444700Y-91108928D02*
X156349461Y-91204166D01*
X156349461Y-91204166D02*
X156254223Y-91251785D01*
X156254223Y-91251785D02*
X156063747Y-91299404D01*
X156063747Y-91299404D02*
X155920890Y-91299404D01*
X155920890Y-91299404D02*
X155730414Y-91251785D01*
X155730414Y-91251785D02*
X155635176Y-91204166D01*
X155635176Y-91204166D02*
X155539938Y-91108928D01*
X155539938Y-91108928D02*
X155492319Y-90966071D01*
X155492319Y-90966071D02*
X155492319Y-90870833D01*
X155492319Y-90870833D02*
X155539938Y-90727976D01*
X155539938Y-90727976D02*
X155587557Y-90680357D01*
X156492319Y-89727976D02*
X156492319Y-90299404D01*
X156492319Y-90013690D02*
X155492319Y-90013690D01*
X155492319Y-90013690D02*
X155635176Y-90108928D01*
X155635176Y-90108928D02*
X155730414Y-90204166D01*
X155730414Y-90204166D02*
X155778033Y-90299404D01*
X156492319Y-89251785D02*
X156492319Y-89061309D01*
X156492319Y-89061309D02*
X156444700Y-88966071D01*
X156444700Y-88966071D02*
X156397080Y-88918452D01*
X156397080Y-88918452D02*
X156254223Y-88823214D01*
X156254223Y-88823214D02*
X156063747Y-88775595D01*
X156063747Y-88775595D02*
X155682795Y-88775595D01*
X155682795Y-88775595D02*
X155587557Y-88823214D01*
X155587557Y-88823214D02*
X155539938Y-88870833D01*
X155539938Y-88870833D02*
X155492319Y-88966071D01*
X155492319Y-88966071D02*
X155492319Y-89156547D01*
X155492319Y-89156547D02*
X155539938Y-89251785D01*
X155539938Y-89251785D02*
X155587557Y-89299404D01*
X155587557Y-89299404D02*
X155682795Y-89347023D01*
X155682795Y-89347023D02*
X155920890Y-89347023D01*
X155920890Y-89347023D02*
X156016128Y-89299404D01*
X156016128Y-89299404D02*
X156063747Y-89251785D01*
X156063747Y-89251785D02*
X156111366Y-89156547D01*
X156111366Y-89156547D02*
X156111366Y-88966071D01*
X156111366Y-88966071D02*
X156063747Y-88870833D01*
X156063747Y-88870833D02*
X156016128Y-88823214D01*
X156016128Y-88823214D02*
X155920890Y-88775595D01*
X158359580Y-99242857D02*
X158407200Y-99290476D01*
X158407200Y-99290476D02*
X158454819Y-99433333D01*
X158454819Y-99433333D02*
X158454819Y-99528571D01*
X158454819Y-99528571D02*
X158407200Y-99671428D01*
X158407200Y-99671428D02*
X158311961Y-99766666D01*
X158311961Y-99766666D02*
X158216723Y-99814285D01*
X158216723Y-99814285D02*
X158026247Y-99861904D01*
X158026247Y-99861904D02*
X157883390Y-99861904D01*
X157883390Y-99861904D02*
X157692914Y-99814285D01*
X157692914Y-99814285D02*
X157597676Y-99766666D01*
X157597676Y-99766666D02*
X157502438Y-99671428D01*
X157502438Y-99671428D02*
X157454819Y-99528571D01*
X157454819Y-99528571D02*
X157454819Y-99433333D01*
X157454819Y-99433333D02*
X157502438Y-99290476D01*
X157502438Y-99290476D02*
X157550057Y-99242857D01*
X157550057Y-98861904D02*
X157502438Y-98814285D01*
X157502438Y-98814285D02*
X157454819Y-98719047D01*
X157454819Y-98719047D02*
X157454819Y-98480952D01*
X157454819Y-98480952D02*
X157502438Y-98385714D01*
X157502438Y-98385714D02*
X157550057Y-98338095D01*
X157550057Y-98338095D02*
X157645295Y-98290476D01*
X157645295Y-98290476D02*
X157740533Y-98290476D01*
X157740533Y-98290476D02*
X157883390Y-98338095D01*
X157883390Y-98338095D02*
X158454819Y-98909523D01*
X158454819Y-98909523D02*
X158454819Y-98290476D01*
X157454819Y-97957142D02*
X157454819Y-97338095D01*
X157454819Y-97338095D02*
X157835771Y-97671428D01*
X157835771Y-97671428D02*
X157835771Y-97528571D01*
X157835771Y-97528571D02*
X157883390Y-97433333D01*
X157883390Y-97433333D02*
X157931009Y-97385714D01*
X157931009Y-97385714D02*
X158026247Y-97338095D01*
X158026247Y-97338095D02*
X158264342Y-97338095D01*
X158264342Y-97338095D02*
X158359580Y-97385714D01*
X158359580Y-97385714D02*
X158407200Y-97433333D01*
X158407200Y-97433333D02*
X158454819Y-97528571D01*
X158454819Y-97528571D02*
X158454819Y-97814285D01*
X158454819Y-97814285D02*
X158407200Y-97909523D01*
X158407200Y-97909523D02*
X158359580Y-97957142D01*
X136359580Y-105642857D02*
X136407200Y-105690476D01*
X136407200Y-105690476D02*
X136454819Y-105833333D01*
X136454819Y-105833333D02*
X136454819Y-105928571D01*
X136454819Y-105928571D02*
X136407200Y-106071428D01*
X136407200Y-106071428D02*
X136311961Y-106166666D01*
X136311961Y-106166666D02*
X136216723Y-106214285D01*
X136216723Y-106214285D02*
X136026247Y-106261904D01*
X136026247Y-106261904D02*
X135883390Y-106261904D01*
X135883390Y-106261904D02*
X135692914Y-106214285D01*
X135692914Y-106214285D02*
X135597676Y-106166666D01*
X135597676Y-106166666D02*
X135502438Y-106071428D01*
X135502438Y-106071428D02*
X135454819Y-105928571D01*
X135454819Y-105928571D02*
X135454819Y-105833333D01*
X135454819Y-105833333D02*
X135502438Y-105690476D01*
X135502438Y-105690476D02*
X135550057Y-105642857D01*
X135550057Y-105261904D02*
X135502438Y-105214285D01*
X135502438Y-105214285D02*
X135454819Y-105119047D01*
X135454819Y-105119047D02*
X135454819Y-104880952D01*
X135454819Y-104880952D02*
X135502438Y-104785714D01*
X135502438Y-104785714D02*
X135550057Y-104738095D01*
X135550057Y-104738095D02*
X135645295Y-104690476D01*
X135645295Y-104690476D02*
X135740533Y-104690476D01*
X135740533Y-104690476D02*
X135883390Y-104738095D01*
X135883390Y-104738095D02*
X136454819Y-105309523D01*
X136454819Y-105309523D02*
X136454819Y-104690476D01*
X135550057Y-104309523D02*
X135502438Y-104261904D01*
X135502438Y-104261904D02*
X135454819Y-104166666D01*
X135454819Y-104166666D02*
X135454819Y-103928571D01*
X135454819Y-103928571D02*
X135502438Y-103833333D01*
X135502438Y-103833333D02*
X135550057Y-103785714D01*
X135550057Y-103785714D02*
X135645295Y-103738095D01*
X135645295Y-103738095D02*
X135740533Y-103738095D01*
X135740533Y-103738095D02*
X135883390Y-103785714D01*
X135883390Y-103785714D02*
X136454819Y-104357142D01*
X136454819Y-104357142D02*
X136454819Y-103738095D01*
X133954819Y-94342857D02*
X133478628Y-94676190D01*
X133954819Y-94914285D02*
X132954819Y-94914285D01*
X132954819Y-94914285D02*
X132954819Y-94533333D01*
X132954819Y-94533333D02*
X133002438Y-94438095D01*
X133002438Y-94438095D02*
X133050057Y-94390476D01*
X133050057Y-94390476D02*
X133145295Y-94342857D01*
X133145295Y-94342857D02*
X133288152Y-94342857D01*
X133288152Y-94342857D02*
X133383390Y-94390476D01*
X133383390Y-94390476D02*
X133431009Y-94438095D01*
X133431009Y-94438095D02*
X133478628Y-94533333D01*
X133478628Y-94533333D02*
X133478628Y-94914285D01*
X133954819Y-93390476D02*
X133954819Y-93961904D01*
X133954819Y-93676190D02*
X132954819Y-93676190D01*
X132954819Y-93676190D02*
X133097676Y-93771428D01*
X133097676Y-93771428D02*
X133192914Y-93866666D01*
X133192914Y-93866666D02*
X133240533Y-93961904D01*
X132954819Y-92771428D02*
X132954819Y-92676190D01*
X132954819Y-92676190D02*
X133002438Y-92580952D01*
X133002438Y-92580952D02*
X133050057Y-92533333D01*
X133050057Y-92533333D02*
X133145295Y-92485714D01*
X133145295Y-92485714D02*
X133335771Y-92438095D01*
X133335771Y-92438095D02*
X133573866Y-92438095D01*
X133573866Y-92438095D02*
X133764342Y-92485714D01*
X133764342Y-92485714D02*
X133859580Y-92533333D01*
X133859580Y-92533333D02*
X133907200Y-92580952D01*
X133907200Y-92580952D02*
X133954819Y-92676190D01*
X133954819Y-92676190D02*
X133954819Y-92771428D01*
X133954819Y-92771428D02*
X133907200Y-92866666D01*
X133907200Y-92866666D02*
X133859580Y-92914285D01*
X133859580Y-92914285D02*
X133764342Y-92961904D01*
X133764342Y-92961904D02*
X133573866Y-93009523D01*
X133573866Y-93009523D02*
X133335771Y-93009523D01*
X133335771Y-93009523D02*
X133145295Y-92961904D01*
X133145295Y-92961904D02*
X133050057Y-92914285D01*
X133050057Y-92914285D02*
X133002438Y-92866666D01*
X133002438Y-92866666D02*
X132954819Y-92771428D01*
X141154819Y-74179602D02*
X140678628Y-74512935D01*
X141154819Y-74751030D02*
X140154819Y-74751030D01*
X140154819Y-74751030D02*
X140154819Y-74370078D01*
X140154819Y-74370078D02*
X140202438Y-74274840D01*
X140202438Y-74274840D02*
X140250057Y-74227221D01*
X140250057Y-74227221D02*
X140345295Y-74179602D01*
X140345295Y-74179602D02*
X140488152Y-74179602D01*
X140488152Y-74179602D02*
X140583390Y-74227221D01*
X140583390Y-74227221D02*
X140631009Y-74274840D01*
X140631009Y-74274840D02*
X140678628Y-74370078D01*
X140678628Y-74370078D02*
X140678628Y-74751030D01*
X141154819Y-73703411D02*
X141154819Y-73512935D01*
X141154819Y-73512935D02*
X141107200Y-73417697D01*
X141107200Y-73417697D02*
X141059580Y-73370078D01*
X141059580Y-73370078D02*
X140916723Y-73274840D01*
X140916723Y-73274840D02*
X140726247Y-73227221D01*
X140726247Y-73227221D02*
X140345295Y-73227221D01*
X140345295Y-73227221D02*
X140250057Y-73274840D01*
X140250057Y-73274840D02*
X140202438Y-73322459D01*
X140202438Y-73322459D02*
X140154819Y-73417697D01*
X140154819Y-73417697D02*
X140154819Y-73608173D01*
X140154819Y-73608173D02*
X140202438Y-73703411D01*
X140202438Y-73703411D02*
X140250057Y-73751030D01*
X140250057Y-73751030D02*
X140345295Y-73798649D01*
X140345295Y-73798649D02*
X140583390Y-73798649D01*
X140583390Y-73798649D02*
X140678628Y-73751030D01*
X140678628Y-73751030D02*
X140726247Y-73703411D01*
X140726247Y-73703411D02*
X140773866Y-73608173D01*
X140773866Y-73608173D02*
X140773866Y-73417697D01*
X140773866Y-73417697D02*
X140726247Y-73322459D01*
X140726247Y-73322459D02*
X140678628Y-73274840D01*
X140678628Y-73274840D02*
X140583390Y-73227221D01*
X136054819Y-90361904D02*
X136054819Y-89790476D01*
X137054819Y-90076190D02*
X136054819Y-90076190D01*
X137054819Y-89457142D02*
X136054819Y-89457142D01*
X136054819Y-89457142D02*
X136054819Y-89076190D01*
X136054819Y-89076190D02*
X136102438Y-88980952D01*
X136102438Y-88980952D02*
X136150057Y-88933333D01*
X136150057Y-88933333D02*
X136245295Y-88885714D01*
X136245295Y-88885714D02*
X136388152Y-88885714D01*
X136388152Y-88885714D02*
X136483390Y-88933333D01*
X136483390Y-88933333D02*
X136531009Y-88980952D01*
X136531009Y-88980952D02*
X136578628Y-89076190D01*
X136578628Y-89076190D02*
X136578628Y-89457142D01*
X136054819Y-87980952D02*
X136054819Y-88457142D01*
X136054819Y-88457142D02*
X136531009Y-88504761D01*
X136531009Y-88504761D02*
X136483390Y-88457142D01*
X136483390Y-88457142D02*
X136435771Y-88361904D01*
X136435771Y-88361904D02*
X136435771Y-88123809D01*
X136435771Y-88123809D02*
X136483390Y-88028571D01*
X136483390Y-88028571D02*
X136531009Y-87980952D01*
X136531009Y-87980952D02*
X136626247Y-87933333D01*
X136626247Y-87933333D02*
X136864342Y-87933333D01*
X136864342Y-87933333D02*
X136959580Y-87980952D01*
X136959580Y-87980952D02*
X137007200Y-88028571D01*
X137007200Y-88028571D02*
X137054819Y-88123809D01*
X137054819Y-88123809D02*
X137054819Y-88361904D01*
X137054819Y-88361904D02*
X137007200Y-88457142D01*
X137007200Y-88457142D02*
X136959580Y-88504761D01*
X133954819Y-105642857D02*
X133478628Y-105976190D01*
X133954819Y-106214285D02*
X132954819Y-106214285D01*
X132954819Y-106214285D02*
X132954819Y-105833333D01*
X132954819Y-105833333D02*
X133002438Y-105738095D01*
X133002438Y-105738095D02*
X133050057Y-105690476D01*
X133050057Y-105690476D02*
X133145295Y-105642857D01*
X133145295Y-105642857D02*
X133288152Y-105642857D01*
X133288152Y-105642857D02*
X133383390Y-105690476D01*
X133383390Y-105690476D02*
X133431009Y-105738095D01*
X133431009Y-105738095D02*
X133478628Y-105833333D01*
X133478628Y-105833333D02*
X133478628Y-106214285D01*
X133954819Y-104690476D02*
X133954819Y-105261904D01*
X133954819Y-104976190D02*
X132954819Y-104976190D01*
X132954819Y-104976190D02*
X133097676Y-105071428D01*
X133097676Y-105071428D02*
X133192914Y-105166666D01*
X133192914Y-105166666D02*
X133240533Y-105261904D01*
X133954819Y-104214285D02*
X133954819Y-104023809D01*
X133954819Y-104023809D02*
X133907200Y-103928571D01*
X133907200Y-103928571D02*
X133859580Y-103880952D01*
X133859580Y-103880952D02*
X133716723Y-103785714D01*
X133716723Y-103785714D02*
X133526247Y-103738095D01*
X133526247Y-103738095D02*
X133145295Y-103738095D01*
X133145295Y-103738095D02*
X133050057Y-103785714D01*
X133050057Y-103785714D02*
X133002438Y-103833333D01*
X133002438Y-103833333D02*
X132954819Y-103928571D01*
X132954819Y-103928571D02*
X132954819Y-104119047D01*
X132954819Y-104119047D02*
X133002438Y-104214285D01*
X133002438Y-104214285D02*
X133050057Y-104261904D01*
X133050057Y-104261904D02*
X133145295Y-104309523D01*
X133145295Y-104309523D02*
X133383390Y-104309523D01*
X133383390Y-104309523D02*
X133478628Y-104261904D01*
X133478628Y-104261904D02*
X133526247Y-104214285D01*
X133526247Y-104214285D02*
X133573866Y-104119047D01*
X133573866Y-104119047D02*
X133573866Y-103928571D01*
X133573866Y-103928571D02*
X133526247Y-103833333D01*
X133526247Y-103833333D02*
X133478628Y-103785714D01*
X133478628Y-103785714D02*
X133383390Y-103738095D01*
X154238095Y-87054819D02*
X154809523Y-87054819D01*
X154523809Y-88054819D02*
X154523809Y-87054819D01*
X155142857Y-88054819D02*
X155142857Y-87054819D01*
X155142857Y-87054819D02*
X155523809Y-87054819D01*
X155523809Y-87054819D02*
X155619047Y-87102438D01*
X155619047Y-87102438D02*
X155666666Y-87150057D01*
X155666666Y-87150057D02*
X155714285Y-87245295D01*
X155714285Y-87245295D02*
X155714285Y-87388152D01*
X155714285Y-87388152D02*
X155666666Y-87483390D01*
X155666666Y-87483390D02*
X155619047Y-87531009D01*
X155619047Y-87531009D02*
X155523809Y-87578628D01*
X155523809Y-87578628D02*
X155142857Y-87578628D01*
X156095238Y-87150057D02*
X156142857Y-87102438D01*
X156142857Y-87102438D02*
X156238095Y-87054819D01*
X156238095Y-87054819D02*
X156476190Y-87054819D01*
X156476190Y-87054819D02*
X156571428Y-87102438D01*
X156571428Y-87102438D02*
X156619047Y-87150057D01*
X156619047Y-87150057D02*
X156666666Y-87245295D01*
X156666666Y-87245295D02*
X156666666Y-87340533D01*
X156666666Y-87340533D02*
X156619047Y-87483390D01*
X156619047Y-87483390D02*
X156047619Y-88054819D01*
X156047619Y-88054819D02*
X156666666Y-88054819D01*
X133204819Y-85111904D02*
X134014342Y-85111904D01*
X134014342Y-85111904D02*
X134109580Y-85064285D01*
X134109580Y-85064285D02*
X134157200Y-85016666D01*
X134157200Y-85016666D02*
X134204819Y-84921428D01*
X134204819Y-84921428D02*
X134204819Y-84730952D01*
X134204819Y-84730952D02*
X134157200Y-84635714D01*
X134157200Y-84635714D02*
X134109580Y-84588095D01*
X134109580Y-84588095D02*
X134014342Y-84540476D01*
X134014342Y-84540476D02*
X133204819Y-84540476D01*
X133204819Y-83635714D02*
X133204819Y-83826190D01*
X133204819Y-83826190D02*
X133252438Y-83921428D01*
X133252438Y-83921428D02*
X133300057Y-83969047D01*
X133300057Y-83969047D02*
X133442914Y-84064285D01*
X133442914Y-84064285D02*
X133633390Y-84111904D01*
X133633390Y-84111904D02*
X134014342Y-84111904D01*
X134014342Y-84111904D02*
X134109580Y-84064285D01*
X134109580Y-84064285D02*
X134157200Y-84016666D01*
X134157200Y-84016666D02*
X134204819Y-83921428D01*
X134204819Y-83921428D02*
X134204819Y-83730952D01*
X134204819Y-83730952D02*
X134157200Y-83635714D01*
X134157200Y-83635714D02*
X134109580Y-83588095D01*
X134109580Y-83588095D02*
X134014342Y-83540476D01*
X134014342Y-83540476D02*
X133776247Y-83540476D01*
X133776247Y-83540476D02*
X133681009Y-83588095D01*
X133681009Y-83588095D02*
X133633390Y-83635714D01*
X133633390Y-83635714D02*
X133585771Y-83730952D01*
X133585771Y-83730952D02*
X133585771Y-83921428D01*
X133585771Y-83921428D02*
X133633390Y-84016666D01*
X133633390Y-84016666D02*
X133681009Y-84064285D01*
X133681009Y-84064285D02*
X133776247Y-84111904D01*
X127633333Y-87659580D02*
X127585714Y-87707200D01*
X127585714Y-87707200D02*
X127442857Y-87754819D01*
X127442857Y-87754819D02*
X127347619Y-87754819D01*
X127347619Y-87754819D02*
X127204762Y-87707200D01*
X127204762Y-87707200D02*
X127109524Y-87611961D01*
X127109524Y-87611961D02*
X127061905Y-87516723D01*
X127061905Y-87516723D02*
X127014286Y-87326247D01*
X127014286Y-87326247D02*
X127014286Y-87183390D01*
X127014286Y-87183390D02*
X127061905Y-86992914D01*
X127061905Y-86992914D02*
X127109524Y-86897676D01*
X127109524Y-86897676D02*
X127204762Y-86802438D01*
X127204762Y-86802438D02*
X127347619Y-86754819D01*
X127347619Y-86754819D02*
X127442857Y-86754819D01*
X127442857Y-86754819D02*
X127585714Y-86802438D01*
X127585714Y-86802438D02*
X127633333Y-86850057D01*
X127966667Y-86754819D02*
X128585714Y-86754819D01*
X128585714Y-86754819D02*
X128252381Y-87135771D01*
X128252381Y-87135771D02*
X128395238Y-87135771D01*
X128395238Y-87135771D02*
X128490476Y-87183390D01*
X128490476Y-87183390D02*
X128538095Y-87231009D01*
X128538095Y-87231009D02*
X128585714Y-87326247D01*
X128585714Y-87326247D02*
X128585714Y-87564342D01*
X128585714Y-87564342D02*
X128538095Y-87659580D01*
X128538095Y-87659580D02*
X128490476Y-87707200D01*
X128490476Y-87707200D02*
X128395238Y-87754819D01*
X128395238Y-87754819D02*
X128109524Y-87754819D01*
X128109524Y-87754819D02*
X128014286Y-87707200D01*
X128014286Y-87707200D02*
X127966667Y-87659580D01*
X166833333Y-100854819D02*
X166500000Y-100378628D01*
X166261905Y-100854819D02*
X166261905Y-99854819D01*
X166261905Y-99854819D02*
X166642857Y-99854819D01*
X166642857Y-99854819D02*
X166738095Y-99902438D01*
X166738095Y-99902438D02*
X166785714Y-99950057D01*
X166785714Y-99950057D02*
X166833333Y-100045295D01*
X166833333Y-100045295D02*
X166833333Y-100188152D01*
X166833333Y-100188152D02*
X166785714Y-100283390D01*
X166785714Y-100283390D02*
X166738095Y-100331009D01*
X166738095Y-100331009D02*
X166642857Y-100378628D01*
X166642857Y-100378628D02*
X166261905Y-100378628D01*
X167214286Y-99950057D02*
X167261905Y-99902438D01*
X167261905Y-99902438D02*
X167357143Y-99854819D01*
X167357143Y-99854819D02*
X167595238Y-99854819D01*
X167595238Y-99854819D02*
X167690476Y-99902438D01*
X167690476Y-99902438D02*
X167738095Y-99950057D01*
X167738095Y-99950057D02*
X167785714Y-100045295D01*
X167785714Y-100045295D02*
X167785714Y-100140533D01*
X167785714Y-100140533D02*
X167738095Y-100283390D01*
X167738095Y-100283390D02*
X167166667Y-100854819D01*
X167166667Y-100854819D02*
X167785714Y-100854819D01*
X143450057Y-94195238D02*
X143402438Y-94290476D01*
X143402438Y-94290476D02*
X143307200Y-94385714D01*
X143307200Y-94385714D02*
X143164342Y-94528571D01*
X143164342Y-94528571D02*
X143116723Y-94623809D01*
X143116723Y-94623809D02*
X143116723Y-94719047D01*
X143354819Y-94671428D02*
X143307200Y-94766666D01*
X143307200Y-94766666D02*
X143211961Y-94861904D01*
X143211961Y-94861904D02*
X143021485Y-94909523D01*
X143021485Y-94909523D02*
X142688152Y-94909523D01*
X142688152Y-94909523D02*
X142497676Y-94861904D01*
X142497676Y-94861904D02*
X142402438Y-94766666D01*
X142402438Y-94766666D02*
X142354819Y-94671428D01*
X142354819Y-94671428D02*
X142354819Y-94480952D01*
X142354819Y-94480952D02*
X142402438Y-94385714D01*
X142402438Y-94385714D02*
X142497676Y-94290476D01*
X142497676Y-94290476D02*
X142688152Y-94242857D01*
X142688152Y-94242857D02*
X143021485Y-94242857D01*
X143021485Y-94242857D02*
X143211961Y-94290476D01*
X143211961Y-94290476D02*
X143307200Y-94385714D01*
X143307200Y-94385714D02*
X143354819Y-94480952D01*
X143354819Y-94480952D02*
X143354819Y-94671428D01*
X143354819Y-93290476D02*
X143354819Y-93861904D01*
X143354819Y-93576190D02*
X142354819Y-93576190D01*
X142354819Y-93576190D02*
X142497676Y-93671428D01*
X142497676Y-93671428D02*
X142592914Y-93766666D01*
X142592914Y-93766666D02*
X142640533Y-93861904D01*
X124454819Y-99261904D02*
X124454819Y-98690476D01*
X125454819Y-98976190D02*
X124454819Y-98976190D01*
X125454819Y-98357142D02*
X124454819Y-98357142D01*
X124454819Y-98357142D02*
X124454819Y-97976190D01*
X124454819Y-97976190D02*
X124502438Y-97880952D01*
X124502438Y-97880952D02*
X124550057Y-97833333D01*
X124550057Y-97833333D02*
X124645295Y-97785714D01*
X124645295Y-97785714D02*
X124788152Y-97785714D01*
X124788152Y-97785714D02*
X124883390Y-97833333D01*
X124883390Y-97833333D02*
X124931009Y-97880952D01*
X124931009Y-97880952D02*
X124978628Y-97976190D01*
X124978628Y-97976190D02*
X124978628Y-98357142D01*
X124454819Y-96928571D02*
X124454819Y-97119047D01*
X124454819Y-97119047D02*
X124502438Y-97214285D01*
X124502438Y-97214285D02*
X124550057Y-97261904D01*
X124550057Y-97261904D02*
X124692914Y-97357142D01*
X124692914Y-97357142D02*
X124883390Y-97404761D01*
X124883390Y-97404761D02*
X125264342Y-97404761D01*
X125264342Y-97404761D02*
X125359580Y-97357142D01*
X125359580Y-97357142D02*
X125407200Y-97309523D01*
X125407200Y-97309523D02*
X125454819Y-97214285D01*
X125454819Y-97214285D02*
X125454819Y-97023809D01*
X125454819Y-97023809D02*
X125407200Y-96928571D01*
X125407200Y-96928571D02*
X125359580Y-96880952D01*
X125359580Y-96880952D02*
X125264342Y-96833333D01*
X125264342Y-96833333D02*
X125026247Y-96833333D01*
X125026247Y-96833333D02*
X124931009Y-96880952D01*
X124931009Y-96880952D02*
X124883390Y-96928571D01*
X124883390Y-96928571D02*
X124835771Y-97023809D01*
X124835771Y-97023809D02*
X124835771Y-97214285D01*
X124835771Y-97214285D02*
X124883390Y-97309523D01*
X124883390Y-97309523D02*
X124931009Y-97357142D01*
X124931009Y-97357142D02*
X125026247Y-97404761D01*
X127204761Y-99550057D02*
X127109523Y-99502438D01*
X127109523Y-99502438D02*
X127014285Y-99407200D01*
X127014285Y-99407200D02*
X126871428Y-99264342D01*
X126871428Y-99264342D02*
X126776190Y-99216723D01*
X126776190Y-99216723D02*
X126680952Y-99216723D01*
X126728571Y-99454819D02*
X126633333Y-99407200D01*
X126633333Y-99407200D02*
X126538095Y-99311961D01*
X126538095Y-99311961D02*
X126490476Y-99121485D01*
X126490476Y-99121485D02*
X126490476Y-98788152D01*
X126490476Y-98788152D02*
X126538095Y-98597676D01*
X126538095Y-98597676D02*
X126633333Y-98502438D01*
X126633333Y-98502438D02*
X126728571Y-98454819D01*
X126728571Y-98454819D02*
X126919047Y-98454819D01*
X126919047Y-98454819D02*
X127014285Y-98502438D01*
X127014285Y-98502438D02*
X127109523Y-98597676D01*
X127109523Y-98597676D02*
X127157142Y-98788152D01*
X127157142Y-98788152D02*
X127157142Y-99121485D01*
X127157142Y-99121485D02*
X127109523Y-99311961D01*
X127109523Y-99311961D02*
X127014285Y-99407200D01*
X127014285Y-99407200D02*
X126919047Y-99454819D01*
X126919047Y-99454819D02*
X126728571Y-99454819D01*
X127490476Y-98454819D02*
X128109523Y-98454819D01*
X128109523Y-98454819D02*
X127776190Y-98835771D01*
X127776190Y-98835771D02*
X127919047Y-98835771D01*
X127919047Y-98835771D02*
X128014285Y-98883390D01*
X128014285Y-98883390D02*
X128061904Y-98931009D01*
X128061904Y-98931009D02*
X128109523Y-99026247D01*
X128109523Y-99026247D02*
X128109523Y-99264342D01*
X128109523Y-99264342D02*
X128061904Y-99359580D01*
X128061904Y-99359580D02*
X128014285Y-99407200D01*
X128014285Y-99407200D02*
X127919047Y-99454819D01*
X127919047Y-99454819D02*
X127633333Y-99454819D01*
X127633333Y-99454819D02*
X127538095Y-99407200D01*
X127538095Y-99407200D02*
X127490476Y-99359580D01*
X133859580Y-89842857D02*
X133907200Y-89890476D01*
X133907200Y-89890476D02*
X133954819Y-90033333D01*
X133954819Y-90033333D02*
X133954819Y-90128571D01*
X133954819Y-90128571D02*
X133907200Y-90271428D01*
X133907200Y-90271428D02*
X133811961Y-90366666D01*
X133811961Y-90366666D02*
X133716723Y-90414285D01*
X133716723Y-90414285D02*
X133526247Y-90461904D01*
X133526247Y-90461904D02*
X133383390Y-90461904D01*
X133383390Y-90461904D02*
X133192914Y-90414285D01*
X133192914Y-90414285D02*
X133097676Y-90366666D01*
X133097676Y-90366666D02*
X133002438Y-90271428D01*
X133002438Y-90271428D02*
X132954819Y-90128571D01*
X132954819Y-90128571D02*
X132954819Y-90033333D01*
X132954819Y-90033333D02*
X133002438Y-89890476D01*
X133002438Y-89890476D02*
X133050057Y-89842857D01*
X133954819Y-88890476D02*
X133954819Y-89461904D01*
X133954819Y-89176190D02*
X132954819Y-89176190D01*
X132954819Y-89176190D02*
X133097676Y-89271428D01*
X133097676Y-89271428D02*
X133192914Y-89366666D01*
X133192914Y-89366666D02*
X133240533Y-89461904D01*
X133954819Y-87938095D02*
X133954819Y-88509523D01*
X133954819Y-88223809D02*
X132954819Y-88223809D01*
X132954819Y-88223809D02*
X133097676Y-88319047D01*
X133097676Y-88319047D02*
X133192914Y-88414285D01*
X133192914Y-88414285D02*
X133240533Y-88509523D01*
X119428571Y-73481009D02*
X119095238Y-73481009D01*
X119095238Y-74004819D02*
X119095238Y-73004819D01*
X119095238Y-73004819D02*
X119571428Y-73004819D01*
X119952381Y-74004819D02*
X119952381Y-73004819D01*
X120428571Y-74004819D02*
X120428571Y-73004819D01*
X120428571Y-73004819D02*
X120666666Y-73004819D01*
X120666666Y-73004819D02*
X120809523Y-73052438D01*
X120809523Y-73052438D02*
X120904761Y-73147676D01*
X120904761Y-73147676D02*
X120952380Y-73242914D01*
X120952380Y-73242914D02*
X120999999Y-73433390D01*
X120999999Y-73433390D02*
X120999999Y-73576247D01*
X120999999Y-73576247D02*
X120952380Y-73766723D01*
X120952380Y-73766723D02*
X120904761Y-73861961D01*
X120904761Y-73861961D02*
X120809523Y-73957200D01*
X120809523Y-73957200D02*
X120666666Y-74004819D01*
X120666666Y-74004819D02*
X120428571Y-74004819D01*
X121380952Y-73100057D02*
X121428571Y-73052438D01*
X121428571Y-73052438D02*
X121523809Y-73004819D01*
X121523809Y-73004819D02*
X121761904Y-73004819D01*
X121761904Y-73004819D02*
X121857142Y-73052438D01*
X121857142Y-73052438D02*
X121904761Y-73100057D01*
X121904761Y-73100057D02*
X121952380Y-73195295D01*
X121952380Y-73195295D02*
X121952380Y-73290533D01*
X121952380Y-73290533D02*
X121904761Y-73433390D01*
X121904761Y-73433390D02*
X121333333Y-74004819D01*
X121333333Y-74004819D02*
X121952380Y-74004819D01*
X139859580Y-92142857D02*
X139907200Y-92190476D01*
X139907200Y-92190476D02*
X139954819Y-92333333D01*
X139954819Y-92333333D02*
X139954819Y-92428571D01*
X139954819Y-92428571D02*
X139907200Y-92571428D01*
X139907200Y-92571428D02*
X139811961Y-92666666D01*
X139811961Y-92666666D02*
X139716723Y-92714285D01*
X139716723Y-92714285D02*
X139526247Y-92761904D01*
X139526247Y-92761904D02*
X139383390Y-92761904D01*
X139383390Y-92761904D02*
X139192914Y-92714285D01*
X139192914Y-92714285D02*
X139097676Y-92666666D01*
X139097676Y-92666666D02*
X139002438Y-92571428D01*
X139002438Y-92571428D02*
X138954819Y-92428571D01*
X138954819Y-92428571D02*
X138954819Y-92333333D01*
X138954819Y-92333333D02*
X139002438Y-92190476D01*
X139002438Y-92190476D02*
X139050057Y-92142857D01*
X139954819Y-91190476D02*
X139954819Y-91761904D01*
X139954819Y-91476190D02*
X138954819Y-91476190D01*
X138954819Y-91476190D02*
X139097676Y-91571428D01*
X139097676Y-91571428D02*
X139192914Y-91666666D01*
X139192914Y-91666666D02*
X139240533Y-91761904D01*
X138954819Y-90857142D02*
X138954819Y-90238095D01*
X138954819Y-90238095D02*
X139335771Y-90571428D01*
X139335771Y-90571428D02*
X139335771Y-90428571D01*
X139335771Y-90428571D02*
X139383390Y-90333333D01*
X139383390Y-90333333D02*
X139431009Y-90285714D01*
X139431009Y-90285714D02*
X139526247Y-90238095D01*
X139526247Y-90238095D02*
X139764342Y-90238095D01*
X139764342Y-90238095D02*
X139859580Y-90285714D01*
X139859580Y-90285714D02*
X139907200Y-90333333D01*
X139907200Y-90333333D02*
X139954819Y-90428571D01*
X139954819Y-90428571D02*
X139954819Y-90714285D01*
X139954819Y-90714285D02*
X139907200Y-90809523D01*
X139907200Y-90809523D02*
X139859580Y-90857142D01*
X164428571Y-105931009D02*
X164095238Y-105931009D01*
X164095238Y-106454819D02*
X164095238Y-105454819D01*
X164095238Y-105454819D02*
X164571428Y-105454819D01*
X164952381Y-106454819D02*
X164952381Y-105454819D01*
X165428571Y-106454819D02*
X165428571Y-105454819D01*
X165428571Y-105454819D02*
X165666666Y-105454819D01*
X165666666Y-105454819D02*
X165809523Y-105502438D01*
X165809523Y-105502438D02*
X165904761Y-105597676D01*
X165904761Y-105597676D02*
X165952380Y-105692914D01*
X165952380Y-105692914D02*
X165999999Y-105883390D01*
X165999999Y-105883390D02*
X165999999Y-106026247D01*
X165999999Y-106026247D02*
X165952380Y-106216723D01*
X165952380Y-106216723D02*
X165904761Y-106311961D01*
X165904761Y-106311961D02*
X165809523Y-106407200D01*
X165809523Y-106407200D02*
X165666666Y-106454819D01*
X165666666Y-106454819D02*
X165428571Y-106454819D01*
X166333333Y-105454819D02*
X166952380Y-105454819D01*
X166952380Y-105454819D02*
X166619047Y-105835771D01*
X166619047Y-105835771D02*
X166761904Y-105835771D01*
X166761904Y-105835771D02*
X166857142Y-105883390D01*
X166857142Y-105883390D02*
X166904761Y-105931009D01*
X166904761Y-105931009D02*
X166952380Y-106026247D01*
X166952380Y-106026247D02*
X166952380Y-106264342D01*
X166952380Y-106264342D02*
X166904761Y-106359580D01*
X166904761Y-106359580D02*
X166857142Y-106407200D01*
X166857142Y-106407200D02*
X166761904Y-106454819D01*
X166761904Y-106454819D02*
X166476190Y-106454819D01*
X166476190Y-106454819D02*
X166380952Y-106407200D01*
X166380952Y-106407200D02*
X166333333Y-106359580D01*
X156738095Y-76506819D02*
X157309523Y-76506819D01*
X157023809Y-77506819D02*
X157023809Y-76506819D01*
X157642857Y-77506819D02*
X157642857Y-76506819D01*
X157642857Y-76506819D02*
X158023809Y-76506819D01*
X158023809Y-76506819D02*
X158119047Y-76554438D01*
X158119047Y-76554438D02*
X158166666Y-76602057D01*
X158166666Y-76602057D02*
X158214285Y-76697295D01*
X158214285Y-76697295D02*
X158214285Y-76840152D01*
X158214285Y-76840152D02*
X158166666Y-76935390D01*
X158166666Y-76935390D02*
X158119047Y-76983009D01*
X158119047Y-76983009D02*
X158023809Y-77030628D01*
X158023809Y-77030628D02*
X157642857Y-77030628D01*
X158785714Y-76935390D02*
X158690476Y-76887771D01*
X158690476Y-76887771D02*
X158642857Y-76840152D01*
X158642857Y-76840152D02*
X158595238Y-76744914D01*
X158595238Y-76744914D02*
X158595238Y-76697295D01*
X158595238Y-76697295D02*
X158642857Y-76602057D01*
X158642857Y-76602057D02*
X158690476Y-76554438D01*
X158690476Y-76554438D02*
X158785714Y-76506819D01*
X158785714Y-76506819D02*
X158976190Y-76506819D01*
X158976190Y-76506819D02*
X159071428Y-76554438D01*
X159071428Y-76554438D02*
X159119047Y-76602057D01*
X159119047Y-76602057D02*
X159166666Y-76697295D01*
X159166666Y-76697295D02*
X159166666Y-76744914D01*
X159166666Y-76744914D02*
X159119047Y-76840152D01*
X159119047Y-76840152D02*
X159071428Y-76887771D01*
X159071428Y-76887771D02*
X158976190Y-76935390D01*
X158976190Y-76935390D02*
X158785714Y-76935390D01*
X158785714Y-76935390D02*
X158690476Y-76983009D01*
X158690476Y-76983009D02*
X158642857Y-77030628D01*
X158642857Y-77030628D02*
X158595238Y-77125866D01*
X158595238Y-77125866D02*
X158595238Y-77316342D01*
X158595238Y-77316342D02*
X158642857Y-77411580D01*
X158642857Y-77411580D02*
X158690476Y-77459200D01*
X158690476Y-77459200D02*
X158785714Y-77506819D01*
X158785714Y-77506819D02*
X158976190Y-77506819D01*
X158976190Y-77506819D02*
X159071428Y-77459200D01*
X159071428Y-77459200D02*
X159119047Y-77411580D01*
X159119047Y-77411580D02*
X159166666Y-77316342D01*
X159166666Y-77316342D02*
X159166666Y-77125866D01*
X159166666Y-77125866D02*
X159119047Y-77030628D01*
X159119047Y-77030628D02*
X159071428Y-76983009D01*
X159071428Y-76983009D02*
X158976190Y-76935390D01*
X153554819Y-92961904D02*
X153554819Y-92390476D01*
X154554819Y-92676190D02*
X153554819Y-92676190D01*
X154554819Y-92057142D02*
X153554819Y-92057142D01*
X153554819Y-92057142D02*
X153554819Y-91676190D01*
X153554819Y-91676190D02*
X153602438Y-91580952D01*
X153602438Y-91580952D02*
X153650057Y-91533333D01*
X153650057Y-91533333D02*
X153745295Y-91485714D01*
X153745295Y-91485714D02*
X153888152Y-91485714D01*
X153888152Y-91485714D02*
X153983390Y-91533333D01*
X153983390Y-91533333D02*
X154031009Y-91580952D01*
X154031009Y-91580952D02*
X154078628Y-91676190D01*
X154078628Y-91676190D02*
X154078628Y-92057142D01*
X154554819Y-90533333D02*
X154554819Y-91104761D01*
X154554819Y-90819047D02*
X153554819Y-90819047D01*
X153554819Y-90819047D02*
X153697676Y-90914285D01*
X153697676Y-90914285D02*
X153792914Y-91009523D01*
X153792914Y-91009523D02*
X153840533Y-91104761D01*
X124631009Y-90185714D02*
X124678628Y-90042857D01*
X124678628Y-90042857D02*
X124726247Y-89995238D01*
X124726247Y-89995238D02*
X124821485Y-89947619D01*
X124821485Y-89947619D02*
X124964342Y-89947619D01*
X124964342Y-89947619D02*
X125059580Y-89995238D01*
X125059580Y-89995238D02*
X125107200Y-90042857D01*
X125107200Y-90042857D02*
X125154819Y-90138095D01*
X125154819Y-90138095D02*
X125154819Y-90519047D01*
X125154819Y-90519047D02*
X124154819Y-90519047D01*
X124154819Y-90519047D02*
X124154819Y-90185714D01*
X124154819Y-90185714D02*
X124202438Y-90090476D01*
X124202438Y-90090476D02*
X124250057Y-90042857D01*
X124250057Y-90042857D02*
X124345295Y-89995238D01*
X124345295Y-89995238D02*
X124440533Y-89995238D01*
X124440533Y-89995238D02*
X124535771Y-90042857D01*
X124535771Y-90042857D02*
X124583390Y-90090476D01*
X124583390Y-90090476D02*
X124631009Y-90185714D01*
X124631009Y-90185714D02*
X124631009Y-90519047D01*
X124154819Y-89661904D02*
X124154819Y-89090476D01*
X125154819Y-89376190D02*
X124154819Y-89376190D01*
X124154819Y-88852380D02*
X124154819Y-88233333D01*
X124154819Y-88233333D02*
X124535771Y-88566666D01*
X124535771Y-88566666D02*
X124535771Y-88423809D01*
X124535771Y-88423809D02*
X124583390Y-88328571D01*
X124583390Y-88328571D02*
X124631009Y-88280952D01*
X124631009Y-88280952D02*
X124726247Y-88233333D01*
X124726247Y-88233333D02*
X124964342Y-88233333D01*
X124964342Y-88233333D02*
X125059580Y-88280952D01*
X125059580Y-88280952D02*
X125107200Y-88328571D01*
X125107200Y-88328571D02*
X125154819Y-88423809D01*
X125154819Y-88423809D02*
X125154819Y-88709523D01*
X125154819Y-88709523D02*
X125107200Y-88804761D01*
X125107200Y-88804761D02*
X125059580Y-88852380D01*
X169654819Y-92242857D02*
X169178628Y-92576190D01*
X169654819Y-92814285D02*
X168654819Y-92814285D01*
X168654819Y-92814285D02*
X168654819Y-92433333D01*
X168654819Y-92433333D02*
X168702438Y-92338095D01*
X168702438Y-92338095D02*
X168750057Y-92290476D01*
X168750057Y-92290476D02*
X168845295Y-92242857D01*
X168845295Y-92242857D02*
X168988152Y-92242857D01*
X168988152Y-92242857D02*
X169083390Y-92290476D01*
X169083390Y-92290476D02*
X169131009Y-92338095D01*
X169131009Y-92338095D02*
X169178628Y-92433333D01*
X169178628Y-92433333D02*
X169178628Y-92814285D01*
X169654819Y-91290476D02*
X169654819Y-91861904D01*
X169654819Y-91576190D02*
X168654819Y-91576190D01*
X168654819Y-91576190D02*
X168797676Y-91671428D01*
X168797676Y-91671428D02*
X168892914Y-91766666D01*
X168892914Y-91766666D02*
X168940533Y-91861904D01*
X168750057Y-90909523D02*
X168702438Y-90861904D01*
X168702438Y-90861904D02*
X168654819Y-90766666D01*
X168654819Y-90766666D02*
X168654819Y-90528571D01*
X168654819Y-90528571D02*
X168702438Y-90433333D01*
X168702438Y-90433333D02*
X168750057Y-90385714D01*
X168750057Y-90385714D02*
X168845295Y-90338095D01*
X168845295Y-90338095D02*
X168940533Y-90338095D01*
X168940533Y-90338095D02*
X169083390Y-90385714D01*
X169083390Y-90385714D02*
X169654819Y-90957142D01*
X169654819Y-90957142D02*
X169654819Y-90338095D01*
X131739580Y-74882857D02*
X131787200Y-74930476D01*
X131787200Y-74930476D02*
X131834819Y-75073333D01*
X131834819Y-75073333D02*
X131834819Y-75168571D01*
X131834819Y-75168571D02*
X131787200Y-75311428D01*
X131787200Y-75311428D02*
X131691961Y-75406666D01*
X131691961Y-75406666D02*
X131596723Y-75454285D01*
X131596723Y-75454285D02*
X131406247Y-75501904D01*
X131406247Y-75501904D02*
X131263390Y-75501904D01*
X131263390Y-75501904D02*
X131072914Y-75454285D01*
X131072914Y-75454285D02*
X130977676Y-75406666D01*
X130977676Y-75406666D02*
X130882438Y-75311428D01*
X130882438Y-75311428D02*
X130834819Y-75168571D01*
X130834819Y-75168571D02*
X130834819Y-75073333D01*
X130834819Y-75073333D02*
X130882438Y-74930476D01*
X130882438Y-74930476D02*
X130930057Y-74882857D01*
X131834819Y-73930476D02*
X131834819Y-74501904D01*
X131834819Y-74216190D02*
X130834819Y-74216190D01*
X130834819Y-74216190D02*
X130977676Y-74311428D01*
X130977676Y-74311428D02*
X131072914Y-74406666D01*
X131072914Y-74406666D02*
X131120533Y-74501904D01*
X131168152Y-73073333D02*
X131834819Y-73073333D01*
X130787200Y-73311428D02*
X131501485Y-73549523D01*
X131501485Y-73549523D02*
X131501485Y-72930476D01*
X135954819Y-93233333D02*
X136669104Y-93233333D01*
X136669104Y-93233333D02*
X136811961Y-93280952D01*
X136811961Y-93280952D02*
X136907200Y-93376190D01*
X136907200Y-93376190D02*
X136954819Y-93519047D01*
X136954819Y-93519047D02*
X136954819Y-93614285D01*
X136954819Y-92757142D02*
X135954819Y-92757142D01*
X135954819Y-92757142D02*
X135954819Y-92376190D01*
X135954819Y-92376190D02*
X136002438Y-92280952D01*
X136002438Y-92280952D02*
X136050057Y-92233333D01*
X136050057Y-92233333D02*
X136145295Y-92185714D01*
X136145295Y-92185714D02*
X136288152Y-92185714D01*
X136288152Y-92185714D02*
X136383390Y-92233333D01*
X136383390Y-92233333D02*
X136431009Y-92280952D01*
X136431009Y-92280952D02*
X136478628Y-92376190D01*
X136478628Y-92376190D02*
X136478628Y-92757142D01*
X136954819Y-91233333D02*
X136954819Y-91804761D01*
X136954819Y-91519047D02*
X135954819Y-91519047D01*
X135954819Y-91519047D02*
X136097676Y-91614285D01*
X136097676Y-91614285D02*
X136192914Y-91709523D01*
X136192914Y-91709523D02*
X136240533Y-91804761D01*
X153633333Y-80859580D02*
X153585714Y-80907200D01*
X153585714Y-80907200D02*
X153442857Y-80954819D01*
X153442857Y-80954819D02*
X153347619Y-80954819D01*
X153347619Y-80954819D02*
X153204762Y-80907200D01*
X153204762Y-80907200D02*
X153109524Y-80811961D01*
X153109524Y-80811961D02*
X153061905Y-80716723D01*
X153061905Y-80716723D02*
X153014286Y-80526247D01*
X153014286Y-80526247D02*
X153014286Y-80383390D01*
X153014286Y-80383390D02*
X153061905Y-80192914D01*
X153061905Y-80192914D02*
X153109524Y-80097676D01*
X153109524Y-80097676D02*
X153204762Y-80002438D01*
X153204762Y-80002438D02*
X153347619Y-79954819D01*
X153347619Y-79954819D02*
X153442857Y-79954819D01*
X153442857Y-79954819D02*
X153585714Y-80002438D01*
X153585714Y-80002438D02*
X153633333Y-80050057D01*
X154014286Y-80050057D02*
X154061905Y-80002438D01*
X154061905Y-80002438D02*
X154157143Y-79954819D01*
X154157143Y-79954819D02*
X154395238Y-79954819D01*
X154395238Y-79954819D02*
X154490476Y-80002438D01*
X154490476Y-80002438D02*
X154538095Y-80050057D01*
X154538095Y-80050057D02*
X154585714Y-80145295D01*
X154585714Y-80145295D02*
X154585714Y-80240533D01*
X154585714Y-80240533D02*
X154538095Y-80383390D01*
X154538095Y-80383390D02*
X153966667Y-80954819D01*
X153966667Y-80954819D02*
X154585714Y-80954819D01*
X127733333Y-83459580D02*
X127685714Y-83507200D01*
X127685714Y-83507200D02*
X127542857Y-83554819D01*
X127542857Y-83554819D02*
X127447619Y-83554819D01*
X127447619Y-83554819D02*
X127304762Y-83507200D01*
X127304762Y-83507200D02*
X127209524Y-83411961D01*
X127209524Y-83411961D02*
X127161905Y-83316723D01*
X127161905Y-83316723D02*
X127114286Y-83126247D01*
X127114286Y-83126247D02*
X127114286Y-82983390D01*
X127114286Y-82983390D02*
X127161905Y-82792914D01*
X127161905Y-82792914D02*
X127209524Y-82697676D01*
X127209524Y-82697676D02*
X127304762Y-82602438D01*
X127304762Y-82602438D02*
X127447619Y-82554819D01*
X127447619Y-82554819D02*
X127542857Y-82554819D01*
X127542857Y-82554819D02*
X127685714Y-82602438D01*
X127685714Y-82602438D02*
X127733333Y-82650057D01*
X128590476Y-82888152D02*
X128590476Y-83554819D01*
X128352381Y-82507200D02*
X128114286Y-83221485D01*
X128114286Y-83221485D02*
X128733333Y-83221485D01*
X160954819Y-99142857D02*
X160478628Y-99476190D01*
X160954819Y-99714285D02*
X159954819Y-99714285D01*
X159954819Y-99714285D02*
X159954819Y-99333333D01*
X159954819Y-99333333D02*
X160002438Y-99238095D01*
X160002438Y-99238095D02*
X160050057Y-99190476D01*
X160050057Y-99190476D02*
X160145295Y-99142857D01*
X160145295Y-99142857D02*
X160288152Y-99142857D01*
X160288152Y-99142857D02*
X160383390Y-99190476D01*
X160383390Y-99190476D02*
X160431009Y-99238095D01*
X160431009Y-99238095D02*
X160478628Y-99333333D01*
X160478628Y-99333333D02*
X160478628Y-99714285D01*
X160954819Y-98190476D02*
X160954819Y-98761904D01*
X160954819Y-98476190D02*
X159954819Y-98476190D01*
X159954819Y-98476190D02*
X160097676Y-98571428D01*
X160097676Y-98571428D02*
X160192914Y-98666666D01*
X160192914Y-98666666D02*
X160240533Y-98761904D01*
X160954819Y-97238095D02*
X160954819Y-97809523D01*
X160954819Y-97523809D02*
X159954819Y-97523809D01*
X159954819Y-97523809D02*
X160097676Y-97619047D01*
X160097676Y-97619047D02*
X160192914Y-97714285D01*
X160192914Y-97714285D02*
X160240533Y-97809523D01*
X143238095Y-72454819D02*
X143809523Y-72454819D01*
X143523809Y-73454819D02*
X143523809Y-72454819D01*
X144142857Y-73454819D02*
X144142857Y-72454819D01*
X144142857Y-72454819D02*
X144523809Y-72454819D01*
X144523809Y-72454819D02*
X144619047Y-72502438D01*
X144619047Y-72502438D02*
X144666666Y-72550057D01*
X144666666Y-72550057D02*
X144714285Y-72645295D01*
X144714285Y-72645295D02*
X144714285Y-72788152D01*
X144714285Y-72788152D02*
X144666666Y-72883390D01*
X144666666Y-72883390D02*
X144619047Y-72931009D01*
X144619047Y-72931009D02*
X144523809Y-72978628D01*
X144523809Y-72978628D02*
X144142857Y-72978628D01*
X145047619Y-72454819D02*
X145666666Y-72454819D01*
X145666666Y-72454819D02*
X145333333Y-72835771D01*
X145333333Y-72835771D02*
X145476190Y-72835771D01*
X145476190Y-72835771D02*
X145571428Y-72883390D01*
X145571428Y-72883390D02*
X145619047Y-72931009D01*
X145619047Y-72931009D02*
X145666666Y-73026247D01*
X145666666Y-73026247D02*
X145666666Y-73264342D01*
X145666666Y-73264342D02*
X145619047Y-73359580D01*
X145619047Y-73359580D02*
X145571428Y-73407200D01*
X145571428Y-73407200D02*
X145476190Y-73454819D01*
X145476190Y-73454819D02*
X145190476Y-73454819D01*
X145190476Y-73454819D02*
X145095238Y-73407200D01*
X145095238Y-73407200D02*
X145047619Y-73359580D01*
X142638095Y-87454819D02*
X143209523Y-87454819D01*
X142923809Y-88454819D02*
X142923809Y-87454819D01*
X143542857Y-88454819D02*
X143542857Y-87454819D01*
X143542857Y-87454819D02*
X143923809Y-87454819D01*
X143923809Y-87454819D02*
X144019047Y-87502438D01*
X144019047Y-87502438D02*
X144066666Y-87550057D01*
X144066666Y-87550057D02*
X144114285Y-87645295D01*
X144114285Y-87645295D02*
X144114285Y-87788152D01*
X144114285Y-87788152D02*
X144066666Y-87883390D01*
X144066666Y-87883390D02*
X144019047Y-87931009D01*
X144019047Y-87931009D02*
X143923809Y-87978628D01*
X143923809Y-87978628D02*
X143542857Y-87978628D01*
X144590476Y-88454819D02*
X144780952Y-88454819D01*
X144780952Y-88454819D02*
X144876190Y-88407200D01*
X144876190Y-88407200D02*
X144923809Y-88359580D01*
X144923809Y-88359580D02*
X145019047Y-88216723D01*
X145019047Y-88216723D02*
X145066666Y-88026247D01*
X145066666Y-88026247D02*
X145066666Y-87645295D01*
X145066666Y-87645295D02*
X145019047Y-87550057D01*
X145019047Y-87550057D02*
X144971428Y-87502438D01*
X144971428Y-87502438D02*
X144876190Y-87454819D01*
X144876190Y-87454819D02*
X144685714Y-87454819D01*
X144685714Y-87454819D02*
X144590476Y-87502438D01*
X144590476Y-87502438D02*
X144542857Y-87550057D01*
X144542857Y-87550057D02*
X144495238Y-87645295D01*
X144495238Y-87645295D02*
X144495238Y-87883390D01*
X144495238Y-87883390D02*
X144542857Y-87978628D01*
X144542857Y-87978628D02*
X144590476Y-88026247D01*
X144590476Y-88026247D02*
X144685714Y-88073866D01*
X144685714Y-88073866D02*
X144876190Y-88073866D01*
X144876190Y-88073866D02*
X144971428Y-88026247D01*
X144971428Y-88026247D02*
X145019047Y-87978628D01*
X145019047Y-87978628D02*
X145066666Y-87883390D01*
X164854819Y-100166666D02*
X164378628Y-100499999D01*
X164854819Y-100738094D02*
X163854819Y-100738094D01*
X163854819Y-100738094D02*
X163854819Y-100357142D01*
X163854819Y-100357142D02*
X163902438Y-100261904D01*
X163902438Y-100261904D02*
X163950057Y-100214285D01*
X163950057Y-100214285D02*
X164045295Y-100166666D01*
X164045295Y-100166666D02*
X164188152Y-100166666D01*
X164188152Y-100166666D02*
X164283390Y-100214285D01*
X164283390Y-100214285D02*
X164331009Y-100261904D01*
X164331009Y-100261904D02*
X164378628Y-100357142D01*
X164378628Y-100357142D02*
X164378628Y-100738094D01*
X163854819Y-99261904D02*
X163854819Y-99738094D01*
X163854819Y-99738094D02*
X164331009Y-99785713D01*
X164331009Y-99785713D02*
X164283390Y-99738094D01*
X164283390Y-99738094D02*
X164235771Y-99642856D01*
X164235771Y-99642856D02*
X164235771Y-99404761D01*
X164235771Y-99404761D02*
X164283390Y-99309523D01*
X164283390Y-99309523D02*
X164331009Y-99261904D01*
X164331009Y-99261904D02*
X164426247Y-99214285D01*
X164426247Y-99214285D02*
X164664342Y-99214285D01*
X164664342Y-99214285D02*
X164759580Y-99261904D01*
X164759580Y-99261904D02*
X164807200Y-99309523D01*
X164807200Y-99309523D02*
X164854819Y-99404761D01*
X164854819Y-99404761D02*
X164854819Y-99642856D01*
X164854819Y-99642856D02*
X164807200Y-99738094D01*
X164807200Y-99738094D02*
X164759580Y-99785713D01*
X126879580Y-78829166D02*
X126927200Y-78876785D01*
X126927200Y-78876785D02*
X126974819Y-79019642D01*
X126974819Y-79019642D02*
X126974819Y-79114880D01*
X126974819Y-79114880D02*
X126927200Y-79257737D01*
X126927200Y-79257737D02*
X126831961Y-79352975D01*
X126831961Y-79352975D02*
X126736723Y-79400594D01*
X126736723Y-79400594D02*
X126546247Y-79448213D01*
X126546247Y-79448213D02*
X126403390Y-79448213D01*
X126403390Y-79448213D02*
X126212914Y-79400594D01*
X126212914Y-79400594D02*
X126117676Y-79352975D01*
X126117676Y-79352975D02*
X126022438Y-79257737D01*
X126022438Y-79257737D02*
X125974819Y-79114880D01*
X125974819Y-79114880D02*
X125974819Y-79019642D01*
X125974819Y-79019642D02*
X126022438Y-78876785D01*
X126022438Y-78876785D02*
X126070057Y-78829166D01*
X125974819Y-78495832D02*
X125974819Y-77829166D01*
X125974819Y-77829166D02*
X126974819Y-78257737D01*
X140157142Y-100954819D02*
X139823809Y-100478628D01*
X139585714Y-100954819D02*
X139585714Y-99954819D01*
X139585714Y-99954819D02*
X139966666Y-99954819D01*
X139966666Y-99954819D02*
X140061904Y-100002438D01*
X140061904Y-100002438D02*
X140109523Y-100050057D01*
X140109523Y-100050057D02*
X140157142Y-100145295D01*
X140157142Y-100145295D02*
X140157142Y-100288152D01*
X140157142Y-100288152D02*
X140109523Y-100383390D01*
X140109523Y-100383390D02*
X140061904Y-100431009D01*
X140061904Y-100431009D02*
X139966666Y-100478628D01*
X139966666Y-100478628D02*
X139585714Y-100478628D01*
X141109523Y-100954819D02*
X140538095Y-100954819D01*
X140823809Y-100954819D02*
X140823809Y-99954819D01*
X140823809Y-99954819D02*
X140728571Y-100097676D01*
X140728571Y-100097676D02*
X140633333Y-100192914D01*
X140633333Y-100192914D02*
X140538095Y-100240533D01*
X141966666Y-99954819D02*
X141776190Y-99954819D01*
X141776190Y-99954819D02*
X141680952Y-100002438D01*
X141680952Y-100002438D02*
X141633333Y-100050057D01*
X141633333Y-100050057D02*
X141538095Y-100192914D01*
X141538095Y-100192914D02*
X141490476Y-100383390D01*
X141490476Y-100383390D02*
X141490476Y-100764342D01*
X141490476Y-100764342D02*
X141538095Y-100859580D01*
X141538095Y-100859580D02*
X141585714Y-100907200D01*
X141585714Y-100907200D02*
X141680952Y-100954819D01*
X141680952Y-100954819D02*
X141871428Y-100954819D01*
X141871428Y-100954819D02*
X141966666Y-100907200D01*
X141966666Y-100907200D02*
X142014285Y-100859580D01*
X142014285Y-100859580D02*
X142061904Y-100764342D01*
X142061904Y-100764342D02*
X142061904Y-100526247D01*
X142061904Y-100526247D02*
X142014285Y-100431009D01*
X142014285Y-100431009D02*
X141966666Y-100383390D01*
X141966666Y-100383390D02*
X141871428Y-100335771D01*
X141871428Y-100335771D02*
X141680952Y-100335771D01*
X141680952Y-100335771D02*
X141585714Y-100383390D01*
X141585714Y-100383390D02*
X141538095Y-100431009D01*
X141538095Y-100431009D02*
X141490476Y-100526247D01*
X143938095Y-93654819D02*
X143938095Y-94464342D01*
X143938095Y-94464342D02*
X143985714Y-94559580D01*
X143985714Y-94559580D02*
X144033333Y-94607200D01*
X144033333Y-94607200D02*
X144128571Y-94654819D01*
X144128571Y-94654819D02*
X144319047Y-94654819D01*
X144319047Y-94654819D02*
X144414285Y-94607200D01*
X144414285Y-94607200D02*
X144461904Y-94559580D01*
X144461904Y-94559580D02*
X144509523Y-94464342D01*
X144509523Y-94464342D02*
X144509523Y-93654819D01*
X145461904Y-93654819D02*
X144985714Y-93654819D01*
X144985714Y-93654819D02*
X144938095Y-94131009D01*
X144938095Y-94131009D02*
X144985714Y-94083390D01*
X144985714Y-94083390D02*
X145080952Y-94035771D01*
X145080952Y-94035771D02*
X145319047Y-94035771D01*
X145319047Y-94035771D02*
X145414285Y-94083390D01*
X145414285Y-94083390D02*
X145461904Y-94131009D01*
X145461904Y-94131009D02*
X145509523Y-94226247D01*
X145509523Y-94226247D02*
X145509523Y-94464342D01*
X145509523Y-94464342D02*
X145461904Y-94559580D01*
X145461904Y-94559580D02*
X145414285Y-94607200D01*
X145414285Y-94607200D02*
X145319047Y-94654819D01*
X145319047Y-94654819D02*
X145080952Y-94654819D01*
X145080952Y-94654819D02*
X144985714Y-94607200D01*
X144985714Y-94607200D02*
X144938095Y-94559580D01*
X175039580Y-96680357D02*
X175087200Y-96727976D01*
X175087200Y-96727976D02*
X175134819Y-96870833D01*
X175134819Y-96870833D02*
X175134819Y-96966071D01*
X175134819Y-96966071D02*
X175087200Y-97108928D01*
X175087200Y-97108928D02*
X174991961Y-97204166D01*
X174991961Y-97204166D02*
X174896723Y-97251785D01*
X174896723Y-97251785D02*
X174706247Y-97299404D01*
X174706247Y-97299404D02*
X174563390Y-97299404D01*
X174563390Y-97299404D02*
X174372914Y-97251785D01*
X174372914Y-97251785D02*
X174277676Y-97204166D01*
X174277676Y-97204166D02*
X174182438Y-97108928D01*
X174182438Y-97108928D02*
X174134819Y-96966071D01*
X174134819Y-96966071D02*
X174134819Y-96870833D01*
X174134819Y-96870833D02*
X174182438Y-96727976D01*
X174182438Y-96727976D02*
X174230057Y-96680357D01*
X174230057Y-96299404D02*
X174182438Y-96251785D01*
X174182438Y-96251785D02*
X174134819Y-96156547D01*
X174134819Y-96156547D02*
X174134819Y-95918452D01*
X174134819Y-95918452D02*
X174182438Y-95823214D01*
X174182438Y-95823214D02*
X174230057Y-95775595D01*
X174230057Y-95775595D02*
X174325295Y-95727976D01*
X174325295Y-95727976D02*
X174420533Y-95727976D01*
X174420533Y-95727976D02*
X174563390Y-95775595D01*
X174563390Y-95775595D02*
X175134819Y-96347023D01*
X175134819Y-96347023D02*
X175134819Y-95727976D01*
X174468152Y-94870833D02*
X175134819Y-94870833D01*
X174087200Y-95108928D02*
X174801485Y-95347023D01*
X174801485Y-95347023D02*
X174801485Y-94727976D01*
X159754819Y-93466666D02*
X159278628Y-93799999D01*
X159754819Y-94038094D02*
X158754819Y-94038094D01*
X158754819Y-94038094D02*
X158754819Y-93657142D01*
X158754819Y-93657142D02*
X158802438Y-93561904D01*
X158802438Y-93561904D02*
X158850057Y-93514285D01*
X158850057Y-93514285D02*
X158945295Y-93466666D01*
X158945295Y-93466666D02*
X159088152Y-93466666D01*
X159088152Y-93466666D02*
X159183390Y-93514285D01*
X159183390Y-93514285D02*
X159231009Y-93561904D01*
X159231009Y-93561904D02*
X159278628Y-93657142D01*
X159278628Y-93657142D02*
X159278628Y-94038094D01*
X158754819Y-92609523D02*
X158754819Y-92799999D01*
X158754819Y-92799999D02*
X158802438Y-92895237D01*
X158802438Y-92895237D02*
X158850057Y-92942856D01*
X158850057Y-92942856D02*
X158992914Y-93038094D01*
X158992914Y-93038094D02*
X159183390Y-93085713D01*
X159183390Y-93085713D02*
X159564342Y-93085713D01*
X159564342Y-93085713D02*
X159659580Y-93038094D01*
X159659580Y-93038094D02*
X159707200Y-92990475D01*
X159707200Y-92990475D02*
X159754819Y-92895237D01*
X159754819Y-92895237D02*
X159754819Y-92704761D01*
X159754819Y-92704761D02*
X159707200Y-92609523D01*
X159707200Y-92609523D02*
X159659580Y-92561904D01*
X159659580Y-92561904D02*
X159564342Y-92514285D01*
X159564342Y-92514285D02*
X159326247Y-92514285D01*
X159326247Y-92514285D02*
X159231009Y-92561904D01*
X159231009Y-92561904D02*
X159183390Y-92609523D01*
X159183390Y-92609523D02*
X159135771Y-92704761D01*
X159135771Y-92704761D02*
X159135771Y-92895237D01*
X159135771Y-92895237D02*
X159183390Y-92990475D01*
X159183390Y-92990475D02*
X159231009Y-93038094D01*
X159231009Y-93038094D02*
X159326247Y-93085713D01*
X127357142Y-95454819D02*
X127023809Y-94978628D01*
X126785714Y-95454819D02*
X126785714Y-94454819D01*
X126785714Y-94454819D02*
X127166666Y-94454819D01*
X127166666Y-94454819D02*
X127261904Y-94502438D01*
X127261904Y-94502438D02*
X127309523Y-94550057D01*
X127309523Y-94550057D02*
X127357142Y-94645295D01*
X127357142Y-94645295D02*
X127357142Y-94788152D01*
X127357142Y-94788152D02*
X127309523Y-94883390D01*
X127309523Y-94883390D02*
X127261904Y-94931009D01*
X127261904Y-94931009D02*
X127166666Y-94978628D01*
X127166666Y-94978628D02*
X126785714Y-94978628D01*
X127738095Y-94550057D02*
X127785714Y-94502438D01*
X127785714Y-94502438D02*
X127880952Y-94454819D01*
X127880952Y-94454819D02*
X128119047Y-94454819D01*
X128119047Y-94454819D02*
X128214285Y-94502438D01*
X128214285Y-94502438D02*
X128261904Y-94550057D01*
X128261904Y-94550057D02*
X128309523Y-94645295D01*
X128309523Y-94645295D02*
X128309523Y-94740533D01*
X128309523Y-94740533D02*
X128261904Y-94883390D01*
X128261904Y-94883390D02*
X127690476Y-95454819D01*
X127690476Y-95454819D02*
X128309523Y-95454819D01*
X128928571Y-94454819D02*
X129023809Y-94454819D01*
X129023809Y-94454819D02*
X129119047Y-94502438D01*
X129119047Y-94502438D02*
X129166666Y-94550057D01*
X129166666Y-94550057D02*
X129214285Y-94645295D01*
X129214285Y-94645295D02*
X129261904Y-94835771D01*
X129261904Y-94835771D02*
X129261904Y-95073866D01*
X129261904Y-95073866D02*
X129214285Y-95264342D01*
X129214285Y-95264342D02*
X129166666Y-95359580D01*
X129166666Y-95359580D02*
X129119047Y-95407200D01*
X129119047Y-95407200D02*
X129023809Y-95454819D01*
X129023809Y-95454819D02*
X128928571Y-95454819D01*
X128928571Y-95454819D02*
X128833333Y-95407200D01*
X128833333Y-95407200D02*
X128785714Y-95359580D01*
X128785714Y-95359580D02*
X128738095Y-95264342D01*
X128738095Y-95264342D02*
X128690476Y-95073866D01*
X128690476Y-95073866D02*
X128690476Y-94835771D01*
X128690476Y-94835771D02*
X128738095Y-94645295D01*
X128738095Y-94645295D02*
X128785714Y-94550057D01*
X128785714Y-94550057D02*
X128833333Y-94502438D01*
X128833333Y-94502438D02*
X128928571Y-94454819D01*
X154238095Y-102592319D02*
X154238095Y-103401842D01*
X154238095Y-103401842D02*
X154285714Y-103497080D01*
X154285714Y-103497080D02*
X154333333Y-103544700D01*
X154333333Y-103544700D02*
X154428571Y-103592319D01*
X154428571Y-103592319D02*
X154619047Y-103592319D01*
X154619047Y-103592319D02*
X154714285Y-103544700D01*
X154714285Y-103544700D02*
X154761904Y-103497080D01*
X154761904Y-103497080D02*
X154809523Y-103401842D01*
X154809523Y-103401842D02*
X154809523Y-102592319D01*
X155238095Y-102687557D02*
X155285714Y-102639938D01*
X155285714Y-102639938D02*
X155380952Y-102592319D01*
X155380952Y-102592319D02*
X155619047Y-102592319D01*
X155619047Y-102592319D02*
X155714285Y-102639938D01*
X155714285Y-102639938D02*
X155761904Y-102687557D01*
X155761904Y-102687557D02*
X155809523Y-102782795D01*
X155809523Y-102782795D02*
X155809523Y-102878033D01*
X155809523Y-102878033D02*
X155761904Y-103020890D01*
X155761904Y-103020890D02*
X155190476Y-103592319D01*
X155190476Y-103592319D02*
X155809523Y-103592319D01*
X130859580Y-91142857D02*
X130907200Y-91190476D01*
X130907200Y-91190476D02*
X130954819Y-91333333D01*
X130954819Y-91333333D02*
X130954819Y-91428571D01*
X130954819Y-91428571D02*
X130907200Y-91571428D01*
X130907200Y-91571428D02*
X130811961Y-91666666D01*
X130811961Y-91666666D02*
X130716723Y-91714285D01*
X130716723Y-91714285D02*
X130526247Y-91761904D01*
X130526247Y-91761904D02*
X130383390Y-91761904D01*
X130383390Y-91761904D02*
X130192914Y-91714285D01*
X130192914Y-91714285D02*
X130097676Y-91666666D01*
X130097676Y-91666666D02*
X130002438Y-91571428D01*
X130002438Y-91571428D02*
X129954819Y-91428571D01*
X129954819Y-91428571D02*
X129954819Y-91333333D01*
X129954819Y-91333333D02*
X130002438Y-91190476D01*
X130002438Y-91190476D02*
X130050057Y-91142857D01*
X130954819Y-90190476D02*
X130954819Y-90761904D01*
X130954819Y-90476190D02*
X129954819Y-90476190D01*
X129954819Y-90476190D02*
X130097676Y-90571428D01*
X130097676Y-90571428D02*
X130192914Y-90666666D01*
X130192914Y-90666666D02*
X130240533Y-90761904D01*
X129954819Y-89857142D02*
X129954819Y-89190476D01*
X129954819Y-89190476D02*
X130954819Y-89619047D01*
X152307200Y-90733332D02*
X152354819Y-90590475D01*
X152354819Y-90590475D02*
X152354819Y-90352380D01*
X152354819Y-90352380D02*
X152307200Y-90257142D01*
X152307200Y-90257142D02*
X152259580Y-90209523D01*
X152259580Y-90209523D02*
X152164342Y-90161904D01*
X152164342Y-90161904D02*
X152069104Y-90161904D01*
X152069104Y-90161904D02*
X151973866Y-90209523D01*
X151973866Y-90209523D02*
X151926247Y-90257142D01*
X151926247Y-90257142D02*
X151878628Y-90352380D01*
X151878628Y-90352380D02*
X151831009Y-90542856D01*
X151831009Y-90542856D02*
X151783390Y-90638094D01*
X151783390Y-90638094D02*
X151735771Y-90685713D01*
X151735771Y-90685713D02*
X151640533Y-90733332D01*
X151640533Y-90733332D02*
X151545295Y-90733332D01*
X151545295Y-90733332D02*
X151450057Y-90685713D01*
X151450057Y-90685713D02*
X151402438Y-90638094D01*
X151402438Y-90638094D02*
X151354819Y-90542856D01*
X151354819Y-90542856D02*
X151354819Y-90304761D01*
X151354819Y-90304761D02*
X151402438Y-90161904D01*
X151354819Y-89828570D02*
X152354819Y-89590475D01*
X152354819Y-89590475D02*
X151640533Y-89399999D01*
X151640533Y-89399999D02*
X152354819Y-89209523D01*
X152354819Y-89209523D02*
X151354819Y-88971428D01*
X152354819Y-88066666D02*
X152354819Y-88638094D01*
X152354819Y-88352380D02*
X151354819Y-88352380D01*
X151354819Y-88352380D02*
X151497676Y-88447618D01*
X151497676Y-88447618D02*
X151592914Y-88542856D01*
X151592914Y-88542856D02*
X151640533Y-88638094D01*
X130359580Y-78829166D02*
X130407200Y-78876785D01*
X130407200Y-78876785D02*
X130454819Y-79019642D01*
X130454819Y-79019642D02*
X130454819Y-79114880D01*
X130454819Y-79114880D02*
X130407200Y-79257737D01*
X130407200Y-79257737D02*
X130311961Y-79352975D01*
X130311961Y-79352975D02*
X130216723Y-79400594D01*
X130216723Y-79400594D02*
X130026247Y-79448213D01*
X130026247Y-79448213D02*
X129883390Y-79448213D01*
X129883390Y-79448213D02*
X129692914Y-79400594D01*
X129692914Y-79400594D02*
X129597676Y-79352975D01*
X129597676Y-79352975D02*
X129502438Y-79257737D01*
X129502438Y-79257737D02*
X129454819Y-79114880D01*
X129454819Y-79114880D02*
X129454819Y-79019642D01*
X129454819Y-79019642D02*
X129502438Y-78876785D01*
X129502438Y-78876785D02*
X129550057Y-78829166D01*
X129454819Y-77972023D02*
X129454819Y-78162499D01*
X129454819Y-78162499D02*
X129502438Y-78257737D01*
X129502438Y-78257737D02*
X129550057Y-78305356D01*
X129550057Y-78305356D02*
X129692914Y-78400594D01*
X129692914Y-78400594D02*
X129883390Y-78448213D01*
X129883390Y-78448213D02*
X130264342Y-78448213D01*
X130264342Y-78448213D02*
X130359580Y-78400594D01*
X130359580Y-78400594D02*
X130407200Y-78352975D01*
X130407200Y-78352975D02*
X130454819Y-78257737D01*
X130454819Y-78257737D02*
X130454819Y-78067261D01*
X130454819Y-78067261D02*
X130407200Y-77972023D01*
X130407200Y-77972023D02*
X130359580Y-77924404D01*
X130359580Y-77924404D02*
X130264342Y-77876785D01*
X130264342Y-77876785D02*
X130026247Y-77876785D01*
X130026247Y-77876785D02*
X129931009Y-77924404D01*
X129931009Y-77924404D02*
X129883390Y-77972023D01*
X129883390Y-77972023D02*
X129835771Y-78067261D01*
X129835771Y-78067261D02*
X129835771Y-78257737D01*
X129835771Y-78257737D02*
X129883390Y-78352975D01*
X129883390Y-78352975D02*
X129931009Y-78400594D01*
X129931009Y-78400594D02*
X130026247Y-78448213D01*
X150257142Y-94459580D02*
X150209523Y-94507200D01*
X150209523Y-94507200D02*
X150066666Y-94554819D01*
X150066666Y-94554819D02*
X149971428Y-94554819D01*
X149971428Y-94554819D02*
X149828571Y-94507200D01*
X149828571Y-94507200D02*
X149733333Y-94411961D01*
X149733333Y-94411961D02*
X149685714Y-94316723D01*
X149685714Y-94316723D02*
X149638095Y-94126247D01*
X149638095Y-94126247D02*
X149638095Y-93983390D01*
X149638095Y-93983390D02*
X149685714Y-93792914D01*
X149685714Y-93792914D02*
X149733333Y-93697676D01*
X149733333Y-93697676D02*
X149828571Y-93602438D01*
X149828571Y-93602438D02*
X149971428Y-93554819D01*
X149971428Y-93554819D02*
X150066666Y-93554819D01*
X150066666Y-93554819D02*
X150209523Y-93602438D01*
X150209523Y-93602438D02*
X150257142Y-93650057D01*
X150638095Y-93650057D02*
X150685714Y-93602438D01*
X150685714Y-93602438D02*
X150780952Y-93554819D01*
X150780952Y-93554819D02*
X151019047Y-93554819D01*
X151019047Y-93554819D02*
X151114285Y-93602438D01*
X151114285Y-93602438D02*
X151161904Y-93650057D01*
X151161904Y-93650057D02*
X151209523Y-93745295D01*
X151209523Y-93745295D02*
X151209523Y-93840533D01*
X151209523Y-93840533D02*
X151161904Y-93983390D01*
X151161904Y-93983390D02*
X150590476Y-94554819D01*
X150590476Y-94554819D02*
X151209523Y-94554819D01*
X151828571Y-93554819D02*
X151923809Y-93554819D01*
X151923809Y-93554819D02*
X152019047Y-93602438D01*
X152019047Y-93602438D02*
X152066666Y-93650057D01*
X152066666Y-93650057D02*
X152114285Y-93745295D01*
X152114285Y-93745295D02*
X152161904Y-93935771D01*
X152161904Y-93935771D02*
X152161904Y-94173866D01*
X152161904Y-94173866D02*
X152114285Y-94364342D01*
X152114285Y-94364342D02*
X152066666Y-94459580D01*
X152066666Y-94459580D02*
X152019047Y-94507200D01*
X152019047Y-94507200D02*
X151923809Y-94554819D01*
X151923809Y-94554819D02*
X151828571Y-94554819D01*
X151828571Y-94554819D02*
X151733333Y-94507200D01*
X151733333Y-94507200D02*
X151685714Y-94459580D01*
X151685714Y-94459580D02*
X151638095Y-94364342D01*
X151638095Y-94364342D02*
X151590476Y-94173866D01*
X151590476Y-94173866D02*
X151590476Y-93935771D01*
X151590476Y-93935771D02*
X151638095Y-93745295D01*
X151638095Y-93745295D02*
X151685714Y-93650057D01*
X151685714Y-93650057D02*
X151733333Y-93602438D01*
X151733333Y-93602438D02*
X151828571Y-93554819D01*
X138059580Y-74732857D02*
X138107200Y-74780476D01*
X138107200Y-74780476D02*
X138154819Y-74923333D01*
X138154819Y-74923333D02*
X138154819Y-75018571D01*
X138154819Y-75018571D02*
X138107200Y-75161428D01*
X138107200Y-75161428D02*
X138011961Y-75256666D01*
X138011961Y-75256666D02*
X137916723Y-75304285D01*
X137916723Y-75304285D02*
X137726247Y-75351904D01*
X137726247Y-75351904D02*
X137583390Y-75351904D01*
X137583390Y-75351904D02*
X137392914Y-75304285D01*
X137392914Y-75304285D02*
X137297676Y-75256666D01*
X137297676Y-75256666D02*
X137202438Y-75161428D01*
X137202438Y-75161428D02*
X137154819Y-75018571D01*
X137154819Y-75018571D02*
X137154819Y-74923333D01*
X137154819Y-74923333D02*
X137202438Y-74780476D01*
X137202438Y-74780476D02*
X137250057Y-74732857D01*
X138154819Y-73780476D02*
X138154819Y-74351904D01*
X138154819Y-74066190D02*
X137154819Y-74066190D01*
X137154819Y-74066190D02*
X137297676Y-74161428D01*
X137297676Y-74161428D02*
X137392914Y-74256666D01*
X137392914Y-74256666D02*
X137440533Y-74351904D01*
X137154819Y-72875714D02*
X137154819Y-73351904D01*
X137154819Y-73351904D02*
X137631009Y-73399523D01*
X137631009Y-73399523D02*
X137583390Y-73351904D01*
X137583390Y-73351904D02*
X137535771Y-73256666D01*
X137535771Y-73256666D02*
X137535771Y-73018571D01*
X137535771Y-73018571D02*
X137583390Y-72923333D01*
X137583390Y-72923333D02*
X137631009Y-72875714D01*
X137631009Y-72875714D02*
X137726247Y-72828095D01*
X137726247Y-72828095D02*
X137964342Y-72828095D01*
X137964342Y-72828095D02*
X138059580Y-72875714D01*
X138059580Y-72875714D02*
X138107200Y-72923333D01*
X138107200Y-72923333D02*
X138154819Y-73018571D01*
X138154819Y-73018571D02*
X138154819Y-73256666D01*
X138154819Y-73256666D02*
X138107200Y-73351904D01*
X138107200Y-73351904D02*
X138059580Y-73399523D01*
X149159580Y-101542857D02*
X149207200Y-101590476D01*
X149207200Y-101590476D02*
X149254819Y-101733333D01*
X149254819Y-101733333D02*
X149254819Y-101828571D01*
X149254819Y-101828571D02*
X149207200Y-101971428D01*
X149207200Y-101971428D02*
X149111961Y-102066666D01*
X149111961Y-102066666D02*
X149016723Y-102114285D01*
X149016723Y-102114285D02*
X148826247Y-102161904D01*
X148826247Y-102161904D02*
X148683390Y-102161904D01*
X148683390Y-102161904D02*
X148492914Y-102114285D01*
X148492914Y-102114285D02*
X148397676Y-102066666D01*
X148397676Y-102066666D02*
X148302438Y-101971428D01*
X148302438Y-101971428D02*
X148254819Y-101828571D01*
X148254819Y-101828571D02*
X148254819Y-101733333D01*
X148254819Y-101733333D02*
X148302438Y-101590476D01*
X148302438Y-101590476D02*
X148350057Y-101542857D01*
X148350057Y-101161904D02*
X148302438Y-101114285D01*
X148302438Y-101114285D02*
X148254819Y-101019047D01*
X148254819Y-101019047D02*
X148254819Y-100780952D01*
X148254819Y-100780952D02*
X148302438Y-100685714D01*
X148302438Y-100685714D02*
X148350057Y-100638095D01*
X148350057Y-100638095D02*
X148445295Y-100590476D01*
X148445295Y-100590476D02*
X148540533Y-100590476D01*
X148540533Y-100590476D02*
X148683390Y-100638095D01*
X148683390Y-100638095D02*
X149254819Y-101209523D01*
X149254819Y-101209523D02*
X149254819Y-100590476D01*
X149254819Y-99638095D02*
X149254819Y-100209523D01*
X149254819Y-99923809D02*
X148254819Y-99923809D01*
X148254819Y-99923809D02*
X148397676Y-100019047D01*
X148397676Y-100019047D02*
X148492914Y-100114285D01*
X148492914Y-100114285D02*
X148540533Y-100209523D01*
X128954819Y-105542857D02*
X128478628Y-105876190D01*
X128954819Y-106114285D02*
X127954819Y-106114285D01*
X127954819Y-106114285D02*
X127954819Y-105733333D01*
X127954819Y-105733333D02*
X128002438Y-105638095D01*
X128002438Y-105638095D02*
X128050057Y-105590476D01*
X128050057Y-105590476D02*
X128145295Y-105542857D01*
X128145295Y-105542857D02*
X128288152Y-105542857D01*
X128288152Y-105542857D02*
X128383390Y-105590476D01*
X128383390Y-105590476D02*
X128431009Y-105638095D01*
X128431009Y-105638095D02*
X128478628Y-105733333D01*
X128478628Y-105733333D02*
X128478628Y-106114285D01*
X128954819Y-104590476D02*
X128954819Y-105161904D01*
X128954819Y-104876190D02*
X127954819Y-104876190D01*
X127954819Y-104876190D02*
X128097676Y-104971428D01*
X128097676Y-104971428D02*
X128192914Y-105066666D01*
X128192914Y-105066666D02*
X128240533Y-105161904D01*
X127954819Y-104257142D02*
X127954819Y-103590476D01*
X127954819Y-103590476D02*
X128954819Y-104019047D01*
X175254819Y-89238094D02*
X174254819Y-89238094D01*
X174254819Y-89238094D02*
X174254819Y-88999999D01*
X174254819Y-88999999D02*
X174302438Y-88857142D01*
X174302438Y-88857142D02*
X174397676Y-88761904D01*
X174397676Y-88761904D02*
X174492914Y-88714285D01*
X174492914Y-88714285D02*
X174683390Y-88666666D01*
X174683390Y-88666666D02*
X174826247Y-88666666D01*
X174826247Y-88666666D02*
X175016723Y-88714285D01*
X175016723Y-88714285D02*
X175111961Y-88761904D01*
X175111961Y-88761904D02*
X175207200Y-88857142D01*
X175207200Y-88857142D02*
X175254819Y-88999999D01*
X175254819Y-88999999D02*
X175254819Y-89238094D01*
X174254819Y-88333332D02*
X174254819Y-87714285D01*
X174254819Y-87714285D02*
X174635771Y-88047618D01*
X174635771Y-88047618D02*
X174635771Y-87904761D01*
X174635771Y-87904761D02*
X174683390Y-87809523D01*
X174683390Y-87809523D02*
X174731009Y-87761904D01*
X174731009Y-87761904D02*
X174826247Y-87714285D01*
X174826247Y-87714285D02*
X175064342Y-87714285D01*
X175064342Y-87714285D02*
X175159580Y-87761904D01*
X175159580Y-87761904D02*
X175207200Y-87809523D01*
X175207200Y-87809523D02*
X175254819Y-87904761D01*
X175254819Y-87904761D02*
X175254819Y-88190475D01*
X175254819Y-88190475D02*
X175207200Y-88285713D01*
X175207200Y-88285713D02*
X175159580Y-88333332D01*
X151659580Y-101542857D02*
X151707200Y-101590476D01*
X151707200Y-101590476D02*
X151754819Y-101733333D01*
X151754819Y-101733333D02*
X151754819Y-101828571D01*
X151754819Y-101828571D02*
X151707200Y-101971428D01*
X151707200Y-101971428D02*
X151611961Y-102066666D01*
X151611961Y-102066666D02*
X151516723Y-102114285D01*
X151516723Y-102114285D02*
X151326247Y-102161904D01*
X151326247Y-102161904D02*
X151183390Y-102161904D01*
X151183390Y-102161904D02*
X150992914Y-102114285D01*
X150992914Y-102114285D02*
X150897676Y-102066666D01*
X150897676Y-102066666D02*
X150802438Y-101971428D01*
X150802438Y-101971428D02*
X150754819Y-101828571D01*
X150754819Y-101828571D02*
X150754819Y-101733333D01*
X150754819Y-101733333D02*
X150802438Y-101590476D01*
X150802438Y-101590476D02*
X150850057Y-101542857D01*
X150850057Y-101161904D02*
X150802438Y-101114285D01*
X150802438Y-101114285D02*
X150754819Y-101019047D01*
X150754819Y-101019047D02*
X150754819Y-100780952D01*
X150754819Y-100780952D02*
X150802438Y-100685714D01*
X150802438Y-100685714D02*
X150850057Y-100638095D01*
X150850057Y-100638095D02*
X150945295Y-100590476D01*
X150945295Y-100590476D02*
X151040533Y-100590476D01*
X151040533Y-100590476D02*
X151183390Y-100638095D01*
X151183390Y-100638095D02*
X151754819Y-101209523D01*
X151754819Y-101209523D02*
X151754819Y-100590476D01*
X150754819Y-99685714D02*
X150754819Y-100161904D01*
X150754819Y-100161904D02*
X151231009Y-100209523D01*
X151231009Y-100209523D02*
X151183390Y-100161904D01*
X151183390Y-100161904D02*
X151135771Y-100066666D01*
X151135771Y-100066666D02*
X151135771Y-99828571D01*
X151135771Y-99828571D02*
X151183390Y-99733333D01*
X151183390Y-99733333D02*
X151231009Y-99685714D01*
X151231009Y-99685714D02*
X151326247Y-99638095D01*
X151326247Y-99638095D02*
X151564342Y-99638095D01*
X151564342Y-99638095D02*
X151659580Y-99685714D01*
X151659580Y-99685714D02*
X151707200Y-99733333D01*
X151707200Y-99733333D02*
X151754819Y-99828571D01*
X151754819Y-99828571D02*
X151754819Y-100066666D01*
X151754819Y-100066666D02*
X151707200Y-100161904D01*
X151707200Y-100161904D02*
X151659580Y-100209523D01*
X145261905Y-78954819D02*
X145833333Y-78954819D01*
X145547619Y-79954819D02*
X145547619Y-78954819D01*
X146166667Y-79954819D02*
X146166667Y-78954819D01*
X146166667Y-78954819D02*
X146547619Y-78954819D01*
X146547619Y-78954819D02*
X146642857Y-79002438D01*
X146642857Y-79002438D02*
X146690476Y-79050057D01*
X146690476Y-79050057D02*
X146738095Y-79145295D01*
X146738095Y-79145295D02*
X146738095Y-79288152D01*
X146738095Y-79288152D02*
X146690476Y-79383390D01*
X146690476Y-79383390D02*
X146642857Y-79431009D01*
X146642857Y-79431009D02*
X146547619Y-79478628D01*
X146547619Y-79478628D02*
X146166667Y-79478628D01*
X147690476Y-79954819D02*
X147119048Y-79954819D01*
X147404762Y-79954819D02*
X147404762Y-78954819D01*
X147404762Y-78954819D02*
X147309524Y-79097676D01*
X147309524Y-79097676D02*
X147214286Y-79192914D01*
X147214286Y-79192914D02*
X147119048Y-79240533D01*
X148309524Y-78954819D02*
X148404762Y-78954819D01*
X148404762Y-78954819D02*
X148500000Y-79002438D01*
X148500000Y-79002438D02*
X148547619Y-79050057D01*
X148547619Y-79050057D02*
X148595238Y-79145295D01*
X148595238Y-79145295D02*
X148642857Y-79335771D01*
X148642857Y-79335771D02*
X148642857Y-79573866D01*
X148642857Y-79573866D02*
X148595238Y-79764342D01*
X148595238Y-79764342D02*
X148547619Y-79859580D01*
X148547619Y-79859580D02*
X148500000Y-79907200D01*
X148500000Y-79907200D02*
X148404762Y-79954819D01*
X148404762Y-79954819D02*
X148309524Y-79954819D01*
X148309524Y-79954819D02*
X148214286Y-79907200D01*
X148214286Y-79907200D02*
X148166667Y-79859580D01*
X148166667Y-79859580D02*
X148119048Y-79764342D01*
X148119048Y-79764342D02*
X148071429Y-79573866D01*
X148071429Y-79573866D02*
X148071429Y-79335771D01*
X148071429Y-79335771D02*
X148119048Y-79145295D01*
X148119048Y-79145295D02*
X148166667Y-79050057D01*
X148166667Y-79050057D02*
X148214286Y-79002438D01*
X148214286Y-79002438D02*
X148309524Y-78954819D01*
X146729819Y-112408333D02*
X147444104Y-112408333D01*
X147444104Y-112408333D02*
X147586961Y-112455952D01*
X147586961Y-112455952D02*
X147682200Y-112551190D01*
X147682200Y-112551190D02*
X147729819Y-112694047D01*
X147729819Y-112694047D02*
X147729819Y-112789285D01*
X147729819Y-111408333D02*
X147729819Y-111979761D01*
X147729819Y-111694047D02*
X146729819Y-111694047D01*
X146729819Y-111694047D02*
X146872676Y-111789285D01*
X146872676Y-111789285D02*
X146967914Y-111884523D01*
X146967914Y-111884523D02*
X147015533Y-111979761D01*
X143433333Y-84654819D02*
X143100000Y-84178628D01*
X142861905Y-84654819D02*
X142861905Y-83654819D01*
X142861905Y-83654819D02*
X143242857Y-83654819D01*
X143242857Y-83654819D02*
X143338095Y-83702438D01*
X143338095Y-83702438D02*
X143385714Y-83750057D01*
X143385714Y-83750057D02*
X143433333Y-83845295D01*
X143433333Y-83845295D02*
X143433333Y-83988152D01*
X143433333Y-83988152D02*
X143385714Y-84083390D01*
X143385714Y-84083390D02*
X143338095Y-84131009D01*
X143338095Y-84131009D02*
X143242857Y-84178628D01*
X143242857Y-84178628D02*
X142861905Y-84178628D01*
X144004762Y-84083390D02*
X143909524Y-84035771D01*
X143909524Y-84035771D02*
X143861905Y-83988152D01*
X143861905Y-83988152D02*
X143814286Y-83892914D01*
X143814286Y-83892914D02*
X143814286Y-83845295D01*
X143814286Y-83845295D02*
X143861905Y-83750057D01*
X143861905Y-83750057D02*
X143909524Y-83702438D01*
X143909524Y-83702438D02*
X144004762Y-83654819D01*
X144004762Y-83654819D02*
X144195238Y-83654819D01*
X144195238Y-83654819D02*
X144290476Y-83702438D01*
X144290476Y-83702438D02*
X144338095Y-83750057D01*
X144338095Y-83750057D02*
X144385714Y-83845295D01*
X144385714Y-83845295D02*
X144385714Y-83892914D01*
X144385714Y-83892914D02*
X144338095Y-83988152D01*
X144338095Y-83988152D02*
X144290476Y-84035771D01*
X144290476Y-84035771D02*
X144195238Y-84083390D01*
X144195238Y-84083390D02*
X144004762Y-84083390D01*
X144004762Y-84083390D02*
X143909524Y-84131009D01*
X143909524Y-84131009D02*
X143861905Y-84178628D01*
X143861905Y-84178628D02*
X143814286Y-84273866D01*
X143814286Y-84273866D02*
X143814286Y-84464342D01*
X143814286Y-84464342D02*
X143861905Y-84559580D01*
X143861905Y-84559580D02*
X143909524Y-84607200D01*
X143909524Y-84607200D02*
X144004762Y-84654819D01*
X144004762Y-84654819D02*
X144195238Y-84654819D01*
X144195238Y-84654819D02*
X144290476Y-84607200D01*
X144290476Y-84607200D02*
X144338095Y-84559580D01*
X144338095Y-84559580D02*
X144385714Y-84464342D01*
X144385714Y-84464342D02*
X144385714Y-84273866D01*
X144385714Y-84273866D02*
X144338095Y-84178628D01*
X144338095Y-84178628D02*
X144290476Y-84131009D01*
X144290476Y-84131009D02*
X144195238Y-84083390D01*
X143039580Y-92180357D02*
X143087200Y-92227976D01*
X143087200Y-92227976D02*
X143134819Y-92370833D01*
X143134819Y-92370833D02*
X143134819Y-92466071D01*
X143134819Y-92466071D02*
X143087200Y-92608928D01*
X143087200Y-92608928D02*
X142991961Y-92704166D01*
X142991961Y-92704166D02*
X142896723Y-92751785D01*
X142896723Y-92751785D02*
X142706247Y-92799404D01*
X142706247Y-92799404D02*
X142563390Y-92799404D01*
X142563390Y-92799404D02*
X142372914Y-92751785D01*
X142372914Y-92751785D02*
X142277676Y-92704166D01*
X142277676Y-92704166D02*
X142182438Y-92608928D01*
X142182438Y-92608928D02*
X142134819Y-92466071D01*
X142134819Y-92466071D02*
X142134819Y-92370833D01*
X142134819Y-92370833D02*
X142182438Y-92227976D01*
X142182438Y-92227976D02*
X142230057Y-92180357D01*
X143134819Y-91227976D02*
X143134819Y-91799404D01*
X143134819Y-91513690D02*
X142134819Y-91513690D01*
X142134819Y-91513690D02*
X142277676Y-91608928D01*
X142277676Y-91608928D02*
X142372914Y-91704166D01*
X142372914Y-91704166D02*
X142420533Y-91799404D01*
X142230057Y-90847023D02*
X142182438Y-90799404D01*
X142182438Y-90799404D02*
X142134819Y-90704166D01*
X142134819Y-90704166D02*
X142134819Y-90466071D01*
X142134819Y-90466071D02*
X142182438Y-90370833D01*
X142182438Y-90370833D02*
X142230057Y-90323214D01*
X142230057Y-90323214D02*
X142325295Y-90275595D01*
X142325295Y-90275595D02*
X142420533Y-90275595D01*
X142420533Y-90275595D02*
X142563390Y-90323214D01*
X142563390Y-90323214D02*
X143134819Y-90894642D01*
X143134819Y-90894642D02*
X143134819Y-90275595D01*
X166254819Y-92642857D02*
X165778628Y-92976190D01*
X166254819Y-93214285D02*
X165254819Y-93214285D01*
X165254819Y-93214285D02*
X165254819Y-92833333D01*
X165254819Y-92833333D02*
X165302438Y-92738095D01*
X165302438Y-92738095D02*
X165350057Y-92690476D01*
X165350057Y-92690476D02*
X165445295Y-92642857D01*
X165445295Y-92642857D02*
X165588152Y-92642857D01*
X165588152Y-92642857D02*
X165683390Y-92690476D01*
X165683390Y-92690476D02*
X165731009Y-92738095D01*
X165731009Y-92738095D02*
X165778628Y-92833333D01*
X165778628Y-92833333D02*
X165778628Y-93214285D01*
X166254819Y-91690476D02*
X166254819Y-92261904D01*
X166254819Y-91976190D02*
X165254819Y-91976190D01*
X165254819Y-91976190D02*
X165397676Y-92071428D01*
X165397676Y-92071428D02*
X165492914Y-92166666D01*
X165492914Y-92166666D02*
X165540533Y-92261904D01*
X165588152Y-90833333D02*
X166254819Y-90833333D01*
X165207200Y-91071428D02*
X165921485Y-91309523D01*
X165921485Y-91309523D02*
X165921485Y-90690476D01*
X137059580Y-79142857D02*
X137107200Y-79190476D01*
X137107200Y-79190476D02*
X137154819Y-79333333D01*
X137154819Y-79333333D02*
X137154819Y-79428571D01*
X137154819Y-79428571D02*
X137107200Y-79571428D01*
X137107200Y-79571428D02*
X137011961Y-79666666D01*
X137011961Y-79666666D02*
X136916723Y-79714285D01*
X136916723Y-79714285D02*
X136726247Y-79761904D01*
X136726247Y-79761904D02*
X136583390Y-79761904D01*
X136583390Y-79761904D02*
X136392914Y-79714285D01*
X136392914Y-79714285D02*
X136297676Y-79666666D01*
X136297676Y-79666666D02*
X136202438Y-79571428D01*
X136202438Y-79571428D02*
X136154819Y-79428571D01*
X136154819Y-79428571D02*
X136154819Y-79333333D01*
X136154819Y-79333333D02*
X136202438Y-79190476D01*
X136202438Y-79190476D02*
X136250057Y-79142857D01*
X137154819Y-78190476D02*
X137154819Y-78761904D01*
X137154819Y-78476190D02*
X136154819Y-78476190D01*
X136154819Y-78476190D02*
X136297676Y-78571428D01*
X136297676Y-78571428D02*
X136392914Y-78666666D01*
X136392914Y-78666666D02*
X136440533Y-78761904D01*
X136154819Y-77571428D02*
X136154819Y-77476190D01*
X136154819Y-77476190D02*
X136202438Y-77380952D01*
X136202438Y-77380952D02*
X136250057Y-77333333D01*
X136250057Y-77333333D02*
X136345295Y-77285714D01*
X136345295Y-77285714D02*
X136535771Y-77238095D01*
X136535771Y-77238095D02*
X136773866Y-77238095D01*
X136773866Y-77238095D02*
X136964342Y-77285714D01*
X136964342Y-77285714D02*
X137059580Y-77333333D01*
X137059580Y-77333333D02*
X137107200Y-77380952D01*
X137107200Y-77380952D02*
X137154819Y-77476190D01*
X137154819Y-77476190D02*
X137154819Y-77571428D01*
X137154819Y-77571428D02*
X137107200Y-77666666D01*
X137107200Y-77666666D02*
X137059580Y-77714285D01*
X137059580Y-77714285D02*
X136964342Y-77761904D01*
X136964342Y-77761904D02*
X136773866Y-77809523D01*
X136773866Y-77809523D02*
X136535771Y-77809523D01*
X136535771Y-77809523D02*
X136345295Y-77761904D01*
X136345295Y-77761904D02*
X136250057Y-77714285D01*
X136250057Y-77714285D02*
X136202438Y-77666666D01*
X136202438Y-77666666D02*
X136154819Y-77571428D01*
X158138095Y-73054819D02*
X158138095Y-73864342D01*
X158138095Y-73864342D02*
X158185714Y-73959580D01*
X158185714Y-73959580D02*
X158233333Y-74007200D01*
X158233333Y-74007200D02*
X158328571Y-74054819D01*
X158328571Y-74054819D02*
X158519047Y-74054819D01*
X158519047Y-74054819D02*
X158614285Y-74007200D01*
X158614285Y-74007200D02*
X158661904Y-73959580D01*
X158661904Y-73959580D02*
X158709523Y-73864342D01*
X158709523Y-73864342D02*
X158709523Y-73054819D01*
X159090476Y-73054819D02*
X159709523Y-73054819D01*
X159709523Y-73054819D02*
X159376190Y-73435771D01*
X159376190Y-73435771D02*
X159519047Y-73435771D01*
X159519047Y-73435771D02*
X159614285Y-73483390D01*
X159614285Y-73483390D02*
X159661904Y-73531009D01*
X159661904Y-73531009D02*
X159709523Y-73626247D01*
X159709523Y-73626247D02*
X159709523Y-73864342D01*
X159709523Y-73864342D02*
X159661904Y-73959580D01*
X159661904Y-73959580D02*
X159614285Y-74007200D01*
X159614285Y-74007200D02*
X159519047Y-74054819D01*
X159519047Y-74054819D02*
X159233333Y-74054819D01*
X159233333Y-74054819D02*
X159138095Y-74007200D01*
X159138095Y-74007200D02*
X159090476Y-73959580D01*
X135049580Y-74882857D02*
X135097200Y-74930476D01*
X135097200Y-74930476D02*
X135144819Y-75073333D01*
X135144819Y-75073333D02*
X135144819Y-75168571D01*
X135144819Y-75168571D02*
X135097200Y-75311428D01*
X135097200Y-75311428D02*
X135001961Y-75406666D01*
X135001961Y-75406666D02*
X134906723Y-75454285D01*
X134906723Y-75454285D02*
X134716247Y-75501904D01*
X134716247Y-75501904D02*
X134573390Y-75501904D01*
X134573390Y-75501904D02*
X134382914Y-75454285D01*
X134382914Y-75454285D02*
X134287676Y-75406666D01*
X134287676Y-75406666D02*
X134192438Y-75311428D01*
X134192438Y-75311428D02*
X134144819Y-75168571D01*
X134144819Y-75168571D02*
X134144819Y-75073333D01*
X134144819Y-75073333D02*
X134192438Y-74930476D01*
X134192438Y-74930476D02*
X134240057Y-74882857D01*
X135144819Y-73930476D02*
X135144819Y-74501904D01*
X135144819Y-74216190D02*
X134144819Y-74216190D01*
X134144819Y-74216190D02*
X134287676Y-74311428D01*
X134287676Y-74311428D02*
X134382914Y-74406666D01*
X134382914Y-74406666D02*
X134430533Y-74501904D01*
X134144819Y-73073333D02*
X134144819Y-73263809D01*
X134144819Y-73263809D02*
X134192438Y-73359047D01*
X134192438Y-73359047D02*
X134240057Y-73406666D01*
X134240057Y-73406666D02*
X134382914Y-73501904D01*
X134382914Y-73501904D02*
X134573390Y-73549523D01*
X134573390Y-73549523D02*
X134954342Y-73549523D01*
X134954342Y-73549523D02*
X135049580Y-73501904D01*
X135049580Y-73501904D02*
X135097200Y-73454285D01*
X135097200Y-73454285D02*
X135144819Y-73359047D01*
X135144819Y-73359047D02*
X135144819Y-73168571D01*
X135144819Y-73168571D02*
X135097200Y-73073333D01*
X135097200Y-73073333D02*
X135049580Y-73025714D01*
X135049580Y-73025714D02*
X134954342Y-72978095D01*
X134954342Y-72978095D02*
X134716247Y-72978095D01*
X134716247Y-72978095D02*
X134621009Y-73025714D01*
X134621009Y-73025714D02*
X134573390Y-73073333D01*
X134573390Y-73073333D02*
X134525771Y-73168571D01*
X134525771Y-73168571D02*
X134525771Y-73359047D01*
X134525771Y-73359047D02*
X134573390Y-73454285D01*
X134573390Y-73454285D02*
X134621009Y-73501904D01*
X134621009Y-73501904D02*
X134716247Y-73549523D01*
X167738095Y-98254819D02*
X167738095Y-99064342D01*
X167738095Y-99064342D02*
X167785714Y-99159580D01*
X167785714Y-99159580D02*
X167833333Y-99207200D01*
X167833333Y-99207200D02*
X167928571Y-99254819D01*
X167928571Y-99254819D02*
X168119047Y-99254819D01*
X168119047Y-99254819D02*
X168214285Y-99207200D01*
X168214285Y-99207200D02*
X168261904Y-99159580D01*
X168261904Y-99159580D02*
X168309523Y-99064342D01*
X168309523Y-99064342D02*
X168309523Y-98254819D01*
X169309523Y-99254819D02*
X168738095Y-99254819D01*
X169023809Y-99254819D02*
X169023809Y-98254819D01*
X169023809Y-98254819D02*
X168928571Y-98397676D01*
X168928571Y-98397676D02*
X168833333Y-98492914D01*
X168833333Y-98492914D02*
X168738095Y-98540533D01*
X173954819Y-103283333D02*
X174669104Y-103283333D01*
X174669104Y-103283333D02*
X174811961Y-103330952D01*
X174811961Y-103330952D02*
X174907200Y-103426190D01*
X174907200Y-103426190D02*
X174954819Y-103569047D01*
X174954819Y-103569047D02*
X174954819Y-103664285D01*
X173954819Y-102902380D02*
X173954819Y-102283333D01*
X173954819Y-102283333D02*
X174335771Y-102616666D01*
X174335771Y-102616666D02*
X174335771Y-102473809D01*
X174335771Y-102473809D02*
X174383390Y-102378571D01*
X174383390Y-102378571D02*
X174431009Y-102330952D01*
X174431009Y-102330952D02*
X174526247Y-102283333D01*
X174526247Y-102283333D02*
X174764342Y-102283333D01*
X174764342Y-102283333D02*
X174859580Y-102330952D01*
X174859580Y-102330952D02*
X174907200Y-102378571D01*
X174907200Y-102378571D02*
X174954819Y-102473809D01*
X174954819Y-102473809D02*
X174954819Y-102759523D01*
X174954819Y-102759523D02*
X174907200Y-102854761D01*
X174907200Y-102854761D02*
X174859580Y-102902380D01*
X146261905Y-102054819D02*
X146261905Y-101054819D01*
X146261905Y-101054819D02*
X146500000Y-101054819D01*
X146500000Y-101054819D02*
X146642857Y-101102438D01*
X146642857Y-101102438D02*
X146738095Y-101197676D01*
X146738095Y-101197676D02*
X146785714Y-101292914D01*
X146785714Y-101292914D02*
X146833333Y-101483390D01*
X146833333Y-101483390D02*
X146833333Y-101626247D01*
X146833333Y-101626247D02*
X146785714Y-101816723D01*
X146785714Y-101816723D02*
X146738095Y-101911961D01*
X146738095Y-101911961D02*
X146642857Y-102007200D01*
X146642857Y-102007200D02*
X146500000Y-102054819D01*
X146500000Y-102054819D02*
X146261905Y-102054819D01*
X147214286Y-101150057D02*
X147261905Y-101102438D01*
X147261905Y-101102438D02*
X147357143Y-101054819D01*
X147357143Y-101054819D02*
X147595238Y-101054819D01*
X147595238Y-101054819D02*
X147690476Y-101102438D01*
X147690476Y-101102438D02*
X147738095Y-101150057D01*
X147738095Y-101150057D02*
X147785714Y-101245295D01*
X147785714Y-101245295D02*
X147785714Y-101340533D01*
X147785714Y-101340533D02*
X147738095Y-101483390D01*
X147738095Y-101483390D02*
X147166667Y-102054819D01*
X147166667Y-102054819D02*
X147785714Y-102054819D01*
X135957142Y-97354819D02*
X135623809Y-96878628D01*
X135385714Y-97354819D02*
X135385714Y-96354819D01*
X135385714Y-96354819D02*
X135766666Y-96354819D01*
X135766666Y-96354819D02*
X135861904Y-96402438D01*
X135861904Y-96402438D02*
X135909523Y-96450057D01*
X135909523Y-96450057D02*
X135957142Y-96545295D01*
X135957142Y-96545295D02*
X135957142Y-96688152D01*
X135957142Y-96688152D02*
X135909523Y-96783390D01*
X135909523Y-96783390D02*
X135861904Y-96831009D01*
X135861904Y-96831009D02*
X135766666Y-96878628D01*
X135766666Y-96878628D02*
X135385714Y-96878628D01*
X136909523Y-97354819D02*
X136338095Y-97354819D01*
X136623809Y-97354819D02*
X136623809Y-96354819D01*
X136623809Y-96354819D02*
X136528571Y-96497676D01*
X136528571Y-96497676D02*
X136433333Y-96592914D01*
X136433333Y-96592914D02*
X136338095Y-96640533D01*
X137814285Y-96354819D02*
X137338095Y-96354819D01*
X137338095Y-96354819D02*
X137290476Y-96831009D01*
X137290476Y-96831009D02*
X137338095Y-96783390D01*
X137338095Y-96783390D02*
X137433333Y-96735771D01*
X137433333Y-96735771D02*
X137671428Y-96735771D01*
X137671428Y-96735771D02*
X137766666Y-96783390D01*
X137766666Y-96783390D02*
X137814285Y-96831009D01*
X137814285Y-96831009D02*
X137861904Y-96926247D01*
X137861904Y-96926247D02*
X137861904Y-97164342D01*
X137861904Y-97164342D02*
X137814285Y-97259580D01*
X137814285Y-97259580D02*
X137766666Y-97307200D01*
X137766666Y-97307200D02*
X137671428Y-97354819D01*
X137671428Y-97354819D02*
X137433333Y-97354819D01*
X137433333Y-97354819D02*
X137338095Y-97307200D01*
X137338095Y-97307200D02*
X137290476Y-97259580D01*
X125454819Y-81666666D02*
X125454819Y-82142856D01*
X125454819Y-82142856D02*
X124454819Y-82142856D01*
X125454819Y-80809523D02*
X125454819Y-81380951D01*
X125454819Y-81095237D02*
X124454819Y-81095237D01*
X124454819Y-81095237D02*
X124597676Y-81190475D01*
X124597676Y-81190475D02*
X124692914Y-81285713D01*
X124692914Y-81285713D02*
X124740533Y-81380951D01*
X133679580Y-78666666D02*
X133727200Y-78714285D01*
X133727200Y-78714285D02*
X133774819Y-78857142D01*
X133774819Y-78857142D02*
X133774819Y-78952380D01*
X133774819Y-78952380D02*
X133727200Y-79095237D01*
X133727200Y-79095237D02*
X133631961Y-79190475D01*
X133631961Y-79190475D02*
X133536723Y-79238094D01*
X133536723Y-79238094D02*
X133346247Y-79285713D01*
X133346247Y-79285713D02*
X133203390Y-79285713D01*
X133203390Y-79285713D02*
X133012914Y-79238094D01*
X133012914Y-79238094D02*
X132917676Y-79190475D01*
X132917676Y-79190475D02*
X132822438Y-79095237D01*
X132822438Y-79095237D02*
X132774819Y-78952380D01*
X132774819Y-78952380D02*
X132774819Y-78857142D01*
X132774819Y-78857142D02*
X132822438Y-78714285D01*
X132822438Y-78714285D02*
X132870057Y-78666666D01*
X133203390Y-78095237D02*
X133155771Y-78190475D01*
X133155771Y-78190475D02*
X133108152Y-78238094D01*
X133108152Y-78238094D02*
X133012914Y-78285713D01*
X133012914Y-78285713D02*
X132965295Y-78285713D01*
X132965295Y-78285713D02*
X132870057Y-78238094D01*
X132870057Y-78238094D02*
X132822438Y-78190475D01*
X132822438Y-78190475D02*
X132774819Y-78095237D01*
X132774819Y-78095237D02*
X132774819Y-77904761D01*
X132774819Y-77904761D02*
X132822438Y-77809523D01*
X132822438Y-77809523D02*
X132870057Y-77761904D01*
X132870057Y-77761904D02*
X132965295Y-77714285D01*
X132965295Y-77714285D02*
X133012914Y-77714285D01*
X133012914Y-77714285D02*
X133108152Y-77761904D01*
X133108152Y-77761904D02*
X133155771Y-77809523D01*
X133155771Y-77809523D02*
X133203390Y-77904761D01*
X133203390Y-77904761D02*
X133203390Y-78095237D01*
X133203390Y-78095237D02*
X133251009Y-78190475D01*
X133251009Y-78190475D02*
X133298628Y-78238094D01*
X133298628Y-78238094D02*
X133393866Y-78285713D01*
X133393866Y-78285713D02*
X133584342Y-78285713D01*
X133584342Y-78285713D02*
X133679580Y-78238094D01*
X133679580Y-78238094D02*
X133727200Y-78190475D01*
X133727200Y-78190475D02*
X133774819Y-78095237D01*
X133774819Y-78095237D02*
X133774819Y-77904761D01*
X133774819Y-77904761D02*
X133727200Y-77809523D01*
X133727200Y-77809523D02*
X133679580Y-77761904D01*
X133679580Y-77761904D02*
X133584342Y-77714285D01*
X133584342Y-77714285D02*
X133393866Y-77714285D01*
X133393866Y-77714285D02*
X133298628Y-77761904D01*
X133298628Y-77761904D02*
X133251009Y-77809523D01*
X133251009Y-77809523D02*
X133203390Y-77904761D01*
X143533333Y-81254819D02*
X143200000Y-80778628D01*
X142961905Y-81254819D02*
X142961905Y-80254819D01*
X142961905Y-80254819D02*
X143342857Y-80254819D01*
X143342857Y-80254819D02*
X143438095Y-80302438D01*
X143438095Y-80302438D02*
X143485714Y-80350057D01*
X143485714Y-80350057D02*
X143533333Y-80445295D01*
X143533333Y-80445295D02*
X143533333Y-80588152D01*
X143533333Y-80588152D02*
X143485714Y-80683390D01*
X143485714Y-80683390D02*
X143438095Y-80731009D01*
X143438095Y-80731009D02*
X143342857Y-80778628D01*
X143342857Y-80778628D02*
X142961905Y-80778628D01*
X143866667Y-80254819D02*
X144533333Y-80254819D01*
X144533333Y-80254819D02*
X144104762Y-81254819D01*
X118428571Y-103981009D02*
X118095238Y-103981009D01*
X118095238Y-104504819D02*
X118095238Y-103504819D01*
X118095238Y-103504819D02*
X118571428Y-103504819D01*
X118952381Y-104504819D02*
X118952381Y-103504819D01*
X119428571Y-104504819D02*
X119428571Y-103504819D01*
X119428571Y-103504819D02*
X119666666Y-103504819D01*
X119666666Y-103504819D02*
X119809523Y-103552438D01*
X119809523Y-103552438D02*
X119904761Y-103647676D01*
X119904761Y-103647676D02*
X119952380Y-103742914D01*
X119952380Y-103742914D02*
X119999999Y-103933390D01*
X119999999Y-103933390D02*
X119999999Y-104076247D01*
X119999999Y-104076247D02*
X119952380Y-104266723D01*
X119952380Y-104266723D02*
X119904761Y-104361961D01*
X119904761Y-104361961D02*
X119809523Y-104457200D01*
X119809523Y-104457200D02*
X119666666Y-104504819D01*
X119666666Y-104504819D02*
X119428571Y-104504819D01*
X120952380Y-104504819D02*
X120380952Y-104504819D01*
X120666666Y-104504819D02*
X120666666Y-103504819D01*
X120666666Y-103504819D02*
X120571428Y-103647676D01*
X120571428Y-103647676D02*
X120476190Y-103742914D01*
X120476190Y-103742914D02*
X120380952Y-103790533D01*
X131454819Y-105642857D02*
X130978628Y-105976190D01*
X131454819Y-106214285D02*
X130454819Y-106214285D01*
X130454819Y-106214285D02*
X130454819Y-105833333D01*
X130454819Y-105833333D02*
X130502438Y-105738095D01*
X130502438Y-105738095D02*
X130550057Y-105690476D01*
X130550057Y-105690476D02*
X130645295Y-105642857D01*
X130645295Y-105642857D02*
X130788152Y-105642857D01*
X130788152Y-105642857D02*
X130883390Y-105690476D01*
X130883390Y-105690476D02*
X130931009Y-105738095D01*
X130931009Y-105738095D02*
X130978628Y-105833333D01*
X130978628Y-105833333D02*
X130978628Y-106214285D01*
X131454819Y-104690476D02*
X131454819Y-105261904D01*
X131454819Y-104976190D02*
X130454819Y-104976190D01*
X130454819Y-104976190D02*
X130597676Y-105071428D01*
X130597676Y-105071428D02*
X130692914Y-105166666D01*
X130692914Y-105166666D02*
X130740533Y-105261904D01*
X130883390Y-104119047D02*
X130835771Y-104214285D01*
X130835771Y-104214285D02*
X130788152Y-104261904D01*
X130788152Y-104261904D02*
X130692914Y-104309523D01*
X130692914Y-104309523D02*
X130645295Y-104309523D01*
X130645295Y-104309523D02*
X130550057Y-104261904D01*
X130550057Y-104261904D02*
X130502438Y-104214285D01*
X130502438Y-104214285D02*
X130454819Y-104119047D01*
X130454819Y-104119047D02*
X130454819Y-103928571D01*
X130454819Y-103928571D02*
X130502438Y-103833333D01*
X130502438Y-103833333D02*
X130550057Y-103785714D01*
X130550057Y-103785714D02*
X130645295Y-103738095D01*
X130645295Y-103738095D02*
X130692914Y-103738095D01*
X130692914Y-103738095D02*
X130788152Y-103785714D01*
X130788152Y-103785714D02*
X130835771Y-103833333D01*
X130835771Y-103833333D02*
X130883390Y-103928571D01*
X130883390Y-103928571D02*
X130883390Y-104119047D01*
X130883390Y-104119047D02*
X130931009Y-104214285D01*
X130931009Y-104214285D02*
X130978628Y-104261904D01*
X130978628Y-104261904D02*
X131073866Y-104309523D01*
X131073866Y-104309523D02*
X131264342Y-104309523D01*
X131264342Y-104309523D02*
X131359580Y-104261904D01*
X131359580Y-104261904D02*
X131407200Y-104214285D01*
X131407200Y-104214285D02*
X131454819Y-104119047D01*
X131454819Y-104119047D02*
X131454819Y-103928571D01*
X131454819Y-103928571D02*
X131407200Y-103833333D01*
X131407200Y-103833333D02*
X131359580Y-103785714D01*
X131359580Y-103785714D02*
X131264342Y-103738095D01*
X131264342Y-103738095D02*
X131073866Y-103738095D01*
X131073866Y-103738095D02*
X130978628Y-103785714D01*
X130978628Y-103785714D02*
X130931009Y-103833333D01*
X130931009Y-103833333D02*
X130883390Y-103928571D01*
X144354819Y-110333333D02*
X145069104Y-110333333D01*
X145069104Y-110333333D02*
X145211961Y-110380952D01*
X145211961Y-110380952D02*
X145307200Y-110476190D01*
X145307200Y-110476190D02*
X145354819Y-110619047D01*
X145354819Y-110619047D02*
X145354819Y-110714285D01*
X144450057Y-109904761D02*
X144402438Y-109857142D01*
X144402438Y-109857142D02*
X144354819Y-109761904D01*
X144354819Y-109761904D02*
X144354819Y-109523809D01*
X144354819Y-109523809D02*
X144402438Y-109428571D01*
X144402438Y-109428571D02*
X144450057Y-109380952D01*
X144450057Y-109380952D02*
X144545295Y-109333333D01*
X144545295Y-109333333D02*
X144640533Y-109333333D01*
X144640533Y-109333333D02*
X144783390Y-109380952D01*
X144783390Y-109380952D02*
X145354819Y-109952380D01*
X145354819Y-109952380D02*
X145354819Y-109333333D01*
%TO.C,R1*%
D15*
X154772936Y-95765000D02*
X155227064Y-95765000D01*
X154772936Y-97235000D02*
X155227064Y-97235000D01*
%TO.C,C1*%
X157223752Y-82265000D02*
X156701248Y-82265000D01*
X157223752Y-83735000D02*
X156701248Y-83735000D01*
%TO.C,C18*%
X128265000Y-90238748D02*
X128265000Y-90761252D01*
X129735000Y-90238748D02*
X129735000Y-90761252D01*
%TO.C,C5*%
X130238748Y-81465000D02*
X130761252Y-81465000D01*
X130238748Y-82935000D02*
X130761252Y-82935000D01*
%TO.C,R13*%
X164265000Y-96657064D02*
X164265000Y-96202936D01*
X165735000Y-96657064D02*
X165735000Y-96202936D01*
%TO.C,C9*%
X140965000Y-78761252D02*
X140965000Y-78238748D01*
X142435000Y-78761252D02*
X142435000Y-78238748D01*
%TO.C,TP7*%
X143200000Y-102500000D02*
G75*
G02*
X141800000Y-102500000I-700000J0D01*
G01*
X141800000Y-102500000D02*
G75*
G02*
X143200000Y-102500000I700000J0D01*
G01*
%TO.C,C19*%
X158276248Y-89302500D02*
X158798752Y-89302500D01*
X158276248Y-90772500D02*
X158798752Y-90772500D01*
%TO.C,C23*%
X157265000Y-101738748D02*
X157265000Y-102261252D01*
X158735000Y-101738748D02*
X158735000Y-102261252D01*
%TO.C,C22*%
X135265000Y-101761252D02*
X135265000Y-101238748D01*
X136735000Y-101761252D02*
X136735000Y-101238748D01*
%TO.C,R10*%
X132765000Y-96772936D02*
X132765000Y-97227064D01*
X134235000Y-96772936D02*
X134235000Y-97227064D01*
%TO.C,R9*%
X138465000Y-74467064D02*
X138465000Y-74012936D01*
X139935000Y-74467064D02*
X139935000Y-74012936D01*
%TO.C,TP5*%
X135450000Y-92500000D02*
G75*
G02*
X134050000Y-92500000I-700000J0D01*
G01*
X134050000Y-92500000D02*
G75*
G02*
X135450000Y-92500000I700000J0D01*
G01*
%TO.C,R19*%
X132765000Y-101727064D02*
X132765000Y-101272936D01*
X134235000Y-101727064D02*
X134235000Y-101272936D01*
%TO.C,TP2*%
X158700000Y-88000000D02*
G75*
G02*
X157300000Y-88000000I-700000J0D01*
G01*
X157300000Y-88000000D02*
G75*
G02*
X158700000Y-88000000I700000J0D01*
G01*
%TO.C,U6*%
X134890000Y-82490000D02*
X135120000Y-82490000D01*
X134890000Y-83220000D02*
X134890000Y-82490000D01*
X134890000Y-85480000D02*
X134890000Y-85910000D01*
X139380000Y-82490000D02*
X139610000Y-82490000D01*
X139380000Y-86210000D02*
X139610000Y-86210000D01*
X139610000Y-83220000D02*
X139610000Y-82490000D01*
X139610000Y-86210000D02*
X139610000Y-85480000D01*
X134890000Y-86210000D02*
X134560000Y-86450000D01*
X134560000Y-85970000D01*
X134890000Y-86210000D01*
G36*
X134890000Y-86210000D02*
G01*
X134560000Y-86450000D01*
X134560000Y-85970000D01*
X134890000Y-86210000D01*
G37*
%TO.C,C3*%
X130201248Y-86465000D02*
X130723752Y-86465000D01*
X130201248Y-87935000D02*
X130723752Y-87935000D01*
%TO.C,R2*%
X166265000Y-102822936D02*
X166265000Y-103277064D01*
X167735000Y-102822936D02*
X167735000Y-103277064D01*
%TO.C,Q1*%
X138940000Y-94677500D02*
X139940000Y-94677500D01*
X138940000Y-96197500D02*
X138940000Y-94677500D01*
X138990000Y-96197500D02*
X138940000Y-96197500D01*
X140890000Y-96197500D02*
X140110000Y-96197500D01*
X141060000Y-94677500D02*
X142060000Y-94677500D01*
X142060000Y-94677500D02*
X142060000Y-96197500D01*
X142060000Y-96197500D02*
X142010000Y-96197500D01*
X140120000Y-96737500D02*
X140450000Y-96497500D01*
X140450000Y-96977500D01*
X140120000Y-96737500D01*
G36*
X140450000Y-96977500D02*
G01*
X140120000Y-96737500D01*
X140450000Y-96497500D01*
X140450000Y-96977500D01*
G37*
%TO.C,TP6*%
X127700000Y-97500000D02*
G75*
G02*
X126300000Y-97500000I-700000J0D01*
G01*
X126300000Y-97500000D02*
G75*
G02*
X127700000Y-97500000I700000J0D01*
G01*
%TO.C,Q3*%
X128450000Y-96540000D02*
X128450000Y-98140000D01*
X131650000Y-96540000D02*
X131650000Y-98140000D01*
X131500000Y-96090000D02*
X131830000Y-95850000D01*
X131830000Y-96330000D01*
X131500000Y-96090000D01*
G36*
X131830000Y-96330000D02*
G01*
X131500000Y-96090000D01*
X131830000Y-95850000D01*
X131830000Y-96330000D01*
G37*
%TO.C,C11*%
X134265000Y-89498752D02*
X134265000Y-88976248D01*
X135735000Y-89498752D02*
X135735000Y-88976248D01*
%TO.C,C13*%
X137265000Y-91276248D02*
X137265000Y-91798752D01*
X138735000Y-91276248D02*
X138735000Y-91798752D01*
%TO.C,TP8*%
X158700000Y-78500000D02*
G75*
G02*
X157300000Y-78500000I-700000J0D01*
G01*
X157300000Y-78500000D02*
G75*
G02*
X158700000Y-78500000I700000J0D01*
G01*
%TO.C,TP1*%
X154700000Y-94000000D02*
G75*
G02*
X153300000Y-94000000I-700000J0D01*
G01*
X153300000Y-94000000D02*
G75*
G02*
X154700000Y-94000000I700000J0D01*
G01*
%TO.C,BT3*%
X121815000Y-92060000D02*
X121815000Y-93940000D01*
X123785000Y-90890000D02*
X126285000Y-90890000D01*
X123785000Y-95110000D02*
X126285000Y-95110000D01*
X126285000Y-90890000D02*
X126285000Y-91940000D01*
X126285000Y-91940000D02*
X127275000Y-91940000D01*
X126285000Y-95110000D02*
X126285000Y-94060000D01*
%TO.C,R12*%
X170265000Y-91272936D02*
X170265000Y-91727064D01*
X171735000Y-91272936D02*
X171735000Y-91727064D01*
%TO.C,C14*%
X128965000Y-73978748D02*
X128965000Y-74501252D01*
X130435000Y-73978748D02*
X130435000Y-74501252D01*
%TO.C,JP1*%
X135062500Y-95200000D02*
X135062500Y-94600000D01*
X135762500Y-93900000D02*
X137162500Y-93900000D01*
X137162500Y-95900000D02*
X135762500Y-95900000D01*
X137862500Y-94600000D02*
X137862500Y-95200000D01*
X135062500Y-94600000D02*
G75*
G02*
X135762500Y-93900000I699999J1D01*
G01*
X135762500Y-95900000D02*
G75*
G02*
X135062500Y-95200000I-1J699999D01*
G01*
X137162500Y-93900000D02*
G75*
G02*
X137862500Y-94600000I0J-700000D01*
G01*
X137862500Y-95200000D02*
G75*
G02*
X137162500Y-95900000I-700000J0D01*
G01*
%TO.C,C2*%
X157223752Y-79765000D02*
X156701248Y-79765000D01*
X157223752Y-81235000D02*
X156701248Y-81235000D01*
%TO.C,C4*%
X130163748Y-83965000D02*
X130686252Y-83965000D01*
X130163748Y-85435000D02*
X130686252Y-85435000D01*
%TO.C,R11*%
X159765000Y-102227064D02*
X159765000Y-101772936D01*
X161235000Y-102227064D02*
X161235000Y-101772936D01*
%TO.C,TP3*%
X142700000Y-74000000D02*
G75*
G02*
X141300000Y-74000000I-700000J0D01*
G01*
X141300000Y-74000000D02*
G75*
G02*
X142700000Y-74000000I700000J0D01*
G01*
%TO.C,TP9*%
X142400000Y-87790000D02*
G75*
G02*
X141000000Y-87790000I-700000J0D01*
G01*
X141000000Y-87790000D02*
G75*
G02*
X142400000Y-87790000I700000J0D01*
G01*
%TO.C,R5*%
X163765000Y-103227064D02*
X163765000Y-102772936D01*
X165235000Y-103227064D02*
X165235000Y-102772936D01*
%TO.C,C7*%
X127465000Y-78923752D02*
X127465000Y-78401248D01*
X128935000Y-78923752D02*
X128935000Y-78401248D01*
%TO.C,R16*%
X140735436Y-98165000D02*
X141189564Y-98165000D01*
X140735436Y-99635000D02*
X141189564Y-99635000D01*
%TO.C,U5*%
X144415000Y-95290000D02*
X146235000Y-95290000D01*
X144415000Y-95340000D02*
X144415000Y-95290000D01*
X144415000Y-98410000D02*
X144415000Y-98360000D01*
X146235000Y-95290000D02*
X146235000Y-95340000D01*
X146235000Y-96460000D02*
X146235000Y-97240000D01*
X146235000Y-98360000D02*
X146235000Y-98410000D01*
X146235000Y-98410000D02*
X144415000Y-98410000D01*
X143875000Y-95340000D02*
X143635000Y-95010000D01*
X144115000Y-95010000D01*
X143875000Y-95340000D01*
G36*
X143875000Y-95340000D02*
G01*
X143635000Y-95010000D01*
X144115000Y-95010000D01*
X143875000Y-95340000D01*
G37*
%TO.C,C24*%
X172265000Y-95776248D02*
X172265000Y-96298752D01*
X173735000Y-95776248D02*
X173735000Y-96298752D01*
%TO.C,R6*%
X156802500Y-93764564D02*
X156802500Y-93310436D01*
X158272500Y-93764564D02*
X158272500Y-93310436D01*
%TO.C,R20*%
X131227064Y-93265000D02*
X130772936Y-93265000D01*
X131227064Y-94735000D02*
X130772936Y-94735000D01*
%TO.C,U2*%
X153440000Y-99590000D02*
X153490000Y-99590000D01*
X153440000Y-101410000D02*
X153440000Y-99590000D01*
X153490000Y-101410000D02*
X153440000Y-101410000D01*
X155390000Y-101410000D02*
X154610000Y-101410000D01*
X156510000Y-99590000D02*
X156560000Y-99590000D01*
X156560000Y-99590000D02*
X156560000Y-101410000D01*
X156560000Y-101410000D02*
X156510000Y-101410000D01*
X156510000Y-99050000D02*
X156840000Y-98810000D01*
X156840000Y-99290000D01*
X156510000Y-99050000D01*
G36*
X156840000Y-99290000D02*
G01*
X156510000Y-99050000D01*
X156840000Y-98810000D01*
X156840000Y-99290000D01*
G37*
%TO.C,C17*%
X131265000Y-90238748D02*
X131265000Y-90761252D01*
X132735000Y-90238748D02*
X132735000Y-90761252D01*
%TO.C,SW1*%
X146650000Y-91340000D02*
X146650000Y-89957000D01*
X146650000Y-91340000D02*
X147960000Y-91340000D01*
X146890000Y-84280000D02*
X148040000Y-84280000D01*
X146890000Y-91100000D02*
X146890000Y-84280000D01*
X146890000Y-91100000D02*
X147960000Y-91100000D01*
X148365000Y-88293333D02*
X149635000Y-88293333D01*
X149960000Y-84280000D02*
X151110000Y-84280000D01*
X150040000Y-91100000D02*
X151110000Y-91100000D01*
X151110000Y-91100000D02*
X151110000Y-84280000D01*
X148365000Y-85880000D02*
X149635000Y-85880000D01*
X149635000Y-89500000D01*
X148365000Y-89500000D01*
X148365000Y-85880000D01*
X148365000Y-88293333D02*
X149635000Y-88293333D01*
X149635000Y-89500000D01*
X148365000Y-89500000D01*
X148365000Y-88293333D01*
G36*
X148365000Y-88293333D02*
G01*
X149635000Y-88293333D01*
X149635000Y-89500000D01*
X148365000Y-89500000D01*
X148365000Y-88293333D01*
G37*
%TO.C,C6*%
X130965000Y-78401248D02*
X130965000Y-78923752D01*
X132435000Y-78401248D02*
X132435000Y-78923752D01*
%TO.C,C20*%
X147723752Y-93265000D02*
X147201248Y-93265000D01*
X147723752Y-94735000D02*
X147201248Y-94735000D01*
%TO.C,C15*%
X135465000Y-73978748D02*
X135465000Y-74501252D01*
X136935000Y-73978748D02*
X136935000Y-74501252D01*
%TO.C,C21*%
X148227500Y-97661252D02*
X148227500Y-97138748D01*
X149697500Y-97661252D02*
X149697500Y-97138748D01*
%TO.C,R17*%
X127765000Y-101727064D02*
X127765000Y-101272936D01*
X129235000Y-101727064D02*
X129235000Y-101272936D01*
%TO.C,D3*%
X172540000Y-89640000D02*
X172540000Y-92500000D01*
X174460000Y-89640000D02*
X172540000Y-89640000D01*
X174460000Y-92500000D02*
X174460000Y-89640000D01*
%TO.C,C25*%
X150727500Y-97138748D02*
X150727500Y-97661252D01*
X152197500Y-97138748D02*
X152197500Y-97661252D01*
%TO.C,TP10*%
X144700000Y-79200000D02*
G75*
G02*
X143300000Y-79200000I-700000J0D01*
G01*
X143300000Y-79200000D02*
G75*
G02*
X144700000Y-79200000I700000J0D01*
G01*
%TO.C,R8*%
X143927064Y-85055000D02*
X143472936Y-85055000D01*
X143927064Y-86525000D02*
X143472936Y-86525000D01*
%TO.C,C12*%
X140265000Y-91276248D02*
X140265000Y-91798752D01*
X141735000Y-91276248D02*
X141735000Y-91798752D01*
%TO.C,R14*%
X166765000Y-91772936D02*
X166765000Y-92227064D01*
X168235000Y-91772936D02*
X168235000Y-92227064D01*
%TO.C,C10*%
X137465000Y-78761252D02*
X137465000Y-78238748D01*
X138935000Y-78761252D02*
X138935000Y-78238748D01*
%TO.C,U3*%
X160350000Y-88850000D02*
X160350000Y-72700000D01*
X173850000Y-72700000D02*
X173850000Y-88850000D01*
X173850000Y-88850000D02*
X160350000Y-88850000D01*
X160000000Y-79100000D02*
X159664000Y-79340000D01*
X159664000Y-78860000D01*
X160000000Y-79100000D01*
G36*
X160000000Y-79100000D02*
G01*
X159664000Y-79340000D01*
X159664000Y-78860000D01*
X160000000Y-79100000D01*
G37*
%TO.C,C16*%
X132275000Y-73978748D02*
X132275000Y-74501252D01*
X133745000Y-73978748D02*
X133745000Y-74501252D01*
%TO.C,U1*%
X170100000Y-94350000D02*
X167300000Y-94350000D01*
X170100000Y-97750000D02*
X167100000Y-97750000D01*
X167000000Y-94650000D02*
X166720000Y-94650000D01*
X167000000Y-94370000D01*
X167000000Y-94650000D01*
G36*
X167000000Y-94650000D02*
G01*
X166720000Y-94650000D01*
X167000000Y-94370000D01*
X167000000Y-94650000D01*
G37*
%TO.C,J3*%
X169485000Y-100635000D02*
X169550000Y-100635000D01*
X169485000Y-104265000D02*
X169485000Y-100635000D01*
X169485000Y-104265000D02*
X169550000Y-104265000D01*
X169550000Y-105540000D02*
X169550000Y-104265000D01*
X173450000Y-100635000D02*
X173515000Y-100635000D01*
X173450000Y-104265000D02*
X173515000Y-104265000D01*
X173515000Y-104265000D02*
X173515000Y-100635000D01*
%TO.C,D2*%
X146240000Y-102440000D02*
X147760000Y-102440000D01*
X146240000Y-102490000D02*
X146240000Y-102440000D01*
X146240000Y-104390000D02*
X146240000Y-103610000D01*
X146240000Y-105560000D02*
X146240000Y-105510000D01*
X147760000Y-102440000D02*
X147760000Y-103440000D01*
X147760000Y-104560000D02*
X147760000Y-105560000D01*
X147760000Y-105560000D02*
X146240000Y-105560000D01*
X145700000Y-103620000D02*
X145940000Y-103950000D01*
X145460000Y-103950000D01*
X145700000Y-103620000D01*
G36*
X145940000Y-103950000D02*
G01*
X145460000Y-103950000D01*
X145700000Y-103620000D01*
X145940000Y-103950000D01*
G37*
%TO.C,R15*%
X136977064Y-97615000D02*
X136522936Y-97615000D01*
X136977064Y-99085000D02*
X136522936Y-99085000D01*
%TO.C,L1*%
X122190000Y-84060000D02*
X122190000Y-85940000D01*
X124160000Y-82890000D02*
X126660000Y-82890000D01*
X124160000Y-87110000D02*
X126660000Y-87110000D01*
X126660000Y-82890000D02*
X126660000Y-83940000D01*
X126660000Y-83940000D02*
X127650000Y-83940000D01*
X126660000Y-87110000D02*
X126660000Y-86060000D01*
%TO.C,C8*%
X134265000Y-78761252D02*
X134265000Y-78238748D01*
X135735000Y-78761252D02*
X135735000Y-78238748D01*
%TO.C,R7*%
X143927064Y-81555000D02*
X143472936Y-81555000D01*
X143927064Y-83025000D02*
X143472936Y-83025000D01*
%TO.C,R18*%
X130265000Y-101272936D02*
X130265000Y-101727064D01*
X131735000Y-101272936D02*
X131735000Y-101727064D01*
%TD*%
M02*
