M48
; DRILL file KiCad 10.0.3 date 2026-07-25T19:14:00
; FORMAT={-:-/ absolute / metric / decimal}
; #@! TF.CreationDate,2026-07-25T19:14:00+10:00
; #@! TF.GenerationSoftware,Kicad,Pcbnew,10.0.3
; #@! TF.FileFunction,Plated,1,2,PTH
FMAT,2
METRIC
; #@! TA.AperFunction,Plated,PTH,ViaDrill
T1C0.300
; #@! TA.AperFunction,Plated,PTH,ComponentDrill
T2C0.800
%
G90
G05
T1
X118.5Y-102.25
X118.5Y-103.5
X119.0Y-74.0
X120.0Y-80.0
X120.25Y-102.25
X120.25Y-103.5
X123.0Y-101.0
X124.5Y-101.0
X124.75Y-95.0
X125.0Y-75.0
X125.0Y-80.0
X125.5Y-95.0
X126.0Y-101.0
X126.25Y-95.0
X127.0Y-88.0
X127.0Y-89.25
X127.75Y-82.75
X127.75Y-83.5
X127.75Y-106.0
X128.0Y-73.25
X128.0Y-75.25
X128.75Y-106.0
X128.875Y-96.625
X129.75Y-100.25
X130.5Y-88.5
X131.25Y-100.25
X131.25Y-101.5
X131.5Y-73.25
X132.0Y-97.0
X132.7Y-83.29
X133.0Y-81.5
X133.0Y-86.0
X133.25Y-88.0
X133.5Y-77.5
X133.5Y-82.5
X133.5Y-83.5
X133.5Y-84.5
X134.0Y-86.0
X134.0Y-89.25
X134.0Y-101.0
X134.75Y-73.25
X135.0Y-81.0
X136.5Y-97.0
X137.25Y-84.35
X137.5Y-100.0
X137.5Y-101.0
X137.75Y-73.25
X137.75Y-105.0
X137.75Y-106.0
X138.25Y-99.25
X138.756Y-81.082
X139.0Y-105.0
X139.0Y-106.0
X139.5Y-92.575
X139.5Y-102.0
X140.0Y-87.0
X140.0Y-97.0
X140.0Y-105.0
X140.0Y-106.0
X140.7Y-86.29
X141.0Y-73.25
X141.0Y-75.25
X141.0Y-81.29
X141.0Y-97.0
X141.7Y-84.29
X141.75Y-100.0
X142.5Y-100.0
X142.7Y-84.29
X143.25Y-92.25
X143.25Y-100.0
X143.5Y-90.25
X143.7Y-84.29
X144.0Y-100.0
X144.7Y-80.79
X144.7Y-84.29
X145.0Y-75.0
X145.0Y-77.5
X145.0Y-100.0
X146.5Y-105.25
X146.537Y-100.287
X147.0Y-93.0
X147.0Y-93.75
X147.0Y-97.25
X147.5Y-75.0
X147.5Y-77.5
X147.5Y-80.0
X147.69Y-81.7
X148.0Y-93.75
X148.25Y-80.885
X148.25Y-99.75
X148.25Y-105.25
X148.5Y-79.0
X148.982Y-82.58
X150.5Y-93.75
X151.0Y-100.0
X151.5Y-93.75
X151.6Y-91.315
X152.25Y-96.5
X152.5Y-98.5
X152.75Y-102.25
X153.5Y-79.75
X155.5Y-101.75
X155.5Y-102.5
X155.5Y-103.25
X155.5Y-104.0
X155.5Y-104.75
X155.5Y-105.5
X156.92Y-88.92
X157.0Y-95.0
X157.5Y-80.0
X158.0Y-86.0
X158.5Y-82.0
X158.75Y-80.0
X159.491Y-97.503
X159.5Y-104.75
X159.75Y-84.5
X159.75Y-85.75
X159.75Y-87.0
X160.0Y-80.0
X160.25Y-97.25
X160.5Y-104.75
X161.0Y-99.5
X161.5Y-80.0
X161.5Y-83.25
X161.5Y-88.5
X161.5Y-104.75
X162.75Y-83.25
X162.75Y-88.5
X163.0Y-100.5
X164.0Y-83.25
X164.0Y-88.5
X165.0Y-92.5
X165.0Y-95.0
X165.0Y-97.5
X165.5Y-84.5
X165.5Y-85.75
X165.5Y-87.0
X167.0Y-80.0
X167.5Y-90.0
X167.5Y-92.5
X167.5Y-95.0
X167.75Y-102.5
X168.5Y-80.0
X169.5Y-83.0
X169.5Y-94.0
X169.9Y-106.0
X170.0Y-80.0
X170.5Y-84.0
X171.25Y-80.0
X171.75Y-103.0
X172.5Y-103.0
X173.25Y-103.0
T2
X148.262Y-84.185
X148.262Y-91.805
M30
