%TF.GenerationSoftware,KiCad,Pcbnew,10.0.3*%
%TF.CreationDate,2026-07-25T19:14:00+10:00*%
%TF.ProjectId,WashingLineMonitor-P0001,57617368-696e-4674-9c69-6e654d6f6e69,AC*%
%TF.SameCoordinates,Original*%
%TF.FileFunction,Legend,Top*%
%TF.FilePolarity,Positive*%
%FSLAX46Y46*%
G04 Gerber Fmt 4.6, Leading zero omitted, Abs format (unit mm)*
G04 Created by KiCad (PCBNEW 10.0.3) date 2026-07-25 19:14:00*
%MOMM*%
%LPD*%
G01*
G04 APERTURE LIST*
%ADD10C,0.026458*%
%ADD11C,0.000000*%
%ADD12C,0.026499*%
%ADD13C,0.100000*%
%ADD14C,0.150000*%
%ADD15C,0.120000*%
%ADD16C,0.152400*%
G04 APERTURE END LIST*
D10*
X146922426Y-76716515D02*
X146221358Y-76515180D01*
X146221358Y-75333097D01*
X145683378Y-75333097D01*
X145683378Y-76484674D01*
X145488675Y-76484674D01*
X145005810Y-76484674D01*
X145004492Y-74812964D01*
X145011911Y-73141289D01*
X145728139Y-73141289D01*
X145728139Y-74392008D01*
X146247243Y-74392008D01*
X146247243Y-72988762D01*
X146922426Y-72988762D01*
X146922426Y-76716515D01*
D11*
G36*
X147989470Y-73489843D02*
G01*
X148085909Y-73492373D01*
X148173571Y-73496653D01*
X148252991Y-73502842D01*
X148324699Y-73511104D01*
X148389230Y-73521600D01*
X148447114Y-73534489D01*
X148498886Y-73549935D01*
X148545077Y-73568099D01*
X148586221Y-73589141D01*
X148622849Y-73613223D01*
X148655495Y-73640506D01*
X148684690Y-73671152D01*
X148710969Y-73705322D01*
X148734862Y-73743178D01*
X148745165Y-73763086D01*
X148754671Y-73785521D01*
X148771209Y-73837215D01*
X148784308Y-73896745D01*
X148793802Y-73962599D01*
X148799524Y-74033263D01*
X148801308Y-74107225D01*
X148798987Y-74182971D01*
X148792393Y-74258987D01*
X148781361Y-74333760D01*
X148765723Y-74405778D01*
X148745313Y-74473527D01*
X148733266Y-74505327D01*
X148719964Y-74535493D01*
X148705385Y-74563834D01*
X148689509Y-74590163D01*
X148672315Y-74614289D01*
X148653782Y-74636024D01*
X148633889Y-74655179D01*
X148612615Y-74671563D01*
X148589940Y-74684989D01*
X148565842Y-74695267D01*
X148510006Y-74713175D01*
X148454842Y-74727971D01*
X148400377Y-74739926D01*
X148346640Y-74749316D01*
X148293656Y-74756412D01*
X148241455Y-74761488D01*
X148190063Y-74764818D01*
X148139507Y-74766674D01*
X148041017Y-74767058D01*
X147946203Y-74764827D01*
X147855286Y-74762165D01*
X147768484Y-74761259D01*
X147768134Y-73489386D01*
X147989470Y-73489843D01*
G37*
D10*
X148028064Y-72863030D02*
X148205713Y-72866126D01*
X148305694Y-72869878D01*
X148407054Y-72876829D01*
X148508696Y-72887425D01*
X148609518Y-72902113D01*
X148708423Y-72921337D01*
X148804311Y-72945544D01*
X148896082Y-72975179D01*
X148982639Y-73010689D01*
X149062882Y-73052519D01*
X149100292Y-73075943D01*
X149135711Y-73101115D01*
X149169002Y-73128089D01*
X149200028Y-73156922D01*
X149228650Y-73187670D01*
X149254733Y-73220388D01*
X149278138Y-73255131D01*
X149298727Y-73291956D01*
X149316365Y-73330919D01*
X149330912Y-73372074D01*
X149342232Y-73415479D01*
X149350188Y-73461187D01*
X149354642Y-73509257D01*
X149355456Y-73559742D01*
X149345843Y-73807886D01*
X149323199Y-74092985D01*
X149305655Y-74242646D01*
X149283249Y-74393450D01*
X149255448Y-74542699D01*
X149221717Y-74687695D01*
X149181521Y-74825738D01*
X149134327Y-74954130D01*
X149079600Y-75070173D01*
X149049244Y-75122721D01*
X149016805Y-75171169D01*
X148982215Y-75215180D01*
X148945407Y-75254418D01*
X148906316Y-75288545D01*
X148864874Y-75317223D01*
X148821014Y-75340115D01*
X148774669Y-75356885D01*
X148725773Y-75367194D01*
X148674259Y-75370705D01*
X148510555Y-75372958D01*
X148293467Y-75372451D01*
X148183070Y-75370476D01*
X148081127Y-75366987D01*
X147994903Y-75361709D01*
X147959957Y-75358314D01*
X147931666Y-75354368D01*
X147931663Y-75354368D01*
X147927853Y-77204375D01*
X147170155Y-77184547D01*
X147170155Y-72866126D01*
X147514021Y-72862081D01*
X147848255Y-72861576D01*
X148028064Y-72863030D01*
X148213186Y-72186595D02*
X148647946Y-72227124D01*
X149057385Y-72292877D01*
X149436065Y-72384756D01*
X149098190Y-72486592D01*
X148307802Y-72734614D01*
X147847556Y-72886500D01*
X147399751Y-73042599D01*
X147006243Y-73192132D01*
X146842931Y-73261068D01*
X146708889Y-73324321D01*
X146015434Y-73690302D01*
X145562118Y-73941285D01*
X145094973Y-74212194D01*
X144656920Y-74483977D01*
X144462218Y-74614242D01*
X144290884Y-74737581D01*
X144148285Y-74851613D01*
X144039785Y-74953956D01*
X144000000Y-75000000D01*
X143970751Y-75042229D01*
X143952710Y-75080344D01*
X143946548Y-75114049D01*
X143956114Y-75155697D01*
X143984254Y-75202649D01*
X144030124Y-75254466D01*
X144092883Y-75310711D01*
X144265702Y-75434732D01*
X144495979Y-75571211D01*
X144776981Y-75716644D01*
X145101975Y-75867529D01*
X145464228Y-76020365D01*
X145857007Y-76171648D01*
X146273579Y-76317877D01*
X146707212Y-76455549D01*
X147151173Y-76581161D01*
X147598728Y-76691212D01*
X148043146Y-76782199D01*
X148477692Y-76850619D01*
X148895635Y-76892971D01*
X149096276Y-76903276D01*
X149290241Y-76905751D01*
X149196571Y-76972049D01*
X149085549Y-77034785D01*
X148815541Y-77149423D01*
X148488402Y-77249364D01*
X148112322Y-77334303D01*
X147695486Y-77403939D01*
X147246081Y-77457968D01*
X146772294Y-77496087D01*
X146282313Y-77517993D01*
X145784324Y-77523383D01*
X145286515Y-77511955D01*
X144797072Y-77483405D01*
X144324182Y-77437430D01*
X143876033Y-77373728D01*
X143460810Y-77291995D01*
X143086702Y-77191929D01*
X142761896Y-77073226D01*
X142619236Y-77005586D01*
X142488499Y-76931064D01*
X142369407Y-76850074D01*
X142261682Y-76763029D01*
X142165045Y-76670341D01*
X142079218Y-76572423D01*
X142003924Y-76469690D01*
X141938885Y-76362553D01*
X141883822Y-76251427D01*
X141838457Y-76136723D01*
X141802513Y-76018856D01*
X141775711Y-75898238D01*
X141757773Y-75775282D01*
X141748422Y-75650401D01*
X141747379Y-75524009D01*
X141754366Y-75396519D01*
X141769105Y-75268343D01*
X141791318Y-75139895D01*
X141820727Y-75011588D01*
X141857054Y-74883835D01*
X141900022Y-74757049D01*
X141949351Y-74631644D01*
X142004764Y-74508031D01*
X142065983Y-74386625D01*
X142132730Y-74267838D01*
X142204726Y-74152084D01*
X142281695Y-74039775D01*
X142363357Y-73931325D01*
X142449435Y-73827147D01*
X142539650Y-73727653D01*
X142633725Y-73633258D01*
X142731382Y-73544374D01*
X142859909Y-73440125D01*
X143000459Y-73339136D01*
X143314908Y-73147387D01*
X143669293Y-72970030D01*
X144058173Y-72807968D01*
X144476113Y-72662102D01*
X144917673Y-72533337D01*
X145377416Y-72422573D01*
X145849903Y-72330715D01*
X146329698Y-72258665D01*
X146811362Y-72207325D01*
X147289456Y-72177599D01*
X147758543Y-72170388D01*
X148213186Y-72186595D01*
G36*
X148213186Y-72186595D02*
G01*
X148647946Y-72227124D01*
X149057385Y-72292877D01*
X149436065Y-72384756D01*
X149098190Y-72486592D01*
X148307802Y-72734614D01*
X147847556Y-72886500D01*
X147399751Y-73042599D01*
X147006243Y-73192132D01*
X146842931Y-73261068D01*
X146708889Y-73324321D01*
X146015434Y-73690302D01*
X145562118Y-73941285D01*
X145094973Y-74212194D01*
X144656920Y-74483977D01*
X144462218Y-74614242D01*
X144290884Y-74737581D01*
X144148285Y-74851613D01*
X144039785Y-74953956D01*
X144000000Y-75000000D01*
X143970751Y-75042229D01*
X143952710Y-75080344D01*
X143946548Y-75114049D01*
X143956114Y-75155697D01*
X143984254Y-75202649D01*
X144030124Y-75254466D01*
X144092883Y-75310711D01*
X144265702Y-75434732D01*
X144495979Y-75571211D01*
X144776981Y-75716644D01*
X145101975Y-75867529D01*
X145464228Y-76020365D01*
X145857007Y-76171648D01*
X146273579Y-76317877D01*
X146707212Y-76455549D01*
X147151173Y-76581161D01*
X147598728Y-76691212D01*
X148043146Y-76782199D01*
X148477692Y-76850619D01*
X148895635Y-76892971D01*
X149096276Y-76903276D01*
X149290241Y-76905751D01*
X149196571Y-76972049D01*
X149085549Y-77034785D01*
X148815541Y-77149423D01*
X148488402Y-77249364D01*
X148112322Y-77334303D01*
X147695486Y-77403939D01*
X147246081Y-77457968D01*
X146772294Y-77496087D01*
X146282313Y-77517993D01*
X145784324Y-77523383D01*
X145286515Y-77511955D01*
X144797072Y-77483405D01*
X144324182Y-77437430D01*
X143876033Y-77373728D01*
X143460810Y-77291995D01*
X143086702Y-77191929D01*
X142761896Y-77073226D01*
X142619236Y-77005586D01*
X142488499Y-76931064D01*
X142369407Y-76850074D01*
X142261682Y-76763029D01*
X142165045Y-76670341D01*
X142079218Y-76572423D01*
X142003924Y-76469690D01*
X141938885Y-76362553D01*
X141883822Y-76251427D01*
X141838457Y-76136723D01*
X141802513Y-76018856D01*
X141775711Y-75898238D01*
X141757773Y-75775282D01*
X141748422Y-75650401D01*
X141747379Y-75524009D01*
X141754366Y-75396519D01*
X141769105Y-75268343D01*
X141791318Y-75139895D01*
X141820727Y-75011588D01*
X141857054Y-74883835D01*
X141900022Y-74757049D01*
X141949351Y-74631644D01*
X142004764Y-74508031D01*
X142065983Y-74386625D01*
X142132730Y-74267838D01*
X142204726Y-74152084D01*
X142281695Y-74039775D01*
X142363357Y-73931325D01*
X142449435Y-73827147D01*
X142539650Y-73727653D01*
X142633725Y-73633258D01*
X142731382Y-73544374D01*
X142859909Y-73440125D01*
X143000459Y-73339136D01*
X143314908Y-73147387D01*
X143669293Y-72970030D01*
X144058173Y-72807968D01*
X144476113Y-72662102D01*
X144917673Y-72533337D01*
X145377416Y-72422573D01*
X145849903Y-72330715D01*
X146329698Y-72258665D01*
X146811362Y-72207325D01*
X147289456Y-72177599D01*
X147758543Y-72170388D01*
X148213186Y-72186595D01*
G37*
D12*
X147768134Y-73489386D02*
X147783846Y-73489247D01*
X147799381Y-73489130D01*
X147814298Y-73489038D01*
X147829051Y-73488968D01*
X147843248Y-73488920D01*
X147857291Y-73488893D01*
X147870828Y-73488888D01*
X147884222Y-73488902D01*
X147897154Y-73488937D01*
X147909951Y-73488991D01*
X147922325Y-73489064D01*
X147934572Y-73489156D01*
X147946429Y-73489266D01*
X147958165Y-73489394D01*
X147969541Y-73489539D01*
X147980803Y-73489703D01*
X147991731Y-73489882D01*
X148002551Y-73490080D01*
X148013059Y-73490292D01*
X148023465Y-73490522D01*
X148033580Y-73490765D01*
X148043598Y-73491027D01*
X148053344Y-73491302D01*
X148062996Y-73491594D01*
X148072394Y-73491899D01*
X148081703Y-73492221D01*
X148090772Y-73492555D01*
X148099757Y-73492906D01*
X148108516Y-73493268D01*
X148117193Y-73493647D01*
X148125658Y-73494037D01*
X148134045Y-73494444D01*
X148142231Y-73494861D01*
X148150343Y-73495294D01*
X148158264Y-73495737D01*
X148166114Y-73496197D01*
X148173783Y-73496666D01*
X148181384Y-73497151D01*
X148188814Y-73497645D01*
X148196177Y-73498155D01*
X148203379Y-73498674D01*
X148210516Y-73499208D01*
X148217500Y-73499752D01*
X148224422Y-73500310D01*
X148231197Y-73500877D01*
X148237913Y-73501459D01*
X148244489Y-73502049D01*
X148251008Y-73502654D01*
X148257394Y-73503267D01*
X148263725Y-73503895D01*
X148269928Y-73504530D01*
X148276078Y-73505181D01*
X148282107Y-73505838D01*
X148288085Y-73506510D01*
X148293946Y-73507190D01*
X148299758Y-73507883D01*
X148305458Y-73508584D01*
X148311111Y-73509299D01*
X148316657Y-73510021D01*
X148322157Y-73510757D01*
X148327555Y-73511500D01*
X148332908Y-73512256D01*
X148338163Y-73513020D01*
X148343375Y-73513797D01*
X148348494Y-73514580D01*
X148353570Y-73515378D01*
X148358557Y-73516181D01*
X148363502Y-73516999D01*
X148368362Y-73517822D01*
X148373182Y-73518659D01*
X148377920Y-73519502D01*
X148382619Y-73520359D01*
X148387239Y-73521221D01*
X148391821Y-73522097D01*
X148396328Y-73522979D01*
X148400798Y-73523874D01*
X148405195Y-73524775D01*
X148409556Y-73525690D01*
X148413848Y-73526610D01*
X148418105Y-73527543D01*
X148422295Y-73528482D01*
X148426451Y-73529434D01*
X148430543Y-73530392D01*
X148434602Y-73531362D01*
X148438599Y-73532339D01*
X148442564Y-73533328D01*
X148446469Y-73534323D01*
X148450344Y-73535331D01*
X148454161Y-73536344D01*
X148457948Y-73537371D01*
X148461680Y-73538403D01*
X148465382Y-73539448D01*
X148469032Y-73540499D01*
X148472652Y-73541562D01*
X148476222Y-73542631D01*
X148479764Y-73543713D01*
X148483257Y-73544800D01*
X148486722Y-73545901D01*
X148490141Y-73547007D01*
X148493533Y-73548126D01*
X148496879Y-73549250D01*
X148500200Y-73550388D01*
X148503477Y-73551531D01*
X148506728Y-73552687D01*
X148509938Y-73553849D01*
X148513123Y-73555024D01*
X148516268Y-73556205D01*
X148519389Y-73557398D01*
X148522471Y-73558598D01*
X148525530Y-73559811D01*
X148528551Y-73561030D01*
X148531549Y-73562261D01*
X148534512Y-73563500D01*
X148537452Y-73564750D01*
X148540358Y-73566008D01*
X148543242Y-73567278D01*
X148546093Y-73568556D01*
X148548922Y-73569846D01*
X148551720Y-73571143D01*
X148554497Y-73572453D01*
X148557243Y-73573771D01*
X148559969Y-73575100D01*
X148562666Y-73576438D01*
X148565343Y-73577789D01*
X148567992Y-73579147D01*
X148570622Y-73580518D01*
X148573224Y-73581898D01*
X148575808Y-73583290D01*
X148578366Y-73584691D01*
X148580904Y-73586105D01*
X148583419Y-73587528D01*
X148585915Y-73588963D01*
X148588388Y-73590408D01*
X148590842Y-73591866D01*
X148593275Y-73593333D01*
X148595689Y-73594813D01*
X148598083Y-73596304D01*
X148600459Y-73597807D01*
X148602814Y-73599322D01*
X148605153Y-73600849D01*
X148607472Y-73602387D01*
X148609775Y-73603938D01*
X148612059Y-73605501D01*
X148614327Y-73607077D01*
X148616577Y-73608665D01*
X148618811Y-73610266D01*
X148621029Y-73611880D01*
X148623231Y-73613507D01*
X148625417Y-73615147D01*
X148627588Y-73616801D01*
X148631885Y-73620149D01*
X148636123Y-73623554D01*
X148640306Y-73627016D01*
X148644435Y-73630537D01*
X148648513Y-73634119D01*
X148652541Y-73637764D01*
X148656521Y-73641473D01*
X148660456Y-73645250D01*
X148664348Y-73649095D01*
X148668197Y-73653011D01*
X148672007Y-73657001D01*
X148675780Y-73661067D01*
X148679516Y-73665212D01*
X148683219Y-73669438D01*
X148686889Y-73673749D01*
X148690529Y-73678148D01*
X148694140Y-73682637D01*
X148697725Y-73687221D01*
X148701286Y-73691903D01*
X148704823Y-73696687D01*
X148708340Y-73701577D01*
X148711838Y-73706578D01*
X148715319Y-73711695D01*
X148718786Y-73716931D01*
X148722240Y-73722294D01*
X148725683Y-73727788D01*
X148729119Y-73733419D01*
X148732549Y-73739195D01*
X148734862Y-73743178D01*
X147780180Y-73475621D02*
X147780180Y-74777161D01*
D13*
X147780180Y-73475621D02*
X147780180Y-74777161D01*
D12*
X148565842Y-74695267D02*
X148556657Y-74698423D01*
X148547444Y-74701504D01*
X148538201Y-74704512D01*
X148528927Y-74707446D01*
X148519620Y-74710307D01*
X148510280Y-74713095D01*
X148500903Y-74715810D01*
X148491490Y-74718454D01*
X148482039Y-74721025D01*
X148472547Y-74723525D01*
X148463014Y-74725954D01*
X148453436Y-74728312D01*
X148443813Y-74730599D01*
X148434142Y-74732815D01*
X148424421Y-74734962D01*
X148414648Y-74737039D01*
X148404821Y-74739045D01*
X148394936Y-74740983D01*
X148384991Y-74742851D01*
X148374984Y-74744650D01*
X148364911Y-74746380D01*
X148354769Y-74748042D01*
X148344555Y-74749634D01*
X148334264Y-74751159D01*
X148323893Y-74752615D01*
X148313437Y-74754002D01*
X148302891Y-74755322D01*
X148292251Y-74756573D01*
X148281511Y-74757756D01*
X148270664Y-74758871D01*
X148259704Y-74759918D01*
X148248624Y-74760897D01*
X148237415Y-74761808D01*
X148226067Y-74762650D01*
X148214571Y-74763424D01*
X148202916Y-74764130D01*
X148191087Y-74764766D01*
X148179069Y-74765334D01*
X148166846Y-74765833D01*
X148154397Y-74766261D01*
X148141698Y-74766620D01*
X148128721Y-74766907D01*
X148115432Y-74767123D01*
X148101788Y-74767266D01*
X148087739Y-74767335D01*
X148073216Y-74767328D01*
X148058131Y-74767243D01*
X148042366Y-74767076D01*
X148025748Y-74766823D01*
X148008019Y-74766476D01*
X147988748Y-74766023D01*
X147967113Y-74765441D01*
X147941110Y-74764672D01*
X147922842Y-74764108D01*
X147902864Y-74763492D01*
X147883076Y-74762905D01*
X147863481Y-74762370D01*
X147853757Y-74762128D01*
X147844082Y-74761908D01*
X147834456Y-74761712D01*
X147824880Y-74761544D01*
X147815354Y-74761405D01*
X147805878Y-74761299D01*
X147796453Y-74761228D01*
X147787079Y-74761196D01*
X147777756Y-74761206D01*
X147768484Y-74761259D01*
X148734862Y-73743178D02*
X148736971Y-73746922D01*
X148739076Y-73750823D01*
X148741175Y-73754881D01*
X148743267Y-73759102D01*
X148745352Y-73763486D01*
X148747426Y-73768038D01*
X148749490Y-73772759D01*
X148751542Y-73777651D01*
X148753579Y-73782717D01*
X148755601Y-73787960D01*
X148757605Y-73793379D01*
X148759590Y-73798978D01*
X148761554Y-73804758D01*
X148763495Y-73810719D01*
X148765411Y-73816863D01*
X148767300Y-73823190D01*
X148769160Y-73829700D01*
X148770990Y-73836394D01*
X148772786Y-73843270D01*
X148774547Y-73850329D01*
X148776270Y-73857569D01*
X148777954Y-73864990D01*
X148779597Y-73872589D01*
X148781195Y-73880364D01*
X148782747Y-73888312D01*
X148784251Y-73896432D01*
X148785705Y-73904720D01*
X148787106Y-73913172D01*
X148788452Y-73921784D01*
X148789741Y-73930552D01*
X148790972Y-73939472D01*
X148792142Y-73948537D01*
X148793250Y-73957744D01*
X148794292Y-73967085D01*
X148795269Y-73976556D01*
X148796178Y-73986149D01*
X148797017Y-73995857D01*
X148797785Y-74005675D01*
X148798480Y-74015595D01*
X148799102Y-74025609D01*
X148799649Y-74035711D01*
X148800120Y-74045891D01*
X148800514Y-74056143D01*
X148800682Y-74061293D01*
X148800830Y-74066458D01*
X148800959Y-74071637D01*
X148801068Y-74076828D01*
X148801157Y-74082031D01*
X148801226Y-74087245D01*
X148801276Y-74092468D01*
X148801305Y-74097702D01*
X148801315Y-74102941D01*
X148801304Y-74108189D01*
X148801274Y-74113440D01*
X148801223Y-74118700D01*
X148801153Y-74123959D01*
X148801062Y-74129225D01*
X148800951Y-74134488D01*
X148800820Y-74139757D01*
X148800669Y-74145020D01*
X148800498Y-74150288D01*
X148800307Y-74155547D01*
X148800096Y-74160811D01*
X148799866Y-74166062D01*
X148799615Y-74171317D01*
X148799344Y-74176558D01*
X148799054Y-74181800D01*
X148798744Y-74187026D01*
X148798415Y-74192252D01*
X148798066Y-74197460D01*
X148797697Y-74202667D01*
X148797310Y-74207852D01*
X148796903Y-74213037D01*
X148796477Y-74218198D01*
X148796032Y-74223356D01*
X148795568Y-74228489D01*
X148795085Y-74233619D01*
X148794584Y-74238720D01*
X148794063Y-74243818D01*
X148793526Y-74248885D01*
X148792968Y-74253948D01*
X148792394Y-74258978D01*
X148791800Y-74264003D01*
X148791190Y-74268994D01*
X148790561Y-74273979D01*
X148789916Y-74278929D01*
X148789252Y-74283871D01*
X148788572Y-74288776D01*
X148787873Y-74293673D01*
X148787160Y-74298531D01*
X148786427Y-74303381D01*
X148785680Y-74308191D01*
X148784914Y-74312992D01*
X148784135Y-74317751D01*
X148783336Y-74322501D01*
X148782525Y-74327208D01*
X148781695Y-74331904D01*
X148780852Y-74336557D01*
X148779991Y-74341199D01*
X148779117Y-74345796D01*
X148778226Y-74350382D01*
X148777322Y-74354922D01*
X148776401Y-74359450D01*
X148775469Y-74363932D01*
X148774518Y-74368401D01*
X148773557Y-74372823D01*
X148772579Y-74377232D01*
X148771590Y-74381594D01*
X148770584Y-74385941D01*
X148769568Y-74390241D01*
X148768536Y-74394527D01*
X148767494Y-74398764D01*
X148766434Y-74402987D01*
X148765367Y-74407161D01*
X148764282Y-74411320D01*
X148763190Y-74415430D01*
X148762081Y-74419525D01*
X148760964Y-74423570D01*
X148759831Y-74427600D01*
X148758691Y-74431581D01*
X148757534Y-74435545D01*
X148756371Y-74439460D01*
X148755192Y-74443358D01*
X148754007Y-74447207D01*
X148752806Y-74451040D01*
X148751600Y-74454823D01*
X148750377Y-74458589D01*
X148749150Y-74462306D01*
X148747907Y-74466005D01*
X148746659Y-74469656D01*
X148745396Y-74473289D01*
X148744129Y-74476873D01*
X148742847Y-74480439D01*
X148741561Y-74483957D01*
X148740260Y-74487457D01*
X148738955Y-74490909D01*
X148737636Y-74494342D01*
X148736314Y-74497728D01*
X148734977Y-74501095D01*
X148733638Y-74504415D01*
X148732285Y-74507716D01*
X148730929Y-74510970D01*
X148729559Y-74514205D01*
X148728187Y-74517393D01*
X148726801Y-74520563D01*
X148725413Y-74523687D01*
X148724012Y-74526791D01*
X148722610Y-74529850D01*
X148721194Y-74532890D01*
X148719777Y-74535885D01*
X148718347Y-74538860D01*
X148716916Y-74541791D01*
X148715472Y-74544702D01*
X148714028Y-74547570D01*
X148712570Y-74550418D01*
X148711113Y-74553222D01*
X148709643Y-74556008D01*
X148708173Y-74558750D01*
X148706690Y-74561473D01*
X148705208Y-74564153D01*
X148703713Y-74566814D01*
X148702219Y-74569433D01*
X148700713Y-74572033D01*
X148699207Y-74574591D01*
X148697690Y-74577131D01*
X148696173Y-74579629D01*
X148694645Y-74582108D01*
X148693118Y-74584547D01*
X148691579Y-74586967D01*
X148690041Y-74589348D01*
X148688492Y-74591709D01*
X148686944Y-74594031D01*
X148685385Y-74596334D01*
X148683828Y-74598599D01*
X148682260Y-74600845D01*
X148680693Y-74603053D01*
X148679115Y-74605242D01*
X148677539Y-74607394D01*
X148675952Y-74609526D01*
X148674367Y-74611623D01*
X148672772Y-74613700D01*
X148671178Y-74615742D01*
X148669574Y-74617765D01*
X148667972Y-74619753D01*
X148666359Y-74621722D01*
X148664749Y-74623656D01*
X148663128Y-74625572D01*
X148661510Y-74627453D01*
X148659881Y-74629316D01*
X148658254Y-74631146D01*
X148656618Y-74632957D01*
X148654984Y-74634735D01*
X148653339Y-74636495D01*
X148651697Y-74638222D01*
X148650045Y-74639931D01*
X148648396Y-74641609D01*
X148646737Y-74643268D01*
X148645079Y-74644896D01*
X148643413Y-74646506D01*
X148641748Y-74648086D01*
X148640074Y-74649647D01*
X148638402Y-74651178D01*
X148636721Y-74652691D01*
X148635041Y-74654175D01*
X148633353Y-74655641D01*
X148631666Y-74657078D01*
X148629970Y-74658497D01*
X148628276Y-74659888D01*
X148626573Y-74661260D01*
X148624872Y-74662606D01*
X148623161Y-74663932D01*
X148621452Y-74665233D01*
X148619735Y-74666514D01*
X148618018Y-74667770D01*
X148616293Y-74669007D01*
X148614570Y-74670219D01*
X148612837Y-74671412D01*
X148611106Y-74672580D01*
X148609366Y-74673730D01*
X148607626Y-74674855D01*
X148605879Y-74675962D01*
X148604132Y-74677044D01*
X148602376Y-74678108D01*
X148600621Y-74679148D01*
X148598858Y-74680170D01*
X148597095Y-74681169D01*
X148595323Y-74682149D01*
X148593552Y-74683107D01*
X148591772Y-74684046D01*
X148589993Y-74684962D01*
X148588204Y-74685860D01*
X148586416Y-74686736D01*
X148584619Y-74687594D01*
X148582822Y-74688429D01*
X148581016Y-74689247D01*
X148579210Y-74690043D01*
X148577395Y-74690820D01*
X148575579Y-74691576D01*
X148573756Y-74692314D01*
X148571930Y-74693030D01*
X148570097Y-74693729D01*
X148568262Y-74694406D01*
X148566418Y-74695065D01*
X148565842Y-74695267D01*
D13*
X153577693Y-101670038D02*
X153482455Y-101622419D01*
X153482455Y-101622419D02*
X153339598Y-101622419D01*
X153339598Y-101622419D02*
X153196741Y-101670038D01*
X153196741Y-101670038D02*
X153101503Y-101765276D01*
X153101503Y-101765276D02*
X153053884Y-101860514D01*
X153053884Y-101860514D02*
X153006265Y-102050990D01*
X153006265Y-102050990D02*
X153006265Y-102193847D01*
X153006265Y-102193847D02*
X153053884Y-102384323D01*
X153053884Y-102384323D02*
X153101503Y-102479561D01*
X153101503Y-102479561D02*
X153196741Y-102574800D01*
X153196741Y-102574800D02*
X153339598Y-102622419D01*
X153339598Y-102622419D02*
X153434836Y-102622419D01*
X153434836Y-102622419D02*
X153577693Y-102574800D01*
X153577693Y-102574800D02*
X153625312Y-102527180D01*
X153625312Y-102527180D02*
X153625312Y-102193847D01*
X153625312Y-102193847D02*
X153434836Y-102193847D01*
X154053884Y-102622419D02*
X154053884Y-101622419D01*
X154053884Y-101622419D02*
X154625312Y-102622419D01*
X154625312Y-102622419D02*
X154625312Y-101622419D01*
X155101503Y-102622419D02*
X155101503Y-101622419D01*
X155101503Y-101622419D02*
X155339598Y-101622419D01*
X155339598Y-101622419D02*
X155482455Y-101670038D01*
X155482455Y-101670038D02*
X155577693Y-101765276D01*
X155577693Y-101765276D02*
X155625312Y-101860514D01*
X155625312Y-101860514D02*
X155672931Y-102050990D01*
X155672931Y-102050990D02*
X155672931Y-102193847D01*
X155672931Y-102193847D02*
X155625312Y-102384323D01*
X155625312Y-102384323D02*
X155577693Y-102479561D01*
X155577693Y-102479561D02*
X155482455Y-102574800D01*
X155482455Y-102574800D02*
X155339598Y-102622419D01*
X155339598Y-102622419D02*
X155101503Y-102622419D01*
X128008533Y-92303884D02*
X128008533Y-93065789D01*
X127627580Y-92684836D02*
X128389485Y-92684836D01*
X128008533Y-93541979D02*
X128008533Y-94303884D01*
D14*
X152616667Y-105612295D02*
X152350000Y-105231342D01*
X152159524Y-105612295D02*
X152159524Y-104812295D01*
X152159524Y-104812295D02*
X152464286Y-104812295D01*
X152464286Y-104812295D02*
X152540476Y-104850390D01*
X152540476Y-104850390D02*
X152578571Y-104888485D01*
X152578571Y-104888485D02*
X152616667Y-104964676D01*
X152616667Y-104964676D02*
X152616667Y-105078961D01*
X152616667Y-105078961D02*
X152578571Y-105155152D01*
X152578571Y-105155152D02*
X152540476Y-105193247D01*
X152540476Y-105193247D02*
X152464286Y-105231342D01*
X152464286Y-105231342D02*
X152159524Y-105231342D01*
X153378571Y-105612295D02*
X152921428Y-105612295D01*
X153150000Y-105612295D02*
X153150000Y-104812295D01*
X153150000Y-104812295D02*
X153073809Y-104926580D01*
X153073809Y-104926580D02*
X152997619Y-105002771D01*
X152997619Y-105002771D02*
X152921428Y-105040866D01*
X147604167Y-81236104D02*
X147566071Y-81274200D01*
X147566071Y-81274200D02*
X147451786Y-81312295D01*
X147451786Y-81312295D02*
X147375595Y-81312295D01*
X147375595Y-81312295D02*
X147261309Y-81274200D01*
X147261309Y-81274200D02*
X147185119Y-81198009D01*
X147185119Y-81198009D02*
X147147024Y-81121819D01*
X147147024Y-81121819D02*
X147108928Y-80969438D01*
X147108928Y-80969438D02*
X147108928Y-80855152D01*
X147108928Y-80855152D02*
X147147024Y-80702771D01*
X147147024Y-80702771D02*
X147185119Y-80626580D01*
X147185119Y-80626580D02*
X147261309Y-80550390D01*
X147261309Y-80550390D02*
X147375595Y-80512295D01*
X147375595Y-80512295D02*
X147451786Y-80512295D01*
X147451786Y-80512295D02*
X147566071Y-80550390D01*
X147566071Y-80550390D02*
X147604167Y-80588485D01*
X148366071Y-81312295D02*
X147908928Y-81312295D01*
X148137500Y-81312295D02*
X148137500Y-80512295D01*
X148137500Y-80512295D02*
X148061309Y-80626580D01*
X148061309Y-80626580D02*
X147985119Y-80702771D01*
X147985119Y-80702771D02*
X147908928Y-80740866D01*
X127686104Y-90714285D02*
X127724200Y-90752381D01*
X127724200Y-90752381D02*
X127762295Y-90866666D01*
X127762295Y-90866666D02*
X127762295Y-90942857D01*
X127762295Y-90942857D02*
X127724200Y-91057143D01*
X127724200Y-91057143D02*
X127648009Y-91133333D01*
X127648009Y-91133333D02*
X127571819Y-91171428D01*
X127571819Y-91171428D02*
X127419438Y-91209524D01*
X127419438Y-91209524D02*
X127305152Y-91209524D01*
X127305152Y-91209524D02*
X127152771Y-91171428D01*
X127152771Y-91171428D02*
X127076580Y-91133333D01*
X127076580Y-91133333D02*
X127000390Y-91057143D01*
X127000390Y-91057143D02*
X126962295Y-90942857D01*
X126962295Y-90942857D02*
X126962295Y-90866666D01*
X126962295Y-90866666D02*
X127000390Y-90752381D01*
X127000390Y-90752381D02*
X127038485Y-90714285D01*
X127762295Y-89952381D02*
X127762295Y-90409524D01*
X127762295Y-90180952D02*
X126962295Y-90180952D01*
X126962295Y-90180952D02*
X127076580Y-90257143D01*
X127076580Y-90257143D02*
X127152771Y-90333333D01*
X127152771Y-90333333D02*
X127190866Y-90409524D01*
X127305152Y-89495238D02*
X127267057Y-89571428D01*
X127267057Y-89571428D02*
X127228961Y-89609523D01*
X127228961Y-89609523D02*
X127152771Y-89647619D01*
X127152771Y-89647619D02*
X127114676Y-89647619D01*
X127114676Y-89647619D02*
X127038485Y-89609523D01*
X127038485Y-89609523D02*
X127000390Y-89571428D01*
X127000390Y-89571428D02*
X126962295Y-89495238D01*
X126962295Y-89495238D02*
X126962295Y-89342857D01*
X126962295Y-89342857D02*
X127000390Y-89266666D01*
X127000390Y-89266666D02*
X127038485Y-89228571D01*
X127038485Y-89228571D02*
X127114676Y-89190476D01*
X127114676Y-89190476D02*
X127152771Y-89190476D01*
X127152771Y-89190476D02*
X127228961Y-89228571D01*
X127228961Y-89228571D02*
X127267057Y-89266666D01*
X127267057Y-89266666D02*
X127305152Y-89342857D01*
X127305152Y-89342857D02*
X127305152Y-89495238D01*
X127305152Y-89495238D02*
X127343247Y-89571428D01*
X127343247Y-89571428D02*
X127381342Y-89609523D01*
X127381342Y-89609523D02*
X127457533Y-89647619D01*
X127457533Y-89647619D02*
X127609914Y-89647619D01*
X127609914Y-89647619D02*
X127686104Y-89609523D01*
X127686104Y-89609523D02*
X127724200Y-89571428D01*
X127724200Y-89571428D02*
X127762295Y-89495238D01*
X127762295Y-89495238D02*
X127762295Y-89342857D01*
X127762295Y-89342857D02*
X127724200Y-89266666D01*
X127724200Y-89266666D02*
X127686104Y-89228571D01*
X127686104Y-89228571D02*
X127609914Y-89190476D01*
X127609914Y-89190476D02*
X127457533Y-89190476D01*
X127457533Y-89190476D02*
X127381342Y-89228571D01*
X127381342Y-89228571D02*
X127343247Y-89266666D01*
X127343247Y-89266666D02*
X127305152Y-89342857D01*
X133116667Y-82536104D02*
X133078571Y-82574200D01*
X133078571Y-82574200D02*
X132964286Y-82612295D01*
X132964286Y-82612295D02*
X132888095Y-82612295D01*
X132888095Y-82612295D02*
X132773809Y-82574200D01*
X132773809Y-82574200D02*
X132697619Y-82498009D01*
X132697619Y-82498009D02*
X132659524Y-82421819D01*
X132659524Y-82421819D02*
X132621428Y-82269438D01*
X132621428Y-82269438D02*
X132621428Y-82155152D01*
X132621428Y-82155152D02*
X132659524Y-82002771D01*
X132659524Y-82002771D02*
X132697619Y-81926580D01*
X132697619Y-81926580D02*
X132773809Y-81850390D01*
X132773809Y-81850390D02*
X132888095Y-81812295D01*
X132888095Y-81812295D02*
X132964286Y-81812295D01*
X132964286Y-81812295D02*
X133078571Y-81850390D01*
X133078571Y-81850390D02*
X133116667Y-81888485D01*
X133840476Y-81812295D02*
X133459524Y-81812295D01*
X133459524Y-81812295D02*
X133421428Y-82193247D01*
X133421428Y-82193247D02*
X133459524Y-82155152D01*
X133459524Y-82155152D02*
X133535714Y-82117057D01*
X133535714Y-82117057D02*
X133726190Y-82117057D01*
X133726190Y-82117057D02*
X133802381Y-82155152D01*
X133802381Y-82155152D02*
X133840476Y-82193247D01*
X133840476Y-82193247D02*
X133878571Y-82269438D01*
X133878571Y-82269438D02*
X133878571Y-82459914D01*
X133878571Y-82459914D02*
X133840476Y-82536104D01*
X133840476Y-82536104D02*
X133802381Y-82574200D01*
X133802381Y-82574200D02*
X133726190Y-82612295D01*
X133726190Y-82612295D02*
X133535714Y-82612295D01*
X133535714Y-82612295D02*
X133459524Y-82574200D01*
X133459524Y-82574200D02*
X133421428Y-82536104D01*
X151862295Y-85264285D02*
X151481342Y-85530952D01*
X151862295Y-85721428D02*
X151062295Y-85721428D01*
X151062295Y-85721428D02*
X151062295Y-85416666D01*
X151062295Y-85416666D02*
X151100390Y-85340476D01*
X151100390Y-85340476D02*
X151138485Y-85302381D01*
X151138485Y-85302381D02*
X151214676Y-85264285D01*
X151214676Y-85264285D02*
X151328961Y-85264285D01*
X151328961Y-85264285D02*
X151405152Y-85302381D01*
X151405152Y-85302381D02*
X151443247Y-85340476D01*
X151443247Y-85340476D02*
X151481342Y-85416666D01*
X151481342Y-85416666D02*
X151481342Y-85721428D01*
X151862295Y-84502381D02*
X151862295Y-84959524D01*
X151862295Y-84730952D02*
X151062295Y-84730952D01*
X151062295Y-84730952D02*
X151176580Y-84807143D01*
X151176580Y-84807143D02*
X151252771Y-84883333D01*
X151252771Y-84883333D02*
X151290866Y-84959524D01*
X151062295Y-84235714D02*
X151062295Y-83740476D01*
X151062295Y-83740476D02*
X151367057Y-84007142D01*
X151367057Y-84007142D02*
X151367057Y-83892857D01*
X151367057Y-83892857D02*
X151405152Y-83816666D01*
X151405152Y-83816666D02*
X151443247Y-83778571D01*
X151443247Y-83778571D02*
X151519438Y-83740476D01*
X151519438Y-83740476D02*
X151709914Y-83740476D01*
X151709914Y-83740476D02*
X151786104Y-83778571D01*
X151786104Y-83778571D02*
X151824200Y-83816666D01*
X151824200Y-83816666D02*
X151862295Y-83892857D01*
X151862295Y-83892857D02*
X151862295Y-84121428D01*
X151862295Y-84121428D02*
X151824200Y-84197619D01*
X151824200Y-84197619D02*
X151786104Y-84235714D01*
X140486104Y-78423332D02*
X140524200Y-78461428D01*
X140524200Y-78461428D02*
X140562295Y-78575713D01*
X140562295Y-78575713D02*
X140562295Y-78651904D01*
X140562295Y-78651904D02*
X140524200Y-78766190D01*
X140524200Y-78766190D02*
X140448009Y-78842380D01*
X140448009Y-78842380D02*
X140371819Y-78880475D01*
X140371819Y-78880475D02*
X140219438Y-78918571D01*
X140219438Y-78918571D02*
X140105152Y-78918571D01*
X140105152Y-78918571D02*
X139952771Y-78880475D01*
X139952771Y-78880475D02*
X139876580Y-78842380D01*
X139876580Y-78842380D02*
X139800390Y-78766190D01*
X139800390Y-78766190D02*
X139762295Y-78651904D01*
X139762295Y-78651904D02*
X139762295Y-78575713D01*
X139762295Y-78575713D02*
X139800390Y-78461428D01*
X139800390Y-78461428D02*
X139838485Y-78423332D01*
X140562295Y-78042380D02*
X140562295Y-77889999D01*
X140562295Y-77889999D02*
X140524200Y-77813809D01*
X140524200Y-77813809D02*
X140486104Y-77775713D01*
X140486104Y-77775713D02*
X140371819Y-77699523D01*
X140371819Y-77699523D02*
X140219438Y-77661428D01*
X140219438Y-77661428D02*
X139914676Y-77661428D01*
X139914676Y-77661428D02*
X139838485Y-77699523D01*
X139838485Y-77699523D02*
X139800390Y-77737618D01*
X139800390Y-77737618D02*
X139762295Y-77813809D01*
X139762295Y-77813809D02*
X139762295Y-77966190D01*
X139762295Y-77966190D02*
X139800390Y-78042380D01*
X139800390Y-78042380D02*
X139838485Y-78080475D01*
X139838485Y-78080475D02*
X139914676Y-78118571D01*
X139914676Y-78118571D02*
X140105152Y-78118571D01*
X140105152Y-78118571D02*
X140181342Y-78080475D01*
X140181342Y-78080475D02*
X140219438Y-78042380D01*
X140219438Y-78042380D02*
X140257533Y-77966190D01*
X140257533Y-77966190D02*
X140257533Y-77813809D01*
X140257533Y-77813809D02*
X140219438Y-77737618D01*
X140219438Y-77737618D02*
X140181342Y-77699523D01*
X140181342Y-77699523D02*
X140105152Y-77661428D01*
X131318545Y-102215773D02*
X131318545Y-101758630D01*
X132118545Y-101987202D02*
X131318545Y-101987202D01*
X132118545Y-101491963D02*
X131318545Y-101491963D01*
X131318545Y-101491963D02*
X131318545Y-101187201D01*
X131318545Y-101187201D02*
X131356640Y-101111011D01*
X131356640Y-101111011D02*
X131394735Y-101072916D01*
X131394735Y-101072916D02*
X131470926Y-101034820D01*
X131470926Y-101034820D02*
X131585211Y-101034820D01*
X131585211Y-101034820D02*
X131661402Y-101072916D01*
X131661402Y-101072916D02*
X131699497Y-101111011D01*
X131699497Y-101111011D02*
X131737592Y-101187201D01*
X131737592Y-101187201D02*
X131737592Y-101491963D01*
X131318545Y-100768154D02*
X131318545Y-100234820D01*
X131318545Y-100234820D02*
X132118545Y-100577678D01*
X153036104Y-98014285D02*
X153074200Y-98052381D01*
X153074200Y-98052381D02*
X153112295Y-98166666D01*
X153112295Y-98166666D02*
X153112295Y-98242857D01*
X153112295Y-98242857D02*
X153074200Y-98357143D01*
X153074200Y-98357143D02*
X152998009Y-98433333D01*
X152998009Y-98433333D02*
X152921819Y-98471428D01*
X152921819Y-98471428D02*
X152769438Y-98509524D01*
X152769438Y-98509524D02*
X152655152Y-98509524D01*
X152655152Y-98509524D02*
X152502771Y-98471428D01*
X152502771Y-98471428D02*
X152426580Y-98433333D01*
X152426580Y-98433333D02*
X152350390Y-98357143D01*
X152350390Y-98357143D02*
X152312295Y-98242857D01*
X152312295Y-98242857D02*
X152312295Y-98166666D01*
X152312295Y-98166666D02*
X152350390Y-98052381D01*
X152350390Y-98052381D02*
X152388485Y-98014285D01*
X153112295Y-97252381D02*
X153112295Y-97709524D01*
X153112295Y-97480952D02*
X152312295Y-97480952D01*
X152312295Y-97480952D02*
X152426580Y-97557143D01*
X152426580Y-97557143D02*
X152502771Y-97633333D01*
X152502771Y-97633333D02*
X152540866Y-97709524D01*
X153112295Y-96871428D02*
X153112295Y-96719047D01*
X153112295Y-96719047D02*
X153074200Y-96642857D01*
X153074200Y-96642857D02*
X153036104Y-96604761D01*
X153036104Y-96604761D02*
X152921819Y-96528571D01*
X152921819Y-96528571D02*
X152769438Y-96490476D01*
X152769438Y-96490476D02*
X152464676Y-96490476D01*
X152464676Y-96490476D02*
X152388485Y-96528571D01*
X152388485Y-96528571D02*
X152350390Y-96566666D01*
X152350390Y-96566666D02*
X152312295Y-96642857D01*
X152312295Y-96642857D02*
X152312295Y-96795238D01*
X152312295Y-96795238D02*
X152350390Y-96871428D01*
X152350390Y-96871428D02*
X152388485Y-96909523D01*
X152388485Y-96909523D02*
X152464676Y-96947619D01*
X152464676Y-96947619D02*
X152655152Y-96947619D01*
X152655152Y-96947619D02*
X152731342Y-96909523D01*
X152731342Y-96909523D02*
X152769438Y-96871428D01*
X152769438Y-96871428D02*
X152807533Y-96795238D01*
X152807533Y-96795238D02*
X152807533Y-96642857D01*
X152807533Y-96642857D02*
X152769438Y-96566666D01*
X152769438Y-96566666D02*
X152731342Y-96528571D01*
X152731342Y-96528571D02*
X152655152Y-96490476D01*
X144536104Y-106014285D02*
X144574200Y-106052381D01*
X144574200Y-106052381D02*
X144612295Y-106166666D01*
X144612295Y-106166666D02*
X144612295Y-106242857D01*
X144612295Y-106242857D02*
X144574200Y-106357143D01*
X144574200Y-106357143D02*
X144498009Y-106433333D01*
X144498009Y-106433333D02*
X144421819Y-106471428D01*
X144421819Y-106471428D02*
X144269438Y-106509524D01*
X144269438Y-106509524D02*
X144155152Y-106509524D01*
X144155152Y-106509524D02*
X144002771Y-106471428D01*
X144002771Y-106471428D02*
X143926580Y-106433333D01*
X143926580Y-106433333D02*
X143850390Y-106357143D01*
X143850390Y-106357143D02*
X143812295Y-106242857D01*
X143812295Y-106242857D02*
X143812295Y-106166666D01*
X143812295Y-106166666D02*
X143850390Y-106052381D01*
X143850390Y-106052381D02*
X143888485Y-106014285D01*
X143888485Y-105709524D02*
X143850390Y-105671428D01*
X143850390Y-105671428D02*
X143812295Y-105595238D01*
X143812295Y-105595238D02*
X143812295Y-105404762D01*
X143812295Y-105404762D02*
X143850390Y-105328571D01*
X143850390Y-105328571D02*
X143888485Y-105290476D01*
X143888485Y-105290476D02*
X143964676Y-105252381D01*
X143964676Y-105252381D02*
X144040866Y-105252381D01*
X144040866Y-105252381D02*
X144155152Y-105290476D01*
X144155152Y-105290476D02*
X144612295Y-105747619D01*
X144612295Y-105747619D02*
X144612295Y-105252381D01*
X143812295Y-104985714D02*
X143812295Y-104490476D01*
X143812295Y-104490476D02*
X144117057Y-104757142D01*
X144117057Y-104757142D02*
X144117057Y-104642857D01*
X144117057Y-104642857D02*
X144155152Y-104566666D01*
X144155152Y-104566666D02*
X144193247Y-104528571D01*
X144193247Y-104528571D02*
X144269438Y-104490476D01*
X144269438Y-104490476D02*
X144459914Y-104490476D01*
X144459914Y-104490476D02*
X144536104Y-104528571D01*
X144536104Y-104528571D02*
X144574200Y-104566666D01*
X144574200Y-104566666D02*
X144612295Y-104642857D01*
X144612295Y-104642857D02*
X144612295Y-104871428D01*
X144612295Y-104871428D02*
X144574200Y-104947619D01*
X144574200Y-104947619D02*
X144536104Y-104985714D01*
X126441964Y-106536104D02*
X126403868Y-106574200D01*
X126403868Y-106574200D02*
X126289583Y-106612295D01*
X126289583Y-106612295D02*
X126213392Y-106612295D01*
X126213392Y-106612295D02*
X126099106Y-106574200D01*
X126099106Y-106574200D02*
X126022916Y-106498009D01*
X126022916Y-106498009D02*
X125984821Y-106421819D01*
X125984821Y-106421819D02*
X125946725Y-106269438D01*
X125946725Y-106269438D02*
X125946725Y-106155152D01*
X125946725Y-106155152D02*
X125984821Y-106002771D01*
X125984821Y-106002771D02*
X126022916Y-105926580D01*
X126022916Y-105926580D02*
X126099106Y-105850390D01*
X126099106Y-105850390D02*
X126213392Y-105812295D01*
X126213392Y-105812295D02*
X126289583Y-105812295D01*
X126289583Y-105812295D02*
X126403868Y-105850390D01*
X126403868Y-105850390D02*
X126441964Y-105888485D01*
X126746725Y-105888485D02*
X126784821Y-105850390D01*
X126784821Y-105850390D02*
X126861011Y-105812295D01*
X126861011Y-105812295D02*
X127051487Y-105812295D01*
X127051487Y-105812295D02*
X127127678Y-105850390D01*
X127127678Y-105850390D02*
X127165773Y-105888485D01*
X127165773Y-105888485D02*
X127203868Y-105964676D01*
X127203868Y-105964676D02*
X127203868Y-106040866D01*
X127203868Y-106040866D02*
X127165773Y-106155152D01*
X127165773Y-106155152D02*
X126708630Y-106612295D01*
X126708630Y-106612295D02*
X127203868Y-106612295D01*
X127508630Y-105888485D02*
X127546726Y-105850390D01*
X127546726Y-105850390D02*
X127622916Y-105812295D01*
X127622916Y-105812295D02*
X127813392Y-105812295D01*
X127813392Y-105812295D02*
X127889583Y-105850390D01*
X127889583Y-105850390D02*
X127927678Y-105888485D01*
X127927678Y-105888485D02*
X127965773Y-105964676D01*
X127965773Y-105964676D02*
X127965773Y-106040866D01*
X127965773Y-106040866D02*
X127927678Y-106155152D01*
X127927678Y-106155152D02*
X127470535Y-106612295D01*
X127470535Y-106612295D02*
X127965773Y-106612295D01*
X141062295Y-74146268D02*
X140681342Y-74412935D01*
X141062295Y-74603411D02*
X140262295Y-74603411D01*
X140262295Y-74603411D02*
X140262295Y-74298649D01*
X140262295Y-74298649D02*
X140300390Y-74222459D01*
X140300390Y-74222459D02*
X140338485Y-74184364D01*
X140338485Y-74184364D02*
X140414676Y-74146268D01*
X140414676Y-74146268D02*
X140528961Y-74146268D01*
X140528961Y-74146268D02*
X140605152Y-74184364D01*
X140605152Y-74184364D02*
X140643247Y-74222459D01*
X140643247Y-74222459D02*
X140681342Y-74298649D01*
X140681342Y-74298649D02*
X140681342Y-74603411D01*
X141062295Y-73765316D02*
X141062295Y-73612935D01*
X141062295Y-73612935D02*
X141024200Y-73536745D01*
X141024200Y-73536745D02*
X140986104Y-73498649D01*
X140986104Y-73498649D02*
X140871819Y-73422459D01*
X140871819Y-73422459D02*
X140719438Y-73384364D01*
X140719438Y-73384364D02*
X140414676Y-73384364D01*
X140414676Y-73384364D02*
X140338485Y-73422459D01*
X140338485Y-73422459D02*
X140300390Y-73460554D01*
X140300390Y-73460554D02*
X140262295Y-73536745D01*
X140262295Y-73536745D02*
X140262295Y-73689126D01*
X140262295Y-73689126D02*
X140300390Y-73765316D01*
X140300390Y-73765316D02*
X140338485Y-73803411D01*
X140338485Y-73803411D02*
X140414676Y-73841507D01*
X140414676Y-73841507D02*
X140605152Y-73841507D01*
X140605152Y-73841507D02*
X140681342Y-73803411D01*
X140681342Y-73803411D02*
X140719438Y-73765316D01*
X140719438Y-73765316D02*
X140757533Y-73689126D01*
X140757533Y-73689126D02*
X140757533Y-73536745D01*
X140757533Y-73536745D02*
X140719438Y-73460554D01*
X140719438Y-73460554D02*
X140681342Y-73422459D01*
X140681342Y-73422459D02*
X140605152Y-73384364D01*
X122652976Y-96312295D02*
X122652976Y-96959914D01*
X122652976Y-96959914D02*
X122691071Y-97036104D01*
X122691071Y-97036104D02*
X122729166Y-97074200D01*
X122729166Y-97074200D02*
X122805357Y-97112295D01*
X122805357Y-97112295D02*
X122957738Y-97112295D01*
X122957738Y-97112295D02*
X123033928Y-97074200D01*
X123033928Y-97074200D02*
X123072023Y-97036104D01*
X123072023Y-97036104D02*
X123110119Y-96959914D01*
X123110119Y-96959914D02*
X123110119Y-96312295D01*
X123414880Y-96312295D02*
X123910118Y-96312295D01*
X123910118Y-96312295D02*
X123643452Y-96617057D01*
X123643452Y-96617057D02*
X123757737Y-96617057D01*
X123757737Y-96617057D02*
X123833928Y-96655152D01*
X123833928Y-96655152D02*
X123872023Y-96693247D01*
X123872023Y-96693247D02*
X123910118Y-96769438D01*
X123910118Y-96769438D02*
X123910118Y-96959914D01*
X123910118Y-96959914D02*
X123872023Y-97036104D01*
X123872023Y-97036104D02*
X123833928Y-97074200D01*
X123833928Y-97074200D02*
X123757737Y-97112295D01*
X123757737Y-97112295D02*
X123529166Y-97112295D01*
X123529166Y-97112295D02*
X123452975Y-97074200D01*
X123452975Y-97074200D02*
X123414880Y-97036104D01*
X135312295Y-93259523D02*
X135312295Y-92802380D01*
X136112295Y-93030952D02*
X135312295Y-93030952D01*
X136112295Y-92535713D02*
X135312295Y-92535713D01*
X135312295Y-92535713D02*
X135312295Y-92230951D01*
X135312295Y-92230951D02*
X135350390Y-92154761D01*
X135350390Y-92154761D02*
X135388485Y-92116666D01*
X135388485Y-92116666D02*
X135464676Y-92078570D01*
X135464676Y-92078570D02*
X135578961Y-92078570D01*
X135578961Y-92078570D02*
X135655152Y-92116666D01*
X135655152Y-92116666D02*
X135693247Y-92154761D01*
X135693247Y-92154761D02*
X135731342Y-92230951D01*
X135731342Y-92230951D02*
X135731342Y-92535713D01*
X135312295Y-91354761D02*
X135312295Y-91735713D01*
X135312295Y-91735713D02*
X135693247Y-91773809D01*
X135693247Y-91773809D02*
X135655152Y-91735713D01*
X135655152Y-91735713D02*
X135617057Y-91659523D01*
X135617057Y-91659523D02*
X135617057Y-91469047D01*
X135617057Y-91469047D02*
X135655152Y-91392856D01*
X135655152Y-91392856D02*
X135693247Y-91354761D01*
X135693247Y-91354761D02*
X135769438Y-91316666D01*
X135769438Y-91316666D02*
X135959914Y-91316666D01*
X135959914Y-91316666D02*
X136036104Y-91354761D01*
X136036104Y-91354761D02*
X136074200Y-91392856D01*
X136074200Y-91392856D02*
X136112295Y-91469047D01*
X136112295Y-91469047D02*
X136112295Y-91659523D01*
X136112295Y-91659523D02*
X136074200Y-91735713D01*
X136074200Y-91735713D02*
X136036104Y-91773809D01*
X123985714Y-106612295D02*
X123719047Y-106231342D01*
X123528571Y-106612295D02*
X123528571Y-105812295D01*
X123528571Y-105812295D02*
X123833333Y-105812295D01*
X123833333Y-105812295D02*
X123909523Y-105850390D01*
X123909523Y-105850390D02*
X123947618Y-105888485D01*
X123947618Y-105888485D02*
X123985714Y-105964676D01*
X123985714Y-105964676D02*
X123985714Y-106078961D01*
X123985714Y-106078961D02*
X123947618Y-106155152D01*
X123947618Y-106155152D02*
X123909523Y-106193247D01*
X123909523Y-106193247D02*
X123833333Y-106231342D01*
X123833333Y-106231342D02*
X123528571Y-106231342D01*
X124747618Y-106612295D02*
X124290475Y-106612295D01*
X124519047Y-106612295D02*
X124519047Y-105812295D01*
X124519047Y-105812295D02*
X124442856Y-105926580D01*
X124442856Y-105926580D02*
X124366666Y-106002771D01*
X124366666Y-106002771D02*
X124290475Y-106040866D01*
X125128571Y-106612295D02*
X125280952Y-106612295D01*
X125280952Y-106612295D02*
X125357142Y-106574200D01*
X125357142Y-106574200D02*
X125395238Y-106536104D01*
X125395238Y-106536104D02*
X125471428Y-106421819D01*
X125471428Y-106421819D02*
X125509523Y-106269438D01*
X125509523Y-106269438D02*
X125509523Y-105964676D01*
X125509523Y-105964676D02*
X125471428Y-105888485D01*
X125471428Y-105888485D02*
X125433333Y-105850390D01*
X125433333Y-105850390D02*
X125357142Y-105812295D01*
X125357142Y-105812295D02*
X125204761Y-105812295D01*
X125204761Y-105812295D02*
X125128571Y-105850390D01*
X125128571Y-105850390D02*
X125090476Y-105888485D01*
X125090476Y-105888485D02*
X125052380Y-105964676D01*
X125052380Y-105964676D02*
X125052380Y-106155152D01*
X125052380Y-106155152D02*
X125090476Y-106231342D01*
X125090476Y-106231342D02*
X125128571Y-106269438D01*
X125128571Y-106269438D02*
X125204761Y-106307533D01*
X125204761Y-106307533D02*
X125357142Y-106307533D01*
X125357142Y-106307533D02*
X125433333Y-106269438D01*
X125433333Y-106269438D02*
X125471428Y-106231342D01*
X125471428Y-106231342D02*
X125509523Y-106155152D01*
X155392857Y-105693247D02*
X155126191Y-105693247D01*
X155126191Y-106112295D02*
X155126191Y-105312295D01*
X155126191Y-105312295D02*
X155507143Y-105312295D01*
X155811905Y-106112295D02*
X155811905Y-105312295D01*
X156192857Y-106112295D02*
X156192857Y-105312295D01*
X156192857Y-105312295D02*
X156383333Y-105312295D01*
X156383333Y-105312295D02*
X156497619Y-105350390D01*
X156497619Y-105350390D02*
X156573809Y-105426580D01*
X156573809Y-105426580D02*
X156611904Y-105502771D01*
X156611904Y-105502771D02*
X156650000Y-105655152D01*
X156650000Y-105655152D02*
X156650000Y-105769438D01*
X156650000Y-105769438D02*
X156611904Y-105921819D01*
X156611904Y-105921819D02*
X156573809Y-105998009D01*
X156573809Y-105998009D02*
X156497619Y-106074200D01*
X156497619Y-106074200D02*
X156383333Y-106112295D01*
X156383333Y-106112295D02*
X156192857Y-106112295D01*
X156916666Y-105312295D02*
X157411904Y-105312295D01*
X157411904Y-105312295D02*
X157145238Y-105617057D01*
X157145238Y-105617057D02*
X157259523Y-105617057D01*
X157259523Y-105617057D02*
X157335714Y-105655152D01*
X157335714Y-105655152D02*
X157373809Y-105693247D01*
X157373809Y-105693247D02*
X157411904Y-105769438D01*
X157411904Y-105769438D02*
X157411904Y-105959914D01*
X157411904Y-105959914D02*
X157373809Y-106036104D01*
X157373809Y-106036104D02*
X157335714Y-106074200D01*
X157335714Y-106074200D02*
X157259523Y-106112295D01*
X157259523Y-106112295D02*
X157030952Y-106112295D01*
X157030952Y-106112295D02*
X156954761Y-106074200D01*
X156954761Y-106074200D02*
X156916666Y-106036104D01*
X153490476Y-100062295D02*
X153947619Y-100062295D01*
X153719047Y-100862295D02*
X153719047Y-100062295D01*
X154214286Y-100862295D02*
X154214286Y-100062295D01*
X154214286Y-100062295D02*
X154519048Y-100062295D01*
X154519048Y-100062295D02*
X154595238Y-100100390D01*
X154595238Y-100100390D02*
X154633333Y-100138485D01*
X154633333Y-100138485D02*
X154671429Y-100214676D01*
X154671429Y-100214676D02*
X154671429Y-100328961D01*
X154671429Y-100328961D02*
X154633333Y-100405152D01*
X154633333Y-100405152D02*
X154595238Y-100443247D01*
X154595238Y-100443247D02*
X154519048Y-100481342D01*
X154519048Y-100481342D02*
X154214286Y-100481342D01*
X154976190Y-100138485D02*
X155014286Y-100100390D01*
X155014286Y-100100390D02*
X155090476Y-100062295D01*
X155090476Y-100062295D02*
X155280952Y-100062295D01*
X155280952Y-100062295D02*
X155357143Y-100100390D01*
X155357143Y-100100390D02*
X155395238Y-100138485D01*
X155395238Y-100138485D02*
X155433333Y-100214676D01*
X155433333Y-100214676D02*
X155433333Y-100290866D01*
X155433333Y-100290866D02*
X155395238Y-100405152D01*
X155395238Y-100405152D02*
X154938095Y-100862295D01*
X154938095Y-100862295D02*
X155433333Y-100862295D01*
X136390476Y-80812295D02*
X136390476Y-81459914D01*
X136390476Y-81459914D02*
X136428571Y-81536104D01*
X136428571Y-81536104D02*
X136466666Y-81574200D01*
X136466666Y-81574200D02*
X136542857Y-81612295D01*
X136542857Y-81612295D02*
X136695238Y-81612295D01*
X136695238Y-81612295D02*
X136771428Y-81574200D01*
X136771428Y-81574200D02*
X136809523Y-81536104D01*
X136809523Y-81536104D02*
X136847619Y-81459914D01*
X136847619Y-81459914D02*
X136847619Y-80812295D01*
X137571428Y-80812295D02*
X137419047Y-80812295D01*
X137419047Y-80812295D02*
X137342856Y-80850390D01*
X137342856Y-80850390D02*
X137304761Y-80888485D01*
X137304761Y-80888485D02*
X137228571Y-81002771D01*
X137228571Y-81002771D02*
X137190475Y-81155152D01*
X137190475Y-81155152D02*
X137190475Y-81459914D01*
X137190475Y-81459914D02*
X137228571Y-81536104D01*
X137228571Y-81536104D02*
X137266666Y-81574200D01*
X137266666Y-81574200D02*
X137342856Y-81612295D01*
X137342856Y-81612295D02*
X137495237Y-81612295D01*
X137495237Y-81612295D02*
X137571428Y-81574200D01*
X137571428Y-81574200D02*
X137609523Y-81536104D01*
X137609523Y-81536104D02*
X137647618Y-81459914D01*
X137647618Y-81459914D02*
X137647618Y-81269438D01*
X137647618Y-81269438D02*
X137609523Y-81193247D01*
X137609523Y-81193247D02*
X137571428Y-81155152D01*
X137571428Y-81155152D02*
X137495237Y-81117057D01*
X137495237Y-81117057D02*
X137342856Y-81117057D01*
X137342856Y-81117057D02*
X137266666Y-81155152D01*
X137266666Y-81155152D02*
X137228571Y-81193247D01*
X137228571Y-81193247D02*
X137190475Y-81269438D01*
X133116667Y-87036104D02*
X133078571Y-87074200D01*
X133078571Y-87074200D02*
X132964286Y-87112295D01*
X132964286Y-87112295D02*
X132888095Y-87112295D01*
X132888095Y-87112295D02*
X132773809Y-87074200D01*
X132773809Y-87074200D02*
X132697619Y-86998009D01*
X132697619Y-86998009D02*
X132659524Y-86921819D01*
X132659524Y-86921819D02*
X132621428Y-86769438D01*
X132621428Y-86769438D02*
X132621428Y-86655152D01*
X132621428Y-86655152D02*
X132659524Y-86502771D01*
X132659524Y-86502771D02*
X132697619Y-86426580D01*
X132697619Y-86426580D02*
X132773809Y-86350390D01*
X132773809Y-86350390D02*
X132888095Y-86312295D01*
X132888095Y-86312295D02*
X132964286Y-86312295D01*
X132964286Y-86312295D02*
X133078571Y-86350390D01*
X133078571Y-86350390D02*
X133116667Y-86388485D01*
X133383333Y-86312295D02*
X133878571Y-86312295D01*
X133878571Y-86312295D02*
X133611905Y-86617057D01*
X133611905Y-86617057D02*
X133726190Y-86617057D01*
X133726190Y-86617057D02*
X133802381Y-86655152D01*
X133802381Y-86655152D02*
X133840476Y-86693247D01*
X133840476Y-86693247D02*
X133878571Y-86769438D01*
X133878571Y-86769438D02*
X133878571Y-86959914D01*
X133878571Y-86959914D02*
X133840476Y-87036104D01*
X133840476Y-87036104D02*
X133802381Y-87074200D01*
X133802381Y-87074200D02*
X133726190Y-87112295D01*
X133726190Y-87112295D02*
X133497619Y-87112295D01*
X133497619Y-87112295D02*
X133421428Y-87074200D01*
X133421428Y-87074200D02*
X133383333Y-87036104D01*
X163866667Y-106362295D02*
X163600000Y-105981342D01*
X163409524Y-106362295D02*
X163409524Y-105562295D01*
X163409524Y-105562295D02*
X163714286Y-105562295D01*
X163714286Y-105562295D02*
X163790476Y-105600390D01*
X163790476Y-105600390D02*
X163828571Y-105638485D01*
X163828571Y-105638485D02*
X163866667Y-105714676D01*
X163866667Y-105714676D02*
X163866667Y-105828961D01*
X163866667Y-105828961D02*
X163828571Y-105905152D01*
X163828571Y-105905152D02*
X163790476Y-105943247D01*
X163790476Y-105943247D02*
X163714286Y-105981342D01*
X163714286Y-105981342D02*
X163409524Y-105981342D01*
X164171428Y-105638485D02*
X164209524Y-105600390D01*
X164209524Y-105600390D02*
X164285714Y-105562295D01*
X164285714Y-105562295D02*
X164476190Y-105562295D01*
X164476190Y-105562295D02*
X164552381Y-105600390D01*
X164552381Y-105600390D02*
X164590476Y-105638485D01*
X164590476Y-105638485D02*
X164628571Y-105714676D01*
X164628571Y-105714676D02*
X164628571Y-105790866D01*
X164628571Y-105790866D02*
X164590476Y-105905152D01*
X164590476Y-105905152D02*
X164133333Y-106362295D01*
X164133333Y-106362295D02*
X164628571Y-106362295D01*
X137375985Y-94826190D02*
X137337890Y-94902380D01*
X137337890Y-94902380D02*
X137261700Y-94978571D01*
X137261700Y-94978571D02*
X137147414Y-95092857D01*
X137147414Y-95092857D02*
X137109319Y-95169047D01*
X137109319Y-95169047D02*
X137109319Y-95245238D01*
X137299795Y-95207142D02*
X137261700Y-95283333D01*
X137261700Y-95283333D02*
X137185509Y-95359523D01*
X137185509Y-95359523D02*
X137033128Y-95397619D01*
X137033128Y-95397619D02*
X136766461Y-95397619D01*
X136766461Y-95397619D02*
X136614080Y-95359523D01*
X136614080Y-95359523D02*
X136537890Y-95283333D01*
X136537890Y-95283333D02*
X136499795Y-95207142D01*
X136499795Y-95207142D02*
X136499795Y-95054761D01*
X136499795Y-95054761D02*
X136537890Y-94978571D01*
X136537890Y-94978571D02*
X136614080Y-94902380D01*
X136614080Y-94902380D02*
X136766461Y-94864285D01*
X136766461Y-94864285D02*
X137033128Y-94864285D01*
X137033128Y-94864285D02*
X137185509Y-94902380D01*
X137185509Y-94902380D02*
X137261700Y-94978571D01*
X137261700Y-94978571D02*
X137299795Y-95054761D01*
X137299795Y-95054761D02*
X137299795Y-95207142D01*
X137299795Y-94102381D02*
X137299795Y-94559524D01*
X137299795Y-94330952D02*
X136499795Y-94330952D01*
X136499795Y-94330952D02*
X136614080Y-94407143D01*
X136614080Y-94407143D02*
X136690271Y-94483333D01*
X136690271Y-94483333D02*
X136728366Y-94559524D01*
X117562295Y-100759523D02*
X117562295Y-100302380D01*
X118362295Y-100530952D02*
X117562295Y-100530952D01*
X118362295Y-100035713D02*
X117562295Y-100035713D01*
X117562295Y-100035713D02*
X117562295Y-99730951D01*
X117562295Y-99730951D02*
X117600390Y-99654761D01*
X117600390Y-99654761D02*
X117638485Y-99616666D01*
X117638485Y-99616666D02*
X117714676Y-99578570D01*
X117714676Y-99578570D02*
X117828961Y-99578570D01*
X117828961Y-99578570D02*
X117905152Y-99616666D01*
X117905152Y-99616666D02*
X117943247Y-99654761D01*
X117943247Y-99654761D02*
X117981342Y-99730951D01*
X117981342Y-99730951D02*
X117981342Y-100035713D01*
X117562295Y-98892856D02*
X117562295Y-99045237D01*
X117562295Y-99045237D02*
X117600390Y-99121428D01*
X117600390Y-99121428D02*
X117638485Y-99159523D01*
X117638485Y-99159523D02*
X117752771Y-99235713D01*
X117752771Y-99235713D02*
X117905152Y-99273809D01*
X117905152Y-99273809D02*
X118209914Y-99273809D01*
X118209914Y-99273809D02*
X118286104Y-99235713D01*
X118286104Y-99235713D02*
X118324200Y-99197618D01*
X118324200Y-99197618D02*
X118362295Y-99121428D01*
X118362295Y-99121428D02*
X118362295Y-98969047D01*
X118362295Y-98969047D02*
X118324200Y-98892856D01*
X118324200Y-98892856D02*
X118286104Y-98854761D01*
X118286104Y-98854761D02*
X118209914Y-98816666D01*
X118209914Y-98816666D02*
X118019438Y-98816666D01*
X118019438Y-98816666D02*
X117943247Y-98854761D01*
X117943247Y-98854761D02*
X117905152Y-98892856D01*
X117905152Y-98892856D02*
X117867057Y-98969047D01*
X117867057Y-98969047D02*
X117867057Y-99121428D01*
X117867057Y-99121428D02*
X117905152Y-99197618D01*
X117905152Y-99197618D02*
X117943247Y-99235713D01*
X117943247Y-99235713D02*
X118019438Y-99273809D01*
X137036104Y-89014285D02*
X137074200Y-89052381D01*
X137074200Y-89052381D02*
X137112295Y-89166666D01*
X137112295Y-89166666D02*
X137112295Y-89242857D01*
X137112295Y-89242857D02*
X137074200Y-89357143D01*
X137074200Y-89357143D02*
X136998009Y-89433333D01*
X136998009Y-89433333D02*
X136921819Y-89471428D01*
X136921819Y-89471428D02*
X136769438Y-89509524D01*
X136769438Y-89509524D02*
X136655152Y-89509524D01*
X136655152Y-89509524D02*
X136502771Y-89471428D01*
X136502771Y-89471428D02*
X136426580Y-89433333D01*
X136426580Y-89433333D02*
X136350390Y-89357143D01*
X136350390Y-89357143D02*
X136312295Y-89242857D01*
X136312295Y-89242857D02*
X136312295Y-89166666D01*
X136312295Y-89166666D02*
X136350390Y-89052381D01*
X136350390Y-89052381D02*
X136388485Y-89014285D01*
X137112295Y-88252381D02*
X137112295Y-88709524D01*
X137112295Y-88480952D02*
X136312295Y-88480952D01*
X136312295Y-88480952D02*
X136426580Y-88557143D01*
X136426580Y-88557143D02*
X136502771Y-88633333D01*
X136502771Y-88633333D02*
X136540866Y-88709524D01*
X137112295Y-87490476D02*
X137112295Y-87947619D01*
X137112295Y-87719047D02*
X136312295Y-87719047D01*
X136312295Y-87719047D02*
X136426580Y-87795238D01*
X136426580Y-87795238D02*
X136502771Y-87871428D01*
X136502771Y-87871428D02*
X136540866Y-87947619D01*
X119642857Y-73493247D02*
X119376191Y-73493247D01*
X119376191Y-73912295D02*
X119376191Y-73112295D01*
X119376191Y-73112295D02*
X119757143Y-73112295D01*
X120061905Y-73912295D02*
X120061905Y-73112295D01*
X120442857Y-73912295D02*
X120442857Y-73112295D01*
X120442857Y-73112295D02*
X120633333Y-73112295D01*
X120633333Y-73112295D02*
X120747619Y-73150390D01*
X120747619Y-73150390D02*
X120823809Y-73226580D01*
X120823809Y-73226580D02*
X120861904Y-73302771D01*
X120861904Y-73302771D02*
X120900000Y-73455152D01*
X120900000Y-73455152D02*
X120900000Y-73569438D01*
X120900000Y-73569438D02*
X120861904Y-73721819D01*
X120861904Y-73721819D02*
X120823809Y-73798009D01*
X120823809Y-73798009D02*
X120747619Y-73874200D01*
X120747619Y-73874200D02*
X120633333Y-73912295D01*
X120633333Y-73912295D02*
X120442857Y-73912295D01*
X121204761Y-73188485D02*
X121242857Y-73150390D01*
X121242857Y-73150390D02*
X121319047Y-73112295D01*
X121319047Y-73112295D02*
X121509523Y-73112295D01*
X121509523Y-73112295D02*
X121585714Y-73150390D01*
X121585714Y-73150390D02*
X121623809Y-73188485D01*
X121623809Y-73188485D02*
X121661904Y-73264676D01*
X121661904Y-73264676D02*
X121661904Y-73340866D01*
X121661904Y-73340866D02*
X121623809Y-73455152D01*
X121623809Y-73455152D02*
X121166666Y-73912295D01*
X121166666Y-73912295D02*
X121661904Y-73912295D01*
X138536104Y-89014285D02*
X138574200Y-89052381D01*
X138574200Y-89052381D02*
X138612295Y-89166666D01*
X138612295Y-89166666D02*
X138612295Y-89242857D01*
X138612295Y-89242857D02*
X138574200Y-89357143D01*
X138574200Y-89357143D02*
X138498009Y-89433333D01*
X138498009Y-89433333D02*
X138421819Y-89471428D01*
X138421819Y-89471428D02*
X138269438Y-89509524D01*
X138269438Y-89509524D02*
X138155152Y-89509524D01*
X138155152Y-89509524D02*
X138002771Y-89471428D01*
X138002771Y-89471428D02*
X137926580Y-89433333D01*
X137926580Y-89433333D02*
X137850390Y-89357143D01*
X137850390Y-89357143D02*
X137812295Y-89242857D01*
X137812295Y-89242857D02*
X137812295Y-89166666D01*
X137812295Y-89166666D02*
X137850390Y-89052381D01*
X137850390Y-89052381D02*
X137888485Y-89014285D01*
X138612295Y-88252381D02*
X138612295Y-88709524D01*
X138612295Y-88480952D02*
X137812295Y-88480952D01*
X137812295Y-88480952D02*
X137926580Y-88557143D01*
X137926580Y-88557143D02*
X138002771Y-88633333D01*
X138002771Y-88633333D02*
X138040866Y-88709524D01*
X137812295Y-87985714D02*
X137812295Y-87490476D01*
X137812295Y-87490476D02*
X138117057Y-87757142D01*
X138117057Y-87757142D02*
X138117057Y-87642857D01*
X138117057Y-87642857D02*
X138155152Y-87566666D01*
X138155152Y-87566666D02*
X138193247Y-87528571D01*
X138193247Y-87528571D02*
X138269438Y-87490476D01*
X138269438Y-87490476D02*
X138459914Y-87490476D01*
X138459914Y-87490476D02*
X138536104Y-87528571D01*
X138536104Y-87528571D02*
X138574200Y-87566666D01*
X138574200Y-87566666D02*
X138612295Y-87642857D01*
X138612295Y-87642857D02*
X138612295Y-87871428D01*
X138612295Y-87871428D02*
X138574200Y-87947619D01*
X138574200Y-87947619D02*
X138536104Y-87985714D01*
X151490476Y-73562295D02*
X151947619Y-73562295D01*
X151719047Y-74362295D02*
X151719047Y-73562295D01*
X152214286Y-74362295D02*
X152214286Y-73562295D01*
X152214286Y-73562295D02*
X152519048Y-73562295D01*
X152519048Y-73562295D02*
X152595238Y-73600390D01*
X152595238Y-73600390D02*
X152633333Y-73638485D01*
X152633333Y-73638485D02*
X152671429Y-73714676D01*
X152671429Y-73714676D02*
X152671429Y-73828961D01*
X152671429Y-73828961D02*
X152633333Y-73905152D01*
X152633333Y-73905152D02*
X152595238Y-73943247D01*
X152595238Y-73943247D02*
X152519048Y-73981342D01*
X152519048Y-73981342D02*
X152214286Y-73981342D01*
X153128571Y-73905152D02*
X153052381Y-73867057D01*
X153052381Y-73867057D02*
X153014286Y-73828961D01*
X153014286Y-73828961D02*
X152976190Y-73752771D01*
X152976190Y-73752771D02*
X152976190Y-73714676D01*
X152976190Y-73714676D02*
X153014286Y-73638485D01*
X153014286Y-73638485D02*
X153052381Y-73600390D01*
X153052381Y-73600390D02*
X153128571Y-73562295D01*
X153128571Y-73562295D02*
X153280952Y-73562295D01*
X153280952Y-73562295D02*
X153357143Y-73600390D01*
X153357143Y-73600390D02*
X153395238Y-73638485D01*
X153395238Y-73638485D02*
X153433333Y-73714676D01*
X153433333Y-73714676D02*
X153433333Y-73752771D01*
X153433333Y-73752771D02*
X153395238Y-73828961D01*
X153395238Y-73828961D02*
X153357143Y-73867057D01*
X153357143Y-73867057D02*
X153280952Y-73905152D01*
X153280952Y-73905152D02*
X153128571Y-73905152D01*
X153128571Y-73905152D02*
X153052381Y-73943247D01*
X153052381Y-73943247D02*
X153014286Y-73981342D01*
X153014286Y-73981342D02*
X152976190Y-74057533D01*
X152976190Y-74057533D02*
X152976190Y-74209914D01*
X152976190Y-74209914D02*
X153014286Y-74286104D01*
X153014286Y-74286104D02*
X153052381Y-74324200D01*
X153052381Y-74324200D02*
X153128571Y-74362295D01*
X153128571Y-74362295D02*
X153280952Y-74362295D01*
X153280952Y-74362295D02*
X153357143Y-74324200D01*
X153357143Y-74324200D02*
X153395238Y-74286104D01*
X153395238Y-74286104D02*
X153433333Y-74209914D01*
X153433333Y-74209914D02*
X153433333Y-74057533D01*
X153433333Y-74057533D02*
X153395238Y-73981342D01*
X153395238Y-73981342D02*
X153357143Y-73943247D01*
X153357143Y-73943247D02*
X153280952Y-73905152D01*
X174062295Y-76859523D02*
X174709914Y-76859523D01*
X174709914Y-76859523D02*
X174786104Y-76821428D01*
X174786104Y-76821428D02*
X174824200Y-76783333D01*
X174824200Y-76783333D02*
X174862295Y-76707142D01*
X174862295Y-76707142D02*
X174862295Y-76554761D01*
X174862295Y-76554761D02*
X174824200Y-76478571D01*
X174824200Y-76478571D02*
X174786104Y-76440476D01*
X174786104Y-76440476D02*
X174709914Y-76402380D01*
X174709914Y-76402380D02*
X174062295Y-76402380D01*
X174328961Y-75678571D02*
X174862295Y-75678571D01*
X174024200Y-75869047D02*
X174595628Y-76059524D01*
X174595628Y-76059524D02*
X174595628Y-75564285D01*
X149740476Y-101562295D02*
X150197619Y-101562295D01*
X149969047Y-102362295D02*
X149969047Y-101562295D01*
X150464286Y-102362295D02*
X150464286Y-101562295D01*
X150464286Y-101562295D02*
X150769048Y-101562295D01*
X150769048Y-101562295D02*
X150845238Y-101600390D01*
X150845238Y-101600390D02*
X150883333Y-101638485D01*
X150883333Y-101638485D02*
X150921429Y-101714676D01*
X150921429Y-101714676D02*
X150921429Y-101828961D01*
X150921429Y-101828961D02*
X150883333Y-101905152D01*
X150883333Y-101905152D02*
X150845238Y-101943247D01*
X150845238Y-101943247D02*
X150769048Y-101981342D01*
X150769048Y-101981342D02*
X150464286Y-101981342D01*
X151683333Y-102362295D02*
X151226190Y-102362295D01*
X151454762Y-102362295D02*
X151454762Y-101562295D01*
X151454762Y-101562295D02*
X151378571Y-101676580D01*
X151378571Y-101676580D02*
X151302381Y-101752771D01*
X151302381Y-101752771D02*
X151226190Y-101790866D01*
X124643247Y-90028571D02*
X124681342Y-89914285D01*
X124681342Y-89914285D02*
X124719438Y-89876190D01*
X124719438Y-89876190D02*
X124795628Y-89838094D01*
X124795628Y-89838094D02*
X124909914Y-89838094D01*
X124909914Y-89838094D02*
X124986104Y-89876190D01*
X124986104Y-89876190D02*
X125024200Y-89914285D01*
X125024200Y-89914285D02*
X125062295Y-89990475D01*
X125062295Y-89990475D02*
X125062295Y-90295237D01*
X125062295Y-90295237D02*
X124262295Y-90295237D01*
X124262295Y-90295237D02*
X124262295Y-90028571D01*
X124262295Y-90028571D02*
X124300390Y-89952380D01*
X124300390Y-89952380D02*
X124338485Y-89914285D01*
X124338485Y-89914285D02*
X124414676Y-89876190D01*
X124414676Y-89876190D02*
X124490866Y-89876190D01*
X124490866Y-89876190D02*
X124567057Y-89914285D01*
X124567057Y-89914285D02*
X124605152Y-89952380D01*
X124605152Y-89952380D02*
X124643247Y-90028571D01*
X124643247Y-90028571D02*
X124643247Y-90295237D01*
X124262295Y-89609523D02*
X124262295Y-89152380D01*
X125062295Y-89380952D02*
X124262295Y-89380952D01*
X124262295Y-88961904D02*
X124262295Y-88466666D01*
X124262295Y-88466666D02*
X124567057Y-88733332D01*
X124567057Y-88733332D02*
X124567057Y-88619047D01*
X124567057Y-88619047D02*
X124605152Y-88542856D01*
X124605152Y-88542856D02*
X124643247Y-88504761D01*
X124643247Y-88504761D02*
X124719438Y-88466666D01*
X124719438Y-88466666D02*
X124909914Y-88466666D01*
X124909914Y-88466666D02*
X124986104Y-88504761D01*
X124986104Y-88504761D02*
X125024200Y-88542856D01*
X125024200Y-88542856D02*
X125062295Y-88619047D01*
X125062295Y-88619047D02*
X125062295Y-88847618D01*
X125062295Y-88847618D02*
X125024200Y-88923809D01*
X125024200Y-88923809D02*
X124986104Y-88961904D01*
X164612295Y-100514285D02*
X164231342Y-100780952D01*
X164612295Y-100971428D02*
X163812295Y-100971428D01*
X163812295Y-100971428D02*
X163812295Y-100666666D01*
X163812295Y-100666666D02*
X163850390Y-100590476D01*
X163850390Y-100590476D02*
X163888485Y-100552381D01*
X163888485Y-100552381D02*
X163964676Y-100514285D01*
X163964676Y-100514285D02*
X164078961Y-100514285D01*
X164078961Y-100514285D02*
X164155152Y-100552381D01*
X164155152Y-100552381D02*
X164193247Y-100590476D01*
X164193247Y-100590476D02*
X164231342Y-100666666D01*
X164231342Y-100666666D02*
X164231342Y-100971428D01*
X164612295Y-99752381D02*
X164612295Y-100209524D01*
X164612295Y-99980952D02*
X163812295Y-99980952D01*
X163812295Y-99980952D02*
X163926580Y-100057143D01*
X163926580Y-100057143D02*
X164002771Y-100133333D01*
X164002771Y-100133333D02*
X164040866Y-100209524D01*
X163888485Y-99447619D02*
X163850390Y-99409523D01*
X163850390Y-99409523D02*
X163812295Y-99333333D01*
X163812295Y-99333333D02*
X163812295Y-99142857D01*
X163812295Y-99142857D02*
X163850390Y-99066666D01*
X163850390Y-99066666D02*
X163888485Y-99028571D01*
X163888485Y-99028571D02*
X163964676Y-98990476D01*
X163964676Y-98990476D02*
X164040866Y-98990476D01*
X164040866Y-98990476D02*
X164155152Y-99028571D01*
X164155152Y-99028571D02*
X164612295Y-99485714D01*
X164612295Y-99485714D02*
X164612295Y-98990476D01*
X131666104Y-74754285D02*
X131704200Y-74792381D01*
X131704200Y-74792381D02*
X131742295Y-74906666D01*
X131742295Y-74906666D02*
X131742295Y-74982857D01*
X131742295Y-74982857D02*
X131704200Y-75097143D01*
X131704200Y-75097143D02*
X131628009Y-75173333D01*
X131628009Y-75173333D02*
X131551819Y-75211428D01*
X131551819Y-75211428D02*
X131399438Y-75249524D01*
X131399438Y-75249524D02*
X131285152Y-75249524D01*
X131285152Y-75249524D02*
X131132771Y-75211428D01*
X131132771Y-75211428D02*
X131056580Y-75173333D01*
X131056580Y-75173333D02*
X130980390Y-75097143D01*
X130980390Y-75097143D02*
X130942295Y-74982857D01*
X130942295Y-74982857D02*
X130942295Y-74906666D01*
X130942295Y-74906666D02*
X130980390Y-74792381D01*
X130980390Y-74792381D02*
X131018485Y-74754285D01*
X131742295Y-73992381D02*
X131742295Y-74449524D01*
X131742295Y-74220952D02*
X130942295Y-74220952D01*
X130942295Y-74220952D02*
X131056580Y-74297143D01*
X131056580Y-74297143D02*
X131132771Y-74373333D01*
X131132771Y-74373333D02*
X131170866Y-74449524D01*
X131208961Y-73306666D02*
X131742295Y-73306666D01*
X130904200Y-73497142D02*
X131475628Y-73687619D01*
X131475628Y-73687619D02*
X131475628Y-73192380D01*
X129833333Y-92562295D02*
X129833333Y-93133723D01*
X129833333Y-93133723D02*
X129795238Y-93248009D01*
X129795238Y-93248009D02*
X129719047Y-93324200D01*
X129719047Y-93324200D02*
X129604762Y-93362295D01*
X129604762Y-93362295D02*
X129528571Y-93362295D01*
X130214286Y-93362295D02*
X130214286Y-92562295D01*
X130214286Y-92562295D02*
X130519048Y-92562295D01*
X130519048Y-92562295D02*
X130595238Y-92600390D01*
X130595238Y-92600390D02*
X130633333Y-92638485D01*
X130633333Y-92638485D02*
X130671429Y-92714676D01*
X130671429Y-92714676D02*
X130671429Y-92828961D01*
X130671429Y-92828961D02*
X130633333Y-92905152D01*
X130633333Y-92905152D02*
X130595238Y-92943247D01*
X130595238Y-92943247D02*
X130519048Y-92981342D01*
X130519048Y-92981342D02*
X130214286Y-92981342D01*
X131433333Y-93362295D02*
X130976190Y-93362295D01*
X131204762Y-93362295D02*
X131204762Y-92562295D01*
X131204762Y-92562295D02*
X131128571Y-92676580D01*
X131128571Y-92676580D02*
X131052381Y-92752771D01*
X131052381Y-92752771D02*
X130976190Y-92790866D01*
X147604167Y-78786104D02*
X147566071Y-78824200D01*
X147566071Y-78824200D02*
X147451786Y-78862295D01*
X147451786Y-78862295D02*
X147375595Y-78862295D01*
X147375595Y-78862295D02*
X147261309Y-78824200D01*
X147261309Y-78824200D02*
X147185119Y-78748009D01*
X147185119Y-78748009D02*
X147147024Y-78671819D01*
X147147024Y-78671819D02*
X147108928Y-78519438D01*
X147108928Y-78519438D02*
X147108928Y-78405152D01*
X147108928Y-78405152D02*
X147147024Y-78252771D01*
X147147024Y-78252771D02*
X147185119Y-78176580D01*
X147185119Y-78176580D02*
X147261309Y-78100390D01*
X147261309Y-78100390D02*
X147375595Y-78062295D01*
X147375595Y-78062295D02*
X147451786Y-78062295D01*
X147451786Y-78062295D02*
X147566071Y-78100390D01*
X147566071Y-78100390D02*
X147604167Y-78138485D01*
X147908928Y-78138485D02*
X147947024Y-78100390D01*
X147947024Y-78100390D02*
X148023214Y-78062295D01*
X148023214Y-78062295D02*
X148213690Y-78062295D01*
X148213690Y-78062295D02*
X148289881Y-78100390D01*
X148289881Y-78100390D02*
X148327976Y-78138485D01*
X148327976Y-78138485D02*
X148366071Y-78214676D01*
X148366071Y-78214676D02*
X148366071Y-78290866D01*
X148366071Y-78290866D02*
X148327976Y-78405152D01*
X148327976Y-78405152D02*
X147870833Y-78862295D01*
X147870833Y-78862295D02*
X148366071Y-78862295D01*
X133116667Y-85036104D02*
X133078571Y-85074200D01*
X133078571Y-85074200D02*
X132964286Y-85112295D01*
X132964286Y-85112295D02*
X132888095Y-85112295D01*
X132888095Y-85112295D02*
X132773809Y-85074200D01*
X132773809Y-85074200D02*
X132697619Y-84998009D01*
X132697619Y-84998009D02*
X132659524Y-84921819D01*
X132659524Y-84921819D02*
X132621428Y-84769438D01*
X132621428Y-84769438D02*
X132621428Y-84655152D01*
X132621428Y-84655152D02*
X132659524Y-84502771D01*
X132659524Y-84502771D02*
X132697619Y-84426580D01*
X132697619Y-84426580D02*
X132773809Y-84350390D01*
X132773809Y-84350390D02*
X132888095Y-84312295D01*
X132888095Y-84312295D02*
X132964286Y-84312295D01*
X132964286Y-84312295D02*
X133078571Y-84350390D01*
X133078571Y-84350390D02*
X133116667Y-84388485D01*
X133802381Y-84578961D02*
X133802381Y-85112295D01*
X133611905Y-84274200D02*
X133421428Y-84845628D01*
X133421428Y-84845628D02*
X133916667Y-84845628D01*
X139612295Y-102764285D02*
X139231342Y-103030952D01*
X139612295Y-103221428D02*
X138812295Y-103221428D01*
X138812295Y-103221428D02*
X138812295Y-102916666D01*
X138812295Y-102916666D02*
X138850390Y-102840476D01*
X138850390Y-102840476D02*
X138888485Y-102802381D01*
X138888485Y-102802381D02*
X138964676Y-102764285D01*
X138964676Y-102764285D02*
X139078961Y-102764285D01*
X139078961Y-102764285D02*
X139155152Y-102802381D01*
X139155152Y-102802381D02*
X139193247Y-102840476D01*
X139193247Y-102840476D02*
X139231342Y-102916666D01*
X139231342Y-102916666D02*
X139231342Y-103221428D01*
X139612295Y-102002381D02*
X139612295Y-102459524D01*
X139612295Y-102230952D02*
X138812295Y-102230952D01*
X138812295Y-102230952D02*
X138926580Y-102307143D01*
X138926580Y-102307143D02*
X139002771Y-102383333D01*
X139002771Y-102383333D02*
X139040866Y-102459524D01*
X139612295Y-101240476D02*
X139612295Y-101697619D01*
X139612295Y-101469047D02*
X138812295Y-101469047D01*
X138812295Y-101469047D02*
X138926580Y-101545238D01*
X138926580Y-101545238D02*
X139002771Y-101621428D01*
X139002771Y-101621428D02*
X139040866Y-101697619D01*
X151712295Y-93514285D02*
X151331342Y-93780952D01*
X151712295Y-93971428D02*
X150912295Y-93971428D01*
X150912295Y-93971428D02*
X150912295Y-93666666D01*
X150912295Y-93666666D02*
X150950390Y-93590476D01*
X150950390Y-93590476D02*
X150988485Y-93552381D01*
X150988485Y-93552381D02*
X151064676Y-93514285D01*
X151064676Y-93514285D02*
X151178961Y-93514285D01*
X151178961Y-93514285D02*
X151255152Y-93552381D01*
X151255152Y-93552381D02*
X151293247Y-93590476D01*
X151293247Y-93590476D02*
X151331342Y-93666666D01*
X151331342Y-93666666D02*
X151331342Y-93971428D01*
X150988485Y-93209524D02*
X150950390Y-93171428D01*
X150950390Y-93171428D02*
X150912295Y-93095238D01*
X150912295Y-93095238D02*
X150912295Y-92904762D01*
X150912295Y-92904762D02*
X150950390Y-92828571D01*
X150950390Y-92828571D02*
X150988485Y-92790476D01*
X150988485Y-92790476D02*
X151064676Y-92752381D01*
X151064676Y-92752381D02*
X151140866Y-92752381D01*
X151140866Y-92752381D02*
X151255152Y-92790476D01*
X151255152Y-92790476D02*
X151712295Y-93247619D01*
X151712295Y-93247619D02*
X151712295Y-92752381D01*
X151712295Y-91990476D02*
X151712295Y-92447619D01*
X151712295Y-92219047D02*
X150912295Y-92219047D01*
X150912295Y-92219047D02*
X151026580Y-92295238D01*
X151026580Y-92295238D02*
X151102771Y-92371428D01*
X151102771Y-92371428D02*
X151140866Y-92447619D01*
X142890476Y-87562295D02*
X143347619Y-87562295D01*
X143119047Y-88362295D02*
X143119047Y-87562295D01*
X143614286Y-88362295D02*
X143614286Y-87562295D01*
X143614286Y-87562295D02*
X143919048Y-87562295D01*
X143919048Y-87562295D02*
X143995238Y-87600390D01*
X143995238Y-87600390D02*
X144033333Y-87638485D01*
X144033333Y-87638485D02*
X144071429Y-87714676D01*
X144071429Y-87714676D02*
X144071429Y-87828961D01*
X144071429Y-87828961D02*
X144033333Y-87905152D01*
X144033333Y-87905152D02*
X143995238Y-87943247D01*
X143995238Y-87943247D02*
X143919048Y-87981342D01*
X143919048Y-87981342D02*
X143614286Y-87981342D01*
X144452381Y-88362295D02*
X144604762Y-88362295D01*
X144604762Y-88362295D02*
X144680952Y-88324200D01*
X144680952Y-88324200D02*
X144719048Y-88286104D01*
X144719048Y-88286104D02*
X144795238Y-88171819D01*
X144795238Y-88171819D02*
X144833333Y-88019438D01*
X144833333Y-88019438D02*
X144833333Y-87714676D01*
X144833333Y-87714676D02*
X144795238Y-87638485D01*
X144795238Y-87638485D02*
X144757143Y-87600390D01*
X144757143Y-87600390D02*
X144680952Y-87562295D01*
X144680952Y-87562295D02*
X144528571Y-87562295D01*
X144528571Y-87562295D02*
X144452381Y-87600390D01*
X144452381Y-87600390D02*
X144414286Y-87638485D01*
X144414286Y-87638485D02*
X144376190Y-87714676D01*
X144376190Y-87714676D02*
X144376190Y-87905152D01*
X144376190Y-87905152D02*
X144414286Y-87981342D01*
X144414286Y-87981342D02*
X144452381Y-88019438D01*
X144452381Y-88019438D02*
X144528571Y-88057533D01*
X144528571Y-88057533D02*
X144680952Y-88057533D01*
X144680952Y-88057533D02*
X144757143Y-88019438D01*
X144757143Y-88019438D02*
X144795238Y-87981342D01*
X144795238Y-87981342D02*
X144833333Y-87905152D01*
X161866667Y-106362295D02*
X161600000Y-105981342D01*
X161409524Y-106362295D02*
X161409524Y-105562295D01*
X161409524Y-105562295D02*
X161714286Y-105562295D01*
X161714286Y-105562295D02*
X161790476Y-105600390D01*
X161790476Y-105600390D02*
X161828571Y-105638485D01*
X161828571Y-105638485D02*
X161866667Y-105714676D01*
X161866667Y-105714676D02*
X161866667Y-105828961D01*
X161866667Y-105828961D02*
X161828571Y-105905152D01*
X161828571Y-105905152D02*
X161790476Y-105943247D01*
X161790476Y-105943247D02*
X161714286Y-105981342D01*
X161714286Y-105981342D02*
X161409524Y-105981342D01*
X162590476Y-105562295D02*
X162209524Y-105562295D01*
X162209524Y-105562295D02*
X162171428Y-105943247D01*
X162171428Y-105943247D02*
X162209524Y-105905152D01*
X162209524Y-105905152D02*
X162285714Y-105867057D01*
X162285714Y-105867057D02*
X162476190Y-105867057D01*
X162476190Y-105867057D02*
X162552381Y-105905152D01*
X162552381Y-105905152D02*
X162590476Y-105943247D01*
X162590476Y-105943247D02*
X162628571Y-106019438D01*
X162628571Y-106019438D02*
X162628571Y-106209914D01*
X162628571Y-106209914D02*
X162590476Y-106286104D01*
X162590476Y-106286104D02*
X162552381Y-106324200D01*
X162552381Y-106324200D02*
X162476190Y-106362295D01*
X162476190Y-106362295D02*
X162285714Y-106362295D01*
X162285714Y-106362295D02*
X162209524Y-106324200D01*
X162209524Y-106324200D02*
X162171428Y-106286104D01*
X126806104Y-78795832D02*
X126844200Y-78833928D01*
X126844200Y-78833928D02*
X126882295Y-78948213D01*
X126882295Y-78948213D02*
X126882295Y-79024404D01*
X126882295Y-79024404D02*
X126844200Y-79138690D01*
X126844200Y-79138690D02*
X126768009Y-79214880D01*
X126768009Y-79214880D02*
X126691819Y-79252975D01*
X126691819Y-79252975D02*
X126539438Y-79291071D01*
X126539438Y-79291071D02*
X126425152Y-79291071D01*
X126425152Y-79291071D02*
X126272771Y-79252975D01*
X126272771Y-79252975D02*
X126196580Y-79214880D01*
X126196580Y-79214880D02*
X126120390Y-79138690D01*
X126120390Y-79138690D02*
X126082295Y-79024404D01*
X126082295Y-79024404D02*
X126082295Y-78948213D01*
X126082295Y-78948213D02*
X126120390Y-78833928D01*
X126120390Y-78833928D02*
X126158485Y-78795832D01*
X126082295Y-78529166D02*
X126082295Y-77995832D01*
X126082295Y-77995832D02*
X126882295Y-78338690D01*
X134323214Y-100962295D02*
X134056547Y-100581342D01*
X133866071Y-100962295D02*
X133866071Y-100162295D01*
X133866071Y-100162295D02*
X134170833Y-100162295D01*
X134170833Y-100162295D02*
X134247023Y-100200390D01*
X134247023Y-100200390D02*
X134285118Y-100238485D01*
X134285118Y-100238485D02*
X134323214Y-100314676D01*
X134323214Y-100314676D02*
X134323214Y-100428961D01*
X134323214Y-100428961D02*
X134285118Y-100505152D01*
X134285118Y-100505152D02*
X134247023Y-100543247D01*
X134247023Y-100543247D02*
X134170833Y-100581342D01*
X134170833Y-100581342D02*
X133866071Y-100581342D01*
X135085118Y-100962295D02*
X134627975Y-100962295D01*
X134856547Y-100962295D02*
X134856547Y-100162295D01*
X134856547Y-100162295D02*
X134780356Y-100276580D01*
X134780356Y-100276580D02*
X134704166Y-100352771D01*
X134704166Y-100352771D02*
X134627975Y-100390866D01*
X135770833Y-100162295D02*
X135618452Y-100162295D01*
X135618452Y-100162295D02*
X135542261Y-100200390D01*
X135542261Y-100200390D02*
X135504166Y-100238485D01*
X135504166Y-100238485D02*
X135427976Y-100352771D01*
X135427976Y-100352771D02*
X135389880Y-100505152D01*
X135389880Y-100505152D02*
X135389880Y-100809914D01*
X135389880Y-100809914D02*
X135427976Y-100886104D01*
X135427976Y-100886104D02*
X135466071Y-100924200D01*
X135466071Y-100924200D02*
X135542261Y-100962295D01*
X135542261Y-100962295D02*
X135694642Y-100962295D01*
X135694642Y-100962295D02*
X135770833Y-100924200D01*
X135770833Y-100924200D02*
X135808928Y-100886104D01*
X135808928Y-100886104D02*
X135847023Y-100809914D01*
X135847023Y-100809914D02*
X135847023Y-100619438D01*
X135847023Y-100619438D02*
X135808928Y-100543247D01*
X135808928Y-100543247D02*
X135770833Y-100505152D01*
X135770833Y-100505152D02*
X135694642Y-100467057D01*
X135694642Y-100467057D02*
X135542261Y-100467057D01*
X135542261Y-100467057D02*
X135466071Y-100505152D01*
X135466071Y-100505152D02*
X135427976Y-100543247D01*
X135427976Y-100543247D02*
X135389880Y-100619438D01*
X138890476Y-94312295D02*
X138890476Y-94959914D01*
X138890476Y-94959914D02*
X138928571Y-95036104D01*
X138928571Y-95036104D02*
X138966666Y-95074200D01*
X138966666Y-95074200D02*
X139042857Y-95112295D01*
X139042857Y-95112295D02*
X139195238Y-95112295D01*
X139195238Y-95112295D02*
X139271428Y-95074200D01*
X139271428Y-95074200D02*
X139309523Y-95036104D01*
X139309523Y-95036104D02*
X139347619Y-94959914D01*
X139347619Y-94959914D02*
X139347619Y-94312295D01*
X140109523Y-94312295D02*
X139728571Y-94312295D01*
X139728571Y-94312295D02*
X139690475Y-94693247D01*
X139690475Y-94693247D02*
X139728571Y-94655152D01*
X139728571Y-94655152D02*
X139804761Y-94617057D01*
X139804761Y-94617057D02*
X139995237Y-94617057D01*
X139995237Y-94617057D02*
X140071428Y-94655152D01*
X140071428Y-94655152D02*
X140109523Y-94693247D01*
X140109523Y-94693247D02*
X140147618Y-94769438D01*
X140147618Y-94769438D02*
X140147618Y-94959914D01*
X140147618Y-94959914D02*
X140109523Y-95036104D01*
X140109523Y-95036104D02*
X140071428Y-95074200D01*
X140071428Y-95074200D02*
X139995237Y-95112295D01*
X139995237Y-95112295D02*
X139804761Y-95112295D01*
X139804761Y-95112295D02*
X139728571Y-95074200D01*
X139728571Y-95074200D02*
X139690475Y-95036104D01*
X163036104Y-100264285D02*
X163074200Y-100302381D01*
X163074200Y-100302381D02*
X163112295Y-100416666D01*
X163112295Y-100416666D02*
X163112295Y-100492857D01*
X163112295Y-100492857D02*
X163074200Y-100607143D01*
X163074200Y-100607143D02*
X162998009Y-100683333D01*
X162998009Y-100683333D02*
X162921819Y-100721428D01*
X162921819Y-100721428D02*
X162769438Y-100759524D01*
X162769438Y-100759524D02*
X162655152Y-100759524D01*
X162655152Y-100759524D02*
X162502771Y-100721428D01*
X162502771Y-100721428D02*
X162426580Y-100683333D01*
X162426580Y-100683333D02*
X162350390Y-100607143D01*
X162350390Y-100607143D02*
X162312295Y-100492857D01*
X162312295Y-100492857D02*
X162312295Y-100416666D01*
X162312295Y-100416666D02*
X162350390Y-100302381D01*
X162350390Y-100302381D02*
X162388485Y-100264285D01*
X162388485Y-99959524D02*
X162350390Y-99921428D01*
X162350390Y-99921428D02*
X162312295Y-99845238D01*
X162312295Y-99845238D02*
X162312295Y-99654762D01*
X162312295Y-99654762D02*
X162350390Y-99578571D01*
X162350390Y-99578571D02*
X162388485Y-99540476D01*
X162388485Y-99540476D02*
X162464676Y-99502381D01*
X162464676Y-99502381D02*
X162540866Y-99502381D01*
X162540866Y-99502381D02*
X162655152Y-99540476D01*
X162655152Y-99540476D02*
X163112295Y-99997619D01*
X163112295Y-99997619D02*
X163112295Y-99502381D01*
X162578961Y-98816666D02*
X163112295Y-98816666D01*
X162274200Y-99007142D02*
X162845628Y-99197619D01*
X162845628Y-99197619D02*
X162845628Y-98702380D01*
X148612295Y-94883332D02*
X148231342Y-95149999D01*
X148612295Y-95340475D02*
X147812295Y-95340475D01*
X147812295Y-95340475D02*
X147812295Y-95035713D01*
X147812295Y-95035713D02*
X147850390Y-94959523D01*
X147850390Y-94959523D02*
X147888485Y-94921428D01*
X147888485Y-94921428D02*
X147964676Y-94883332D01*
X147964676Y-94883332D02*
X148078961Y-94883332D01*
X148078961Y-94883332D02*
X148155152Y-94921428D01*
X148155152Y-94921428D02*
X148193247Y-94959523D01*
X148193247Y-94959523D02*
X148231342Y-95035713D01*
X148231342Y-95035713D02*
X148231342Y-95340475D01*
X147812295Y-94197618D02*
X147812295Y-94349999D01*
X147812295Y-94349999D02*
X147850390Y-94426190D01*
X147850390Y-94426190D02*
X147888485Y-94464285D01*
X147888485Y-94464285D02*
X148002771Y-94540475D01*
X148002771Y-94540475D02*
X148155152Y-94578571D01*
X148155152Y-94578571D02*
X148459914Y-94578571D01*
X148459914Y-94578571D02*
X148536104Y-94540475D01*
X148536104Y-94540475D02*
X148574200Y-94502380D01*
X148574200Y-94502380D02*
X148612295Y-94426190D01*
X148612295Y-94426190D02*
X148612295Y-94273809D01*
X148612295Y-94273809D02*
X148574200Y-94197618D01*
X148574200Y-94197618D02*
X148536104Y-94159523D01*
X148536104Y-94159523D02*
X148459914Y-94121428D01*
X148459914Y-94121428D02*
X148269438Y-94121428D01*
X148269438Y-94121428D02*
X148193247Y-94159523D01*
X148193247Y-94159523D02*
X148155152Y-94197618D01*
X148155152Y-94197618D02*
X148117057Y-94273809D01*
X148117057Y-94273809D02*
X148117057Y-94426190D01*
X148117057Y-94426190D02*
X148155152Y-94502380D01*
X148155152Y-94502380D02*
X148193247Y-94540475D01*
X148193247Y-94540475D02*
X148269438Y-94578571D01*
X127862295Y-96514285D02*
X127481342Y-96780952D01*
X127862295Y-96971428D02*
X127062295Y-96971428D01*
X127062295Y-96971428D02*
X127062295Y-96666666D01*
X127062295Y-96666666D02*
X127100390Y-96590476D01*
X127100390Y-96590476D02*
X127138485Y-96552381D01*
X127138485Y-96552381D02*
X127214676Y-96514285D01*
X127214676Y-96514285D02*
X127328961Y-96514285D01*
X127328961Y-96514285D02*
X127405152Y-96552381D01*
X127405152Y-96552381D02*
X127443247Y-96590476D01*
X127443247Y-96590476D02*
X127481342Y-96666666D01*
X127481342Y-96666666D02*
X127481342Y-96971428D01*
X127138485Y-96209524D02*
X127100390Y-96171428D01*
X127100390Y-96171428D02*
X127062295Y-96095238D01*
X127062295Y-96095238D02*
X127062295Y-95904762D01*
X127062295Y-95904762D02*
X127100390Y-95828571D01*
X127100390Y-95828571D02*
X127138485Y-95790476D01*
X127138485Y-95790476D02*
X127214676Y-95752381D01*
X127214676Y-95752381D02*
X127290866Y-95752381D01*
X127290866Y-95752381D02*
X127405152Y-95790476D01*
X127405152Y-95790476D02*
X127862295Y-96247619D01*
X127862295Y-96247619D02*
X127862295Y-95752381D01*
X127062295Y-95257142D02*
X127062295Y-95180952D01*
X127062295Y-95180952D02*
X127100390Y-95104761D01*
X127100390Y-95104761D02*
X127138485Y-95066666D01*
X127138485Y-95066666D02*
X127214676Y-95028571D01*
X127214676Y-95028571D02*
X127367057Y-94990476D01*
X127367057Y-94990476D02*
X127557533Y-94990476D01*
X127557533Y-94990476D02*
X127709914Y-95028571D01*
X127709914Y-95028571D02*
X127786104Y-95066666D01*
X127786104Y-95066666D02*
X127824200Y-95104761D01*
X127824200Y-95104761D02*
X127862295Y-95180952D01*
X127862295Y-95180952D02*
X127862295Y-95257142D01*
X127862295Y-95257142D02*
X127824200Y-95333333D01*
X127824200Y-95333333D02*
X127786104Y-95371428D01*
X127786104Y-95371428D02*
X127709914Y-95409523D01*
X127709914Y-95409523D02*
X127557533Y-95447619D01*
X127557533Y-95447619D02*
X127367057Y-95447619D01*
X127367057Y-95447619D02*
X127214676Y-95409523D01*
X127214676Y-95409523D02*
X127138485Y-95371428D01*
X127138485Y-95371428D02*
X127100390Y-95333333D01*
X127100390Y-95333333D02*
X127062295Y-95257142D01*
X146140476Y-104562295D02*
X146140476Y-105209914D01*
X146140476Y-105209914D02*
X146178571Y-105286104D01*
X146178571Y-105286104D02*
X146216666Y-105324200D01*
X146216666Y-105324200D02*
X146292857Y-105362295D01*
X146292857Y-105362295D02*
X146445238Y-105362295D01*
X146445238Y-105362295D02*
X146521428Y-105324200D01*
X146521428Y-105324200D02*
X146559523Y-105286104D01*
X146559523Y-105286104D02*
X146597619Y-105209914D01*
X146597619Y-105209914D02*
X146597619Y-104562295D01*
X146940475Y-104638485D02*
X146978571Y-104600390D01*
X146978571Y-104600390D02*
X147054761Y-104562295D01*
X147054761Y-104562295D02*
X147245237Y-104562295D01*
X147245237Y-104562295D02*
X147321428Y-104600390D01*
X147321428Y-104600390D02*
X147359523Y-104638485D01*
X147359523Y-104638485D02*
X147397618Y-104714676D01*
X147397618Y-104714676D02*
X147397618Y-104790866D01*
X147397618Y-104790866D02*
X147359523Y-104905152D01*
X147359523Y-104905152D02*
X146902380Y-105362295D01*
X146902380Y-105362295D02*
X147397618Y-105362295D01*
X130786104Y-91014285D02*
X130824200Y-91052381D01*
X130824200Y-91052381D02*
X130862295Y-91166666D01*
X130862295Y-91166666D02*
X130862295Y-91242857D01*
X130862295Y-91242857D02*
X130824200Y-91357143D01*
X130824200Y-91357143D02*
X130748009Y-91433333D01*
X130748009Y-91433333D02*
X130671819Y-91471428D01*
X130671819Y-91471428D02*
X130519438Y-91509524D01*
X130519438Y-91509524D02*
X130405152Y-91509524D01*
X130405152Y-91509524D02*
X130252771Y-91471428D01*
X130252771Y-91471428D02*
X130176580Y-91433333D01*
X130176580Y-91433333D02*
X130100390Y-91357143D01*
X130100390Y-91357143D02*
X130062295Y-91242857D01*
X130062295Y-91242857D02*
X130062295Y-91166666D01*
X130062295Y-91166666D02*
X130100390Y-91052381D01*
X130100390Y-91052381D02*
X130138485Y-91014285D01*
X130862295Y-90252381D02*
X130862295Y-90709524D01*
X130862295Y-90480952D02*
X130062295Y-90480952D01*
X130062295Y-90480952D02*
X130176580Y-90557143D01*
X130176580Y-90557143D02*
X130252771Y-90633333D01*
X130252771Y-90633333D02*
X130290866Y-90709524D01*
X130062295Y-89985714D02*
X130062295Y-89452380D01*
X130062295Y-89452380D02*
X130862295Y-89795238D01*
X145336700Y-90871667D02*
X145374795Y-90757381D01*
X145374795Y-90757381D02*
X145374795Y-90566905D01*
X145374795Y-90566905D02*
X145336700Y-90490714D01*
X145336700Y-90490714D02*
X145298604Y-90452619D01*
X145298604Y-90452619D02*
X145222414Y-90414524D01*
X145222414Y-90414524D02*
X145146223Y-90414524D01*
X145146223Y-90414524D02*
X145070033Y-90452619D01*
X145070033Y-90452619D02*
X145031938Y-90490714D01*
X145031938Y-90490714D02*
X144993842Y-90566905D01*
X144993842Y-90566905D02*
X144955747Y-90719286D01*
X144955747Y-90719286D02*
X144917652Y-90795476D01*
X144917652Y-90795476D02*
X144879557Y-90833571D01*
X144879557Y-90833571D02*
X144803366Y-90871667D01*
X144803366Y-90871667D02*
X144727176Y-90871667D01*
X144727176Y-90871667D02*
X144650985Y-90833571D01*
X144650985Y-90833571D02*
X144612890Y-90795476D01*
X144612890Y-90795476D02*
X144574795Y-90719286D01*
X144574795Y-90719286D02*
X144574795Y-90528809D01*
X144574795Y-90528809D02*
X144612890Y-90414524D01*
X144574795Y-90147857D02*
X145374795Y-89957381D01*
X145374795Y-89957381D02*
X144803366Y-89805000D01*
X144803366Y-89805000D02*
X145374795Y-89652619D01*
X145374795Y-89652619D02*
X144574795Y-89462143D01*
X145374795Y-88738333D02*
X145374795Y-89195476D01*
X145374795Y-88966904D02*
X144574795Y-88966904D01*
X144574795Y-88966904D02*
X144689080Y-89043095D01*
X144689080Y-89043095D02*
X144765271Y-89119285D01*
X144765271Y-89119285D02*
X144803366Y-89195476D01*
X130286104Y-78795832D02*
X130324200Y-78833928D01*
X130324200Y-78833928D02*
X130362295Y-78948213D01*
X130362295Y-78948213D02*
X130362295Y-79024404D01*
X130362295Y-79024404D02*
X130324200Y-79138690D01*
X130324200Y-79138690D02*
X130248009Y-79214880D01*
X130248009Y-79214880D02*
X130171819Y-79252975D01*
X130171819Y-79252975D02*
X130019438Y-79291071D01*
X130019438Y-79291071D02*
X129905152Y-79291071D01*
X129905152Y-79291071D02*
X129752771Y-79252975D01*
X129752771Y-79252975D02*
X129676580Y-79214880D01*
X129676580Y-79214880D02*
X129600390Y-79138690D01*
X129600390Y-79138690D02*
X129562295Y-79024404D01*
X129562295Y-79024404D02*
X129562295Y-78948213D01*
X129562295Y-78948213D02*
X129600390Y-78833928D01*
X129600390Y-78833928D02*
X129638485Y-78795832D01*
X129562295Y-78110118D02*
X129562295Y-78262499D01*
X129562295Y-78262499D02*
X129600390Y-78338690D01*
X129600390Y-78338690D02*
X129638485Y-78376785D01*
X129638485Y-78376785D02*
X129752771Y-78452975D01*
X129752771Y-78452975D02*
X129905152Y-78491071D01*
X129905152Y-78491071D02*
X130209914Y-78491071D01*
X130209914Y-78491071D02*
X130286104Y-78452975D01*
X130286104Y-78452975D02*
X130324200Y-78414880D01*
X130324200Y-78414880D02*
X130362295Y-78338690D01*
X130362295Y-78338690D02*
X130362295Y-78186309D01*
X130362295Y-78186309D02*
X130324200Y-78110118D01*
X130324200Y-78110118D02*
X130286104Y-78072023D01*
X130286104Y-78072023D02*
X130209914Y-78033928D01*
X130209914Y-78033928D02*
X130019438Y-78033928D01*
X130019438Y-78033928D02*
X129943247Y-78072023D01*
X129943247Y-78072023D02*
X129905152Y-78110118D01*
X129905152Y-78110118D02*
X129867057Y-78186309D01*
X129867057Y-78186309D02*
X129867057Y-78338690D01*
X129867057Y-78338690D02*
X129905152Y-78414880D01*
X129905152Y-78414880D02*
X129943247Y-78452975D01*
X129943247Y-78452975D02*
X130019438Y-78491071D01*
X143985714Y-92786104D02*
X143947618Y-92824200D01*
X143947618Y-92824200D02*
X143833333Y-92862295D01*
X143833333Y-92862295D02*
X143757142Y-92862295D01*
X143757142Y-92862295D02*
X143642856Y-92824200D01*
X143642856Y-92824200D02*
X143566666Y-92748009D01*
X143566666Y-92748009D02*
X143528571Y-92671819D01*
X143528571Y-92671819D02*
X143490475Y-92519438D01*
X143490475Y-92519438D02*
X143490475Y-92405152D01*
X143490475Y-92405152D02*
X143528571Y-92252771D01*
X143528571Y-92252771D02*
X143566666Y-92176580D01*
X143566666Y-92176580D02*
X143642856Y-92100390D01*
X143642856Y-92100390D02*
X143757142Y-92062295D01*
X143757142Y-92062295D02*
X143833333Y-92062295D01*
X143833333Y-92062295D02*
X143947618Y-92100390D01*
X143947618Y-92100390D02*
X143985714Y-92138485D01*
X144290475Y-92138485D02*
X144328571Y-92100390D01*
X144328571Y-92100390D02*
X144404761Y-92062295D01*
X144404761Y-92062295D02*
X144595237Y-92062295D01*
X144595237Y-92062295D02*
X144671428Y-92100390D01*
X144671428Y-92100390D02*
X144709523Y-92138485D01*
X144709523Y-92138485D02*
X144747618Y-92214676D01*
X144747618Y-92214676D02*
X144747618Y-92290866D01*
X144747618Y-92290866D02*
X144709523Y-92405152D01*
X144709523Y-92405152D02*
X144252380Y-92862295D01*
X144252380Y-92862295D02*
X144747618Y-92862295D01*
X145242857Y-92062295D02*
X145319047Y-92062295D01*
X145319047Y-92062295D02*
X145395238Y-92100390D01*
X145395238Y-92100390D02*
X145433333Y-92138485D01*
X145433333Y-92138485D02*
X145471428Y-92214676D01*
X145471428Y-92214676D02*
X145509523Y-92367057D01*
X145509523Y-92367057D02*
X145509523Y-92557533D01*
X145509523Y-92557533D02*
X145471428Y-92709914D01*
X145471428Y-92709914D02*
X145433333Y-92786104D01*
X145433333Y-92786104D02*
X145395238Y-92824200D01*
X145395238Y-92824200D02*
X145319047Y-92862295D01*
X145319047Y-92862295D02*
X145242857Y-92862295D01*
X145242857Y-92862295D02*
X145166666Y-92824200D01*
X145166666Y-92824200D02*
X145128571Y-92786104D01*
X145128571Y-92786104D02*
X145090476Y-92709914D01*
X145090476Y-92709914D02*
X145052380Y-92557533D01*
X145052380Y-92557533D02*
X145052380Y-92367057D01*
X145052380Y-92367057D02*
X145090476Y-92214676D01*
X145090476Y-92214676D02*
X145128571Y-92138485D01*
X145128571Y-92138485D02*
X145166666Y-92100390D01*
X145166666Y-92100390D02*
X145242857Y-92062295D01*
X137986104Y-74604285D02*
X138024200Y-74642381D01*
X138024200Y-74642381D02*
X138062295Y-74756666D01*
X138062295Y-74756666D02*
X138062295Y-74832857D01*
X138062295Y-74832857D02*
X138024200Y-74947143D01*
X138024200Y-74947143D02*
X137948009Y-75023333D01*
X137948009Y-75023333D02*
X137871819Y-75061428D01*
X137871819Y-75061428D02*
X137719438Y-75099524D01*
X137719438Y-75099524D02*
X137605152Y-75099524D01*
X137605152Y-75099524D02*
X137452771Y-75061428D01*
X137452771Y-75061428D02*
X137376580Y-75023333D01*
X137376580Y-75023333D02*
X137300390Y-74947143D01*
X137300390Y-74947143D02*
X137262295Y-74832857D01*
X137262295Y-74832857D02*
X137262295Y-74756666D01*
X137262295Y-74756666D02*
X137300390Y-74642381D01*
X137300390Y-74642381D02*
X137338485Y-74604285D01*
X138062295Y-73842381D02*
X138062295Y-74299524D01*
X138062295Y-74070952D02*
X137262295Y-74070952D01*
X137262295Y-74070952D02*
X137376580Y-74147143D01*
X137376580Y-74147143D02*
X137452771Y-74223333D01*
X137452771Y-74223333D02*
X137490866Y-74299524D01*
X137262295Y-73118571D02*
X137262295Y-73499523D01*
X137262295Y-73499523D02*
X137643247Y-73537619D01*
X137643247Y-73537619D02*
X137605152Y-73499523D01*
X137605152Y-73499523D02*
X137567057Y-73423333D01*
X137567057Y-73423333D02*
X137567057Y-73232857D01*
X137567057Y-73232857D02*
X137605152Y-73156666D01*
X137605152Y-73156666D02*
X137643247Y-73118571D01*
X137643247Y-73118571D02*
X137719438Y-73080476D01*
X137719438Y-73080476D02*
X137909914Y-73080476D01*
X137909914Y-73080476D02*
X137986104Y-73118571D01*
X137986104Y-73118571D02*
X138024200Y-73156666D01*
X138024200Y-73156666D02*
X138062295Y-73232857D01*
X138062295Y-73232857D02*
X138062295Y-73423333D01*
X138062295Y-73423333D02*
X138024200Y-73499523D01*
X138024200Y-73499523D02*
X137986104Y-73537619D01*
X142735714Y-100286104D02*
X142697618Y-100324200D01*
X142697618Y-100324200D02*
X142583333Y-100362295D01*
X142583333Y-100362295D02*
X142507142Y-100362295D01*
X142507142Y-100362295D02*
X142392856Y-100324200D01*
X142392856Y-100324200D02*
X142316666Y-100248009D01*
X142316666Y-100248009D02*
X142278571Y-100171819D01*
X142278571Y-100171819D02*
X142240475Y-100019438D01*
X142240475Y-100019438D02*
X142240475Y-99905152D01*
X142240475Y-99905152D02*
X142278571Y-99752771D01*
X142278571Y-99752771D02*
X142316666Y-99676580D01*
X142316666Y-99676580D02*
X142392856Y-99600390D01*
X142392856Y-99600390D02*
X142507142Y-99562295D01*
X142507142Y-99562295D02*
X142583333Y-99562295D01*
X142583333Y-99562295D02*
X142697618Y-99600390D01*
X142697618Y-99600390D02*
X142735714Y-99638485D01*
X143040475Y-99638485D02*
X143078571Y-99600390D01*
X143078571Y-99600390D02*
X143154761Y-99562295D01*
X143154761Y-99562295D02*
X143345237Y-99562295D01*
X143345237Y-99562295D02*
X143421428Y-99600390D01*
X143421428Y-99600390D02*
X143459523Y-99638485D01*
X143459523Y-99638485D02*
X143497618Y-99714676D01*
X143497618Y-99714676D02*
X143497618Y-99790866D01*
X143497618Y-99790866D02*
X143459523Y-99905152D01*
X143459523Y-99905152D02*
X143002380Y-100362295D01*
X143002380Y-100362295D02*
X143497618Y-100362295D01*
X144259523Y-100362295D02*
X143802380Y-100362295D01*
X144030952Y-100362295D02*
X144030952Y-99562295D01*
X144030952Y-99562295D02*
X143954761Y-99676580D01*
X143954761Y-99676580D02*
X143878571Y-99752771D01*
X143878571Y-99752771D02*
X143802380Y-99790866D01*
X169909524Y-99612295D02*
X169909524Y-98812295D01*
X169909524Y-98812295D02*
X170100000Y-98812295D01*
X170100000Y-98812295D02*
X170214286Y-98850390D01*
X170214286Y-98850390D02*
X170290476Y-98926580D01*
X170290476Y-98926580D02*
X170328571Y-99002771D01*
X170328571Y-99002771D02*
X170366667Y-99155152D01*
X170366667Y-99155152D02*
X170366667Y-99269438D01*
X170366667Y-99269438D02*
X170328571Y-99421819D01*
X170328571Y-99421819D02*
X170290476Y-99498009D01*
X170290476Y-99498009D02*
X170214286Y-99574200D01*
X170214286Y-99574200D02*
X170100000Y-99612295D01*
X170100000Y-99612295D02*
X169909524Y-99612295D01*
X170633333Y-98812295D02*
X171128571Y-98812295D01*
X171128571Y-98812295D02*
X170861905Y-99117057D01*
X170861905Y-99117057D02*
X170976190Y-99117057D01*
X170976190Y-99117057D02*
X171052381Y-99155152D01*
X171052381Y-99155152D02*
X171090476Y-99193247D01*
X171090476Y-99193247D02*
X171128571Y-99269438D01*
X171128571Y-99269438D02*
X171128571Y-99459914D01*
X171128571Y-99459914D02*
X171090476Y-99536104D01*
X171090476Y-99536104D02*
X171052381Y-99574200D01*
X171052381Y-99574200D02*
X170976190Y-99612295D01*
X170976190Y-99612295D02*
X170747619Y-99612295D01*
X170747619Y-99612295D02*
X170671428Y-99574200D01*
X170671428Y-99574200D02*
X170633333Y-99536104D01*
X146786104Y-95014285D02*
X146824200Y-95052381D01*
X146824200Y-95052381D02*
X146862295Y-95166666D01*
X146862295Y-95166666D02*
X146862295Y-95242857D01*
X146862295Y-95242857D02*
X146824200Y-95357143D01*
X146824200Y-95357143D02*
X146748009Y-95433333D01*
X146748009Y-95433333D02*
X146671819Y-95471428D01*
X146671819Y-95471428D02*
X146519438Y-95509524D01*
X146519438Y-95509524D02*
X146405152Y-95509524D01*
X146405152Y-95509524D02*
X146252771Y-95471428D01*
X146252771Y-95471428D02*
X146176580Y-95433333D01*
X146176580Y-95433333D02*
X146100390Y-95357143D01*
X146100390Y-95357143D02*
X146062295Y-95242857D01*
X146062295Y-95242857D02*
X146062295Y-95166666D01*
X146062295Y-95166666D02*
X146100390Y-95052381D01*
X146100390Y-95052381D02*
X146138485Y-95014285D01*
X146138485Y-94709524D02*
X146100390Y-94671428D01*
X146100390Y-94671428D02*
X146062295Y-94595238D01*
X146062295Y-94595238D02*
X146062295Y-94404762D01*
X146062295Y-94404762D02*
X146100390Y-94328571D01*
X146100390Y-94328571D02*
X146138485Y-94290476D01*
X146138485Y-94290476D02*
X146214676Y-94252381D01*
X146214676Y-94252381D02*
X146290866Y-94252381D01*
X146290866Y-94252381D02*
X146405152Y-94290476D01*
X146405152Y-94290476D02*
X146862295Y-94747619D01*
X146862295Y-94747619D02*
X146862295Y-94252381D01*
X146062295Y-93528571D02*
X146062295Y-93909523D01*
X146062295Y-93909523D02*
X146443247Y-93947619D01*
X146443247Y-93947619D02*
X146405152Y-93909523D01*
X146405152Y-93909523D02*
X146367057Y-93833333D01*
X146367057Y-93833333D02*
X146367057Y-93642857D01*
X146367057Y-93642857D02*
X146405152Y-93566666D01*
X146405152Y-93566666D02*
X146443247Y-93528571D01*
X146443247Y-93528571D02*
X146519438Y-93490476D01*
X146519438Y-93490476D02*
X146709914Y-93490476D01*
X146709914Y-93490476D02*
X146786104Y-93528571D01*
X146786104Y-93528571D02*
X146824200Y-93566666D01*
X146824200Y-93566666D02*
X146862295Y-93642857D01*
X146862295Y-93642857D02*
X146862295Y-93833333D01*
X146862295Y-93833333D02*
X146824200Y-93909523D01*
X146824200Y-93909523D02*
X146786104Y-93947619D01*
X145609523Y-79062295D02*
X146066666Y-79062295D01*
X145838094Y-79862295D02*
X145838094Y-79062295D01*
X146333333Y-79862295D02*
X146333333Y-79062295D01*
X146333333Y-79062295D02*
X146638095Y-79062295D01*
X146638095Y-79062295D02*
X146714285Y-79100390D01*
X146714285Y-79100390D02*
X146752380Y-79138485D01*
X146752380Y-79138485D02*
X146790476Y-79214676D01*
X146790476Y-79214676D02*
X146790476Y-79328961D01*
X146790476Y-79328961D02*
X146752380Y-79405152D01*
X146752380Y-79405152D02*
X146714285Y-79443247D01*
X146714285Y-79443247D02*
X146638095Y-79481342D01*
X146638095Y-79481342D02*
X146333333Y-79481342D01*
X147552380Y-79862295D02*
X147095237Y-79862295D01*
X147323809Y-79862295D02*
X147323809Y-79062295D01*
X147323809Y-79062295D02*
X147247618Y-79176580D01*
X147247618Y-79176580D02*
X147171428Y-79252771D01*
X147171428Y-79252771D02*
X147095237Y-79290866D01*
X148047619Y-79062295D02*
X148123809Y-79062295D01*
X148123809Y-79062295D02*
X148200000Y-79100390D01*
X148200000Y-79100390D02*
X148238095Y-79138485D01*
X148238095Y-79138485D02*
X148276190Y-79214676D01*
X148276190Y-79214676D02*
X148314285Y-79367057D01*
X148314285Y-79367057D02*
X148314285Y-79557533D01*
X148314285Y-79557533D02*
X148276190Y-79709914D01*
X148276190Y-79709914D02*
X148238095Y-79786104D01*
X148238095Y-79786104D02*
X148200000Y-79824200D01*
X148200000Y-79824200D02*
X148123809Y-79862295D01*
X148123809Y-79862295D02*
X148047619Y-79862295D01*
X148047619Y-79862295D02*
X147971428Y-79824200D01*
X147971428Y-79824200D02*
X147933333Y-79786104D01*
X147933333Y-79786104D02*
X147895238Y-79709914D01*
X147895238Y-79709914D02*
X147857142Y-79557533D01*
X147857142Y-79557533D02*
X147857142Y-79367057D01*
X147857142Y-79367057D02*
X147895238Y-79214676D01*
X147895238Y-79214676D02*
X147933333Y-79138485D01*
X147933333Y-79138485D02*
X147971428Y-79100390D01*
X147971428Y-79100390D02*
X148047619Y-79062295D01*
X147812295Y-110766666D02*
X148383723Y-110766666D01*
X148383723Y-110766666D02*
X148498009Y-110804761D01*
X148498009Y-110804761D02*
X148574200Y-110880952D01*
X148574200Y-110880952D02*
X148612295Y-110995237D01*
X148612295Y-110995237D02*
X148612295Y-111071428D01*
X148612295Y-109966666D02*
X148612295Y-110423809D01*
X148612295Y-110195237D02*
X147812295Y-110195237D01*
X147812295Y-110195237D02*
X147926580Y-110271428D01*
X147926580Y-110271428D02*
X148002771Y-110347618D01*
X148002771Y-110347618D02*
X148040866Y-110423809D01*
X143466667Y-84562295D02*
X143200000Y-84181342D01*
X143009524Y-84562295D02*
X143009524Y-83762295D01*
X143009524Y-83762295D02*
X143314286Y-83762295D01*
X143314286Y-83762295D02*
X143390476Y-83800390D01*
X143390476Y-83800390D02*
X143428571Y-83838485D01*
X143428571Y-83838485D02*
X143466667Y-83914676D01*
X143466667Y-83914676D02*
X143466667Y-84028961D01*
X143466667Y-84028961D02*
X143428571Y-84105152D01*
X143428571Y-84105152D02*
X143390476Y-84143247D01*
X143390476Y-84143247D02*
X143314286Y-84181342D01*
X143314286Y-84181342D02*
X143009524Y-84181342D01*
X143923809Y-84105152D02*
X143847619Y-84067057D01*
X143847619Y-84067057D02*
X143809524Y-84028961D01*
X143809524Y-84028961D02*
X143771428Y-83952771D01*
X143771428Y-83952771D02*
X143771428Y-83914676D01*
X143771428Y-83914676D02*
X143809524Y-83838485D01*
X143809524Y-83838485D02*
X143847619Y-83800390D01*
X143847619Y-83800390D02*
X143923809Y-83762295D01*
X143923809Y-83762295D02*
X144076190Y-83762295D01*
X144076190Y-83762295D02*
X144152381Y-83800390D01*
X144152381Y-83800390D02*
X144190476Y-83838485D01*
X144190476Y-83838485D02*
X144228571Y-83914676D01*
X144228571Y-83914676D02*
X144228571Y-83952771D01*
X144228571Y-83952771D02*
X144190476Y-84028961D01*
X144190476Y-84028961D02*
X144152381Y-84067057D01*
X144152381Y-84067057D02*
X144076190Y-84105152D01*
X144076190Y-84105152D02*
X143923809Y-84105152D01*
X143923809Y-84105152D02*
X143847619Y-84143247D01*
X143847619Y-84143247D02*
X143809524Y-84181342D01*
X143809524Y-84181342D02*
X143771428Y-84257533D01*
X143771428Y-84257533D02*
X143771428Y-84409914D01*
X143771428Y-84409914D02*
X143809524Y-84486104D01*
X143809524Y-84486104D02*
X143847619Y-84524200D01*
X143847619Y-84524200D02*
X143923809Y-84562295D01*
X143923809Y-84562295D02*
X144076190Y-84562295D01*
X144076190Y-84562295D02*
X144152381Y-84524200D01*
X144152381Y-84524200D02*
X144190476Y-84486104D01*
X144190476Y-84486104D02*
X144228571Y-84409914D01*
X144228571Y-84409914D02*
X144228571Y-84257533D01*
X144228571Y-84257533D02*
X144190476Y-84181342D01*
X144190476Y-84181342D02*
X144152381Y-84143247D01*
X144152381Y-84143247D02*
X144076190Y-84105152D01*
X142966104Y-92051785D02*
X143004200Y-92089881D01*
X143004200Y-92089881D02*
X143042295Y-92204166D01*
X143042295Y-92204166D02*
X143042295Y-92280357D01*
X143042295Y-92280357D02*
X143004200Y-92394643D01*
X143004200Y-92394643D02*
X142928009Y-92470833D01*
X142928009Y-92470833D02*
X142851819Y-92508928D01*
X142851819Y-92508928D02*
X142699438Y-92547024D01*
X142699438Y-92547024D02*
X142585152Y-92547024D01*
X142585152Y-92547024D02*
X142432771Y-92508928D01*
X142432771Y-92508928D02*
X142356580Y-92470833D01*
X142356580Y-92470833D02*
X142280390Y-92394643D01*
X142280390Y-92394643D02*
X142242295Y-92280357D01*
X142242295Y-92280357D02*
X142242295Y-92204166D01*
X142242295Y-92204166D02*
X142280390Y-92089881D01*
X142280390Y-92089881D02*
X142318485Y-92051785D01*
X143042295Y-91289881D02*
X143042295Y-91747024D01*
X143042295Y-91518452D02*
X142242295Y-91518452D01*
X142242295Y-91518452D02*
X142356580Y-91594643D01*
X142356580Y-91594643D02*
X142432771Y-91670833D01*
X142432771Y-91670833D02*
X142470866Y-91747024D01*
X142318485Y-90985119D02*
X142280390Y-90947023D01*
X142280390Y-90947023D02*
X142242295Y-90870833D01*
X142242295Y-90870833D02*
X142242295Y-90680357D01*
X142242295Y-90680357D02*
X142280390Y-90604166D01*
X142280390Y-90604166D02*
X142318485Y-90566071D01*
X142318485Y-90566071D02*
X142394676Y-90527976D01*
X142394676Y-90527976D02*
X142470866Y-90527976D01*
X142470866Y-90527976D02*
X142585152Y-90566071D01*
X142585152Y-90566071D02*
X143042295Y-91023214D01*
X143042295Y-91023214D02*
X143042295Y-90527976D01*
X151612295Y-89014285D02*
X151231342Y-89280952D01*
X151612295Y-89471428D02*
X150812295Y-89471428D01*
X150812295Y-89471428D02*
X150812295Y-89166666D01*
X150812295Y-89166666D02*
X150850390Y-89090476D01*
X150850390Y-89090476D02*
X150888485Y-89052381D01*
X150888485Y-89052381D02*
X150964676Y-89014285D01*
X150964676Y-89014285D02*
X151078961Y-89014285D01*
X151078961Y-89014285D02*
X151155152Y-89052381D01*
X151155152Y-89052381D02*
X151193247Y-89090476D01*
X151193247Y-89090476D02*
X151231342Y-89166666D01*
X151231342Y-89166666D02*
X151231342Y-89471428D01*
X151612295Y-88252381D02*
X151612295Y-88709524D01*
X151612295Y-88480952D02*
X150812295Y-88480952D01*
X150812295Y-88480952D02*
X150926580Y-88557143D01*
X150926580Y-88557143D02*
X151002771Y-88633333D01*
X151002771Y-88633333D02*
X151040866Y-88709524D01*
X151078961Y-87566666D02*
X151612295Y-87566666D01*
X150774200Y-87757142D02*
X151345628Y-87947619D01*
X151345628Y-87947619D02*
X151345628Y-87452380D01*
X136986104Y-79014285D02*
X137024200Y-79052381D01*
X137024200Y-79052381D02*
X137062295Y-79166666D01*
X137062295Y-79166666D02*
X137062295Y-79242857D01*
X137062295Y-79242857D02*
X137024200Y-79357143D01*
X137024200Y-79357143D02*
X136948009Y-79433333D01*
X136948009Y-79433333D02*
X136871819Y-79471428D01*
X136871819Y-79471428D02*
X136719438Y-79509524D01*
X136719438Y-79509524D02*
X136605152Y-79509524D01*
X136605152Y-79509524D02*
X136452771Y-79471428D01*
X136452771Y-79471428D02*
X136376580Y-79433333D01*
X136376580Y-79433333D02*
X136300390Y-79357143D01*
X136300390Y-79357143D02*
X136262295Y-79242857D01*
X136262295Y-79242857D02*
X136262295Y-79166666D01*
X136262295Y-79166666D02*
X136300390Y-79052381D01*
X136300390Y-79052381D02*
X136338485Y-79014285D01*
X137062295Y-78252381D02*
X137062295Y-78709524D01*
X137062295Y-78480952D02*
X136262295Y-78480952D01*
X136262295Y-78480952D02*
X136376580Y-78557143D01*
X136376580Y-78557143D02*
X136452771Y-78633333D01*
X136452771Y-78633333D02*
X136490866Y-78709524D01*
X136262295Y-77757142D02*
X136262295Y-77680952D01*
X136262295Y-77680952D02*
X136300390Y-77604761D01*
X136300390Y-77604761D02*
X136338485Y-77566666D01*
X136338485Y-77566666D02*
X136414676Y-77528571D01*
X136414676Y-77528571D02*
X136567057Y-77490476D01*
X136567057Y-77490476D02*
X136757533Y-77490476D01*
X136757533Y-77490476D02*
X136909914Y-77528571D01*
X136909914Y-77528571D02*
X136986104Y-77566666D01*
X136986104Y-77566666D02*
X137024200Y-77604761D01*
X137024200Y-77604761D02*
X137062295Y-77680952D01*
X137062295Y-77680952D02*
X137062295Y-77757142D01*
X137062295Y-77757142D02*
X137024200Y-77833333D01*
X137024200Y-77833333D02*
X136986104Y-77871428D01*
X136986104Y-77871428D02*
X136909914Y-77909523D01*
X136909914Y-77909523D02*
X136757533Y-77947619D01*
X136757533Y-77947619D02*
X136567057Y-77947619D01*
X136567057Y-77947619D02*
X136414676Y-77909523D01*
X136414676Y-77909523D02*
X136338485Y-77871428D01*
X136338485Y-77871428D02*
X136300390Y-77833333D01*
X136300390Y-77833333D02*
X136262295Y-77757142D01*
X134976104Y-74754285D02*
X135014200Y-74792381D01*
X135014200Y-74792381D02*
X135052295Y-74906666D01*
X135052295Y-74906666D02*
X135052295Y-74982857D01*
X135052295Y-74982857D02*
X135014200Y-75097143D01*
X135014200Y-75097143D02*
X134938009Y-75173333D01*
X134938009Y-75173333D02*
X134861819Y-75211428D01*
X134861819Y-75211428D02*
X134709438Y-75249524D01*
X134709438Y-75249524D02*
X134595152Y-75249524D01*
X134595152Y-75249524D02*
X134442771Y-75211428D01*
X134442771Y-75211428D02*
X134366580Y-75173333D01*
X134366580Y-75173333D02*
X134290390Y-75097143D01*
X134290390Y-75097143D02*
X134252295Y-74982857D01*
X134252295Y-74982857D02*
X134252295Y-74906666D01*
X134252295Y-74906666D02*
X134290390Y-74792381D01*
X134290390Y-74792381D02*
X134328485Y-74754285D01*
X135052295Y-73992381D02*
X135052295Y-74449524D01*
X135052295Y-74220952D02*
X134252295Y-74220952D01*
X134252295Y-74220952D02*
X134366580Y-74297143D01*
X134366580Y-74297143D02*
X134442771Y-74373333D01*
X134442771Y-74373333D02*
X134480866Y-74449524D01*
X134252295Y-73306666D02*
X134252295Y-73459047D01*
X134252295Y-73459047D02*
X134290390Y-73535238D01*
X134290390Y-73535238D02*
X134328485Y-73573333D01*
X134328485Y-73573333D02*
X134442771Y-73649523D01*
X134442771Y-73649523D02*
X134595152Y-73687619D01*
X134595152Y-73687619D02*
X134899914Y-73687619D01*
X134899914Y-73687619D02*
X134976104Y-73649523D01*
X134976104Y-73649523D02*
X135014200Y-73611428D01*
X135014200Y-73611428D02*
X135052295Y-73535238D01*
X135052295Y-73535238D02*
X135052295Y-73382857D01*
X135052295Y-73382857D02*
X135014200Y-73306666D01*
X135014200Y-73306666D02*
X134976104Y-73268571D01*
X134976104Y-73268571D02*
X134899914Y-73230476D01*
X134899914Y-73230476D02*
X134709438Y-73230476D01*
X134709438Y-73230476D02*
X134633247Y-73268571D01*
X134633247Y-73268571D02*
X134595152Y-73306666D01*
X134595152Y-73306666D02*
X134557057Y-73382857D01*
X134557057Y-73382857D02*
X134557057Y-73535238D01*
X134557057Y-73535238D02*
X134595152Y-73611428D01*
X134595152Y-73611428D02*
X134633247Y-73649523D01*
X134633247Y-73649523D02*
X134709438Y-73687619D01*
X156062295Y-102609523D02*
X156709914Y-102609523D01*
X156709914Y-102609523D02*
X156786104Y-102571428D01*
X156786104Y-102571428D02*
X156824200Y-102533333D01*
X156824200Y-102533333D02*
X156862295Y-102457142D01*
X156862295Y-102457142D02*
X156862295Y-102304761D01*
X156862295Y-102304761D02*
X156824200Y-102228571D01*
X156824200Y-102228571D02*
X156786104Y-102190476D01*
X156786104Y-102190476D02*
X156709914Y-102152380D01*
X156709914Y-102152380D02*
X156062295Y-102152380D01*
X156862295Y-101352381D02*
X156862295Y-101809524D01*
X156862295Y-101580952D02*
X156062295Y-101580952D01*
X156062295Y-101580952D02*
X156176580Y-101657143D01*
X156176580Y-101657143D02*
X156252771Y-101733333D01*
X156252771Y-101733333D02*
X156290866Y-101809524D01*
X174062295Y-99516666D02*
X174633723Y-99516666D01*
X174633723Y-99516666D02*
X174748009Y-99554761D01*
X174748009Y-99554761D02*
X174824200Y-99630952D01*
X174824200Y-99630952D02*
X174862295Y-99745237D01*
X174862295Y-99745237D02*
X174862295Y-99821428D01*
X174062295Y-99211904D02*
X174062295Y-98716666D01*
X174062295Y-98716666D02*
X174367057Y-98983332D01*
X174367057Y-98983332D02*
X174367057Y-98869047D01*
X174367057Y-98869047D02*
X174405152Y-98792856D01*
X174405152Y-98792856D02*
X174443247Y-98754761D01*
X174443247Y-98754761D02*
X174519438Y-98716666D01*
X174519438Y-98716666D02*
X174709914Y-98716666D01*
X174709914Y-98716666D02*
X174786104Y-98754761D01*
X174786104Y-98754761D02*
X174824200Y-98792856D01*
X174824200Y-98792856D02*
X174862295Y-98869047D01*
X174862295Y-98869047D02*
X174862295Y-99097618D01*
X174862295Y-99097618D02*
X174824200Y-99173809D01*
X174824200Y-99173809D02*
X174786104Y-99211904D01*
X145909524Y-110112295D02*
X145909524Y-109312295D01*
X145909524Y-109312295D02*
X146100000Y-109312295D01*
X146100000Y-109312295D02*
X146214286Y-109350390D01*
X146214286Y-109350390D02*
X146290476Y-109426580D01*
X146290476Y-109426580D02*
X146328571Y-109502771D01*
X146328571Y-109502771D02*
X146366667Y-109655152D01*
X146366667Y-109655152D02*
X146366667Y-109769438D01*
X146366667Y-109769438D02*
X146328571Y-109921819D01*
X146328571Y-109921819D02*
X146290476Y-109998009D01*
X146290476Y-109998009D02*
X146214286Y-110074200D01*
X146214286Y-110074200D02*
X146100000Y-110112295D01*
X146100000Y-110112295D02*
X145909524Y-110112295D01*
X146671428Y-109388485D02*
X146709524Y-109350390D01*
X146709524Y-109350390D02*
X146785714Y-109312295D01*
X146785714Y-109312295D02*
X146976190Y-109312295D01*
X146976190Y-109312295D02*
X147052381Y-109350390D01*
X147052381Y-109350390D02*
X147090476Y-109388485D01*
X147090476Y-109388485D02*
X147128571Y-109464676D01*
X147128571Y-109464676D02*
X147128571Y-109540866D01*
X147128571Y-109540866D02*
X147090476Y-109655152D01*
X147090476Y-109655152D02*
X146633333Y-110112295D01*
X146633333Y-110112295D02*
X147128571Y-110112295D01*
X130123214Y-97362295D02*
X129856547Y-96981342D01*
X129666071Y-97362295D02*
X129666071Y-96562295D01*
X129666071Y-96562295D02*
X129970833Y-96562295D01*
X129970833Y-96562295D02*
X130047023Y-96600390D01*
X130047023Y-96600390D02*
X130085118Y-96638485D01*
X130085118Y-96638485D02*
X130123214Y-96714676D01*
X130123214Y-96714676D02*
X130123214Y-96828961D01*
X130123214Y-96828961D02*
X130085118Y-96905152D01*
X130085118Y-96905152D02*
X130047023Y-96943247D01*
X130047023Y-96943247D02*
X129970833Y-96981342D01*
X129970833Y-96981342D02*
X129666071Y-96981342D01*
X130885118Y-97362295D02*
X130427975Y-97362295D01*
X130656547Y-97362295D02*
X130656547Y-96562295D01*
X130656547Y-96562295D02*
X130580356Y-96676580D01*
X130580356Y-96676580D02*
X130504166Y-96752771D01*
X130504166Y-96752771D02*
X130427975Y-96790866D01*
X131608928Y-96562295D02*
X131227976Y-96562295D01*
X131227976Y-96562295D02*
X131189880Y-96943247D01*
X131189880Y-96943247D02*
X131227976Y-96905152D01*
X131227976Y-96905152D02*
X131304166Y-96867057D01*
X131304166Y-96867057D02*
X131494642Y-96867057D01*
X131494642Y-96867057D02*
X131570833Y-96905152D01*
X131570833Y-96905152D02*
X131608928Y-96943247D01*
X131608928Y-96943247D02*
X131647023Y-97019438D01*
X131647023Y-97019438D02*
X131647023Y-97209914D01*
X131647023Y-97209914D02*
X131608928Y-97286104D01*
X131608928Y-97286104D02*
X131570833Y-97324200D01*
X131570833Y-97324200D02*
X131494642Y-97362295D01*
X131494642Y-97362295D02*
X131304166Y-97362295D01*
X131304166Y-97362295D02*
X131227976Y-97324200D01*
X131227976Y-97324200D02*
X131189880Y-97286104D01*
X125362295Y-81633333D02*
X125362295Y-82014285D01*
X125362295Y-82014285D02*
X124562295Y-82014285D01*
X125362295Y-80947619D02*
X125362295Y-81404762D01*
X125362295Y-81176190D02*
X124562295Y-81176190D01*
X124562295Y-81176190D02*
X124676580Y-81252381D01*
X124676580Y-81252381D02*
X124752771Y-81328571D01*
X124752771Y-81328571D02*
X124790866Y-81404762D01*
X133606104Y-78633332D02*
X133644200Y-78671428D01*
X133644200Y-78671428D02*
X133682295Y-78785713D01*
X133682295Y-78785713D02*
X133682295Y-78861904D01*
X133682295Y-78861904D02*
X133644200Y-78976190D01*
X133644200Y-78976190D02*
X133568009Y-79052380D01*
X133568009Y-79052380D02*
X133491819Y-79090475D01*
X133491819Y-79090475D02*
X133339438Y-79128571D01*
X133339438Y-79128571D02*
X133225152Y-79128571D01*
X133225152Y-79128571D02*
X133072771Y-79090475D01*
X133072771Y-79090475D02*
X132996580Y-79052380D01*
X132996580Y-79052380D02*
X132920390Y-78976190D01*
X132920390Y-78976190D02*
X132882295Y-78861904D01*
X132882295Y-78861904D02*
X132882295Y-78785713D01*
X132882295Y-78785713D02*
X132920390Y-78671428D01*
X132920390Y-78671428D02*
X132958485Y-78633332D01*
X133225152Y-78176190D02*
X133187057Y-78252380D01*
X133187057Y-78252380D02*
X133148961Y-78290475D01*
X133148961Y-78290475D02*
X133072771Y-78328571D01*
X133072771Y-78328571D02*
X133034676Y-78328571D01*
X133034676Y-78328571D02*
X132958485Y-78290475D01*
X132958485Y-78290475D02*
X132920390Y-78252380D01*
X132920390Y-78252380D02*
X132882295Y-78176190D01*
X132882295Y-78176190D02*
X132882295Y-78023809D01*
X132882295Y-78023809D02*
X132920390Y-77947618D01*
X132920390Y-77947618D02*
X132958485Y-77909523D01*
X132958485Y-77909523D02*
X133034676Y-77871428D01*
X133034676Y-77871428D02*
X133072771Y-77871428D01*
X133072771Y-77871428D02*
X133148961Y-77909523D01*
X133148961Y-77909523D02*
X133187057Y-77947618D01*
X133187057Y-77947618D02*
X133225152Y-78023809D01*
X133225152Y-78023809D02*
X133225152Y-78176190D01*
X133225152Y-78176190D02*
X133263247Y-78252380D01*
X133263247Y-78252380D02*
X133301342Y-78290475D01*
X133301342Y-78290475D02*
X133377533Y-78328571D01*
X133377533Y-78328571D02*
X133529914Y-78328571D01*
X133529914Y-78328571D02*
X133606104Y-78290475D01*
X133606104Y-78290475D02*
X133644200Y-78252380D01*
X133644200Y-78252380D02*
X133682295Y-78176190D01*
X133682295Y-78176190D02*
X133682295Y-78023809D01*
X133682295Y-78023809D02*
X133644200Y-77947618D01*
X133644200Y-77947618D02*
X133606104Y-77909523D01*
X133606104Y-77909523D02*
X133529914Y-77871428D01*
X133529914Y-77871428D02*
X133377533Y-77871428D01*
X133377533Y-77871428D02*
X133301342Y-77909523D01*
X133301342Y-77909523D02*
X133263247Y-77947618D01*
X133263247Y-77947618D02*
X133225152Y-78023809D01*
X146616667Y-82362295D02*
X146350000Y-81981342D01*
X146159524Y-82362295D02*
X146159524Y-81562295D01*
X146159524Y-81562295D02*
X146464286Y-81562295D01*
X146464286Y-81562295D02*
X146540476Y-81600390D01*
X146540476Y-81600390D02*
X146578571Y-81638485D01*
X146578571Y-81638485D02*
X146616667Y-81714676D01*
X146616667Y-81714676D02*
X146616667Y-81828961D01*
X146616667Y-81828961D02*
X146578571Y-81905152D01*
X146578571Y-81905152D02*
X146540476Y-81943247D01*
X146540476Y-81943247D02*
X146464286Y-81981342D01*
X146464286Y-81981342D02*
X146159524Y-81981342D01*
X146883333Y-81562295D02*
X147416667Y-81562295D01*
X147416667Y-81562295D02*
X147073809Y-82362295D01*
X154990476Y-103562295D02*
X155447619Y-103562295D01*
X155219047Y-104362295D02*
X155219047Y-103562295D01*
X155714286Y-104362295D02*
X155714286Y-103562295D01*
X155714286Y-103562295D02*
X156019048Y-103562295D01*
X156019048Y-103562295D02*
X156095238Y-103600390D01*
X156095238Y-103600390D02*
X156133333Y-103638485D01*
X156133333Y-103638485D02*
X156171429Y-103714676D01*
X156171429Y-103714676D02*
X156171429Y-103828961D01*
X156171429Y-103828961D02*
X156133333Y-103905152D01*
X156133333Y-103905152D02*
X156095238Y-103943247D01*
X156095238Y-103943247D02*
X156019048Y-103981342D01*
X156019048Y-103981342D02*
X155714286Y-103981342D01*
X156438095Y-103562295D02*
X156933333Y-103562295D01*
X156933333Y-103562295D02*
X156666667Y-103867057D01*
X156666667Y-103867057D02*
X156780952Y-103867057D01*
X156780952Y-103867057D02*
X156857143Y-103905152D01*
X156857143Y-103905152D02*
X156895238Y-103943247D01*
X156895238Y-103943247D02*
X156933333Y-104019438D01*
X156933333Y-104019438D02*
X156933333Y-104209914D01*
X156933333Y-104209914D02*
X156895238Y-104286104D01*
X156895238Y-104286104D02*
X156857143Y-104324200D01*
X156857143Y-104324200D02*
X156780952Y-104362295D01*
X156780952Y-104362295D02*
X156552381Y-104362295D01*
X156552381Y-104362295D02*
X156476190Y-104324200D01*
X156476190Y-104324200D02*
X156438095Y-104286104D01*
X118642857Y-103993247D02*
X118376191Y-103993247D01*
X118376191Y-104412295D02*
X118376191Y-103612295D01*
X118376191Y-103612295D02*
X118757143Y-103612295D01*
X119061905Y-104412295D02*
X119061905Y-103612295D01*
X119442857Y-104412295D02*
X119442857Y-103612295D01*
X119442857Y-103612295D02*
X119633333Y-103612295D01*
X119633333Y-103612295D02*
X119747619Y-103650390D01*
X119747619Y-103650390D02*
X119823809Y-103726580D01*
X119823809Y-103726580D02*
X119861904Y-103802771D01*
X119861904Y-103802771D02*
X119900000Y-103955152D01*
X119900000Y-103955152D02*
X119900000Y-104069438D01*
X119900000Y-104069438D02*
X119861904Y-104221819D01*
X119861904Y-104221819D02*
X119823809Y-104298009D01*
X119823809Y-104298009D02*
X119747619Y-104374200D01*
X119747619Y-104374200D02*
X119633333Y-104412295D01*
X119633333Y-104412295D02*
X119442857Y-104412295D01*
X120661904Y-104412295D02*
X120204761Y-104412295D01*
X120433333Y-104412295D02*
X120433333Y-103612295D01*
X120433333Y-103612295D02*
X120357142Y-103726580D01*
X120357142Y-103726580D02*
X120280952Y-103802771D01*
X120280952Y-103802771D02*
X120204761Y-103840866D01*
X121485714Y-106612295D02*
X121219047Y-106231342D01*
X121028571Y-106612295D02*
X121028571Y-105812295D01*
X121028571Y-105812295D02*
X121333333Y-105812295D01*
X121333333Y-105812295D02*
X121409523Y-105850390D01*
X121409523Y-105850390D02*
X121447618Y-105888485D01*
X121447618Y-105888485D02*
X121485714Y-105964676D01*
X121485714Y-105964676D02*
X121485714Y-106078961D01*
X121485714Y-106078961D02*
X121447618Y-106155152D01*
X121447618Y-106155152D02*
X121409523Y-106193247D01*
X121409523Y-106193247D02*
X121333333Y-106231342D01*
X121333333Y-106231342D02*
X121028571Y-106231342D01*
X122247618Y-106612295D02*
X121790475Y-106612295D01*
X122019047Y-106612295D02*
X122019047Y-105812295D01*
X122019047Y-105812295D02*
X121942856Y-105926580D01*
X121942856Y-105926580D02*
X121866666Y-106002771D01*
X121866666Y-106002771D02*
X121790475Y-106040866D01*
X122704761Y-106155152D02*
X122628571Y-106117057D01*
X122628571Y-106117057D02*
X122590476Y-106078961D01*
X122590476Y-106078961D02*
X122552380Y-106002771D01*
X122552380Y-106002771D02*
X122552380Y-105964676D01*
X122552380Y-105964676D02*
X122590476Y-105888485D01*
X122590476Y-105888485D02*
X122628571Y-105850390D01*
X122628571Y-105850390D02*
X122704761Y-105812295D01*
X122704761Y-105812295D02*
X122857142Y-105812295D01*
X122857142Y-105812295D02*
X122933333Y-105850390D01*
X122933333Y-105850390D02*
X122971428Y-105888485D01*
X122971428Y-105888485D02*
X123009523Y-105964676D01*
X123009523Y-105964676D02*
X123009523Y-106002771D01*
X123009523Y-106002771D02*
X122971428Y-106078961D01*
X122971428Y-106078961D02*
X122933333Y-106117057D01*
X122933333Y-106117057D02*
X122857142Y-106155152D01*
X122857142Y-106155152D02*
X122704761Y-106155152D01*
X122704761Y-106155152D02*
X122628571Y-106193247D01*
X122628571Y-106193247D02*
X122590476Y-106231342D01*
X122590476Y-106231342D02*
X122552380Y-106307533D01*
X122552380Y-106307533D02*
X122552380Y-106459914D01*
X122552380Y-106459914D02*
X122590476Y-106536104D01*
X122590476Y-106536104D02*
X122628571Y-106574200D01*
X122628571Y-106574200D02*
X122704761Y-106612295D01*
X122704761Y-106612295D02*
X122857142Y-106612295D01*
X122857142Y-106612295D02*
X122933333Y-106574200D01*
X122933333Y-106574200D02*
X122971428Y-106536104D01*
X122971428Y-106536104D02*
X123009523Y-106459914D01*
X123009523Y-106459914D02*
X123009523Y-106307533D01*
X123009523Y-106307533D02*
X122971428Y-106231342D01*
X122971428Y-106231342D02*
X122933333Y-106193247D01*
X122933333Y-106193247D02*
X122857142Y-106155152D01*
X143812295Y-110516666D02*
X144383723Y-110516666D01*
X144383723Y-110516666D02*
X144498009Y-110554761D01*
X144498009Y-110554761D02*
X144574200Y-110630952D01*
X144574200Y-110630952D02*
X144612295Y-110745237D01*
X144612295Y-110745237D02*
X144612295Y-110821428D01*
X143888485Y-110173809D02*
X143850390Y-110135713D01*
X143850390Y-110135713D02*
X143812295Y-110059523D01*
X143812295Y-110059523D02*
X143812295Y-109869047D01*
X143812295Y-109869047D02*
X143850390Y-109792856D01*
X143850390Y-109792856D02*
X143888485Y-109754761D01*
X143888485Y-109754761D02*
X143964676Y-109716666D01*
X143964676Y-109716666D02*
X144040866Y-109716666D01*
X144040866Y-109716666D02*
X144155152Y-109754761D01*
X144155152Y-109754761D02*
X144612295Y-110211904D01*
X144612295Y-110211904D02*
X144612295Y-109716666D01*
%TO.C,R1*%
D15*
X150272936Y-102765000D02*
X150727064Y-102765000D01*
X150272936Y-104235000D02*
X150727064Y-104235000D01*
%TO.C,C1*%
X151011252Y-80015000D02*
X150488748Y-80015000D01*
X151011252Y-81485000D02*
X150488748Y-81485000D01*
%TO.C,C18*%
X128265000Y-90238748D02*
X128265000Y-90761252D01*
X129735000Y-90238748D02*
X129735000Y-90761252D01*
%TO.C,C5*%
X130238748Y-81465000D02*
X130761252Y-81465000D01*
X130238748Y-82935000D02*
X130761252Y-82935000D01*
%TO.C,R13*%
X152265000Y-84727064D02*
X152265000Y-84272936D01*
X153735000Y-84727064D02*
X153735000Y-84272936D01*
%TO.C,C9*%
X140965000Y-78761252D02*
X140965000Y-78238748D01*
X142435000Y-78761252D02*
X142435000Y-78238748D01*
%TO.C,TP7*%
X130656250Y-102506250D02*
G75*
G02*
X129256250Y-102506250I-700000J0D01*
G01*
X129256250Y-102506250D02*
G75*
G02*
X130656250Y-102506250I700000J0D01*
G01*
%TO.C,C19*%
X150015000Y-97761252D02*
X150015000Y-97238748D01*
X151485000Y-97761252D02*
X151485000Y-97238748D01*
%TO.C,C23*%
X142765000Y-102238748D02*
X142765000Y-102761252D01*
X144235000Y-102238748D02*
X144235000Y-102761252D01*
%TO.C,C22*%
X126221250Y-103767502D02*
X126221250Y-103244998D01*
X127691250Y-103767502D02*
X127691250Y-103244998D01*
%TO.C,R9*%
X138465000Y-74467064D02*
X138465000Y-74012936D01*
X139935000Y-74467064D02*
X139935000Y-74012936D01*
%TO.C,U3*%
X122352500Y-97390000D02*
X124172500Y-97390000D01*
X122352500Y-97440000D02*
X122352500Y-97390000D01*
X122352500Y-100510000D02*
X122352500Y-100460000D01*
X124172500Y-97390000D02*
X124172500Y-97440000D01*
X124172500Y-100460000D02*
X124172500Y-100510000D01*
X124172500Y-100510000D02*
X122352500Y-100510000D01*
X124712500Y-100460000D02*
X124952500Y-100790000D01*
X124472500Y-100790000D01*
X124712500Y-100460000D01*
G36*
X124952500Y-100790000D02*
G01*
X124472500Y-100790000D01*
X124712500Y-100460000D01*
X124952500Y-100790000D01*
G37*
%TO.C,TP5*%
X134700000Y-92500000D02*
G75*
G02*
X133300000Y-92500000I-700000J0D01*
G01*
X133300000Y-92500000D02*
G75*
G02*
X134700000Y-92500000I700000J0D01*
G01*
%TO.C,R19*%
X123721250Y-103733314D02*
X123721250Y-103279186D01*
X125191250Y-103733314D02*
X125191250Y-103279186D01*
%TO.C,TP2*%
X153200000Y-100500000D02*
G75*
G02*
X151800000Y-100500000I-700000J0D01*
G01*
X151800000Y-100500000D02*
G75*
G02*
X153200000Y-100500000I700000J0D01*
G01*
%TO.C,U6*%
X134890000Y-82490000D02*
X135120000Y-82490000D01*
X134890000Y-83220000D02*
X134890000Y-82490000D01*
X134890000Y-85480000D02*
X134890000Y-85910000D01*
X139380000Y-82490000D02*
X139610000Y-82490000D01*
X139380000Y-86210000D02*
X139610000Y-86210000D01*
X139610000Y-83220000D02*
X139610000Y-82490000D01*
X139610000Y-86210000D02*
X139610000Y-85480000D01*
X134890000Y-86210000D02*
X134560000Y-86450000D01*
X134560000Y-85970000D01*
X134890000Y-86210000D01*
G36*
X134890000Y-86210000D02*
G01*
X134560000Y-86450000D01*
X134560000Y-85970000D01*
X134890000Y-86210000D01*
G37*
%TO.C,C3*%
X130201248Y-86465000D02*
X130723752Y-86465000D01*
X130201248Y-87935000D02*
X130723752Y-87935000D01*
%TO.C,R2*%
X167765000Y-104522936D02*
X167765000Y-104977064D01*
X169235000Y-104522936D02*
X169235000Y-104977064D01*
%TO.C,Q1*%
X132977500Y-94777500D02*
X133977500Y-94777500D01*
X132977500Y-96297500D02*
X132977500Y-94777500D01*
X133027500Y-96297500D02*
X132977500Y-96297500D01*
X134927500Y-96297500D02*
X134147500Y-96297500D01*
X135097500Y-94777500D02*
X136097500Y-94777500D01*
X136097500Y-94777500D02*
X136097500Y-96297500D01*
X136097500Y-96297500D02*
X136047500Y-96297500D01*
X134157500Y-96837500D02*
X134487500Y-96597500D01*
X134487500Y-97077500D01*
X134157500Y-96837500D01*
G36*
X134487500Y-97077500D02*
G01*
X134157500Y-96837500D01*
X134487500Y-96597500D01*
X134487500Y-97077500D01*
G37*
%TO.C,TP6*%
X120200000Y-99500000D02*
G75*
G02*
X118800000Y-99500000I-700000J0D01*
G01*
X118800000Y-99500000D02*
G75*
G02*
X120200000Y-99500000I700000J0D01*
G01*
%TO.C,C11*%
X134265000Y-89498752D02*
X134265000Y-88976248D01*
X135735000Y-89498752D02*
X135735000Y-88976248D01*
%TO.C,C13*%
X137265000Y-91276248D02*
X137265000Y-91798752D01*
X138735000Y-91276248D02*
X138735000Y-91798752D01*
%TO.C,TP8*%
X151700000Y-75500000D02*
G75*
G02*
X150300000Y-75500000I-700000J0D01*
G01*
X150300000Y-75500000D02*
G75*
G02*
X151700000Y-75500000I700000J0D01*
G01*
%TO.C,U4*%
D16*
X155123700Y-72412200D02*
X173386300Y-72412200D01*
X155123700Y-79252760D02*
X155123700Y-72412200D01*
X155123700Y-98167800D02*
X155123700Y-97317240D01*
X173386300Y-72412200D02*
X173386300Y-79252760D01*
X173386300Y-97317240D02*
X173386300Y-98167800D01*
X173386300Y-98167800D02*
X155123700Y-98167800D01*
X153396800Y-80030000D02*
G75*
G02*
X153142800Y-80030000I-127000J0D01*
G01*
X153142800Y-80030000D02*
G75*
G02*
X153396800Y-80030000I127000J0D01*
G01*
%TO.C,TP1*%
D15*
X150200000Y-100500000D02*
G75*
G02*
X148800000Y-100500000I-700000J0D01*
G01*
X148800000Y-100500000D02*
G75*
G02*
X150200000Y-100500000I700000J0D01*
G01*
%TO.C,BT3*%
X121815000Y-92060000D02*
X121815000Y-93940000D01*
X123785000Y-90890000D02*
X126285000Y-90890000D01*
X123785000Y-95110000D02*
X126285000Y-95110000D01*
X126285000Y-90890000D02*
X126285000Y-91940000D01*
X126285000Y-91940000D02*
X127275000Y-91940000D01*
X126285000Y-95110000D02*
X126285000Y-94060000D01*
%TO.C,R12*%
X165265000Y-100272936D02*
X165265000Y-100727064D01*
X166735000Y-100272936D02*
X166735000Y-100727064D01*
%TO.C,C14*%
X128965000Y-73978748D02*
X128965000Y-74501252D01*
X130435000Y-73978748D02*
X130435000Y-74501252D01*
%TO.C,JP1*%
X129100000Y-95300000D02*
X129100000Y-94700000D01*
X129800000Y-94000000D02*
X131200000Y-94000000D01*
X131200000Y-96000000D02*
X129800000Y-96000000D01*
X131900000Y-94700000D02*
X131900000Y-95300000D01*
X129100000Y-94700000D02*
G75*
G02*
X129800000Y-94000000I699999J1D01*
G01*
X129800000Y-96000000D02*
G75*
G02*
X129100000Y-95300000I-1J699999D01*
G01*
X131200000Y-94000000D02*
G75*
G02*
X131900000Y-94700000I0J-700000D01*
G01*
X131900000Y-95300000D02*
G75*
G02*
X131200000Y-96000000I-700000J0D01*
G01*
%TO.C,C2*%
X151011252Y-77065000D02*
X150488748Y-77065000D01*
X151011252Y-78535000D02*
X150488748Y-78535000D01*
%TO.C,C4*%
X130163748Y-83965000D02*
X130686252Y-83965000D01*
X130163748Y-85435000D02*
X130686252Y-85435000D01*
%TO.C,R11*%
X140265000Y-102727064D02*
X140265000Y-102272936D01*
X141735000Y-102727064D02*
X141735000Y-102272936D01*
%TO.C,R21*%
X152265000Y-93227064D02*
X152265000Y-92772936D01*
X153735000Y-93227064D02*
X153735000Y-92772936D01*
%TO.C,TP9*%
X142400000Y-87790000D02*
G75*
G02*
X141000000Y-87790000I-700000J0D01*
G01*
X141000000Y-87790000D02*
G75*
G02*
X142400000Y-87790000I700000J0D01*
G01*
%TO.C,R5*%
X165265000Y-104977064D02*
X165265000Y-104522936D01*
X166735000Y-104977064D02*
X166735000Y-104522936D01*
%TO.C,C7*%
X127465000Y-78923752D02*
X127465000Y-78401248D01*
X128935000Y-78923752D02*
X128935000Y-78401248D01*
%TO.C,R16*%
X134772936Y-98265000D02*
X135227064Y-98265000D01*
X134772936Y-99735000D02*
X135227064Y-99735000D01*
%TO.C,U5*%
X138452500Y-95390000D02*
X140272500Y-95390000D01*
X138452500Y-95440000D02*
X138452500Y-95390000D01*
X138452500Y-98510000D02*
X138452500Y-98460000D01*
X140272500Y-95390000D02*
X140272500Y-95440000D01*
X140272500Y-96560000D02*
X140272500Y-97340000D01*
X140272500Y-98460000D02*
X140272500Y-98510000D01*
X140272500Y-98510000D02*
X138452500Y-98510000D01*
X137912500Y-95440000D02*
X137672500Y-95110000D01*
X138152500Y-95110000D01*
X137912500Y-95440000D01*
G36*
X137912500Y-95440000D02*
G01*
X137672500Y-95110000D01*
X138152500Y-95110000D01*
X137912500Y-95440000D01*
G37*
%TO.C,C24*%
X162265000Y-102738748D02*
X162265000Y-103261252D01*
X163735000Y-102738748D02*
X163735000Y-103261252D01*
%TO.C,R6*%
X147515000Y-97727064D02*
X147515000Y-97272936D01*
X148985000Y-97727064D02*
X148985000Y-97272936D01*
%TO.C,R20*%
X126765000Y-99227064D02*
X126765000Y-98772936D01*
X128235000Y-99227064D02*
X128235000Y-98772936D01*
%TO.C,U2*%
X144990000Y-101452500D02*
X145040000Y-101452500D01*
X144990000Y-103272500D02*
X144990000Y-101452500D01*
X145040000Y-103272500D02*
X144990000Y-103272500D01*
X146160000Y-101452500D02*
X146940000Y-101452500D01*
X148060000Y-101452500D02*
X148110000Y-101452500D01*
X148110000Y-101452500D02*
X148110000Y-103272500D01*
X148110000Y-103272500D02*
X148060000Y-103272500D01*
X145040000Y-103812500D02*
X144710000Y-104052500D01*
X144710000Y-103572500D01*
X145040000Y-103812500D01*
G36*
X145040000Y-103812500D02*
G01*
X144710000Y-104052500D01*
X144710000Y-103572500D01*
X145040000Y-103812500D01*
G37*
%TO.C,C17*%
X131265000Y-90238748D02*
X131265000Y-90761252D01*
X132735000Y-90238748D02*
X132735000Y-90761252D01*
%TO.C,SW1*%
X145912500Y-91645000D02*
X145912500Y-90262000D01*
X145912500Y-91645000D02*
X147222500Y-91645000D01*
X146152500Y-84585000D02*
X147302500Y-84585000D01*
X146152500Y-91405000D02*
X146152500Y-84585000D01*
X146152500Y-91405000D02*
X147222500Y-91405000D01*
X147627500Y-88598333D02*
X148897500Y-88598333D01*
X149222500Y-84585000D02*
X150372500Y-84585000D01*
X149302500Y-91405000D02*
X150372500Y-91405000D01*
X150372500Y-91405000D02*
X150372500Y-84585000D01*
X147627500Y-86185000D02*
X148897500Y-86185000D01*
X148897500Y-89805000D01*
X147627500Y-89805000D01*
X147627500Y-86185000D01*
X147627500Y-88598333D02*
X148897500Y-88598333D01*
X148897500Y-89805000D01*
X147627500Y-89805000D01*
X147627500Y-88598333D01*
G36*
X147627500Y-88598333D02*
G01*
X148897500Y-88598333D01*
X148897500Y-89805000D01*
X147627500Y-89805000D01*
X147627500Y-88598333D01*
G37*
%TO.C,C6*%
X130965000Y-78401248D02*
X130965000Y-78923752D01*
X132435000Y-78401248D02*
X132435000Y-78923752D01*
%TO.C,C20*%
X144298752Y-93265000D02*
X143776248Y-93265000D01*
X144298752Y-94735000D02*
X143776248Y-94735000D01*
%TO.C,C15*%
X135465000Y-73978748D02*
X135465000Y-74501252D01*
X136935000Y-73978748D02*
X136935000Y-74501252D01*
%TO.C,C21*%
X142265000Y-97761252D02*
X142265000Y-97238748D01*
X143735000Y-97761252D02*
X143735000Y-97238748D01*
%TO.C,D3*%
X167540000Y-99500000D02*
X167540000Y-102360000D01*
X167540000Y-102360000D02*
X169460000Y-102360000D01*
X169460000Y-102360000D02*
X169460000Y-99500000D01*
%TO.C,C25*%
X144765000Y-97238748D02*
X144765000Y-97761252D01*
X146235000Y-97238748D02*
X146235000Y-97761252D01*
%TO.C,TP10*%
X144700000Y-79200000D02*
G75*
G02*
X143300000Y-79200000I-700000J0D01*
G01*
X143300000Y-79200000D02*
G75*
G02*
X144700000Y-79200000I700000J0D01*
G01*
%TO.C,R8*%
X143927064Y-85055000D02*
X143472936Y-85055000D01*
X143927064Y-86525000D02*
X143472936Y-86525000D01*
%TO.C,C12*%
X140265000Y-91276248D02*
X140265000Y-91798752D01*
X141735000Y-91276248D02*
X141735000Y-91798752D01*
%TO.C,R14*%
X152265000Y-88727064D02*
X152265000Y-88272936D01*
X153735000Y-88727064D02*
X153735000Y-88272936D01*
%TO.C,C10*%
X137465000Y-78761252D02*
X137465000Y-78238748D01*
X138935000Y-78761252D02*
X138935000Y-78238748D01*
%TO.C,C16*%
X132275000Y-73978748D02*
X132275000Y-74501252D01*
X133745000Y-73978748D02*
X133745000Y-74501252D01*
%TO.C,U1*%
X157400000Y-100350000D02*
X157400000Y-103150000D01*
X160800000Y-100350000D02*
X160800000Y-103350000D01*
X157700000Y-103450000D02*
X157700000Y-103730000D01*
X157420000Y-103450000D01*
X157700000Y-103450000D01*
G36*
X157700000Y-103730000D02*
G01*
X157420000Y-103450000D01*
X157700000Y-103450000D01*
X157700000Y-103730000D01*
G37*
%TO.C,J3*%
X170255000Y-101135000D02*
X170320000Y-101135000D01*
X170255000Y-104765000D02*
X170255000Y-101135000D01*
X170255000Y-104765000D02*
X170320000Y-104765000D01*
X170320000Y-106040000D02*
X170320000Y-104765000D01*
X174220000Y-101135000D02*
X174285000Y-101135000D01*
X174220000Y-104765000D02*
X174285000Y-104765000D01*
X174285000Y-104765000D02*
X174285000Y-101135000D01*
%TO.C,D2*%
X145677500Y-105990000D02*
X147197500Y-105990000D01*
X145677500Y-106040000D02*
X145677500Y-105990000D01*
X145677500Y-107940000D02*
X145677500Y-107160000D01*
X145677500Y-109110000D02*
X145677500Y-109060000D01*
X147197500Y-105990000D02*
X147197500Y-106990000D01*
X147197500Y-108110000D02*
X147197500Y-109110000D01*
X147197500Y-109110000D02*
X145677500Y-109110000D01*
X145137500Y-107170000D02*
X145377500Y-107500000D01*
X144897500Y-107500000D01*
X145137500Y-107170000D01*
G36*
X145377500Y-107500000D02*
G01*
X144897500Y-107500000D01*
X145137500Y-107170000D01*
X145377500Y-107500000D01*
G37*
%TO.C,R15*%
X131014564Y-97715000D02*
X130560436Y-97715000D01*
X131014564Y-99185000D02*
X130560436Y-99185000D01*
%TO.C,L1*%
X122190000Y-84060000D02*
X122190000Y-85940000D01*
X124160000Y-82890000D02*
X126660000Y-82890000D01*
X124160000Y-87110000D02*
X126660000Y-87110000D01*
X126660000Y-82890000D02*
X126660000Y-83940000D01*
X126660000Y-83940000D02*
X127650000Y-83940000D01*
X126660000Y-87110000D02*
X126660000Y-86060000D01*
%TO.C,C8*%
X134265000Y-78761252D02*
X134265000Y-78238748D01*
X135735000Y-78761252D02*
X135735000Y-78238748D01*
%TO.C,R7*%
X143927064Y-81555000D02*
X143472936Y-81555000D01*
X143927064Y-83025000D02*
X143472936Y-83025000D01*
%TO.C,TP3*%
X154700000Y-103750000D02*
G75*
G02*
X153300000Y-103750000I-700000J0D01*
G01*
X153300000Y-103750000D02*
G75*
G02*
X154700000Y-103750000I700000J0D01*
G01*
%TO.C,R18*%
X121221250Y-103279186D02*
X121221250Y-103733314D01*
X122691250Y-103279186D02*
X122691250Y-103733314D01*
%TD*%
M02*
