%TF.GenerationSoftware,KiCad,Pcbnew,10.0.3*%
%TF.CreationDate,2026-07-25T19:14:00+10:00*%
%TF.ProjectId,WashingLineMonitor-P0001,57617368-696e-4674-9c69-6e654d6f6e69,AC*%
%TF.SameCoordinates,Original*%
%TF.FileFunction,Soldermask,Top*%
%TF.FilePolarity,Negative*%
%FSLAX46Y46*%
G04 Gerber Fmt 4.6, Leading zero omitted, Abs format (unit mm)*
G04 Created by KiCad (PCBNEW 10.0.3) date 2026-07-25 19:14:00*
%MOMM*%
%LPD*%
G01*
G04 APERTURE LIST*
G04 Aperture macros list*
%AMRoundRect*
0 Rectangle with rounded corners*
0 $1 Rounding radius*
0 $2 $3 $4 $5 $6 $7 $8 $9 X,Y pos of 4 corners*
0 Add a 4 corners polygon primitive as box body*
4,1,4,$2,$3,$4,$5,$6,$7,$8,$9,$2,$3,0*
0 Add four circle primitives for the rounded corners*
1,1,$1+$1,$2,$3*
1,1,$1+$1,$4,$5*
1,1,$1+$1,$6,$7*
1,1,$1+$1,$8,$9*
0 Add four rect primitives between the rounded corners*
20,1,$1+$1,$2,$3,$4,$5,0*
20,1,$1+$1,$4,$5,$6,$7,0*
20,1,$1+$1,$6,$7,$8,$9,0*
20,1,$1+$1,$8,$9,$2,$3,0*%
%AMFreePoly0*
4,1,13,0.375000,1.525000,1.025000,1.525000,1.025000,-1.525000,0.375000,-1.525000,0.375000,-1.925000,-0.375000,-1.925000,-0.375000,-1.525000,-1.025000,-1.525000,-1.025000,1.525000,-0.375000,1.525000,-0.375000,1.925000,0.375000,1.925000,0.375000,1.525000,0.375000,1.525000,$1*%
%AMFreePoly1*
4,1,23,0.500000,-0.750000,0.000000,-0.750000,0.000000,-0.745722,-0.065263,-0.745722,-0.191342,-0.711940,-0.304381,-0.646677,-0.396677,-0.554381,-0.461940,-0.441342,-0.495722,-0.315263,-0.495722,-0.250000,-0.500000,-0.250000,-0.500000,0.250000,-0.495722,0.250000,-0.495722,0.315263,-0.461940,0.441342,-0.396677,0.554381,-0.304381,0.646677,-0.191342,0.711940,-0.065263,0.745722,0.000000,0.745722,
0.000000,0.750000,0.500000,0.750000,0.500000,-0.750000,0.500000,-0.750000,$1*%
%AMFreePoly2*
4,1,23,0.000000,0.745722,0.065263,0.745722,0.191342,0.711940,0.304381,0.646677,0.396677,0.554381,0.461940,0.441342,0.495722,0.315263,0.495722,0.250000,0.500000,0.250000,0.500000,-0.250000,0.495722,-0.250000,0.495722,-0.315263,0.461940,-0.441342,0.396677,-0.554381,0.304381,-0.646677,0.191342,-0.711940,0.065263,-0.745722,0.000000,-0.745722,0.000000,-0.750000,-0.500000,-0.750000,
-0.500000,0.750000,0.000000,0.750000,0.000000,0.745722,0.000000,0.745722,$1*%
G04 Aperture macros list end*
%ADD10RoundRect,0.250000X-0.350000X-0.450000X0.350000X-0.450000X0.350000X0.450000X-0.350000X0.450000X0*%
%ADD11RoundRect,0.250000X0.337500X0.475000X-0.337500X0.475000X-0.337500X-0.475000X0.337500X-0.475000X0*%
%ADD12RoundRect,0.250000X-0.475000X0.337500X-0.475000X-0.337500X0.475000X-0.337500X0.475000X0.337500X0*%
%ADD13RoundRect,0.250000X-0.337500X-0.475000X0.337500X-0.475000X0.337500X0.475000X-0.337500X0.475000X0*%
%ADD14RoundRect,0.250000X0.450000X-0.350000X0.450000X0.350000X-0.450000X0.350000X-0.450000X-0.350000X0*%
%ADD15RoundRect,0.250000X0.475000X-0.337500X0.475000X0.337500X-0.475000X0.337500X-0.475000X-0.337500X0*%
%ADD16C,1.000000*%
%ADD17RoundRect,0.150000X0.512500X0.150000X-0.512500X0.150000X-0.512500X-0.150000X0.512500X-0.150000X0*%
%ADD18RoundRect,0.050400X0.324600X-0.069599X0.324600X0.069599X-0.324600X0.069599X-0.324600X-0.069599X0*%
%ADD19RoundRect,0.052450X0.072431X-0.322550X0.072431X0.322550X-0.072431X0.322550X-0.072431X-0.322550X0*%
%ADD20RoundRect,0.050400X0.069599X-0.324600X0.069599X0.324600X-0.069599X0.324600X-0.069599X-0.324600X0*%
%ADD21RoundRect,0.050400X0.069600X-0.324600X0.069600X0.324600X-0.069600X0.324600X-0.069600X-0.324600X0*%
%ADD22RoundRect,0.051064X0.070516X-0.323936X0.070516X0.323936X-0.070516X0.323936X-0.070516X-0.323936X0*%
%ADD23RoundRect,0.053633X0.074064X-0.318727X0.074064X0.318727X-0.074064X0.318727X-0.074064X-0.318727X0*%
%ADD24RoundRect,0.050399X0.324601X-0.069599X0.324601X0.069599X-0.324601X0.069599X-0.324601X-0.069599X0*%
%ADD25RoundRect,0.050400X0.324600X-0.069600X0.324600X0.069600X-0.324600X0.069600X-0.324600X-0.069600X0*%
%ADD26RoundRect,0.051350X0.070912X-0.323650X0.070912X0.323650X-0.070912X0.323650X-0.070912X-0.323650X0*%
%ADD27RoundRect,0.051549X0.071187X-0.323451X0.071187X0.323451X-0.071187X0.323451X-0.071187X-0.323451X0*%
%ADD28RoundRect,0.051747X0.071461X-0.323253X0.071461X0.323253X-0.071461X0.323253X-0.071461X-0.323253X0*%
%ADD29RoundRect,0.049190X0.067929X-0.325810X0.067929X0.325810X-0.067929X0.325810X-0.067929X-0.325810X0*%
%ADD30RoundRect,0.048379X0.066810X-0.326621X0.066810X0.326621X-0.066810X0.326621X-0.066810X-0.326621X0*%
%ADD31RoundRect,0.050000X0.325000X-0.050000X0.325000X0.050000X-0.325000X0.050000X-0.325000X-0.050000X0*%
%ADD32RoundRect,0.050000X0.325000X-0.049999X0.325000X0.049999X-0.325000X0.049999X-0.325000X-0.049999X0*%
%ADD33FreePoly0,90.000000*%
%ADD34RoundRect,0.250000X-0.450000X0.350000X-0.450000X-0.350000X0.450000X-0.350000X0.450000X0.350000X0*%
%ADD35RoundRect,0.150000X0.150000X-0.587500X0.150000X0.587500X-0.150000X0.587500X-0.150000X-0.587500X0*%
%ADD36R,1.498600X0.889000*%
%ADD37R,0.812800X0.812800*%
%ADD38RoundRect,0.150000X-0.625000X0.150000X-0.625000X-0.150000X0.625000X-0.150000X0.625000X0.150000X0*%
%ADD39RoundRect,0.250000X-0.650000X0.350000X-0.650000X-0.350000X0.650000X-0.350000X0.650000X0.350000X0*%
%ADD40FreePoly1,0.000000*%
%ADD41FreePoly2,0.000000*%
%ADD42RoundRect,0.150000X-0.512500X-0.150000X0.512500X-0.150000X0.512500X0.150000X-0.512500X0.150000X0*%
%ADD43RoundRect,0.150000X0.150000X-0.512500X0.150000X0.512500X-0.150000X0.512500X-0.150000X-0.512500X0*%
%ADD44RoundRect,0.250000X0.550000X-0.550000X0.550000X0.550000X-0.550000X0.550000X-0.550000X-0.550000X0*%
%ADD45C,1.600000*%
%ADD46RoundRect,0.250000X0.450000X-0.325000X0.450000X0.325000X-0.450000X0.325000X-0.450000X-0.325000X0*%
%ADD47RoundRect,0.102000X1.140000X-4.700000X1.140000X4.700000X-1.140000X4.700000X-1.140000X-4.700000X0*%
%ADD48RoundRect,0.250000X0.350000X0.450000X-0.350000X0.450000X-0.350000X-0.450000X0.350000X-0.450000X0*%
%ADD49RoundRect,0.100000X0.100000X-0.200000X0.100000X0.200000X-0.100000X0.200000X-0.100000X-0.200000X0*%
%ADD50R,2.400000X1.500000*%
%ADD51R,0.740000X2.400000*%
%ADD52RoundRect,0.150000X-0.587500X-0.150000X0.587500X-0.150000X0.587500X0.150000X-0.587500X0.150000X0*%
G04 APERTURE END LIST*
%TO.C,JP1*%
G36*
X130350000Y-94250000D02*
G01*
X130650000Y-94250000D01*
X130650000Y-95750000D01*
X130350000Y-95750000D01*
X130350000Y-94250000D01*
G37*
%TD*%
D10*
%TO.C,R1*%
X149500000Y-103500000D03*
X151500000Y-103500000D03*
%TD*%
D11*
%TO.C,C1*%
X151787500Y-80750000D03*
X149712500Y-80750000D03*
%TD*%
D12*
%TO.C,C18*%
X129000000Y-89462500D03*
X129000000Y-91537500D03*
%TD*%
D13*
%TO.C,C5*%
X129462500Y-82200000D03*
X131537500Y-82200000D03*
%TD*%
D14*
%TO.C,R13*%
X153000000Y-85500000D03*
X153000000Y-83500000D03*
%TD*%
D15*
%TO.C,C9*%
X141700000Y-79537500D03*
X141700000Y-77462500D03*
%TD*%
D16*
%TO.C,TP7*%
X129956250Y-102506250D03*
%TD*%
D15*
%TO.C,C19*%
X150750000Y-98537500D03*
X150750000Y-96462500D03*
%TD*%
D12*
%TO.C,C23*%
X143500000Y-101462500D03*
X143500000Y-103537500D03*
%TD*%
D15*
%TO.C,C22*%
X126956250Y-104543750D03*
X126956250Y-102468750D03*
%TD*%
D14*
%TO.C,R9*%
X139200000Y-75240000D03*
X139200000Y-73240000D03*
%TD*%
D17*
%TO.C,U3*%
X124400000Y-99900000D03*
X124400000Y-98950000D03*
X124400000Y-98000000D03*
X122125000Y-98000000D03*
X122125000Y-98950000D03*
X122125000Y-99900000D03*
%TD*%
D16*
%TO.C,TP5*%
X134000000Y-92500000D03*
%TD*%
D14*
%TO.C,R19*%
X124456250Y-104506250D03*
X124456250Y-102506250D03*
%TD*%
D16*
%TO.C,FID3*%
X154250000Y-105750000D03*
%TD*%
%TO.C,TP2*%
X152500000Y-100500000D03*
%TD*%
D18*
%TO.C,U6*%
X135025000Y-85099999D03*
D19*
X135504882Y-86075000D03*
D20*
X136000001Y-86075000D03*
D21*
X136500000Y-86075000D03*
X137000000Y-86075000D03*
X137500000Y-86075000D03*
X138000000Y-86075000D03*
D22*
X138501580Y-86075000D03*
D23*
X139007697Y-86072360D03*
D24*
X139475000Y-85099998D03*
D25*
X139475000Y-83600000D03*
D26*
X139002262Y-82625000D03*
D27*
X138502736Y-82625000D03*
D28*
X138003208Y-82625000D03*
D21*
X137500000Y-82625000D03*
X137000000Y-82625000D03*
X136500000Y-82625000D03*
D29*
X135997122Y-82625000D03*
D30*
X135495193Y-82625000D03*
D25*
X135025000Y-83600000D03*
D31*
X135025000Y-84625000D03*
D32*
X139475000Y-84624999D03*
D33*
X137250000Y-84350000D03*
D31*
X135025000Y-84075000D03*
X139475000Y-84075000D03*
%TD*%
D13*
%TO.C,C3*%
X129425000Y-87200000D03*
X131500000Y-87200000D03*
%TD*%
D34*
%TO.C,R2*%
X168500000Y-103750000D03*
X168500000Y-105750000D03*
%TD*%
D35*
%TO.C,Q1*%
X133587500Y-96475000D03*
X135487500Y-96475000D03*
X134537500Y-94600000D03*
%TD*%
D16*
%TO.C,TP6*%
X119500000Y-99500000D03*
%TD*%
D15*
%TO.C,C11*%
X135000000Y-90275000D03*
X135000000Y-88200000D03*
%TD*%
D16*
%TO.C,FID2*%
X120500000Y-75000000D03*
%TD*%
D12*
%TO.C,C13*%
X138000000Y-90500000D03*
X138000000Y-92575000D03*
%TD*%
D16*
%TO.C,TP8*%
X151000000Y-75500000D03*
%TD*%
D36*
%TO.C,U4*%
X155505000Y-80030000D03*
X155505000Y-81300000D03*
X155505000Y-82570000D03*
X155505000Y-83840000D03*
X155505000Y-85110000D03*
X155505000Y-86380000D03*
X155505000Y-87650000D03*
X155505000Y-88920000D03*
X155505000Y-90190000D03*
X155505000Y-91460000D03*
X155505000Y-92730000D03*
X155505000Y-94000000D03*
X155505000Y-95270000D03*
X155505000Y-96540000D03*
X173005000Y-96540000D03*
X173005000Y-95270000D03*
X173005000Y-94000000D03*
X173005000Y-92730000D03*
X173005000Y-91460000D03*
X173005000Y-90190000D03*
X173005000Y-88920000D03*
X173005000Y-87650000D03*
X173005000Y-86380000D03*
X173005000Y-85110000D03*
X173005000Y-83840000D03*
X173005000Y-82570000D03*
X173005000Y-81300000D03*
X173005000Y-80030000D03*
D37*
X162750000Y-85750000D03*
X161500000Y-84500000D03*
X161500000Y-85750000D03*
X161500000Y-87000000D03*
X162750000Y-87000000D03*
X164000000Y-87000000D03*
X164000000Y-85750000D03*
X164000000Y-84500000D03*
X162750000Y-84500000D03*
%TD*%
D16*
%TO.C,TP1*%
X149500000Y-100500000D03*
%TD*%
D38*
%TO.C,BT3*%
X126500000Y-92500000D03*
X126500000Y-93500000D03*
D39*
X122625000Y-91200000D03*
X122625000Y-94800000D03*
%TD*%
D34*
%TO.C,R12*%
X166000000Y-99500000D03*
X166000000Y-101500000D03*
%TD*%
D12*
%TO.C,C14*%
X129700000Y-73202500D03*
X129700000Y-75277500D03*
%TD*%
D40*
%TO.C,JP1*%
X129850000Y-95000000D03*
D41*
X131150000Y-95000000D03*
%TD*%
D11*
%TO.C,C2*%
X151787500Y-77800000D03*
X149712500Y-77800000D03*
%TD*%
D13*
%TO.C,C4*%
X129387500Y-84700000D03*
X131462500Y-84700000D03*
%TD*%
D14*
%TO.C,R11*%
X141000000Y-103500000D03*
X141000000Y-101500000D03*
%TD*%
%TO.C,R21*%
X153000000Y-94000000D03*
X153000000Y-92000000D03*
%TD*%
D16*
%TO.C,TP9*%
X141700000Y-87790000D03*
%TD*%
D14*
%TO.C,R5*%
X166000000Y-105750000D03*
X166000000Y-103750000D03*
%TD*%
D15*
%TO.C,C7*%
X128200000Y-79700000D03*
X128200000Y-77625000D03*
%TD*%
D10*
%TO.C,R16*%
X134000000Y-99000000D03*
X136000000Y-99000000D03*
%TD*%
D42*
%TO.C,U5*%
X138225000Y-96000000D03*
X138225000Y-96950000D03*
X138225000Y-97900000D03*
X140500000Y-97900000D03*
X140500000Y-96000000D03*
%TD*%
D12*
%TO.C,C24*%
X163000000Y-101962500D03*
X163000000Y-104037500D03*
%TD*%
D14*
%TO.C,R6*%
X148250000Y-98500000D03*
X148250000Y-96500000D03*
%TD*%
%TO.C,R20*%
X127500000Y-100000000D03*
X127500000Y-98000000D03*
%TD*%
D43*
%TO.C,U2*%
X145600000Y-103500000D03*
X146550000Y-103500000D03*
X147500000Y-103500000D03*
X147500000Y-101225000D03*
X145600000Y-101225000D03*
%TD*%
D12*
%TO.C,C17*%
X132000000Y-89462500D03*
X132000000Y-91537500D03*
%TD*%
D44*
%TO.C,SW1*%
X148262500Y-91805000D03*
D45*
X148262500Y-84185000D03*
%TD*%
D12*
%TO.C,C6*%
X131700000Y-77625000D03*
X131700000Y-79700000D03*
%TD*%
D11*
%TO.C,C20*%
X145075000Y-94000000D03*
X143000000Y-94000000D03*
%TD*%
D12*
%TO.C,C15*%
X136200000Y-73202500D03*
X136200000Y-75277500D03*
%TD*%
D15*
%TO.C,C21*%
X143000000Y-98537500D03*
X143000000Y-96462500D03*
%TD*%
D46*
%TO.C,D3*%
X168500000Y-101525000D03*
X168500000Y-99475000D03*
%TD*%
D12*
%TO.C,C25*%
X145500000Y-96462500D03*
X145500000Y-98537500D03*
%TD*%
D16*
%TO.C,TP10*%
X144000000Y-79200000D03*
%TD*%
D47*
%TO.C,J1*%
X150300000Y-110300000D03*
%TD*%
D48*
%TO.C,R8*%
X144700000Y-85790000D03*
X142700000Y-85790000D03*
%TD*%
D12*
%TO.C,C12*%
X141000000Y-90500000D03*
X141000000Y-92575000D03*
%TD*%
D14*
%TO.C,R14*%
X153000000Y-89500000D03*
X153000000Y-87500000D03*
%TD*%
D15*
%TO.C,C10*%
X138200000Y-79537500D03*
X138200000Y-77462500D03*
%TD*%
D12*
%TO.C,C16*%
X133010000Y-73202500D03*
X133010000Y-75277500D03*
%TD*%
D49*
%TO.C,U1*%
X158150000Y-103250000D03*
X159100000Y-103250000D03*
X160050000Y-103250000D03*
X160050000Y-100450000D03*
X159100000Y-100450000D03*
X158150000Y-100450000D03*
D50*
X159100000Y-101850000D03*
%TD*%
D51*
%TO.C,J3*%
X171000000Y-104900000D03*
X171000000Y-101000000D03*
X172270000Y-104900000D03*
X172270000Y-101000000D03*
X173540000Y-104900000D03*
X173540000Y-101000000D03*
%TD*%
D52*
%TO.C,D2*%
X145500000Y-106600000D03*
X145500000Y-108500000D03*
X147375000Y-107550000D03*
%TD*%
D48*
%TO.C,R15*%
X131787500Y-98450000D03*
X129787500Y-98450000D03*
%TD*%
D38*
%TO.C,L1*%
X126875000Y-84500000D03*
X126875000Y-85500000D03*
D39*
X123000000Y-83200000D03*
X123000000Y-86800000D03*
%TD*%
D15*
%TO.C,C8*%
X135000000Y-79537500D03*
X135000000Y-77462500D03*
%TD*%
D48*
%TO.C,R7*%
X144700000Y-82290000D03*
X142700000Y-82290000D03*
%TD*%
D16*
%TO.C,TP3*%
X154000000Y-103750000D03*
%TD*%
%TO.C,FID1*%
X119500000Y-105500000D03*
%TD*%
D34*
%TO.C,R18*%
X121956250Y-102506250D03*
X121956250Y-104506250D03*
%TD*%
D47*
%TO.C,J2*%
X142200000Y-110300000D03*
%TD*%
M02*
