%TF.GenerationSoftware,KiCad,Pcbnew,9.0.3*%
%TF.CreationDate,2025-09-14T12:06:08+10:00*%
%TF.ProjectId,WashingLineMonitor-P0001,57617368-696e-4674-9c69-6e654d6f6e69,AB*%
%TF.SameCoordinates,Original*%
%TF.FileFunction,Copper,L2,Bot*%
%TF.FilePolarity,Positive*%
%FSLAX46Y46*%
G04 Gerber Fmt 4.6, Leading zero omitted, Abs format (unit mm)*
G04 Created by KiCad (PCBNEW 9.0.3) date 2025-09-14 12:06:08*
%MOMM*%
%LPD*%
G01*
G04 APERTURE LIST*
G04 Aperture macros list*
%AMRoundRect*
0 Rectangle with rounded corners*
0 $1 Rounding radius*
0 $2 $3 $4 $5 $6 $7 $8 $9 X,Y pos of 4 corners*
0 Add a 4 corners polygon primitive as box body*
4,1,4,$2,$3,$4,$5,$6,$7,$8,$9,$2,$3,0*
0 Add four circle primitives for the rounded corners*
1,1,$1+$1,$2,$3*
1,1,$1+$1,$4,$5*
1,1,$1+$1,$6,$7*
1,1,$1+$1,$8,$9*
0 Add four rect primitives between the rounded corners*
20,1,$1+$1,$2,$3,$4,$5,0*
20,1,$1+$1,$4,$5,$6,$7,0*
20,1,$1+$1,$6,$7,$8,$9,0*
20,1,$1+$1,$8,$9,$2,$3,0*%
G04 Aperture macros list end*
%TA.AperFunction,ComponentPad*%
%ADD10RoundRect,0.250000X-0.550000X-0.550000X0.550000X-0.550000X0.550000X0.550000X-0.550000X0.550000X0*%
%TD*%
%TA.AperFunction,ComponentPad*%
%ADD11C,1.600000*%
%TD*%
%TA.AperFunction,ComponentPad*%
%ADD12RoundRect,0.250000X-0.550000X0.550000X-0.550000X-0.550000X0.550000X-0.550000X0.550000X0.550000X0*%
%TD*%
%TA.AperFunction,ViaPad*%
%ADD13C,0.600000*%
%TD*%
%TA.AperFunction,Conductor*%
%ADD14C,0.500000*%
%TD*%
%TA.AperFunction,Conductor*%
%ADD15C,0.300000*%
%TD*%
%TA.AperFunction,Conductor*%
%ADD16C,0.200000*%
%TD*%
G04 APERTURE END LIST*
D10*
%TO.P,J1,1,Pin_1*%
%TO.N,/Moisture Sensor/Vsens*%
X80900000Y-46500000D03*
D11*
%TO.P,J1,2,Pin_2*%
%TO.N,GND*%
X84500000Y-46500000D03*
%TD*%
D12*
%TO.P,L1,1,1*%
%TO.N,Net-(U6-AC2)*%
X46000000Y-33000000D03*
D11*
%TO.P,L1,2,2*%
%TO.N,Net-(C3-Pad1)*%
X46000000Y-37500000D03*
%TD*%
D12*
%TO.P,BT3,1,+*%
%TO.N,Vbatt*%
X40500000Y-45500000D03*
D11*
%TO.P,BT3,2,-*%
%TO.N,GND*%
X40500000Y-49100000D03*
%TD*%
D13*
%TO.N,GND*%
X67500000Y-27000000D03*
X83000000Y-27000000D03*
X62500000Y-21500000D03*
X50000000Y-49500000D03*
X92500000Y-23500000D03*
X66000000Y-50500000D03*
X59000000Y-52500000D03*
X75000000Y-21500000D03*
X65000000Y-48500000D03*
X69500000Y-33500000D03*
X76000000Y-38000000D03*
X68000000Y-35500000D03*
X70000000Y-35500000D03*
X58000000Y-52500000D03*
X77000000Y-47000000D03*
X69000000Y-35500000D03*
X91000000Y-49500000D03*
X71500000Y-52000000D03*
X77000000Y-49000000D03*
X55000000Y-52500000D03*
X71500000Y-51000000D03*
X56000000Y-34500000D03*
X77000000Y-38000000D03*
X56800000Y-34710000D03*
X76000000Y-37000000D03*
X68000000Y-32000000D03*
X61500000Y-49500000D03*
X74000000Y-47000000D03*
X71000000Y-23000000D03*
X65000000Y-47000000D03*
X54000000Y-49500000D03*
X74000000Y-49000000D03*
X82000000Y-27000000D03*
X83000000Y-29000000D03*
X63500000Y-49500000D03*
X92500000Y-24500000D03*
X75000000Y-37000000D03*
X75000000Y-22500000D03*
X66000000Y-35500000D03*
X91500000Y-45500000D03*
X91500000Y-44500000D03*
X52000000Y-49500000D03*
X88500000Y-23500000D03*
X92000000Y-49500000D03*
X80000000Y-27000000D03*
X93500000Y-22500000D03*
X71500000Y-53000000D03*
X59500000Y-21500000D03*
X76000000Y-52500000D03*
X60000000Y-52500000D03*
X92500000Y-21500000D03*
X83000000Y-32000000D03*
X60500000Y-49500000D03*
X83000000Y-28000000D03*
X62056265Y-32292265D03*
X66000000Y-53500000D03*
X75000000Y-23500000D03*
X75000000Y-38000000D03*
X64500000Y-49500000D03*
X88500000Y-22500000D03*
X71500000Y-50000000D03*
X66000000Y-52500000D03*
X51000000Y-49500000D03*
X65000000Y-35500000D03*
X55800000Y-35710000D03*
X79000000Y-27000000D03*
X71000000Y-21000000D03*
X59500000Y-49500000D03*
X71000000Y-22000000D03*
X72000000Y-21000000D03*
X83000000Y-31000000D03*
X56800000Y-35710000D03*
X93500000Y-21500000D03*
X71500000Y-49000000D03*
X88500000Y-21500000D03*
X83000000Y-30000000D03*
X74000000Y-48000000D03*
X66000000Y-51500000D03*
X92500000Y-20500000D03*
X76000000Y-51500000D03*
X64000000Y-21500000D03*
X67000000Y-35500000D03*
X93500000Y-23500000D03*
X56000000Y-21500000D03*
X93500000Y-24500000D03*
X65500000Y-45500000D03*
X75000000Y-36000000D03*
X62500000Y-49500000D03*
X53000000Y-21500000D03*
X93500000Y-20500000D03*
X81000000Y-27000000D03*
X69500000Y-28500000D03*
X53000000Y-49500000D03*
X77000000Y-48000000D03*
X92500000Y-22500000D03*
%TO.N,3V3*%
X88500000Y-42500000D03*
X88000000Y-38500000D03*
%TO.N,Net-(U6-AC1)*%
X62800000Y-43785000D03*
X57800000Y-40210000D03*
%TO.N,Net-(U6-RECT)*%
X59500000Y-27000000D03*
X58800000Y-32710000D03*
%TO.N,ESP_EN*%
X88500000Y-51450000D03*
X87000000Y-38500000D03*
%TD*%
D14*
%TO.N,3V3*%
X88000000Y-42000000D02*
X88000000Y-38500000D01*
X88500000Y-42500000D02*
X88000000Y-42000000D01*
D15*
%TO.N,Net-(U6-AC1)*%
X61375000Y-43785000D02*
X62800000Y-43785000D01*
X57800000Y-40210000D02*
X61375000Y-43785000D01*
D16*
%TO.N,Net-(U6-RECT)*%
X59500000Y-27010000D02*
X58800000Y-27710000D01*
X59500000Y-27000000D02*
X59500000Y-27010000D01*
X58800000Y-32710000D02*
X58800000Y-27710000D01*
%TO.N,ESP_EN*%
X88500000Y-44000000D02*
X87000000Y-42500000D01*
X88500000Y-51450000D02*
X88500000Y-44000000D01*
X87000000Y-42500000D02*
X87000000Y-38500000D01*
%TD*%
%TA.AperFunction,Conductor*%
%TO.N,GND*%
G36*
X72693039Y-14520185D02*
G01*
X72738794Y-14572989D01*
X72750000Y-14624500D01*
X72750000Y-21010000D01*
X90750000Y-21010000D01*
X90750000Y-14624500D01*
X90769685Y-14557461D01*
X90822489Y-14511706D01*
X90874000Y-14500500D01*
X93434108Y-14500500D01*
X93495572Y-14500500D01*
X93504418Y-14500816D01*
X93704561Y-14515130D01*
X93722063Y-14517647D01*
X93913797Y-14559355D01*
X93930755Y-14564334D01*
X94092064Y-14624500D01*
X94114609Y-14632909D01*
X94130701Y-14640259D01*
X94302904Y-14734288D01*
X94317784Y-14743849D01*
X94474867Y-14861441D01*
X94488237Y-14873027D01*
X94626972Y-15011762D01*
X94638558Y-15025132D01*
X94756146Y-15182210D01*
X94765711Y-15197095D01*
X94859740Y-15369298D01*
X94867090Y-15385390D01*
X94935662Y-15569236D01*
X94940646Y-15586212D01*
X94982351Y-15777931D01*
X94984869Y-15795442D01*
X94999184Y-15995580D01*
X94999500Y-16004427D01*
X94999500Y-53495572D01*
X94999184Y-53504419D01*
X94984869Y-53704557D01*
X94982351Y-53722068D01*
X94940646Y-53913787D01*
X94935662Y-53930763D01*
X94867090Y-54114609D01*
X94859740Y-54130701D01*
X94765711Y-54302904D01*
X94756146Y-54317789D01*
X94638558Y-54474867D01*
X94626972Y-54488237D01*
X94488237Y-54626972D01*
X94474867Y-54638558D01*
X94317789Y-54756146D01*
X94302904Y-54765711D01*
X94130701Y-54859740D01*
X94114609Y-54867090D01*
X93930763Y-54935662D01*
X93913787Y-54940646D01*
X93722068Y-54982351D01*
X93704557Y-54984869D01*
X93523779Y-54997799D01*
X93504417Y-54999184D01*
X93495572Y-54999500D01*
X39004428Y-54999500D01*
X38995582Y-54999184D01*
X38973622Y-54997613D01*
X38795442Y-54984869D01*
X38777931Y-54982351D01*
X38586212Y-54940646D01*
X38569236Y-54935662D01*
X38385390Y-54867090D01*
X38369298Y-54859740D01*
X38197095Y-54765711D01*
X38182210Y-54756146D01*
X38025132Y-54638558D01*
X38011762Y-54626972D01*
X37873027Y-54488237D01*
X37861441Y-54474867D01*
X37743849Y-54317784D01*
X37734288Y-54302904D01*
X37640259Y-54130701D01*
X37632909Y-54114609D01*
X37572091Y-53951551D01*
X37564334Y-53930755D01*
X37559355Y-53913797D01*
X37517647Y-53722063D01*
X37515130Y-53704556D01*
X37500816Y-53504418D01*
X37500500Y-53495572D01*
X37500500Y-52598543D01*
X79899499Y-52598543D01*
X79937947Y-52791829D01*
X79937950Y-52791839D01*
X80013364Y-52973907D01*
X80013371Y-52973920D01*
X80122860Y-53137781D01*
X80122863Y-53137785D01*
X80262214Y-53277136D01*
X80262218Y-53277139D01*
X80426079Y-53386628D01*
X80426092Y-53386635D01*
X80540704Y-53434108D01*
X80608165Y-53462051D01*
X80608169Y-53462051D01*
X80608170Y-53462052D01*
X80801456Y-53500500D01*
X80801459Y-53500500D01*
X80998543Y-53500500D01*
X81128582Y-53474632D01*
X81191835Y-53462051D01*
X81373914Y-53386632D01*
X81537782Y-53277139D01*
X81677139Y-53137782D01*
X81786632Y-52973914D01*
X81862051Y-52791835D01*
X81900500Y-52598543D01*
X83499499Y-52598543D01*
X83537947Y-52791829D01*
X83537950Y-52791839D01*
X83613364Y-52973907D01*
X83613371Y-52973920D01*
X83722860Y-53137781D01*
X83722863Y-53137785D01*
X83862214Y-53277136D01*
X83862218Y-53277139D01*
X84026079Y-53386628D01*
X84026092Y-53386635D01*
X84140704Y-53434108D01*
X84208165Y-53462051D01*
X84208169Y-53462051D01*
X84208170Y-53462052D01*
X84401456Y-53500500D01*
X84401459Y-53500500D01*
X84598543Y-53500500D01*
X84728582Y-53474632D01*
X84791835Y-53462051D01*
X84973914Y-53386632D01*
X85137782Y-53277139D01*
X85277139Y-53137782D01*
X85386632Y-52973914D01*
X85462051Y-52791835D01*
X85500500Y-52598541D01*
X85500500Y-52401459D01*
X85500500Y-52401456D01*
X85462052Y-52208170D01*
X85462051Y-52208169D01*
X85462051Y-52208165D01*
X85462049Y-52208160D01*
X85386635Y-52026092D01*
X85386628Y-52026079D01*
X85277139Y-51862218D01*
X85277136Y-51862214D01*
X85137785Y-51722863D01*
X85137781Y-51722860D01*
X84973920Y-51613371D01*
X84973907Y-51613364D01*
X84791839Y-51537950D01*
X84791829Y-51537947D01*
X84598543Y-51499500D01*
X84598541Y-51499500D01*
X84401459Y-51499500D01*
X84401457Y-51499500D01*
X84208170Y-51537947D01*
X84208160Y-51537950D01*
X84026092Y-51613364D01*
X84026079Y-51613371D01*
X83862218Y-51722860D01*
X83862214Y-51722863D01*
X83722863Y-51862214D01*
X83722860Y-51862218D01*
X83613371Y-52026079D01*
X83613364Y-52026092D01*
X83537950Y-52208160D01*
X83537947Y-52208170D01*
X83499500Y-52401456D01*
X83499500Y-52401459D01*
X83499500Y-52598541D01*
X83499500Y-52598543D01*
X83499499Y-52598543D01*
X81900500Y-52598543D01*
X81900500Y-52598541D01*
X81900500Y-52401459D01*
X81900500Y-52401456D01*
X81862052Y-52208170D01*
X81862051Y-52208169D01*
X81862051Y-52208165D01*
X81862049Y-52208160D01*
X81786635Y-52026092D01*
X81786628Y-52026079D01*
X81677139Y-51862218D01*
X81677136Y-51862214D01*
X81537785Y-51722863D01*
X81537781Y-51722860D01*
X81373920Y-51613371D01*
X81373907Y-51613364D01*
X81191839Y-51537950D01*
X81191829Y-51537947D01*
X80998543Y-51499500D01*
X80998541Y-51499500D01*
X80801459Y-51499500D01*
X80801457Y-51499500D01*
X80608170Y-51537947D01*
X80608160Y-51537950D01*
X80426092Y-51613364D01*
X80426079Y-51613371D01*
X80262218Y-51722860D01*
X80262214Y-51722863D01*
X80122863Y-51862214D01*
X80122860Y-51862218D01*
X80013371Y-52026079D01*
X80013364Y-52026092D01*
X79937950Y-52208160D01*
X79937947Y-52208170D01*
X79899500Y-52401456D01*
X79899500Y-52401459D01*
X79899500Y-52598541D01*
X79899500Y-52598543D01*
X79899499Y-52598543D01*
X37500500Y-52598543D01*
X37500500Y-50179474D01*
X39774076Y-50179474D01*
X39818650Y-50211859D01*
X40000968Y-50304755D01*
X40195582Y-50367990D01*
X40397683Y-50400000D01*
X40602317Y-50400000D01*
X40804417Y-50367990D01*
X40999031Y-50304755D01*
X41181349Y-50211859D01*
X41225921Y-50179474D01*
X40500000Y-49453553D01*
X39774076Y-50179474D01*
X37500500Y-50179474D01*
X37500500Y-48997682D01*
X39200000Y-48997682D01*
X39200000Y-49202317D01*
X39232009Y-49404417D01*
X39295244Y-49599031D01*
X39388141Y-49781350D01*
X39388147Y-49781359D01*
X39420523Y-49825921D01*
X39420524Y-49825922D01*
X40146446Y-49100001D01*
X40146446Y-49099999D01*
X40106951Y-49060504D01*
X40200000Y-49060504D01*
X40200000Y-49139496D01*
X40220444Y-49215796D01*
X40259940Y-49284205D01*
X40315795Y-49340060D01*
X40384204Y-49379556D01*
X40460504Y-49400000D01*
X40539496Y-49400000D01*
X40615796Y-49379556D01*
X40684205Y-49340060D01*
X40740060Y-49284205D01*
X40779556Y-49215796D01*
X40800000Y-49139496D01*
X40800000Y-49099999D01*
X40853553Y-49099999D01*
X40853553Y-49100001D01*
X41579474Y-49825922D01*
X41579474Y-49825921D01*
X41611859Y-49781349D01*
X41704755Y-49599031D01*
X41767990Y-49404417D01*
X41800000Y-49202317D01*
X41800000Y-49198543D01*
X45499499Y-49198543D01*
X45537947Y-49391829D01*
X45537950Y-49391839D01*
X45613364Y-49573907D01*
X45613371Y-49573920D01*
X45722860Y-49737781D01*
X45722863Y-49737785D01*
X45862214Y-49877136D01*
X45862218Y-49877139D01*
X46026079Y-49986628D01*
X46026092Y-49986635D01*
X46208160Y-50062049D01*
X46208165Y-50062051D01*
X46208169Y-50062051D01*
X46208170Y-50062052D01*
X46401456Y-50100500D01*
X46401459Y-50100500D01*
X46598543Y-50100500D01*
X46728582Y-50074632D01*
X46791835Y-50062051D01*
X46973914Y-49986632D01*
X47137782Y-49877139D01*
X47277139Y-49737782D01*
X47386632Y-49573914D01*
X47462051Y-49391835D01*
X47500500Y-49198541D01*
X47500500Y-49001459D01*
X47500500Y-49001456D01*
X47462052Y-48808170D01*
X47462051Y-48808169D01*
X47462051Y-48808165D01*
X47456839Y-48795582D01*
X47386635Y-48626092D01*
X47386628Y-48626079D01*
X47277139Y-48462218D01*
X47277136Y-48462214D01*
X47137785Y-48322863D01*
X47137781Y-48322860D01*
X46973920Y-48213371D01*
X46973907Y-48213364D01*
X46791839Y-48137950D01*
X46791829Y-48137947D01*
X46598543Y-48099500D01*
X46598541Y-48099500D01*
X46401459Y-48099500D01*
X46401457Y-48099500D01*
X46208170Y-48137947D01*
X46208160Y-48137950D01*
X46026092Y-48213364D01*
X46026079Y-48213371D01*
X45862218Y-48322860D01*
X45862214Y-48322863D01*
X45722863Y-48462214D01*
X45722860Y-48462218D01*
X45613371Y-48626079D01*
X45613364Y-48626092D01*
X45537950Y-48808160D01*
X45537947Y-48808170D01*
X45499500Y-49001456D01*
X45499500Y-49001459D01*
X45499500Y-49198541D01*
X45499500Y-49198543D01*
X45499499Y-49198543D01*
X41800000Y-49198543D01*
X41800000Y-48997682D01*
X41767990Y-48795582D01*
X41704755Y-48600968D01*
X41611859Y-48418650D01*
X41579474Y-48374077D01*
X41579474Y-48374076D01*
X40853553Y-49099999D01*
X40800000Y-49099999D01*
X40800000Y-49060504D01*
X40779556Y-48984204D01*
X40740060Y-48915795D01*
X40684205Y-48859940D01*
X40615796Y-48820444D01*
X40539496Y-48800000D01*
X40460504Y-48800000D01*
X40384204Y-48820444D01*
X40315795Y-48859940D01*
X40259940Y-48915795D01*
X40220444Y-48984204D01*
X40200000Y-49060504D01*
X40106951Y-49060504D01*
X39420524Y-48374077D01*
X39420523Y-48374077D01*
X39388143Y-48418644D01*
X39295244Y-48600968D01*
X39232009Y-48795582D01*
X39200000Y-48997682D01*
X37500500Y-48997682D01*
X37500500Y-48020523D01*
X39774077Y-48020523D01*
X39774077Y-48020524D01*
X40500000Y-48746446D01*
X41225922Y-48020524D01*
X41225921Y-48020523D01*
X41181359Y-47988147D01*
X41181350Y-47988141D01*
X40999031Y-47895244D01*
X40804417Y-47832009D01*
X40602317Y-47800000D01*
X40397683Y-47800000D01*
X40195582Y-47832009D01*
X40000968Y-47895244D01*
X39818644Y-47988143D01*
X39774077Y-48020523D01*
X37500500Y-48020523D01*
X37500500Y-47579474D01*
X83774076Y-47579474D01*
X83818650Y-47611859D01*
X84000968Y-47704755D01*
X84195582Y-47767990D01*
X84397683Y-47800000D01*
X84602317Y-47800000D01*
X84804417Y-47767990D01*
X84999031Y-47704755D01*
X85181349Y-47611859D01*
X85225921Y-47579474D01*
X84500000Y-46853553D01*
X83774076Y-47579474D01*
X37500500Y-47579474D01*
X37500500Y-44902135D01*
X39449500Y-44902135D01*
X39449500Y-46097870D01*
X39449501Y-46097876D01*
X39455908Y-46157483D01*
X39506202Y-46292328D01*
X39506206Y-46292335D01*
X39592452Y-46407544D01*
X39592455Y-46407547D01*
X39707664Y-46493793D01*
X39707671Y-46493797D01*
X39842517Y-46544091D01*
X39842516Y-46544091D01*
X39849444Y-46544835D01*
X39902127Y-46550500D01*
X41097872Y-46550499D01*
X41157483Y-46544091D01*
X41292331Y-46493796D01*
X41407546Y-46407546D01*
X41493796Y-46292331D01*
X41544091Y-46157483D01*
X41550500Y-46097873D01*
X41550500Y-45598543D01*
X45499499Y-45598543D01*
X45537947Y-45791829D01*
X45537950Y-45791839D01*
X45613364Y-45973907D01*
X45613371Y-45973920D01*
X45722860Y-46137781D01*
X45722863Y-46137785D01*
X45862214Y-46277136D01*
X45862218Y-46277139D01*
X46026079Y-46386628D01*
X46026092Y-46386635D01*
X46204430Y-46460504D01*
X46208165Y-46462051D01*
X46208169Y-46462051D01*
X46208170Y-46462052D01*
X46401456Y-46500500D01*
X46401459Y-46500500D01*
X46598543Y-46500500D01*
X46728582Y-46474632D01*
X46791835Y-46462051D01*
X46973914Y-46386632D01*
X47137782Y-46277139D01*
X47277139Y-46137782D01*
X47386632Y-45973914D01*
X47416364Y-45902135D01*
X79849500Y-45902135D01*
X79849500Y-47097870D01*
X79849501Y-47097876D01*
X79855908Y-47157483D01*
X79906202Y-47292328D01*
X79906206Y-47292335D01*
X79992452Y-47407544D01*
X79992455Y-47407547D01*
X80107664Y-47493793D01*
X80107671Y-47493797D01*
X80242517Y-47544091D01*
X80242516Y-47544091D01*
X80249444Y-47544835D01*
X80302127Y-47550500D01*
X81497872Y-47550499D01*
X81557483Y-47544091D01*
X81692331Y-47493796D01*
X81807546Y-47407546D01*
X81893796Y-47292331D01*
X81944091Y-47157483D01*
X81950500Y-47097873D01*
X81950499Y-46397682D01*
X83200000Y-46397682D01*
X83200000Y-46602317D01*
X83232009Y-46804417D01*
X83295244Y-46999031D01*
X83388141Y-47181350D01*
X83388147Y-47181359D01*
X83420523Y-47225921D01*
X83420524Y-47225922D01*
X84146446Y-46500001D01*
X84146446Y-46499999D01*
X84106951Y-46460504D01*
X84200000Y-46460504D01*
X84200000Y-46539496D01*
X84220444Y-46615796D01*
X84259940Y-46684205D01*
X84315795Y-46740060D01*
X84384204Y-46779556D01*
X84460504Y-46800000D01*
X84539496Y-46800000D01*
X84615796Y-46779556D01*
X84684205Y-46740060D01*
X84740060Y-46684205D01*
X84779556Y-46615796D01*
X84800000Y-46539496D01*
X84800000Y-46499999D01*
X84853553Y-46499999D01*
X84853553Y-46500000D01*
X85579474Y-47225921D01*
X85611859Y-47181349D01*
X85704755Y-46999031D01*
X85767990Y-46804417D01*
X85800000Y-46602317D01*
X85800000Y-46397682D01*
X85767990Y-46195582D01*
X85704755Y-46000968D01*
X85611859Y-45818650D01*
X85579474Y-45774077D01*
X85579474Y-45774076D01*
X84853553Y-46499999D01*
X84800000Y-46499999D01*
X84800000Y-46460504D01*
X84779556Y-46384204D01*
X84740060Y-46315795D01*
X84684205Y-46259940D01*
X84615796Y-46220444D01*
X84539496Y-46200000D01*
X84460504Y-46200000D01*
X84384204Y-46220444D01*
X84315795Y-46259940D01*
X84259940Y-46315795D01*
X84220444Y-46384204D01*
X84200000Y-46460504D01*
X84106951Y-46460504D01*
X83420524Y-45774077D01*
X83420523Y-45774077D01*
X83388143Y-45818644D01*
X83295244Y-46000968D01*
X83232009Y-46195582D01*
X83200000Y-46397682D01*
X81950499Y-46397682D01*
X81950499Y-45902128D01*
X81944091Y-45842517D01*
X81935189Y-45818650D01*
X81893797Y-45707671D01*
X81893793Y-45707664D01*
X81807547Y-45592455D01*
X81807544Y-45592452D01*
X81773610Y-45567049D01*
X81692335Y-45506206D01*
X81692328Y-45506202D01*
X81557482Y-45455908D01*
X81557483Y-45455908D01*
X81497883Y-45449501D01*
X81497881Y-45449500D01*
X81497873Y-45449500D01*
X81497864Y-45449500D01*
X80302129Y-45449500D01*
X80302123Y-45449501D01*
X80242516Y-45455908D01*
X80107671Y-45506202D01*
X80107664Y-45506206D01*
X79992455Y-45592452D01*
X79992452Y-45592455D01*
X79906206Y-45707664D01*
X79906202Y-45707671D01*
X79855908Y-45842517D01*
X79849501Y-45902116D01*
X79849501Y-45902123D01*
X79849500Y-45902135D01*
X47416364Y-45902135D01*
X47416369Y-45902123D01*
X47437398Y-45851354D01*
X47462049Y-45791839D01*
X47462051Y-45791835D01*
X47474632Y-45728582D01*
X47500500Y-45598543D01*
X47500500Y-45420523D01*
X83774077Y-45420523D01*
X83774077Y-45420524D01*
X84500000Y-46146446D01*
X85225922Y-45420524D01*
X85225921Y-45420523D01*
X85181359Y-45388147D01*
X85181350Y-45388141D01*
X84999031Y-45295244D01*
X84804417Y-45232009D01*
X84602317Y-45200000D01*
X84397683Y-45200000D01*
X84195582Y-45232009D01*
X84000968Y-45295244D01*
X83818644Y-45388143D01*
X83774077Y-45420523D01*
X47500500Y-45420523D01*
X47500500Y-45401456D01*
X47462052Y-45208170D01*
X47462051Y-45208169D01*
X47462051Y-45208165D01*
X47458669Y-45200000D01*
X47386635Y-45026092D01*
X47386628Y-45026079D01*
X47277139Y-44862218D01*
X47277136Y-44862214D01*
X47137785Y-44722863D01*
X47137781Y-44722860D01*
X46973920Y-44613371D01*
X46973907Y-44613364D01*
X46791839Y-44537950D01*
X46791829Y-44537947D01*
X46598543Y-44499500D01*
X46598541Y-44499500D01*
X46401459Y-44499500D01*
X46401457Y-44499500D01*
X46208170Y-44537947D01*
X46208160Y-44537950D01*
X46026092Y-44613364D01*
X46026079Y-44613371D01*
X45862218Y-44722860D01*
X45862214Y-44722863D01*
X45722863Y-44862214D01*
X45722860Y-44862218D01*
X45613371Y-45026079D01*
X45613364Y-45026092D01*
X45537950Y-45208160D01*
X45537947Y-45208170D01*
X45499500Y-45401456D01*
X45499500Y-45401459D01*
X45499500Y-45598541D01*
X45499500Y-45598543D01*
X45499499Y-45598543D01*
X41550500Y-45598543D01*
X41550499Y-44902128D01*
X41544091Y-44842517D01*
X41499462Y-44722861D01*
X41493797Y-44707671D01*
X41493793Y-44707664D01*
X41407547Y-44592455D01*
X41407544Y-44592452D01*
X41292335Y-44506206D01*
X41292328Y-44506202D01*
X41157482Y-44455908D01*
X41157483Y-44455908D01*
X41097883Y-44449501D01*
X41097881Y-44449500D01*
X41097873Y-44449500D01*
X41097864Y-44449500D01*
X39902129Y-44449500D01*
X39902123Y-44449501D01*
X39842516Y-44455908D01*
X39707671Y-44506202D01*
X39707664Y-44506206D01*
X39592455Y-44592452D01*
X39592452Y-44592455D01*
X39506206Y-44707664D01*
X39506202Y-44707671D01*
X39455908Y-44842517D01*
X39449501Y-44902116D01*
X39449501Y-44902123D01*
X39449500Y-44902135D01*
X37500500Y-44902135D01*
X37500500Y-40137525D01*
X57249500Y-40137525D01*
X57249500Y-40282475D01*
X57287016Y-40422485D01*
X57287017Y-40422488D01*
X57359488Y-40548011D01*
X57359490Y-40548013D01*
X57359491Y-40548015D01*
X57461985Y-40650509D01*
X57461986Y-40650510D01*
X57461988Y-40650511D01*
X57587511Y-40722982D01*
X57587512Y-40722982D01*
X57587515Y-40722984D01*
X57727525Y-40760500D01*
X57732745Y-40760500D01*
X57799784Y-40780185D01*
X57820426Y-40796819D01*
X61054519Y-44030912D01*
X61054520Y-44030913D01*
X61129087Y-44105480D01*
X61220413Y-44158207D01*
X61322273Y-44185500D01*
X61427726Y-44185500D01*
X62370614Y-44185500D01*
X62437653Y-44205185D01*
X62458295Y-44221819D01*
X62461985Y-44225509D01*
X62461986Y-44225510D01*
X62461988Y-44225511D01*
X62587511Y-44297982D01*
X62587512Y-44297982D01*
X62587515Y-44297984D01*
X62727525Y-44335500D01*
X62727528Y-44335500D01*
X62872472Y-44335500D01*
X62872475Y-44335500D01*
X63012485Y-44297984D01*
X63138015Y-44225509D01*
X63240509Y-44123015D01*
X63312984Y-43997485D01*
X63350500Y-43857475D01*
X63350500Y-43712525D01*
X63312984Y-43572515D01*
X63240509Y-43446985D01*
X63138015Y-43344491D01*
X63138013Y-43344490D01*
X63138011Y-43344488D01*
X63012488Y-43272017D01*
X63012489Y-43272017D01*
X63001006Y-43268940D01*
X62872475Y-43234500D01*
X62727525Y-43234500D01*
X62598993Y-43268940D01*
X62587511Y-43272017D01*
X62461988Y-43344488D01*
X62461982Y-43344493D01*
X62458295Y-43348181D01*
X62396972Y-43381666D01*
X62370614Y-43384500D01*
X61592255Y-43384500D01*
X61525216Y-43364815D01*
X61504574Y-43348181D01*
X58386819Y-40230426D01*
X58353334Y-40169103D01*
X58350500Y-40142745D01*
X58350500Y-40137527D01*
X58350500Y-40137525D01*
X58312984Y-39997515D01*
X58240509Y-39871985D01*
X58138015Y-39769491D01*
X58138013Y-39769490D01*
X58138011Y-39769488D01*
X58012488Y-39697017D01*
X58012489Y-39697017D01*
X58001006Y-39693940D01*
X57872475Y-39659500D01*
X57727525Y-39659500D01*
X57598993Y-39693940D01*
X57587511Y-39697017D01*
X57461988Y-39769488D01*
X57461982Y-39769493D01*
X57359493Y-39871982D01*
X57359488Y-39871988D01*
X57287017Y-39997511D01*
X57287016Y-39997515D01*
X57249500Y-40137525D01*
X37500500Y-40137525D01*
X37500500Y-37598543D01*
X38999499Y-37598543D01*
X39037947Y-37791829D01*
X39037950Y-37791839D01*
X39113364Y-37973907D01*
X39113371Y-37973920D01*
X39222860Y-38137781D01*
X39222863Y-38137785D01*
X39362214Y-38277136D01*
X39362218Y-38277139D01*
X39526079Y-38386628D01*
X39526092Y-38386635D01*
X39633058Y-38430941D01*
X39708165Y-38462051D01*
X39708169Y-38462051D01*
X39708170Y-38462052D01*
X39901456Y-38500500D01*
X39901459Y-38500500D01*
X40098543Y-38500500D01*
X40228582Y-38474632D01*
X40291835Y-38462051D01*
X40473914Y-38386632D01*
X40637782Y-38277139D01*
X40777139Y-38137782D01*
X40886632Y-37973914D01*
X40962051Y-37791835D01*
X40999520Y-37603469D01*
X41000500Y-37598543D01*
X41000500Y-37401456D01*
X40999520Y-37396530D01*
X44949500Y-37396530D01*
X44949500Y-37603469D01*
X44989868Y-37806412D01*
X44989870Y-37806420D01*
X45069058Y-37997596D01*
X45184024Y-38169657D01*
X45330342Y-38315975D01*
X45330345Y-38315977D01*
X45502402Y-38430941D01*
X45693580Y-38510130D01*
X45896530Y-38550499D01*
X45896534Y-38550500D01*
X45896535Y-38550500D01*
X46103466Y-38550500D01*
X46103467Y-38550499D01*
X46306420Y-38510130D01*
X46497598Y-38430941D01*
X46502710Y-38427525D01*
X86449500Y-38427525D01*
X86449500Y-38572475D01*
X86487016Y-38712485D01*
X86487017Y-38712488D01*
X86559488Y-38838011D01*
X86559493Y-38838017D01*
X86613181Y-38891705D01*
X86646666Y-38953028D01*
X86649500Y-38979386D01*
X86649500Y-42546144D01*
X86656556Y-42572475D01*
X86673386Y-42635287D01*
X86673387Y-42635290D01*
X86719527Y-42715208D01*
X86719531Y-42715213D01*
X88113181Y-44108862D01*
X88146666Y-44170185D01*
X88149500Y-44196543D01*
X88149500Y-50970614D01*
X88129815Y-51037653D01*
X88113181Y-51058295D01*
X88059493Y-51111982D01*
X88059488Y-51111988D01*
X87987017Y-51237511D01*
X87987016Y-51237515D01*
X87949500Y-51377525D01*
X87949500Y-51522475D01*
X87953647Y-51537950D01*
X87987017Y-51662488D01*
X88059488Y-51788011D01*
X88059490Y-51788013D01*
X88059491Y-51788015D01*
X88161985Y-51890509D01*
X88161986Y-51890510D01*
X88161988Y-51890511D01*
X88287511Y-51962982D01*
X88287512Y-51962982D01*
X88287515Y-51962984D01*
X88427525Y-52000500D01*
X88427528Y-52000500D01*
X88572472Y-52000500D01*
X88572475Y-52000500D01*
X88712485Y-51962984D01*
X88838015Y-51890509D01*
X88940509Y-51788015D01*
X89012984Y-51662485D01*
X89050500Y-51522475D01*
X89050500Y-51377525D01*
X89012984Y-51237515D01*
X88940509Y-51111985D01*
X88886819Y-51058295D01*
X88853334Y-50996972D01*
X88850500Y-50970614D01*
X88850500Y-43953858D01*
X88850500Y-43953856D01*
X88826614Y-43864712D01*
X88822434Y-43857472D01*
X88780473Y-43784794D01*
X88780470Y-43784791D01*
X88780469Y-43784788D01*
X88715212Y-43719531D01*
X88233828Y-43238147D01*
X88200344Y-43176825D01*
X88205328Y-43107133D01*
X88247200Y-43051200D01*
X88312664Y-43026783D01*
X88353599Y-43030691D01*
X88427525Y-43050500D01*
X88427528Y-43050500D01*
X88572472Y-43050500D01*
X88572475Y-43050500D01*
X88712485Y-43012984D01*
X88838015Y-42940509D01*
X88940509Y-42838015D01*
X89012984Y-42712485D01*
X89050500Y-42572475D01*
X89050500Y-42427525D01*
X89012984Y-42287515D01*
X88940509Y-42161985D01*
X88838015Y-42059491D01*
X88712485Y-41987016D01*
X88712482Y-41987015D01*
X88705121Y-41983965D01*
X88698193Y-41979335D01*
X88693157Y-41978240D01*
X88664903Y-41957089D01*
X88536819Y-41829005D01*
X88503334Y-41767682D01*
X88500500Y-41741324D01*
X88500500Y-38767288D01*
X88509941Y-38719831D01*
X88512982Y-38712488D01*
X88512981Y-38712488D01*
X88512984Y-38712485D01*
X88550500Y-38572475D01*
X88550500Y-38427525D01*
X88512984Y-38287515D01*
X88506993Y-38277139D01*
X88440511Y-38161988D01*
X88440506Y-38161982D01*
X88338017Y-38059493D01*
X88338011Y-38059488D01*
X88212488Y-37987017D01*
X88212489Y-37987017D01*
X88201006Y-37983940D01*
X88072475Y-37949500D01*
X87927525Y-37949500D01*
X87798993Y-37983940D01*
X87787511Y-37987017D01*
X87661988Y-38059488D01*
X87661982Y-38059493D01*
X87587681Y-38133795D01*
X87526358Y-38167280D01*
X87456666Y-38162296D01*
X87412319Y-38133795D01*
X87338017Y-38059493D01*
X87338011Y-38059488D01*
X87212488Y-37987017D01*
X87212489Y-37987017D01*
X87201006Y-37983940D01*
X87072475Y-37949500D01*
X86927525Y-37949500D01*
X86798993Y-37983940D01*
X86787511Y-37987017D01*
X86661988Y-38059488D01*
X86661982Y-38059493D01*
X86559493Y-38161982D01*
X86559488Y-38161988D01*
X86487017Y-38287511D01*
X86487016Y-38287515D01*
X86449500Y-38427525D01*
X46502710Y-38427525D01*
X46669655Y-38315977D01*
X46815977Y-38169655D01*
X46930941Y-37997598D01*
X47010130Y-37806420D01*
X47050500Y-37603465D01*
X47050500Y-37396535D01*
X47010130Y-37193580D01*
X46930941Y-37002402D01*
X46815977Y-36830345D01*
X46815975Y-36830342D01*
X46669657Y-36684024D01*
X46563916Y-36613371D01*
X46497598Y-36569059D01*
X46422492Y-36537949D01*
X46306420Y-36489870D01*
X46306412Y-36489868D01*
X46103469Y-36449500D01*
X46103465Y-36449500D01*
X45896535Y-36449500D01*
X45896530Y-36449500D01*
X45693587Y-36489868D01*
X45693579Y-36489870D01*
X45502403Y-36569058D01*
X45330342Y-36684024D01*
X45184024Y-36830342D01*
X45069058Y-37002403D01*
X44989870Y-37193579D01*
X44989868Y-37193587D01*
X44949500Y-37396530D01*
X40999520Y-37396530D01*
X40962052Y-37208170D01*
X40962051Y-37208169D01*
X40962051Y-37208165D01*
X40956009Y-37193579D01*
X40886635Y-37026092D01*
X40886628Y-37026079D01*
X40777139Y-36862218D01*
X40777136Y-36862214D01*
X40637785Y-36722863D01*
X40637781Y-36722860D01*
X40473920Y-36613371D01*
X40473907Y-36613364D01*
X40291839Y-36537950D01*
X40291829Y-36537947D01*
X40098543Y-36499500D01*
X40098541Y-36499500D01*
X39901459Y-36499500D01*
X39901457Y-36499500D01*
X39708170Y-36537947D01*
X39708160Y-36537950D01*
X39526092Y-36613364D01*
X39526079Y-36613371D01*
X39362218Y-36722860D01*
X39362214Y-36722863D01*
X39222863Y-36862214D01*
X39222860Y-36862218D01*
X39113371Y-37026079D01*
X39113364Y-37026092D01*
X39037950Y-37208160D01*
X39037947Y-37208170D01*
X38999500Y-37401456D01*
X38999500Y-37401459D01*
X38999500Y-37598541D01*
X38999500Y-37598543D01*
X38999499Y-37598543D01*
X37500500Y-37598543D01*
X37500500Y-33098543D01*
X38999499Y-33098543D01*
X39037947Y-33291829D01*
X39037950Y-33291839D01*
X39113364Y-33473907D01*
X39113371Y-33473920D01*
X39222860Y-33637781D01*
X39222863Y-33637785D01*
X39362214Y-33777136D01*
X39362218Y-33777139D01*
X39526079Y-33886628D01*
X39526092Y-33886635D01*
X39708160Y-33962049D01*
X39708165Y-33962051D01*
X39708169Y-33962051D01*
X39708170Y-33962052D01*
X39901456Y-34000500D01*
X39901459Y-34000500D01*
X40098543Y-34000500D01*
X40228582Y-33974632D01*
X40291835Y-33962051D01*
X40473914Y-33886632D01*
X40637782Y-33777139D01*
X40777139Y-33637782D01*
X40886632Y-33473914D01*
X40962051Y-33291835D01*
X40975747Y-33222982D01*
X41000500Y-33098543D01*
X41000500Y-32901456D01*
X40962052Y-32708170D01*
X40962051Y-32708169D01*
X40962051Y-32708165D01*
X40932791Y-32637525D01*
X40886635Y-32526092D01*
X40886628Y-32526079D01*
X40847618Y-32467697D01*
X40803811Y-32402135D01*
X44949500Y-32402135D01*
X44949500Y-33597870D01*
X44949501Y-33597876D01*
X44955908Y-33657483D01*
X45006202Y-33792328D01*
X45006206Y-33792335D01*
X45092452Y-33907544D01*
X45092455Y-33907547D01*
X45207664Y-33993793D01*
X45207671Y-33993797D01*
X45342517Y-34044091D01*
X45342516Y-34044091D01*
X45349444Y-34044835D01*
X45402127Y-34050500D01*
X46597872Y-34050499D01*
X46657483Y-34044091D01*
X46792331Y-33993796D01*
X46907546Y-33907546D01*
X46993796Y-33792331D01*
X47044091Y-33657483D01*
X47050500Y-33597873D01*
X47050499Y-32637525D01*
X58249500Y-32637525D01*
X58249500Y-32782475D01*
X58281382Y-32901459D01*
X58287017Y-32922488D01*
X58359488Y-33048011D01*
X58359490Y-33048013D01*
X58359491Y-33048015D01*
X58461985Y-33150509D01*
X58461986Y-33150510D01*
X58461988Y-33150511D01*
X58587511Y-33222982D01*
X58587512Y-33222982D01*
X58587515Y-33222984D01*
X58727525Y-33260500D01*
X58727528Y-33260500D01*
X58872472Y-33260500D01*
X58872475Y-33260500D01*
X59012485Y-33222984D01*
X59138015Y-33150509D01*
X59240509Y-33048015D01*
X59312984Y-32922485D01*
X59350500Y-32782475D01*
X59350500Y-32637525D01*
X59312984Y-32497515D01*
X59257909Y-32402123D01*
X59240511Y-32371988D01*
X59240506Y-32371982D01*
X59186819Y-32318295D01*
X59153334Y-32256972D01*
X59150500Y-32230614D01*
X59150500Y-27906544D01*
X59170185Y-27839505D01*
X59186819Y-27818863D01*
X59418863Y-27586819D01*
X59480186Y-27553334D01*
X59506544Y-27550500D01*
X59572472Y-27550500D01*
X59572475Y-27550500D01*
X59712485Y-27512984D01*
X59838015Y-27440509D01*
X59940509Y-27338015D01*
X60012984Y-27212485D01*
X60050500Y-27072475D01*
X60050500Y-26927525D01*
X60012984Y-26787515D01*
X59940509Y-26661985D01*
X59838015Y-26559491D01*
X59838013Y-26559490D01*
X59838011Y-26559488D01*
X59712488Y-26487017D01*
X59712489Y-26487017D01*
X59701006Y-26483940D01*
X59572475Y-26449500D01*
X59427525Y-26449500D01*
X59298993Y-26483940D01*
X59287511Y-26487017D01*
X59161988Y-26559488D01*
X59161982Y-26559493D01*
X59059493Y-26661982D01*
X59059488Y-26661988D01*
X58987017Y-26787511D01*
X58987016Y-26787515D01*
X58949500Y-26927525D01*
X58949500Y-26927527D01*
X58949500Y-27013455D01*
X58929815Y-27080494D01*
X58913181Y-27101136D01*
X58519533Y-27494783D01*
X58519532Y-27494784D01*
X58519530Y-27494788D01*
X58509025Y-27512984D01*
X58491205Y-27543848D01*
X58473386Y-27574711D01*
X58449500Y-27663856D01*
X58449500Y-32230614D01*
X58429815Y-32297653D01*
X58413181Y-32318295D01*
X58359493Y-32371982D01*
X58359488Y-32371988D01*
X58287017Y-32497511D01*
X58287016Y-32497515D01*
X58249500Y-32637525D01*
X47050499Y-32637525D01*
X47050499Y-32402128D01*
X47044091Y-32342517D01*
X46999462Y-32222861D01*
X46993797Y-32207671D01*
X46993793Y-32207664D01*
X46907547Y-32092455D01*
X46907544Y-32092452D01*
X46792335Y-32006206D01*
X46792328Y-32006202D01*
X46657482Y-31955908D01*
X46657483Y-31955908D01*
X46597883Y-31949501D01*
X46597881Y-31949500D01*
X46597873Y-31949500D01*
X46597864Y-31949500D01*
X45402129Y-31949500D01*
X45402123Y-31949501D01*
X45342516Y-31955908D01*
X45207671Y-32006202D01*
X45207664Y-32006206D01*
X45092455Y-32092452D01*
X45092452Y-32092455D01*
X45006206Y-32207664D01*
X45006202Y-32207671D01*
X44955908Y-32342517D01*
X44952740Y-32371988D01*
X44949501Y-32402123D01*
X44949500Y-32402135D01*
X40803811Y-32402135D01*
X40777139Y-32362217D01*
X40637785Y-32222863D01*
X40637781Y-32222860D01*
X40473920Y-32113371D01*
X40473907Y-32113364D01*
X40291839Y-32037950D01*
X40291829Y-32037947D01*
X40098543Y-31999500D01*
X40098541Y-31999500D01*
X39901459Y-31999500D01*
X39901457Y-31999500D01*
X39708170Y-32037947D01*
X39708160Y-32037950D01*
X39526092Y-32113364D01*
X39526079Y-32113371D01*
X39362218Y-32222860D01*
X39362214Y-32222863D01*
X39222863Y-32362214D01*
X39222860Y-32362218D01*
X39113371Y-32526079D01*
X39113364Y-32526092D01*
X39037950Y-32708160D01*
X39037947Y-32708170D01*
X38999500Y-32901456D01*
X38999500Y-32901459D01*
X38999500Y-33098541D01*
X38999500Y-33098543D01*
X38999499Y-33098543D01*
X37500500Y-33098543D01*
X37500500Y-16004427D01*
X37500816Y-15995581D01*
X37515130Y-15795443D01*
X37515131Y-15795434D01*
X37517646Y-15777938D01*
X37559356Y-15586199D01*
X37564333Y-15569248D01*
X37632911Y-15385385D01*
X37640259Y-15369298D01*
X37702815Y-15254734D01*
X37734291Y-15197089D01*
X37743845Y-15182221D01*
X37861448Y-15025123D01*
X37873020Y-15011769D01*
X38011769Y-14873020D01*
X38025123Y-14861448D01*
X38182221Y-14743845D01*
X38197089Y-14734291D01*
X38369298Y-14640258D01*
X38385385Y-14632911D01*
X38569248Y-14564333D01*
X38586199Y-14559356D01*
X38777938Y-14517646D01*
X38795436Y-14515130D01*
X38995582Y-14500816D01*
X39004428Y-14500500D01*
X39065892Y-14500500D01*
X72626000Y-14500500D01*
X72693039Y-14520185D01*
G37*
%TD.AperFunction*%
%TD*%
M02*
