%TF.GenerationSoftware,KiCad,Pcbnew,9.0.3*%
%TF.CreationDate,2025-09-14T12:06:08+10:00*%
%TF.ProjectId,WashingLineMonitor-P0001,57617368-696e-4674-9c69-6e654d6f6e69,AB*%
%TF.SameCoordinates,Original*%
%TF.FileFunction,Drillmap*%
%TF.FilePolarity,Positive*%
%FSLAX45Y45*%
G04 Gerber Fmt 4.5, Leading zero omitted, Abs format (unit mm)*
G04 Created by KiCad (PCBNEW 9.0.3) date 2025-09-14 12:06:08*
%MOMM*%
%LPD*%
G01*
G04 APERTURE LIST*
%ADD10C,0.050000*%
%ADD11C,0.200000*%
%ADD12C,0.150000*%
G04 APERTURE END LIST*
D10*
X3700000Y-1600000D02*
G75*
G02*
X3900000Y-1400000I200000J0D01*
G01*
X3900000Y-5550000D02*
G75*
G02*
X3700000Y-5350000I0J200000D01*
G01*
X9350000Y-5550000D02*
X3900000Y-5550000D01*
X9550000Y-1600000D02*
X9550000Y-5350000D01*
X9550000Y-5350000D02*
G75*
G02*
X9350000Y-5550000I-200000J0D01*
G01*
X3900000Y-1400000D02*
X9350000Y-1400000D01*
X3700000Y-5350000D02*
X3700000Y-1600000D01*
X9350000Y-1400000D02*
G75*
G02*
X9550000Y-1600000I0J-200000D01*
G01*
D11*
D12*
X3925000Y-3225000D02*
X4075000Y-3375000D01*
X4075000Y-3225000D02*
X3925000Y-3375000D01*
X3925000Y-3675000D02*
X4075000Y-3825000D01*
X4075000Y-3675000D02*
X3925000Y-3825000D01*
X4575000Y-4475000D02*
X4725000Y-4625000D01*
X4725000Y-4475000D02*
X4575000Y-4625000D01*
X4575000Y-4835000D02*
X4725000Y-4985000D01*
X4725000Y-4835000D02*
X4575000Y-4985000D01*
X8015000Y-5175000D02*
X8165000Y-5325000D01*
X8165000Y-5175000D02*
X8015000Y-5325000D01*
X8375000Y-5175000D02*
X8525000Y-5325000D01*
X8525000Y-5175000D02*
X8375000Y-5325000D01*
D11*
X3958277Y-5863984D02*
X3958277Y-5663984D01*
X3958277Y-5663984D02*
X4005896Y-5663984D01*
X4005896Y-5663984D02*
X4034467Y-5673508D01*
X4034467Y-5673508D02*
X4053515Y-5692555D01*
X4053515Y-5692555D02*
X4063039Y-5711603D01*
X4063039Y-5711603D02*
X4072562Y-5749698D01*
X4072562Y-5749698D02*
X4072562Y-5778269D01*
X4072562Y-5778269D02*
X4063039Y-5816365D01*
X4063039Y-5816365D02*
X4053515Y-5835412D01*
X4053515Y-5835412D02*
X4034467Y-5854460D01*
X4034467Y-5854460D02*
X4005896Y-5863984D01*
X4005896Y-5863984D02*
X3958277Y-5863984D01*
X4158277Y-5863984D02*
X4158277Y-5730650D01*
X4158277Y-5768746D02*
X4167801Y-5749698D01*
X4167801Y-5749698D02*
X4177324Y-5740174D01*
X4177324Y-5740174D02*
X4196372Y-5730650D01*
X4196372Y-5730650D02*
X4215420Y-5730650D01*
X4282086Y-5863984D02*
X4282086Y-5730650D01*
X4282086Y-5663984D02*
X4272563Y-5673508D01*
X4272563Y-5673508D02*
X4282086Y-5683031D01*
X4282086Y-5683031D02*
X4291610Y-5673508D01*
X4291610Y-5673508D02*
X4282086Y-5663984D01*
X4282086Y-5663984D02*
X4282086Y-5683031D01*
X4405896Y-5863984D02*
X4386848Y-5854460D01*
X4386848Y-5854460D02*
X4377324Y-5835412D01*
X4377324Y-5835412D02*
X4377324Y-5663984D01*
X4510658Y-5863984D02*
X4491610Y-5854460D01*
X4491610Y-5854460D02*
X4482086Y-5835412D01*
X4482086Y-5835412D02*
X4482086Y-5663984D01*
X4739229Y-5863984D02*
X4739229Y-5663984D01*
X4739229Y-5663984D02*
X4805896Y-5806841D01*
X4805896Y-5806841D02*
X4872563Y-5663984D01*
X4872563Y-5663984D02*
X4872563Y-5863984D01*
X5053515Y-5863984D02*
X5053515Y-5759222D01*
X5053515Y-5759222D02*
X5043991Y-5740174D01*
X5043991Y-5740174D02*
X5024944Y-5730650D01*
X5024944Y-5730650D02*
X4986848Y-5730650D01*
X4986848Y-5730650D02*
X4967801Y-5740174D01*
X5053515Y-5854460D02*
X5034467Y-5863984D01*
X5034467Y-5863984D02*
X4986848Y-5863984D01*
X4986848Y-5863984D02*
X4967801Y-5854460D01*
X4967801Y-5854460D02*
X4958277Y-5835412D01*
X4958277Y-5835412D02*
X4958277Y-5816365D01*
X4958277Y-5816365D02*
X4967801Y-5797317D01*
X4967801Y-5797317D02*
X4986848Y-5787793D01*
X4986848Y-5787793D02*
X5034467Y-5787793D01*
X5034467Y-5787793D02*
X5053515Y-5778269D01*
X5148753Y-5730650D02*
X5148753Y-5930650D01*
X5148753Y-5740174D02*
X5167801Y-5730650D01*
X5167801Y-5730650D02*
X5205896Y-5730650D01*
X5205896Y-5730650D02*
X5224944Y-5740174D01*
X5224944Y-5740174D02*
X5234467Y-5749698D01*
X5234467Y-5749698D02*
X5243991Y-5768746D01*
X5243991Y-5768746D02*
X5243991Y-5825888D01*
X5243991Y-5825888D02*
X5234467Y-5844936D01*
X5234467Y-5844936D02*
X5224944Y-5854460D01*
X5224944Y-5854460D02*
X5205896Y-5863984D01*
X5205896Y-5863984D02*
X5167801Y-5863984D01*
X5167801Y-5863984D02*
X5148753Y-5854460D01*
X5329705Y-5844936D02*
X5339229Y-5854460D01*
X5339229Y-5854460D02*
X5329705Y-5863984D01*
X5329705Y-5863984D02*
X5320182Y-5854460D01*
X5320182Y-5854460D02*
X5329705Y-5844936D01*
X5329705Y-5844936D02*
X5329705Y-5863984D01*
X5329705Y-5740174D02*
X5339229Y-5749698D01*
X5339229Y-5749698D02*
X5329705Y-5759222D01*
X5329705Y-5759222D02*
X5320182Y-5749698D01*
X5320182Y-5749698D02*
X5329705Y-5740174D01*
X5329705Y-5740174D02*
X5329705Y-5759222D01*
D12*
X3547500Y-6117500D02*
X3697500Y-6267500D01*
X3697500Y-6117500D02*
X3547500Y-6267500D01*
D11*
X4063039Y-6283984D02*
X3948753Y-6283984D01*
X4005896Y-6283984D02*
X4005896Y-6083984D01*
X4005896Y-6083984D02*
X3986848Y-6112555D01*
X3986848Y-6112555D02*
X3967801Y-6131603D01*
X3967801Y-6131603D02*
X3948753Y-6141127D01*
X4148753Y-6264936D02*
X4158277Y-6274460D01*
X4158277Y-6274460D02*
X4148753Y-6283984D01*
X4148753Y-6283984D02*
X4139229Y-6274460D01*
X4139229Y-6274460D02*
X4148753Y-6264936D01*
X4148753Y-6264936D02*
X4148753Y-6283984D01*
X4339229Y-6083984D02*
X4243991Y-6083984D01*
X4243991Y-6083984D02*
X4234467Y-6179222D01*
X4234467Y-6179222D02*
X4243991Y-6169698D01*
X4243991Y-6169698D02*
X4263039Y-6160174D01*
X4263039Y-6160174D02*
X4310658Y-6160174D01*
X4310658Y-6160174D02*
X4329705Y-6169698D01*
X4329705Y-6169698D02*
X4339229Y-6179222D01*
X4339229Y-6179222D02*
X4348753Y-6198269D01*
X4348753Y-6198269D02*
X4348753Y-6245888D01*
X4348753Y-6245888D02*
X4339229Y-6264936D01*
X4339229Y-6264936D02*
X4329705Y-6274460D01*
X4329705Y-6274460D02*
X4310658Y-6283984D01*
X4310658Y-6283984D02*
X4263039Y-6283984D01*
X4263039Y-6283984D02*
X4243991Y-6274460D01*
X4243991Y-6274460D02*
X4234467Y-6264936D01*
X4472563Y-6083984D02*
X4491610Y-6083984D01*
X4491610Y-6083984D02*
X4510658Y-6093508D01*
X4510658Y-6093508D02*
X4520182Y-6103031D01*
X4520182Y-6103031D02*
X4529705Y-6122079D01*
X4529705Y-6122079D02*
X4539229Y-6160174D01*
X4539229Y-6160174D02*
X4539229Y-6207793D01*
X4539229Y-6207793D02*
X4529705Y-6245888D01*
X4529705Y-6245888D02*
X4520182Y-6264936D01*
X4520182Y-6264936D02*
X4510658Y-6274460D01*
X4510658Y-6274460D02*
X4491610Y-6283984D01*
X4491610Y-6283984D02*
X4472563Y-6283984D01*
X4472563Y-6283984D02*
X4453515Y-6274460D01*
X4453515Y-6274460D02*
X4443991Y-6264936D01*
X4443991Y-6264936D02*
X4434467Y-6245888D01*
X4434467Y-6245888D02*
X4424944Y-6207793D01*
X4424944Y-6207793D02*
X4424944Y-6160174D01*
X4424944Y-6160174D02*
X4434467Y-6122079D01*
X4434467Y-6122079D02*
X4443991Y-6103031D01*
X4443991Y-6103031D02*
X4453515Y-6093508D01*
X4453515Y-6093508D02*
X4472563Y-6083984D01*
X4663039Y-6083984D02*
X4682086Y-6083984D01*
X4682086Y-6083984D02*
X4701134Y-6093508D01*
X4701134Y-6093508D02*
X4710658Y-6103031D01*
X4710658Y-6103031D02*
X4720182Y-6122079D01*
X4720182Y-6122079D02*
X4729705Y-6160174D01*
X4729705Y-6160174D02*
X4729705Y-6207793D01*
X4729705Y-6207793D02*
X4720182Y-6245888D01*
X4720182Y-6245888D02*
X4710658Y-6264936D01*
X4710658Y-6264936D02*
X4701134Y-6274460D01*
X4701134Y-6274460D02*
X4682086Y-6283984D01*
X4682086Y-6283984D02*
X4663039Y-6283984D01*
X4663039Y-6283984D02*
X4643991Y-6274460D01*
X4643991Y-6274460D02*
X4634467Y-6264936D01*
X4634467Y-6264936D02*
X4624944Y-6245888D01*
X4624944Y-6245888D02*
X4615420Y-6207793D01*
X4615420Y-6207793D02*
X4615420Y-6160174D01*
X4615420Y-6160174D02*
X4624944Y-6122079D01*
X4624944Y-6122079D02*
X4634467Y-6103031D01*
X4634467Y-6103031D02*
X4643991Y-6093508D01*
X4643991Y-6093508D02*
X4663039Y-6083984D01*
X4815420Y-6283984D02*
X4815420Y-6150650D01*
X4815420Y-6169698D02*
X4824944Y-6160174D01*
X4824944Y-6160174D02*
X4843991Y-6150650D01*
X4843991Y-6150650D02*
X4872563Y-6150650D01*
X4872563Y-6150650D02*
X4891610Y-6160174D01*
X4891610Y-6160174D02*
X4901134Y-6179222D01*
X4901134Y-6179222D02*
X4901134Y-6283984D01*
X4901134Y-6179222D02*
X4910658Y-6160174D01*
X4910658Y-6160174D02*
X4929705Y-6150650D01*
X4929705Y-6150650D02*
X4958277Y-6150650D01*
X4958277Y-6150650D02*
X4977325Y-6160174D01*
X4977325Y-6160174D02*
X4986848Y-6179222D01*
X4986848Y-6179222D02*
X4986848Y-6283984D01*
X5082086Y-6283984D02*
X5082086Y-6150650D01*
X5082086Y-6169698D02*
X5091610Y-6160174D01*
X5091610Y-6160174D02*
X5110658Y-6150650D01*
X5110658Y-6150650D02*
X5139229Y-6150650D01*
X5139229Y-6150650D02*
X5158277Y-6160174D01*
X5158277Y-6160174D02*
X5167801Y-6179222D01*
X5167801Y-6179222D02*
X5167801Y-6283984D01*
X5167801Y-6179222D02*
X5177325Y-6160174D01*
X5177325Y-6160174D02*
X5196372Y-6150650D01*
X5196372Y-6150650D02*
X5224944Y-6150650D01*
X5224944Y-6150650D02*
X5243991Y-6160174D01*
X5243991Y-6160174D02*
X5253515Y-6179222D01*
X5253515Y-6179222D02*
X5253515Y-6283984D01*
X5643991Y-6074460D02*
X5472563Y-6331603D01*
X5901134Y-6083984D02*
X5920182Y-6083984D01*
X5920182Y-6083984D02*
X5939229Y-6093508D01*
X5939229Y-6093508D02*
X5948753Y-6103031D01*
X5948753Y-6103031D02*
X5958277Y-6122079D01*
X5958277Y-6122079D02*
X5967801Y-6160174D01*
X5967801Y-6160174D02*
X5967801Y-6207793D01*
X5967801Y-6207793D02*
X5958277Y-6245888D01*
X5958277Y-6245888D02*
X5948753Y-6264936D01*
X5948753Y-6264936D02*
X5939229Y-6274460D01*
X5939229Y-6274460D02*
X5920182Y-6283984D01*
X5920182Y-6283984D02*
X5901134Y-6283984D01*
X5901134Y-6283984D02*
X5882086Y-6274460D01*
X5882086Y-6274460D02*
X5872563Y-6264936D01*
X5872563Y-6264936D02*
X5863039Y-6245888D01*
X5863039Y-6245888D02*
X5853515Y-6207793D01*
X5853515Y-6207793D02*
X5853515Y-6160174D01*
X5853515Y-6160174D02*
X5863039Y-6122079D01*
X5863039Y-6122079D02*
X5872563Y-6103031D01*
X5872563Y-6103031D02*
X5882086Y-6093508D01*
X5882086Y-6093508D02*
X5901134Y-6083984D01*
X6053515Y-6264936D02*
X6063039Y-6274460D01*
X6063039Y-6274460D02*
X6053515Y-6283984D01*
X6053515Y-6283984D02*
X6043991Y-6274460D01*
X6043991Y-6274460D02*
X6053515Y-6264936D01*
X6053515Y-6264936D02*
X6053515Y-6283984D01*
X6186848Y-6083984D02*
X6205896Y-6083984D01*
X6205896Y-6083984D02*
X6224944Y-6093508D01*
X6224944Y-6093508D02*
X6234467Y-6103031D01*
X6234467Y-6103031D02*
X6243991Y-6122079D01*
X6243991Y-6122079D02*
X6253515Y-6160174D01*
X6253515Y-6160174D02*
X6253515Y-6207793D01*
X6253515Y-6207793D02*
X6243991Y-6245888D01*
X6243991Y-6245888D02*
X6234467Y-6264936D01*
X6234467Y-6264936D02*
X6224944Y-6274460D01*
X6224944Y-6274460D02*
X6205896Y-6283984D01*
X6205896Y-6283984D02*
X6186848Y-6283984D01*
X6186848Y-6283984D02*
X6167801Y-6274460D01*
X6167801Y-6274460D02*
X6158277Y-6264936D01*
X6158277Y-6264936D02*
X6148753Y-6245888D01*
X6148753Y-6245888D02*
X6139229Y-6207793D01*
X6139229Y-6207793D02*
X6139229Y-6160174D01*
X6139229Y-6160174D02*
X6148753Y-6122079D01*
X6148753Y-6122079D02*
X6158277Y-6103031D01*
X6158277Y-6103031D02*
X6167801Y-6093508D01*
X6167801Y-6093508D02*
X6186848Y-6083984D01*
X6434467Y-6083984D02*
X6339229Y-6083984D01*
X6339229Y-6083984D02*
X6329706Y-6179222D01*
X6329706Y-6179222D02*
X6339229Y-6169698D01*
X6339229Y-6169698D02*
X6358277Y-6160174D01*
X6358277Y-6160174D02*
X6405896Y-6160174D01*
X6405896Y-6160174D02*
X6424944Y-6169698D01*
X6424944Y-6169698D02*
X6434467Y-6179222D01*
X6434467Y-6179222D02*
X6443991Y-6198269D01*
X6443991Y-6198269D02*
X6443991Y-6245888D01*
X6443991Y-6245888D02*
X6434467Y-6264936D01*
X6434467Y-6264936D02*
X6424944Y-6274460D01*
X6424944Y-6274460D02*
X6405896Y-6283984D01*
X6405896Y-6283984D02*
X6358277Y-6283984D01*
X6358277Y-6283984D02*
X6339229Y-6274460D01*
X6339229Y-6274460D02*
X6329706Y-6264936D01*
X6539229Y-6283984D02*
X6577325Y-6283984D01*
X6577325Y-6283984D02*
X6596372Y-6274460D01*
X6596372Y-6274460D02*
X6605896Y-6264936D01*
X6605896Y-6264936D02*
X6624944Y-6236365D01*
X6624944Y-6236365D02*
X6634467Y-6198269D01*
X6634467Y-6198269D02*
X6634467Y-6122079D01*
X6634467Y-6122079D02*
X6624944Y-6103031D01*
X6624944Y-6103031D02*
X6615420Y-6093508D01*
X6615420Y-6093508D02*
X6596372Y-6083984D01*
X6596372Y-6083984D02*
X6558277Y-6083984D01*
X6558277Y-6083984D02*
X6539229Y-6093508D01*
X6539229Y-6093508D02*
X6529706Y-6103031D01*
X6529706Y-6103031D02*
X6520182Y-6122079D01*
X6520182Y-6122079D02*
X6520182Y-6169698D01*
X6520182Y-6169698D02*
X6529706Y-6188746D01*
X6529706Y-6188746D02*
X6539229Y-6198269D01*
X6539229Y-6198269D02*
X6558277Y-6207793D01*
X6558277Y-6207793D02*
X6596372Y-6207793D01*
X6596372Y-6207793D02*
X6615420Y-6198269D01*
X6615420Y-6198269D02*
X6624944Y-6188746D01*
X6624944Y-6188746D02*
X6634467Y-6169698D01*
X6824944Y-6283984D02*
X6710658Y-6283984D01*
X6767801Y-6283984D02*
X6767801Y-6083984D01*
X6767801Y-6083984D02*
X6748753Y-6112555D01*
X6748753Y-6112555D02*
X6729706Y-6131603D01*
X6729706Y-6131603D02*
X6710658Y-6141127D01*
X6901134Y-6083984D02*
X6901134Y-6122079D01*
X6977325Y-6083984D02*
X6977325Y-6122079D01*
X7272563Y-6360174D02*
X7263039Y-6350650D01*
X7263039Y-6350650D02*
X7243991Y-6322079D01*
X7243991Y-6322079D02*
X7234468Y-6303031D01*
X7234468Y-6303031D02*
X7224944Y-6274460D01*
X7224944Y-6274460D02*
X7215420Y-6226841D01*
X7215420Y-6226841D02*
X7215420Y-6188746D01*
X7215420Y-6188746D02*
X7224944Y-6141127D01*
X7224944Y-6141127D02*
X7234468Y-6112555D01*
X7234468Y-6112555D02*
X7243991Y-6093508D01*
X7243991Y-6093508D02*
X7263039Y-6064936D01*
X7263039Y-6064936D02*
X7272563Y-6055412D01*
X7434468Y-6083984D02*
X7396372Y-6083984D01*
X7396372Y-6083984D02*
X7377325Y-6093508D01*
X7377325Y-6093508D02*
X7367801Y-6103031D01*
X7367801Y-6103031D02*
X7348753Y-6131603D01*
X7348753Y-6131603D02*
X7339229Y-6169698D01*
X7339229Y-6169698D02*
X7339229Y-6245888D01*
X7339229Y-6245888D02*
X7348753Y-6264936D01*
X7348753Y-6264936D02*
X7358277Y-6274460D01*
X7358277Y-6274460D02*
X7377325Y-6283984D01*
X7377325Y-6283984D02*
X7415420Y-6283984D01*
X7415420Y-6283984D02*
X7434468Y-6274460D01*
X7434468Y-6274460D02*
X7443991Y-6264936D01*
X7443991Y-6264936D02*
X7453515Y-6245888D01*
X7453515Y-6245888D02*
X7453515Y-6198269D01*
X7453515Y-6198269D02*
X7443991Y-6179222D01*
X7443991Y-6179222D02*
X7434468Y-6169698D01*
X7434468Y-6169698D02*
X7415420Y-6160174D01*
X7415420Y-6160174D02*
X7377325Y-6160174D01*
X7377325Y-6160174D02*
X7358277Y-6169698D01*
X7358277Y-6169698D02*
X7348753Y-6179222D01*
X7348753Y-6179222D02*
X7339229Y-6198269D01*
X7691610Y-6283984D02*
X7691610Y-6083984D01*
X7777325Y-6283984D02*
X7777325Y-6179222D01*
X7777325Y-6179222D02*
X7767801Y-6160174D01*
X7767801Y-6160174D02*
X7748753Y-6150650D01*
X7748753Y-6150650D02*
X7720182Y-6150650D01*
X7720182Y-6150650D02*
X7701134Y-6160174D01*
X7701134Y-6160174D02*
X7691610Y-6169698D01*
X7901134Y-6283984D02*
X7882087Y-6274460D01*
X7882087Y-6274460D02*
X7872563Y-6264936D01*
X7872563Y-6264936D02*
X7863039Y-6245888D01*
X7863039Y-6245888D02*
X7863039Y-6188746D01*
X7863039Y-6188746D02*
X7872563Y-6169698D01*
X7872563Y-6169698D02*
X7882087Y-6160174D01*
X7882087Y-6160174D02*
X7901134Y-6150650D01*
X7901134Y-6150650D02*
X7929706Y-6150650D01*
X7929706Y-6150650D02*
X7948753Y-6160174D01*
X7948753Y-6160174D02*
X7958277Y-6169698D01*
X7958277Y-6169698D02*
X7967801Y-6188746D01*
X7967801Y-6188746D02*
X7967801Y-6245888D01*
X7967801Y-6245888D02*
X7958277Y-6264936D01*
X7958277Y-6264936D02*
X7948753Y-6274460D01*
X7948753Y-6274460D02*
X7929706Y-6283984D01*
X7929706Y-6283984D02*
X7901134Y-6283984D01*
X8082087Y-6283984D02*
X8063039Y-6274460D01*
X8063039Y-6274460D02*
X8053515Y-6255412D01*
X8053515Y-6255412D02*
X8053515Y-6083984D01*
X8234468Y-6274460D02*
X8215420Y-6283984D01*
X8215420Y-6283984D02*
X8177325Y-6283984D01*
X8177325Y-6283984D02*
X8158277Y-6274460D01*
X8158277Y-6274460D02*
X8148753Y-6255412D01*
X8148753Y-6255412D02*
X8148753Y-6179222D01*
X8148753Y-6179222D02*
X8158277Y-6160174D01*
X8158277Y-6160174D02*
X8177325Y-6150650D01*
X8177325Y-6150650D02*
X8215420Y-6150650D01*
X8215420Y-6150650D02*
X8234468Y-6160174D01*
X8234468Y-6160174D02*
X8243991Y-6179222D01*
X8243991Y-6179222D02*
X8243991Y-6198269D01*
X8243991Y-6198269D02*
X8148753Y-6217317D01*
X8320182Y-6274460D02*
X8339230Y-6283984D01*
X8339230Y-6283984D02*
X8377325Y-6283984D01*
X8377325Y-6283984D02*
X8396373Y-6274460D01*
X8396373Y-6274460D02*
X8405896Y-6255412D01*
X8405896Y-6255412D02*
X8405896Y-6245888D01*
X8405896Y-6245888D02*
X8396373Y-6226841D01*
X8396373Y-6226841D02*
X8377325Y-6217317D01*
X8377325Y-6217317D02*
X8348753Y-6217317D01*
X8348753Y-6217317D02*
X8329706Y-6207793D01*
X8329706Y-6207793D02*
X8320182Y-6188746D01*
X8320182Y-6188746D02*
X8320182Y-6179222D01*
X8320182Y-6179222D02*
X8329706Y-6160174D01*
X8329706Y-6160174D02*
X8348753Y-6150650D01*
X8348753Y-6150650D02*
X8377325Y-6150650D01*
X8377325Y-6150650D02*
X8396373Y-6160174D01*
X8472563Y-6360174D02*
X8482087Y-6350650D01*
X8482087Y-6350650D02*
X8501134Y-6322079D01*
X8501134Y-6322079D02*
X8510658Y-6303031D01*
X8510658Y-6303031D02*
X8520182Y-6274460D01*
X8520182Y-6274460D02*
X8529706Y-6226841D01*
X8529706Y-6226841D02*
X8529706Y-6188746D01*
X8529706Y-6188746D02*
X8520182Y-6141127D01*
X8520182Y-6141127D02*
X8510658Y-6112555D01*
X8510658Y-6112555D02*
X8501134Y-6093508D01*
X8501134Y-6093508D02*
X8482087Y-6064936D01*
X8482087Y-6064936D02*
X8472563Y-6055412D01*
X8834468Y-6360174D02*
X8824944Y-6350650D01*
X8824944Y-6350650D02*
X8805896Y-6322079D01*
X8805896Y-6322079D02*
X8796373Y-6303031D01*
X8796373Y-6303031D02*
X8786849Y-6274460D01*
X8786849Y-6274460D02*
X8777325Y-6226841D01*
X8777325Y-6226841D02*
X8777325Y-6188746D01*
X8777325Y-6188746D02*
X8786849Y-6141127D01*
X8786849Y-6141127D02*
X8796373Y-6112555D01*
X8796373Y-6112555D02*
X8805896Y-6093508D01*
X8805896Y-6093508D02*
X8824944Y-6064936D01*
X8824944Y-6064936D02*
X8834468Y-6055412D01*
X8910658Y-6150650D02*
X8910658Y-6283984D01*
X8910658Y-6169698D02*
X8920182Y-6160174D01*
X8920182Y-6160174D02*
X8939230Y-6150650D01*
X8939230Y-6150650D02*
X8967801Y-6150650D01*
X8967801Y-6150650D02*
X8986849Y-6160174D01*
X8986849Y-6160174D02*
X8996373Y-6179222D01*
X8996373Y-6179222D02*
X8996373Y-6283984D01*
X9120182Y-6283984D02*
X9101134Y-6274460D01*
X9101134Y-6274460D02*
X9091611Y-6264936D01*
X9091611Y-6264936D02*
X9082087Y-6245888D01*
X9082087Y-6245888D02*
X9082087Y-6188746D01*
X9082087Y-6188746D02*
X9091611Y-6169698D01*
X9091611Y-6169698D02*
X9101134Y-6160174D01*
X9101134Y-6160174D02*
X9120182Y-6150650D01*
X9120182Y-6150650D02*
X9148754Y-6150650D01*
X9148754Y-6150650D02*
X9167801Y-6160174D01*
X9167801Y-6160174D02*
X9177325Y-6169698D01*
X9177325Y-6169698D02*
X9186849Y-6188746D01*
X9186849Y-6188746D02*
X9186849Y-6245888D01*
X9186849Y-6245888D02*
X9177325Y-6264936D01*
X9177325Y-6264936D02*
X9167801Y-6274460D01*
X9167801Y-6274460D02*
X9148754Y-6283984D01*
X9148754Y-6283984D02*
X9120182Y-6283984D01*
X9243992Y-6150650D02*
X9320182Y-6150650D01*
X9272563Y-6083984D02*
X9272563Y-6255412D01*
X9272563Y-6255412D02*
X9282087Y-6274460D01*
X9282087Y-6274460D02*
X9301134Y-6283984D01*
X9301134Y-6283984D02*
X9320182Y-6283984D01*
X9539230Y-6150650D02*
X9539230Y-6350650D01*
X9539230Y-6160174D02*
X9558277Y-6150650D01*
X9558277Y-6150650D02*
X9596373Y-6150650D01*
X9596373Y-6150650D02*
X9615420Y-6160174D01*
X9615420Y-6160174D02*
X9624944Y-6169698D01*
X9624944Y-6169698D02*
X9634468Y-6188746D01*
X9634468Y-6188746D02*
X9634468Y-6245888D01*
X9634468Y-6245888D02*
X9624944Y-6264936D01*
X9624944Y-6264936D02*
X9615420Y-6274460D01*
X9615420Y-6274460D02*
X9596373Y-6283984D01*
X9596373Y-6283984D02*
X9558277Y-6283984D01*
X9558277Y-6283984D02*
X9539230Y-6274460D01*
X9748754Y-6283984D02*
X9729706Y-6274460D01*
X9729706Y-6274460D02*
X9720182Y-6255412D01*
X9720182Y-6255412D02*
X9720182Y-6083984D01*
X9910658Y-6283984D02*
X9910658Y-6179222D01*
X9910658Y-6179222D02*
X9901135Y-6160174D01*
X9901135Y-6160174D02*
X9882087Y-6150650D01*
X9882087Y-6150650D02*
X9843992Y-6150650D01*
X9843992Y-6150650D02*
X9824944Y-6160174D01*
X9910658Y-6274460D02*
X9891611Y-6283984D01*
X9891611Y-6283984D02*
X9843992Y-6283984D01*
X9843992Y-6283984D02*
X9824944Y-6274460D01*
X9824944Y-6274460D02*
X9815420Y-6255412D01*
X9815420Y-6255412D02*
X9815420Y-6236365D01*
X9815420Y-6236365D02*
X9824944Y-6217317D01*
X9824944Y-6217317D02*
X9843992Y-6207793D01*
X9843992Y-6207793D02*
X9891611Y-6207793D01*
X9891611Y-6207793D02*
X9910658Y-6198269D01*
X9977325Y-6150650D02*
X10053515Y-6150650D01*
X10005896Y-6083984D02*
X10005896Y-6255412D01*
X10005896Y-6255412D02*
X10015420Y-6274460D01*
X10015420Y-6274460D02*
X10034468Y-6283984D01*
X10034468Y-6283984D02*
X10053515Y-6283984D01*
X10196373Y-6274460D02*
X10177325Y-6283984D01*
X10177325Y-6283984D02*
X10139230Y-6283984D01*
X10139230Y-6283984D02*
X10120182Y-6274460D01*
X10120182Y-6274460D02*
X10110658Y-6255412D01*
X10110658Y-6255412D02*
X10110658Y-6179222D01*
X10110658Y-6179222D02*
X10120182Y-6160174D01*
X10120182Y-6160174D02*
X10139230Y-6150650D01*
X10139230Y-6150650D02*
X10177325Y-6150650D01*
X10177325Y-6150650D02*
X10196373Y-6160174D01*
X10196373Y-6160174D02*
X10205896Y-6179222D01*
X10205896Y-6179222D02*
X10205896Y-6198269D01*
X10205896Y-6198269D02*
X10110658Y-6217317D01*
X10377325Y-6283984D02*
X10377325Y-6083984D01*
X10377325Y-6274460D02*
X10358277Y-6283984D01*
X10358277Y-6283984D02*
X10320182Y-6283984D01*
X10320182Y-6283984D02*
X10301135Y-6274460D01*
X10301135Y-6274460D02*
X10291611Y-6264936D01*
X10291611Y-6264936D02*
X10282087Y-6245888D01*
X10282087Y-6245888D02*
X10282087Y-6188746D01*
X10282087Y-6188746D02*
X10291611Y-6169698D01*
X10291611Y-6169698D02*
X10301135Y-6160174D01*
X10301135Y-6160174D02*
X10320182Y-6150650D01*
X10320182Y-6150650D02*
X10358277Y-6150650D01*
X10358277Y-6150650D02*
X10377325Y-6160174D01*
X10453516Y-6360174D02*
X10463039Y-6350650D01*
X10463039Y-6350650D02*
X10482087Y-6322079D01*
X10482087Y-6322079D02*
X10491611Y-6303031D01*
X10491611Y-6303031D02*
X10501135Y-6274460D01*
X10501135Y-6274460D02*
X10510658Y-6226841D01*
X10510658Y-6226841D02*
X10510658Y-6188746D01*
X10510658Y-6188746D02*
X10501135Y-6141127D01*
X10501135Y-6141127D02*
X10491611Y-6112555D01*
X10491611Y-6112555D02*
X10482087Y-6093508D01*
X10482087Y-6093508D02*
X10463039Y-6064936D01*
X10463039Y-6064936D02*
X10453516Y-6055412D01*
M02*
