%TF.GenerationSoftware,KiCad,Pcbnew,9.0.3*%
%TF.CreationDate,2025-09-14T12:06:08+10:00*%
%TF.ProjectId,WashingLineMonitor-P0001,57617368-696e-4674-9c69-6e654d6f6e69,AB*%
%TF.SameCoordinates,Original*%
%TF.FileFunction,Soldermask,Top*%
%TF.FilePolarity,Negative*%
%FSLAX46Y46*%
G04 Gerber Fmt 4.6, Leading zero omitted, Abs format (unit mm)*
G04 Created by KiCad (PCBNEW 9.0.3) date 2025-09-14 12:06:08*
%MOMM*%
%LPD*%
G01*
G04 APERTURE LIST*
G04 Aperture macros list*
%AMRoundRect*
0 Rectangle with rounded corners*
0 $1 Rounding radius*
0 $2 $3 $4 $5 $6 $7 $8 $9 X,Y pos of 4 corners*
0 Add a 4 corners polygon primitive as box body*
4,1,4,$2,$3,$4,$5,$6,$7,$8,$9,$2,$3,0*
0 Add four circle primitives for the rounded corners*
1,1,$1+$1,$2,$3*
1,1,$1+$1,$4,$5*
1,1,$1+$1,$6,$7*
1,1,$1+$1,$8,$9*
0 Add four rect primitives between the rounded corners*
20,1,$1+$1,$2,$3,$4,$5,0*
20,1,$1+$1,$4,$5,$6,$7,0*
20,1,$1+$1,$6,$7,$8,$9,0*
20,1,$1+$1,$8,$9,$2,$3,0*%
%AMFreePoly0*
4,1,13,0.375000,1.525000,1.025000,1.525000,1.025000,-1.525000,0.375000,-1.525000,0.375000,-1.925000,-0.375000,-1.925000,-0.375000,-1.525000,-1.025000,-1.525000,-1.025000,1.525000,-0.375000,1.525000,-0.375000,1.925000,0.375000,1.925000,0.375000,1.525000,0.375000,1.525000,$1*%
G04 Aperture macros list end*
%ADD10RoundRect,0.250000X-0.450000X0.350000X-0.450000X-0.350000X0.450000X-0.350000X0.450000X0.350000X0*%
%ADD11RoundRect,0.250000X0.337500X0.475000X-0.337500X0.475000X-0.337500X-0.475000X0.337500X-0.475000X0*%
%ADD12RoundRect,0.250000X0.475000X-0.337500X0.475000X0.337500X-0.475000X0.337500X-0.475000X-0.337500X0*%
%ADD13RoundRect,0.250000X-0.337500X-0.475000X0.337500X-0.475000X0.337500X0.475000X-0.337500X0.475000X0*%
%ADD14C,1.000000*%
%ADD15RoundRect,0.250000X-0.475000X0.337500X-0.475000X-0.337500X0.475000X-0.337500X0.475000X0.337500X0*%
%ADD16RoundRect,0.250000X0.450000X-0.350000X0.450000X0.350000X-0.450000X0.350000X-0.450000X-0.350000X0*%
%ADD17RoundRect,0.050400X0.324600X-0.069600X0.324600X0.069600X-0.324600X0.069600X-0.324600X-0.069600X0*%
%ADD18RoundRect,0.050400X0.069600X-0.324600X0.069600X0.324600X-0.069600X0.324600X-0.069600X-0.324600X0*%
%ADD19RoundRect,0.050000X0.325000X-0.050000X0.325000X0.050000X-0.325000X0.050000X-0.325000X-0.050000X0*%
%ADD20FreePoly0,90.000000*%
%ADD21RoundRect,0.225000X0.375000X-0.225000X0.375000X0.225000X-0.375000X0.225000X-0.375000X-0.225000X0*%
%ADD22C,1.500000*%
%ADD23RoundRect,0.250000X-0.550000X-0.550000X0.550000X-0.550000X0.550000X0.550000X-0.550000X0.550000X0*%
%ADD24C,1.600000*%
%ADD25RoundRect,0.250000X-0.350000X-0.450000X0.350000X-0.450000X0.350000X0.450000X-0.350000X0.450000X0*%
%ADD26RoundRect,0.150000X0.150000X-0.512500X0.150000X0.512500X-0.150000X0.512500X-0.150000X-0.512500X0*%
%ADD27RoundRect,0.250000X0.350000X0.450000X-0.350000X0.450000X-0.350000X-0.450000X0.350000X-0.450000X0*%
%ADD28RoundRect,0.150000X-0.512500X-0.150000X0.512500X-0.150000X0.512500X0.150000X-0.512500X0.150000X0*%
%ADD29R,0.740000X2.400000*%
%ADD30RoundRect,0.102000X-0.750000X-0.450000X0.750000X-0.450000X0.750000X0.450000X-0.750000X0.450000X0*%
%ADD31RoundRect,0.102000X-0.450000X-0.750000X0.450000X-0.750000X0.450000X0.750000X-0.450000X0.750000X0*%
%ADD32RoundRect,0.102000X-0.450000X-0.450000X0.450000X-0.450000X0.450000X0.450000X-0.450000X0.450000X0*%
%ADD33RoundRect,0.150000X0.150000X-0.587500X0.150000X0.587500X-0.150000X0.587500X-0.150000X-0.587500X0*%
%ADD34RoundRect,0.250000X-0.550000X0.550000X-0.550000X-0.550000X0.550000X-0.550000X0.550000X0.550000X0*%
G04 APERTURE END LIST*
D10*
%TO.C,R1*%
X78500000Y-50500000D03*
X78500000Y-52500000D03*
%TD*%
D11*
%TO.C,C1*%
X68037500Y-21500000D03*
X65962500Y-21500000D03*
%TD*%
D12*
%TO.C,C18*%
X53500000Y-47537500D03*
X53500000Y-45462500D03*
%TD*%
D13*
%TO.C,C5*%
X50962500Y-36000000D03*
X53037500Y-36000000D03*
%TD*%
D12*
%TO.C,C9*%
X65000000Y-30747500D03*
X65000000Y-28672500D03*
%TD*%
D14*
%TO.C,BattMeas1*%
X69500000Y-43000000D03*
%TD*%
D15*
%TO.C,C19*%
X75500000Y-44962500D03*
X75500000Y-47037500D03*
%TD*%
D11*
%TO.C,C23*%
X70037500Y-53500000D03*
X67962500Y-53500000D03*
%TD*%
D15*
%TO.C,C22*%
X67000000Y-45962500D03*
X67000000Y-48037500D03*
%TD*%
D16*
%TO.C,R9*%
X62500000Y-25650000D03*
X62500000Y-23650000D03*
%TD*%
D10*
%TO.C,R3*%
X60500000Y-46000000D03*
X60500000Y-48000000D03*
%TD*%
D14*
%TO.C,SenseOut1*%
X81000000Y-43500000D03*
%TD*%
D17*
%TO.C,U6*%
X58325000Y-36310000D03*
D18*
X58800000Y-37285000D03*
X59300000Y-37285000D03*
X59800000Y-37285000D03*
X60300000Y-37285000D03*
X60800000Y-37285000D03*
X61300000Y-37285000D03*
X61800000Y-37285000D03*
X62300000Y-37285000D03*
D17*
X62775000Y-36310000D03*
X62775000Y-34810000D03*
D18*
X62300000Y-33835000D03*
X61800000Y-33835000D03*
X61300000Y-33835000D03*
X60800000Y-33835000D03*
X60300000Y-33835000D03*
X59800000Y-33835000D03*
X59300000Y-33835000D03*
X58800000Y-33835000D03*
D17*
X58325000Y-34810000D03*
D19*
X58325000Y-35835000D03*
X62775000Y-35835000D03*
D20*
X60550000Y-35560000D03*
D19*
X58325000Y-35285000D03*
X62775000Y-35285000D03*
%TD*%
D13*
%TO.C,C3*%
X50962500Y-42000000D03*
X53037500Y-42000000D03*
%TD*%
D10*
%TO.C,R2*%
X87000000Y-48000000D03*
X87000000Y-50000000D03*
%TD*%
D14*
%TO.C,Vbatt1*%
X40500000Y-42550000D03*
%TD*%
D12*
%TO.C,C11*%
X57800000Y-43747500D03*
X57800000Y-41672500D03*
%TD*%
D15*
%TO.C,C13*%
X61300000Y-41710000D03*
X61300000Y-43785000D03*
%TD*%
D21*
%TO.C,D1*%
X56500000Y-48650000D03*
X56500000Y-45350000D03*
%TD*%
D22*
%TO.C,J1*%
X80900000Y-52500000D03*
X84500000Y-52500000D03*
D23*
X80900000Y-46500000D03*
D24*
X84500000Y-46500000D03*
%TD*%
D10*
%TO.C,R10*%
X67500000Y-28500000D03*
X67500000Y-30500000D03*
%TD*%
D14*
%TO.C,3V3*%
X68000000Y-18000000D03*
%TD*%
%TO.C,Vsense1*%
X76000000Y-50000000D03*
%TD*%
D15*
%TO.C,C14*%
X53000000Y-23612500D03*
X53000000Y-25687500D03*
%TD*%
D11*
%TO.C,C2*%
X68037500Y-25000000D03*
X65962500Y-25000000D03*
%TD*%
D13*
%TO.C,C4*%
X50925000Y-39000000D03*
X53000000Y-39000000D03*
%TD*%
D25*
%TO.C,R11*%
X68000000Y-50500000D03*
X70000000Y-50500000D03*
%TD*%
D14*
%TO.C,GND1*%
X61000000Y-17500000D03*
%TD*%
%TO.C,AD-EN1*%
X65000000Y-39000000D03*
%TD*%
D25*
%TO.C,R5*%
X90500000Y-43000000D03*
X92500000Y-43000000D03*
%TD*%
D12*
%TO.C,C7*%
X51500000Y-33000000D03*
X51500000Y-30925000D03*
%TD*%
D16*
%TO.C,R6*%
X78500000Y-47000000D03*
X78500000Y-45000000D03*
%TD*%
D26*
%TO.C,U2*%
X71050000Y-47775000D03*
X72000000Y-47775000D03*
X72950000Y-47775000D03*
X72950000Y-45500000D03*
X71050000Y-45500000D03*
%TD*%
D12*
%TO.C,C17*%
X50000000Y-47537500D03*
X50000000Y-45462500D03*
%TD*%
D15*
%TO.C,C6*%
X55000000Y-30925000D03*
X55000000Y-33000000D03*
%TD*%
D13*
%TO.C,C20*%
X50962500Y-52000000D03*
X53037500Y-52000000D03*
%TD*%
D15*
%TO.C,C15*%
X59500000Y-23612500D03*
X59500000Y-25687500D03*
%TD*%
%TO.C,C21*%
X63500000Y-50962500D03*
X63500000Y-53037500D03*
%TD*%
D10*
%TO.C,R4*%
X63500000Y-46000000D03*
X63500000Y-48000000D03*
%TD*%
D27*
%TO.C,R8*%
X68000000Y-37000000D03*
X66000000Y-37000000D03*
%TD*%
D15*
%TO.C,C12*%
X64300000Y-41710000D03*
X64300000Y-43785000D03*
%TD*%
D12*
%TO.C,C10*%
X61500000Y-30747500D03*
X61500000Y-28672500D03*
%TD*%
D28*
%TO.C,U4*%
X56362500Y-51550000D03*
X56362500Y-52500000D03*
X56362500Y-53450000D03*
X58637500Y-53450000D03*
X58637500Y-51550000D03*
%TD*%
D15*
%TO.C,C16*%
X56310000Y-23612500D03*
X56310000Y-25687500D03*
%TD*%
D29*
%TO.C,J3*%
X90230000Y-51450000D03*
X90230000Y-47550000D03*
X91500000Y-51450000D03*
X91500000Y-47550000D03*
X92770000Y-51450000D03*
X92770000Y-47550000D03*
%TD*%
D30*
%TO.C,U1*%
X73000000Y-22500000D03*
X73000000Y-23770000D03*
X73000000Y-25040000D03*
X73000000Y-26310000D03*
X73000000Y-27580000D03*
X73000000Y-28850000D03*
X73000000Y-30120000D03*
X73000000Y-31390000D03*
X73000000Y-32660000D03*
X73000000Y-33930000D03*
X73000000Y-35200000D03*
X73000000Y-36470000D03*
X73000000Y-37740000D03*
X73000000Y-39010000D03*
D31*
X74765000Y-40260000D03*
X76035000Y-40260000D03*
X77305000Y-40260000D03*
X78575000Y-40260000D03*
X79845000Y-40260000D03*
X81115000Y-40260000D03*
X82385000Y-40260000D03*
X83655000Y-40260000D03*
X84925000Y-40260000D03*
X86195000Y-40260000D03*
X87465000Y-40260000D03*
X88735000Y-40260000D03*
D30*
X90500000Y-39010000D03*
X90500000Y-37740000D03*
X90500000Y-36470000D03*
X90500000Y-35200000D03*
X90500000Y-33930000D03*
X90500000Y-32660000D03*
X90500000Y-31390000D03*
X90500000Y-30120000D03*
X90500000Y-28850000D03*
X90500000Y-27580000D03*
X90500000Y-26310000D03*
X90500000Y-25040000D03*
X90500000Y-23770000D03*
X90500000Y-22500000D03*
D32*
X78850000Y-28820000D03*
X80250000Y-28820000D03*
X81650000Y-28820000D03*
X78850000Y-30220000D03*
X80250000Y-30220000D03*
X81650000Y-30220000D03*
X78850000Y-31620000D03*
X80250000Y-31620000D03*
X81650000Y-31620000D03*
%TD*%
D33*
%TO.C,D2*%
X72550000Y-52875000D03*
X74450000Y-52875000D03*
X73500000Y-51000000D03*
%TD*%
D22*
%TO.C,L1*%
X40000000Y-33000000D03*
X40000000Y-37500000D03*
D34*
X46000000Y-33000000D03*
D24*
X46000000Y-37500000D03*
%TD*%
D12*
%TO.C,C8*%
X58300000Y-30747500D03*
X58300000Y-28672500D03*
%TD*%
D27*
%TO.C,R7*%
X68000000Y-33500000D03*
X66000000Y-33500000D03*
%TD*%
D22*
%TO.C,BT3*%
X46500000Y-45500000D03*
X46500000Y-49100000D03*
D34*
X40500000Y-45500000D03*
D24*
X40500000Y-49100000D03*
%TD*%
M02*
