M48
; DRILL file {KiCad 9.0.3} date 2025-09-14T12:06:08+1000
; FORMAT={-:-/ absolute / metric / decimal}
; #@! TF.CreationDate,2025-09-14T12:06:08+10:00
; #@! TF.GenerationSoftware,Kicad,Pcbnew,9.0.3
; #@! TF.FileFunction,Plated,1,2,PTH
FMAT,2
METRIC
; #@! TA.AperFunction,Plated,PTH,ViaDrill
T1C0.300
; #@! TA.AperFunction,Plated,PTH,ComponentDrill
T2C0.600
%
G90
G05
T1
X50.0Y-49.5
X51.0Y-49.5
X52.0Y-49.5
X53.0Y-21.5
X53.0Y-49.5
X54.0Y-49.5
X55.0Y-52.5
X55.8Y-35.71
X56.0Y-21.5
X56.0Y-34.5
X56.8Y-34.71
X56.8Y-35.71
X57.8Y-40.21
X58.0Y-52.5
X58.8Y-32.71
X59.0Y-52.5
X59.5Y-21.5
X59.5Y-27.0
X59.5Y-49.5
X60.0Y-52.5
X60.5Y-49.5
X61.5Y-49.5
X62.056Y-32.292
X62.5Y-21.5
X62.5Y-49.5
X62.8Y-43.785
X63.5Y-49.5
X64.0Y-21.5
X64.5Y-49.5
X65.0Y-35.5
X65.0Y-47.0
X65.0Y-48.5
X65.5Y-45.5
X66.0Y-35.5
X66.0Y-50.5
X66.0Y-51.5
X66.0Y-52.5
X66.0Y-53.5
X67.0Y-35.5
X67.5Y-27.0
X68.0Y-32.0
X68.0Y-35.5
X69.0Y-35.5
X69.5Y-28.5
X69.5Y-33.5
X70.0Y-35.5
X71.0Y-21.0
X71.0Y-22.0
X71.0Y-23.0
X71.5Y-49.0
X71.5Y-50.0
X71.5Y-51.0
X71.5Y-52.0
X71.5Y-53.0
X72.0Y-21.0
X74.0Y-47.0
X74.0Y-48.0
X74.0Y-49.0
X75.0Y-21.5
X75.0Y-22.5
X75.0Y-23.5
X75.0Y-36.0
X75.0Y-37.0
X75.0Y-38.0
X76.0Y-37.0
X76.0Y-38.0
X76.0Y-51.5
X76.0Y-52.5
X77.0Y-38.0
X77.0Y-47.0
X77.0Y-48.0
X77.0Y-49.0
X79.0Y-27.0
X80.0Y-27.0
X81.0Y-27.0
X82.0Y-27.0
X83.0Y-27.0
X83.0Y-28.0
X83.0Y-29.0
X83.0Y-30.0
X83.0Y-31.0
X83.0Y-32.0
X87.0Y-38.5
X88.0Y-38.5
X88.5Y-21.5
X88.5Y-22.5
X88.5Y-23.5
X88.5Y-42.5
X88.5Y-51.45
X91.0Y-49.5
X91.5Y-44.5
X91.5Y-45.5
X92.0Y-49.5
X92.5Y-20.5
X92.5Y-21.5
X92.5Y-22.5
X92.5Y-23.5
X92.5Y-24.5
X93.5Y-20.5
X93.5Y-21.5
X93.5Y-22.5
X93.5Y-23.5
X93.5Y-24.5
T2
X40.5Y-45.5
X40.5Y-49.1
X46.0Y-33.0
X46.0Y-37.5
X80.9Y-46.5
X84.5Y-46.5
M30
