%TF.GenerationSoftware,KiCad,Pcbnew,9.0.3*%
%TF.CreationDate,2025-09-14T12:06:08+10:00*%
%TF.ProjectId,WashingLineMonitor-P0001,57617368-696e-4674-9c69-6e654d6f6e69,AB*%
%TF.SameCoordinates,Original*%
%TF.FileFunction,Drillmap*%
%TF.FilePolarity,Positive*%
%FSLAX45Y45*%
G04 Gerber Fmt 4.5, Leading zero omitted, Abs format (unit mm)*
G04 Created by KiCad (PCBNEW 9.0.3) date 2025-09-14 12:06:08*
%MOMM*%
%LPD*%
G01*
G04 APERTURE LIST*
%ADD10C,0.050000*%
%ADD11C,0.200000*%
%ADD12C,0.100000*%
G04 APERTURE END LIST*
D10*
X3700000Y-1600000D02*
G75*
G02*
X3900000Y-1400000I200000J0D01*
G01*
X3900000Y-5550000D02*
G75*
G02*
X3700000Y-5350000I0J200000D01*
G01*
X9350000Y-5550000D02*
X3900000Y-5550000D01*
X9550000Y-1600000D02*
X9550000Y-5350000D01*
X9550000Y-5350000D02*
G75*
G02*
X9350000Y-5550000I-200000J0D01*
G01*
X3900000Y-1400000D02*
X9350000Y-1400000D01*
X3700000Y-5350000D02*
X3700000Y-1600000D01*
X9350000Y-1400000D02*
G75*
G02*
X9550000Y-1600000I0J-200000D01*
G01*
D11*
D12*
X4985000Y-4935000D02*
X5015000Y-4965000D01*
X5015000Y-4935000D02*
X4985000Y-4965000D01*
X5085000Y-4935000D02*
X5115000Y-4965000D01*
X5115000Y-4935000D02*
X5085000Y-4965000D01*
X5185000Y-4935000D02*
X5215000Y-4965000D01*
X5215000Y-4935000D02*
X5185000Y-4965000D01*
X5285000Y-2135000D02*
X5315000Y-2165000D01*
X5315000Y-2135000D02*
X5285000Y-2165000D01*
X5285000Y-4935000D02*
X5315000Y-4965000D01*
X5315000Y-4935000D02*
X5285000Y-4965000D01*
X5385000Y-4935000D02*
X5415000Y-4965000D01*
X5415000Y-4935000D02*
X5385000Y-4965000D01*
X5485000Y-5235000D02*
X5515000Y-5265000D01*
X5515000Y-5235000D02*
X5485000Y-5265000D01*
X5565000Y-3556000D02*
X5595000Y-3586000D01*
X5595000Y-3556000D02*
X5565000Y-3586000D01*
X5585000Y-2135000D02*
X5615000Y-2165000D01*
X5615000Y-2135000D02*
X5585000Y-2165000D01*
X5585000Y-3435000D02*
X5615000Y-3465000D01*
X5615000Y-3435000D02*
X5585000Y-3465000D01*
X5665000Y-3456000D02*
X5695000Y-3486000D01*
X5695000Y-3456000D02*
X5665000Y-3486000D01*
X5665000Y-3556000D02*
X5695000Y-3586000D01*
X5695000Y-3556000D02*
X5665000Y-3586000D01*
X5765000Y-4006000D02*
X5795000Y-4036000D01*
X5795000Y-4006000D02*
X5765000Y-4036000D01*
X5785000Y-5235000D02*
X5815000Y-5265000D01*
X5815000Y-5235000D02*
X5785000Y-5265000D01*
X5865000Y-3256000D02*
X5895000Y-3286000D01*
X5895000Y-3256000D02*
X5865000Y-3286000D01*
X5885000Y-5235000D02*
X5915000Y-5265000D01*
X5915000Y-5235000D02*
X5885000Y-5265000D01*
X5935000Y-2135000D02*
X5965000Y-2165000D01*
X5965000Y-2135000D02*
X5935000Y-2165000D01*
X5935000Y-2685000D02*
X5965000Y-2715000D01*
X5965000Y-2685000D02*
X5935000Y-2715000D01*
X5935000Y-4935000D02*
X5965000Y-4965000D01*
X5965000Y-4935000D02*
X5935000Y-4965000D01*
X5985000Y-5235000D02*
X6015000Y-5265000D01*
X6015000Y-5235000D02*
X5985000Y-5265000D01*
X6035000Y-4935000D02*
X6065000Y-4965000D01*
X6065000Y-4935000D02*
X6035000Y-4965000D01*
X6135000Y-4935000D02*
X6165000Y-4965000D01*
X6165000Y-4935000D02*
X6135000Y-4965000D01*
X6190626Y-3214226D02*
X6220626Y-3244226D01*
X6220626Y-3214226D02*
X6190626Y-3244226D01*
X6235000Y-2135000D02*
X6265000Y-2165000D01*
X6265000Y-2135000D02*
X6235000Y-2165000D01*
X6235000Y-4935000D02*
X6265000Y-4965000D01*
X6265000Y-4935000D02*
X6235000Y-4965000D01*
X6265000Y-4363500D02*
X6295000Y-4393500D01*
X6295000Y-4363500D02*
X6265000Y-4393500D01*
X6335000Y-4935000D02*
X6365000Y-4965000D01*
X6365000Y-4935000D02*
X6335000Y-4965000D01*
X6385000Y-2135000D02*
X6415000Y-2165000D01*
X6415000Y-2135000D02*
X6385000Y-2165000D01*
X6435000Y-4935000D02*
X6465000Y-4965000D01*
X6465000Y-4935000D02*
X6435000Y-4965000D01*
X6485000Y-3535000D02*
X6515000Y-3565000D01*
X6515000Y-3535000D02*
X6485000Y-3565000D01*
X6485000Y-4685000D02*
X6515000Y-4715000D01*
X6515000Y-4685000D02*
X6485000Y-4715000D01*
X6485000Y-4835000D02*
X6515000Y-4865000D01*
X6515000Y-4835000D02*
X6485000Y-4865000D01*
X6535000Y-4535000D02*
X6565000Y-4565000D01*
X6565000Y-4535000D02*
X6535000Y-4565000D01*
X6585000Y-3535000D02*
X6615000Y-3565000D01*
X6615000Y-3535000D02*
X6585000Y-3565000D01*
X6585000Y-5035000D02*
X6615000Y-5065000D01*
X6615000Y-5035000D02*
X6585000Y-5065000D01*
X6585000Y-5135000D02*
X6615000Y-5165000D01*
X6615000Y-5135000D02*
X6585000Y-5165000D01*
X6585000Y-5235000D02*
X6615000Y-5265000D01*
X6615000Y-5235000D02*
X6585000Y-5265000D01*
X6585000Y-5335000D02*
X6615000Y-5365000D01*
X6615000Y-5335000D02*
X6585000Y-5365000D01*
X6685000Y-3535000D02*
X6715000Y-3565000D01*
X6715000Y-3535000D02*
X6685000Y-3565000D01*
X6735000Y-2685000D02*
X6765000Y-2715000D01*
X6765000Y-2685000D02*
X6735000Y-2715000D01*
X6785000Y-3185000D02*
X6815000Y-3215000D01*
X6815000Y-3185000D02*
X6785000Y-3215000D01*
X6785000Y-3535000D02*
X6815000Y-3565000D01*
X6815000Y-3535000D02*
X6785000Y-3565000D01*
X6885000Y-3535000D02*
X6915000Y-3565000D01*
X6915000Y-3535000D02*
X6885000Y-3565000D01*
X6935000Y-2835000D02*
X6965000Y-2865000D01*
X6965000Y-2835000D02*
X6935000Y-2865000D01*
X6935000Y-3335000D02*
X6965000Y-3365000D01*
X6965000Y-3335000D02*
X6935000Y-3365000D01*
X6985000Y-3535000D02*
X7015000Y-3565000D01*
X7015000Y-3535000D02*
X6985000Y-3565000D01*
X7085000Y-2085000D02*
X7115000Y-2115000D01*
X7115000Y-2085000D02*
X7085000Y-2115000D01*
X7085000Y-2185000D02*
X7115000Y-2215000D01*
X7115000Y-2185000D02*
X7085000Y-2215000D01*
X7085000Y-2285000D02*
X7115000Y-2315000D01*
X7115000Y-2285000D02*
X7085000Y-2315000D01*
X7135000Y-4885000D02*
X7165000Y-4915000D01*
X7165000Y-4885000D02*
X7135000Y-4915000D01*
X7135000Y-4985000D02*
X7165000Y-5015000D01*
X7165000Y-4985000D02*
X7135000Y-5015000D01*
X7135000Y-5085000D02*
X7165000Y-5115000D01*
X7165000Y-5085000D02*
X7135000Y-5115000D01*
X7135000Y-5185000D02*
X7165000Y-5215000D01*
X7165000Y-5185000D02*
X7135000Y-5215000D01*
X7135000Y-5285000D02*
X7165000Y-5315000D01*
X7165000Y-5285000D02*
X7135000Y-5315000D01*
X7185000Y-2085000D02*
X7215000Y-2115000D01*
X7215000Y-2085000D02*
X7185000Y-2115000D01*
X7385000Y-4685000D02*
X7415000Y-4715000D01*
X7415000Y-4685000D02*
X7385000Y-4715000D01*
X7385000Y-4785000D02*
X7415000Y-4815000D01*
X7415000Y-4785000D02*
X7385000Y-4815000D01*
X7385000Y-4885000D02*
X7415000Y-4915000D01*
X7415000Y-4885000D02*
X7385000Y-4915000D01*
X7485000Y-2135000D02*
X7515000Y-2165000D01*
X7515000Y-2135000D02*
X7485000Y-2165000D01*
X7485000Y-2235000D02*
X7515000Y-2265000D01*
X7515000Y-2235000D02*
X7485000Y-2265000D01*
X7485000Y-2335000D02*
X7515000Y-2365000D01*
X7515000Y-2335000D02*
X7485000Y-2365000D01*
X7485000Y-3585000D02*
X7515000Y-3615000D01*
X7515000Y-3585000D02*
X7485000Y-3615000D01*
X7485000Y-3685000D02*
X7515000Y-3715000D01*
X7515000Y-3685000D02*
X7485000Y-3715000D01*
X7485000Y-3785000D02*
X7515000Y-3815000D01*
X7515000Y-3785000D02*
X7485000Y-3815000D01*
X7585000Y-3685000D02*
X7615000Y-3715000D01*
X7615000Y-3685000D02*
X7585000Y-3715000D01*
X7585000Y-3785000D02*
X7615000Y-3815000D01*
X7615000Y-3785000D02*
X7585000Y-3815000D01*
X7585000Y-5135000D02*
X7615000Y-5165000D01*
X7615000Y-5135000D02*
X7585000Y-5165000D01*
X7585000Y-5235000D02*
X7615000Y-5265000D01*
X7615000Y-5235000D02*
X7585000Y-5265000D01*
X7685000Y-3785000D02*
X7715000Y-3815000D01*
X7715000Y-3785000D02*
X7685000Y-3815000D01*
X7685000Y-4685000D02*
X7715000Y-4715000D01*
X7715000Y-4685000D02*
X7685000Y-4715000D01*
X7685000Y-4785000D02*
X7715000Y-4815000D01*
X7715000Y-4785000D02*
X7685000Y-4815000D01*
X7685000Y-4885000D02*
X7715000Y-4915000D01*
X7715000Y-4885000D02*
X7685000Y-4915000D01*
X7885000Y-2685000D02*
X7915000Y-2715000D01*
X7915000Y-2685000D02*
X7885000Y-2715000D01*
X7985000Y-2685000D02*
X8015000Y-2715000D01*
X8015000Y-2685000D02*
X7985000Y-2715000D01*
X8085000Y-2685000D02*
X8115000Y-2715000D01*
X8115000Y-2685000D02*
X8085000Y-2715000D01*
X8185000Y-2685000D02*
X8215000Y-2715000D01*
X8215000Y-2685000D02*
X8185000Y-2715000D01*
X8285000Y-2685000D02*
X8315000Y-2715000D01*
X8315000Y-2685000D02*
X8285000Y-2715000D01*
X8285000Y-2785000D02*
X8315000Y-2815000D01*
X8315000Y-2785000D02*
X8285000Y-2815000D01*
X8285000Y-2885000D02*
X8315000Y-2915000D01*
X8315000Y-2885000D02*
X8285000Y-2915000D01*
X8285000Y-2985000D02*
X8315000Y-3015000D01*
X8315000Y-2985000D02*
X8285000Y-3015000D01*
X8285000Y-3085000D02*
X8315000Y-3115000D01*
X8315000Y-3085000D02*
X8285000Y-3115000D01*
X8285000Y-3185000D02*
X8315000Y-3215000D01*
X8315000Y-3185000D02*
X8285000Y-3215000D01*
X8685000Y-3835000D02*
X8715000Y-3865000D01*
X8715000Y-3835000D02*
X8685000Y-3865000D01*
X8785000Y-3835000D02*
X8815000Y-3865000D01*
X8815000Y-3835000D02*
X8785000Y-3865000D01*
X8835000Y-2135000D02*
X8865000Y-2165000D01*
X8865000Y-2135000D02*
X8835000Y-2165000D01*
X8835000Y-2235000D02*
X8865000Y-2265000D01*
X8865000Y-2235000D02*
X8835000Y-2265000D01*
X8835000Y-2335000D02*
X8865000Y-2365000D01*
X8865000Y-2335000D02*
X8835000Y-2365000D01*
X8835000Y-4235000D02*
X8865000Y-4265000D01*
X8865000Y-4235000D02*
X8835000Y-4265000D01*
X8835000Y-5130000D02*
X8865000Y-5160000D01*
X8865000Y-5130000D02*
X8835000Y-5160000D01*
X9085000Y-4935000D02*
X9115000Y-4965000D01*
X9115000Y-4935000D02*
X9085000Y-4965000D01*
X9135000Y-4435000D02*
X9165000Y-4465000D01*
X9165000Y-4435000D02*
X9135000Y-4465000D01*
X9135000Y-4535000D02*
X9165000Y-4565000D01*
X9165000Y-4535000D02*
X9135000Y-4565000D01*
X9185000Y-4935000D02*
X9215000Y-4965000D01*
X9215000Y-4935000D02*
X9185000Y-4965000D01*
X9235000Y-2035000D02*
X9265000Y-2065000D01*
X9265000Y-2035000D02*
X9235000Y-2065000D01*
X9235000Y-2135000D02*
X9265000Y-2165000D01*
X9265000Y-2135000D02*
X9235000Y-2165000D01*
X9235000Y-2235000D02*
X9265000Y-2265000D01*
X9265000Y-2235000D02*
X9235000Y-2265000D01*
X9235000Y-2335000D02*
X9265000Y-2365000D01*
X9265000Y-2335000D02*
X9235000Y-2365000D01*
X9235000Y-2435000D02*
X9265000Y-2465000D01*
X9265000Y-2435000D02*
X9235000Y-2465000D01*
X9335000Y-2035000D02*
X9365000Y-2065000D01*
X9365000Y-2035000D02*
X9335000Y-2065000D01*
X9335000Y-2135000D02*
X9365000Y-2165000D01*
X9365000Y-2135000D02*
X9335000Y-2165000D01*
X9335000Y-2235000D02*
X9365000Y-2265000D01*
X9365000Y-2235000D02*
X9335000Y-2265000D01*
X9335000Y-2335000D02*
X9365000Y-2365000D01*
X9365000Y-2335000D02*
X9335000Y-2365000D01*
X9335000Y-2435000D02*
X9365000Y-2465000D01*
X9365000Y-2435000D02*
X9335000Y-2465000D01*
X4080000Y-4550000D02*
G75*
G02*
X4020000Y-4550000I-30000J0D01*
G01*
X4020000Y-4550000D02*
G75*
G02*
X4080000Y-4550000I30000J0D01*
G01*
X4080000Y-4910000D02*
G75*
G02*
X4020000Y-4910000I-30000J0D01*
G01*
X4020000Y-4910000D02*
G75*
G02*
X4080000Y-4910000I30000J0D01*
G01*
X4630000Y-3300000D02*
G75*
G02*
X4570000Y-3300000I-30000J0D01*
G01*
X4570000Y-3300000D02*
G75*
G02*
X4630000Y-3300000I30000J0D01*
G01*
X4630000Y-3750000D02*
G75*
G02*
X4570000Y-3750000I-30000J0D01*
G01*
X4570000Y-3750000D02*
G75*
G02*
X4630000Y-3750000I30000J0D01*
G01*
X8120000Y-4650000D02*
G75*
G02*
X8060000Y-4650000I-30000J0D01*
G01*
X8060000Y-4650000D02*
G75*
G02*
X8120000Y-4650000I30000J0D01*
G01*
X8480000Y-4650000D02*
G75*
G02*
X8420000Y-4650000I-30000J0D01*
G01*
X8420000Y-4650000D02*
G75*
G02*
X8480000Y-4650000I30000J0D01*
G01*
D11*
X3958277Y-5863984D02*
X3958277Y-5663984D01*
X3958277Y-5663984D02*
X4005896Y-5663984D01*
X4005896Y-5663984D02*
X4034467Y-5673508D01*
X4034467Y-5673508D02*
X4053515Y-5692555D01*
X4053515Y-5692555D02*
X4063039Y-5711603D01*
X4063039Y-5711603D02*
X4072562Y-5749698D01*
X4072562Y-5749698D02*
X4072562Y-5778269D01*
X4072562Y-5778269D02*
X4063039Y-5816365D01*
X4063039Y-5816365D02*
X4053515Y-5835412D01*
X4053515Y-5835412D02*
X4034467Y-5854460D01*
X4034467Y-5854460D02*
X4005896Y-5863984D01*
X4005896Y-5863984D02*
X3958277Y-5863984D01*
X4158277Y-5863984D02*
X4158277Y-5730650D01*
X4158277Y-5768746D02*
X4167801Y-5749698D01*
X4167801Y-5749698D02*
X4177324Y-5740174D01*
X4177324Y-5740174D02*
X4196372Y-5730650D01*
X4196372Y-5730650D02*
X4215420Y-5730650D01*
X4282086Y-5863984D02*
X4282086Y-5730650D01*
X4282086Y-5663984D02*
X4272563Y-5673508D01*
X4272563Y-5673508D02*
X4282086Y-5683031D01*
X4282086Y-5683031D02*
X4291610Y-5673508D01*
X4291610Y-5673508D02*
X4282086Y-5663984D01*
X4282086Y-5663984D02*
X4282086Y-5683031D01*
X4405896Y-5863984D02*
X4386848Y-5854460D01*
X4386848Y-5854460D02*
X4377324Y-5835412D01*
X4377324Y-5835412D02*
X4377324Y-5663984D01*
X4510658Y-5863984D02*
X4491610Y-5854460D01*
X4491610Y-5854460D02*
X4482086Y-5835412D01*
X4482086Y-5835412D02*
X4482086Y-5663984D01*
X4739229Y-5863984D02*
X4739229Y-5663984D01*
X4739229Y-5663984D02*
X4805896Y-5806841D01*
X4805896Y-5806841D02*
X4872563Y-5663984D01*
X4872563Y-5663984D02*
X4872563Y-5863984D01*
X5053515Y-5863984D02*
X5053515Y-5759222D01*
X5053515Y-5759222D02*
X5043991Y-5740174D01*
X5043991Y-5740174D02*
X5024944Y-5730650D01*
X5024944Y-5730650D02*
X4986848Y-5730650D01*
X4986848Y-5730650D02*
X4967801Y-5740174D01*
X5053515Y-5854460D02*
X5034467Y-5863984D01*
X5034467Y-5863984D02*
X4986848Y-5863984D01*
X4986848Y-5863984D02*
X4967801Y-5854460D01*
X4967801Y-5854460D02*
X4958277Y-5835412D01*
X4958277Y-5835412D02*
X4958277Y-5816365D01*
X4958277Y-5816365D02*
X4967801Y-5797317D01*
X4967801Y-5797317D02*
X4986848Y-5787793D01*
X4986848Y-5787793D02*
X5034467Y-5787793D01*
X5034467Y-5787793D02*
X5053515Y-5778269D01*
X5148753Y-5730650D02*
X5148753Y-5930650D01*
X5148753Y-5740174D02*
X5167801Y-5730650D01*
X5167801Y-5730650D02*
X5205896Y-5730650D01*
X5205896Y-5730650D02*
X5224944Y-5740174D01*
X5224944Y-5740174D02*
X5234467Y-5749698D01*
X5234467Y-5749698D02*
X5243991Y-5768746D01*
X5243991Y-5768746D02*
X5243991Y-5825888D01*
X5243991Y-5825888D02*
X5234467Y-5844936D01*
X5234467Y-5844936D02*
X5224944Y-5854460D01*
X5224944Y-5854460D02*
X5205896Y-5863984D01*
X5205896Y-5863984D02*
X5167801Y-5863984D01*
X5167801Y-5863984D02*
X5148753Y-5854460D01*
X5329705Y-5844936D02*
X5339229Y-5854460D01*
X5339229Y-5854460D02*
X5329705Y-5863984D01*
X5329705Y-5863984D02*
X5320182Y-5854460D01*
X5320182Y-5854460D02*
X5329705Y-5844936D01*
X5329705Y-5844936D02*
X5329705Y-5863984D01*
X5329705Y-5740174D02*
X5339229Y-5749698D01*
X5339229Y-5749698D02*
X5329705Y-5759222D01*
X5329705Y-5759222D02*
X5320182Y-5749698D01*
X5320182Y-5749698D02*
X5329705Y-5740174D01*
X5329705Y-5740174D02*
X5329705Y-5759222D01*
D12*
X3667500Y-6177500D02*
X3697500Y-6207500D01*
X3697500Y-6177500D02*
X3667500Y-6207500D01*
D11*
X3996372Y-6083984D02*
X4015420Y-6083984D01*
X4015420Y-6083984D02*
X4034467Y-6093508D01*
X4034467Y-6093508D02*
X4043991Y-6103031D01*
X4043991Y-6103031D02*
X4053515Y-6122079D01*
X4053515Y-6122079D02*
X4063039Y-6160174D01*
X4063039Y-6160174D02*
X4063039Y-6207793D01*
X4063039Y-6207793D02*
X4053515Y-6245888D01*
X4053515Y-6245888D02*
X4043991Y-6264936D01*
X4043991Y-6264936D02*
X4034467Y-6274460D01*
X4034467Y-6274460D02*
X4015420Y-6283984D01*
X4015420Y-6283984D02*
X3996372Y-6283984D01*
X3996372Y-6283984D02*
X3977324Y-6274460D01*
X3977324Y-6274460D02*
X3967801Y-6264936D01*
X3967801Y-6264936D02*
X3958277Y-6245888D01*
X3958277Y-6245888D02*
X3948753Y-6207793D01*
X3948753Y-6207793D02*
X3948753Y-6160174D01*
X3948753Y-6160174D02*
X3958277Y-6122079D01*
X3958277Y-6122079D02*
X3967801Y-6103031D01*
X3967801Y-6103031D02*
X3977324Y-6093508D01*
X3977324Y-6093508D02*
X3996372Y-6083984D01*
X4148753Y-6264936D02*
X4158277Y-6274460D01*
X4158277Y-6274460D02*
X4148753Y-6283984D01*
X4148753Y-6283984D02*
X4139229Y-6274460D01*
X4139229Y-6274460D02*
X4148753Y-6264936D01*
X4148753Y-6264936D02*
X4148753Y-6283984D01*
X4224944Y-6083984D02*
X4348753Y-6083984D01*
X4348753Y-6083984D02*
X4282086Y-6160174D01*
X4282086Y-6160174D02*
X4310658Y-6160174D01*
X4310658Y-6160174D02*
X4329705Y-6169698D01*
X4329705Y-6169698D02*
X4339229Y-6179222D01*
X4339229Y-6179222D02*
X4348753Y-6198269D01*
X4348753Y-6198269D02*
X4348753Y-6245888D01*
X4348753Y-6245888D02*
X4339229Y-6264936D01*
X4339229Y-6264936D02*
X4329705Y-6274460D01*
X4329705Y-6274460D02*
X4310658Y-6283984D01*
X4310658Y-6283984D02*
X4253515Y-6283984D01*
X4253515Y-6283984D02*
X4234467Y-6274460D01*
X4234467Y-6274460D02*
X4224944Y-6264936D01*
X4472563Y-6083984D02*
X4491610Y-6083984D01*
X4491610Y-6083984D02*
X4510658Y-6093508D01*
X4510658Y-6093508D02*
X4520182Y-6103031D01*
X4520182Y-6103031D02*
X4529705Y-6122079D01*
X4529705Y-6122079D02*
X4539229Y-6160174D01*
X4539229Y-6160174D02*
X4539229Y-6207793D01*
X4539229Y-6207793D02*
X4529705Y-6245888D01*
X4529705Y-6245888D02*
X4520182Y-6264936D01*
X4520182Y-6264936D02*
X4510658Y-6274460D01*
X4510658Y-6274460D02*
X4491610Y-6283984D01*
X4491610Y-6283984D02*
X4472563Y-6283984D01*
X4472563Y-6283984D02*
X4453515Y-6274460D01*
X4453515Y-6274460D02*
X4443991Y-6264936D01*
X4443991Y-6264936D02*
X4434467Y-6245888D01*
X4434467Y-6245888D02*
X4424944Y-6207793D01*
X4424944Y-6207793D02*
X4424944Y-6160174D01*
X4424944Y-6160174D02*
X4434467Y-6122079D01*
X4434467Y-6122079D02*
X4443991Y-6103031D01*
X4443991Y-6103031D02*
X4453515Y-6093508D01*
X4453515Y-6093508D02*
X4472563Y-6083984D01*
X4663039Y-6083984D02*
X4682086Y-6083984D01*
X4682086Y-6083984D02*
X4701134Y-6093508D01*
X4701134Y-6093508D02*
X4710658Y-6103031D01*
X4710658Y-6103031D02*
X4720182Y-6122079D01*
X4720182Y-6122079D02*
X4729705Y-6160174D01*
X4729705Y-6160174D02*
X4729705Y-6207793D01*
X4729705Y-6207793D02*
X4720182Y-6245888D01*
X4720182Y-6245888D02*
X4710658Y-6264936D01*
X4710658Y-6264936D02*
X4701134Y-6274460D01*
X4701134Y-6274460D02*
X4682086Y-6283984D01*
X4682086Y-6283984D02*
X4663039Y-6283984D01*
X4663039Y-6283984D02*
X4643991Y-6274460D01*
X4643991Y-6274460D02*
X4634467Y-6264936D01*
X4634467Y-6264936D02*
X4624944Y-6245888D01*
X4624944Y-6245888D02*
X4615420Y-6207793D01*
X4615420Y-6207793D02*
X4615420Y-6160174D01*
X4615420Y-6160174D02*
X4624944Y-6122079D01*
X4624944Y-6122079D02*
X4634467Y-6103031D01*
X4634467Y-6103031D02*
X4643991Y-6093508D01*
X4643991Y-6093508D02*
X4663039Y-6083984D01*
X4815420Y-6283984D02*
X4815420Y-6150650D01*
X4815420Y-6169698D02*
X4824944Y-6160174D01*
X4824944Y-6160174D02*
X4843991Y-6150650D01*
X4843991Y-6150650D02*
X4872563Y-6150650D01*
X4872563Y-6150650D02*
X4891610Y-6160174D01*
X4891610Y-6160174D02*
X4901134Y-6179222D01*
X4901134Y-6179222D02*
X4901134Y-6283984D01*
X4901134Y-6179222D02*
X4910658Y-6160174D01*
X4910658Y-6160174D02*
X4929705Y-6150650D01*
X4929705Y-6150650D02*
X4958277Y-6150650D01*
X4958277Y-6150650D02*
X4977325Y-6160174D01*
X4977325Y-6160174D02*
X4986848Y-6179222D01*
X4986848Y-6179222D02*
X4986848Y-6283984D01*
X5082086Y-6283984D02*
X5082086Y-6150650D01*
X5082086Y-6169698D02*
X5091610Y-6160174D01*
X5091610Y-6160174D02*
X5110658Y-6150650D01*
X5110658Y-6150650D02*
X5139229Y-6150650D01*
X5139229Y-6150650D02*
X5158277Y-6160174D01*
X5158277Y-6160174D02*
X5167801Y-6179222D01*
X5167801Y-6179222D02*
X5167801Y-6283984D01*
X5167801Y-6179222D02*
X5177325Y-6160174D01*
X5177325Y-6160174D02*
X5196372Y-6150650D01*
X5196372Y-6150650D02*
X5224944Y-6150650D01*
X5224944Y-6150650D02*
X5243991Y-6160174D01*
X5243991Y-6160174D02*
X5253515Y-6179222D01*
X5253515Y-6179222D02*
X5253515Y-6283984D01*
X5643991Y-6074460D02*
X5472563Y-6331603D01*
X5901134Y-6083984D02*
X5920182Y-6083984D01*
X5920182Y-6083984D02*
X5939229Y-6093508D01*
X5939229Y-6093508D02*
X5948753Y-6103031D01*
X5948753Y-6103031D02*
X5958277Y-6122079D01*
X5958277Y-6122079D02*
X5967801Y-6160174D01*
X5967801Y-6160174D02*
X5967801Y-6207793D01*
X5967801Y-6207793D02*
X5958277Y-6245888D01*
X5958277Y-6245888D02*
X5948753Y-6264936D01*
X5948753Y-6264936D02*
X5939229Y-6274460D01*
X5939229Y-6274460D02*
X5920182Y-6283984D01*
X5920182Y-6283984D02*
X5901134Y-6283984D01*
X5901134Y-6283984D02*
X5882086Y-6274460D01*
X5882086Y-6274460D02*
X5872563Y-6264936D01*
X5872563Y-6264936D02*
X5863039Y-6245888D01*
X5863039Y-6245888D02*
X5853515Y-6207793D01*
X5853515Y-6207793D02*
X5853515Y-6160174D01*
X5853515Y-6160174D02*
X5863039Y-6122079D01*
X5863039Y-6122079D02*
X5872563Y-6103031D01*
X5872563Y-6103031D02*
X5882086Y-6093508D01*
X5882086Y-6093508D02*
X5901134Y-6083984D01*
X6053515Y-6264936D02*
X6063039Y-6274460D01*
X6063039Y-6274460D02*
X6053515Y-6283984D01*
X6053515Y-6283984D02*
X6043991Y-6274460D01*
X6043991Y-6274460D02*
X6053515Y-6264936D01*
X6053515Y-6264936D02*
X6053515Y-6283984D01*
X6186848Y-6083984D02*
X6205896Y-6083984D01*
X6205896Y-6083984D02*
X6224944Y-6093508D01*
X6224944Y-6093508D02*
X6234467Y-6103031D01*
X6234467Y-6103031D02*
X6243991Y-6122079D01*
X6243991Y-6122079D02*
X6253515Y-6160174D01*
X6253515Y-6160174D02*
X6253515Y-6207793D01*
X6253515Y-6207793D02*
X6243991Y-6245888D01*
X6243991Y-6245888D02*
X6234467Y-6264936D01*
X6234467Y-6264936D02*
X6224944Y-6274460D01*
X6224944Y-6274460D02*
X6205896Y-6283984D01*
X6205896Y-6283984D02*
X6186848Y-6283984D01*
X6186848Y-6283984D02*
X6167801Y-6274460D01*
X6167801Y-6274460D02*
X6158277Y-6264936D01*
X6158277Y-6264936D02*
X6148753Y-6245888D01*
X6148753Y-6245888D02*
X6139229Y-6207793D01*
X6139229Y-6207793D02*
X6139229Y-6160174D01*
X6139229Y-6160174D02*
X6148753Y-6122079D01*
X6148753Y-6122079D02*
X6158277Y-6103031D01*
X6158277Y-6103031D02*
X6167801Y-6093508D01*
X6167801Y-6093508D02*
X6186848Y-6083984D01*
X6443991Y-6283984D02*
X6329706Y-6283984D01*
X6386848Y-6283984D02*
X6386848Y-6083984D01*
X6386848Y-6083984D02*
X6367801Y-6112555D01*
X6367801Y-6112555D02*
X6348753Y-6131603D01*
X6348753Y-6131603D02*
X6329706Y-6141127D01*
X6634467Y-6283984D02*
X6520182Y-6283984D01*
X6577325Y-6283984D02*
X6577325Y-6083984D01*
X6577325Y-6083984D02*
X6558277Y-6112555D01*
X6558277Y-6112555D02*
X6539229Y-6131603D01*
X6539229Y-6131603D02*
X6520182Y-6141127D01*
X6748753Y-6169698D02*
X6729706Y-6160174D01*
X6729706Y-6160174D02*
X6720182Y-6150650D01*
X6720182Y-6150650D02*
X6710658Y-6131603D01*
X6710658Y-6131603D02*
X6710658Y-6122079D01*
X6710658Y-6122079D02*
X6720182Y-6103031D01*
X6720182Y-6103031D02*
X6729706Y-6093508D01*
X6729706Y-6093508D02*
X6748753Y-6083984D01*
X6748753Y-6083984D02*
X6786848Y-6083984D01*
X6786848Y-6083984D02*
X6805896Y-6093508D01*
X6805896Y-6093508D02*
X6815420Y-6103031D01*
X6815420Y-6103031D02*
X6824944Y-6122079D01*
X6824944Y-6122079D02*
X6824944Y-6131603D01*
X6824944Y-6131603D02*
X6815420Y-6150650D01*
X6815420Y-6150650D02*
X6805896Y-6160174D01*
X6805896Y-6160174D02*
X6786848Y-6169698D01*
X6786848Y-6169698D02*
X6748753Y-6169698D01*
X6748753Y-6169698D02*
X6729706Y-6179222D01*
X6729706Y-6179222D02*
X6720182Y-6188746D01*
X6720182Y-6188746D02*
X6710658Y-6207793D01*
X6710658Y-6207793D02*
X6710658Y-6245888D01*
X6710658Y-6245888D02*
X6720182Y-6264936D01*
X6720182Y-6264936D02*
X6729706Y-6274460D01*
X6729706Y-6274460D02*
X6748753Y-6283984D01*
X6748753Y-6283984D02*
X6786848Y-6283984D01*
X6786848Y-6283984D02*
X6805896Y-6274460D01*
X6805896Y-6274460D02*
X6815420Y-6264936D01*
X6815420Y-6264936D02*
X6824944Y-6245888D01*
X6824944Y-6245888D02*
X6824944Y-6207793D01*
X6824944Y-6207793D02*
X6815420Y-6188746D01*
X6815420Y-6188746D02*
X6805896Y-6179222D01*
X6805896Y-6179222D02*
X6786848Y-6169698D01*
X6901134Y-6083984D02*
X6901134Y-6122079D01*
X6977325Y-6083984D02*
X6977325Y-6122079D01*
X7272563Y-6360174D02*
X7263039Y-6350650D01*
X7263039Y-6350650D02*
X7243991Y-6322079D01*
X7243991Y-6322079D02*
X7234468Y-6303031D01*
X7234468Y-6303031D02*
X7224944Y-6274460D01*
X7224944Y-6274460D02*
X7215420Y-6226841D01*
X7215420Y-6226841D02*
X7215420Y-6188746D01*
X7215420Y-6188746D02*
X7224944Y-6141127D01*
X7224944Y-6141127D02*
X7234468Y-6112555D01*
X7234468Y-6112555D02*
X7243991Y-6093508D01*
X7243991Y-6093508D02*
X7263039Y-6064936D01*
X7263039Y-6064936D02*
X7272563Y-6055412D01*
X7453515Y-6283984D02*
X7339229Y-6283984D01*
X7396372Y-6283984D02*
X7396372Y-6083984D01*
X7396372Y-6083984D02*
X7377325Y-6112555D01*
X7377325Y-6112555D02*
X7358277Y-6131603D01*
X7358277Y-6131603D02*
X7339229Y-6141127D01*
X7577325Y-6083984D02*
X7596372Y-6083984D01*
X7596372Y-6083984D02*
X7615420Y-6093508D01*
X7615420Y-6093508D02*
X7624944Y-6103031D01*
X7624944Y-6103031D02*
X7634468Y-6122079D01*
X7634468Y-6122079D02*
X7643991Y-6160174D01*
X7643991Y-6160174D02*
X7643991Y-6207793D01*
X7643991Y-6207793D02*
X7634468Y-6245888D01*
X7634468Y-6245888D02*
X7624944Y-6264936D01*
X7624944Y-6264936D02*
X7615420Y-6274460D01*
X7615420Y-6274460D02*
X7596372Y-6283984D01*
X7596372Y-6283984D02*
X7577325Y-6283984D01*
X7577325Y-6283984D02*
X7558277Y-6274460D01*
X7558277Y-6274460D02*
X7548753Y-6264936D01*
X7548753Y-6264936D02*
X7539229Y-6245888D01*
X7539229Y-6245888D02*
X7529706Y-6207793D01*
X7529706Y-6207793D02*
X7529706Y-6160174D01*
X7529706Y-6160174D02*
X7539229Y-6122079D01*
X7539229Y-6122079D02*
X7548753Y-6103031D01*
X7548753Y-6103031D02*
X7558277Y-6093508D01*
X7558277Y-6093508D02*
X7577325Y-6083984D01*
X7710658Y-6083984D02*
X7834468Y-6083984D01*
X7834468Y-6083984D02*
X7767801Y-6160174D01*
X7767801Y-6160174D02*
X7796372Y-6160174D01*
X7796372Y-6160174D02*
X7815420Y-6169698D01*
X7815420Y-6169698D02*
X7824944Y-6179222D01*
X7824944Y-6179222D02*
X7834468Y-6198269D01*
X7834468Y-6198269D02*
X7834468Y-6245888D01*
X7834468Y-6245888D02*
X7824944Y-6264936D01*
X7824944Y-6264936D02*
X7815420Y-6274460D01*
X7815420Y-6274460D02*
X7796372Y-6283984D01*
X7796372Y-6283984D02*
X7739229Y-6283984D01*
X7739229Y-6283984D02*
X7720182Y-6274460D01*
X7720182Y-6274460D02*
X7710658Y-6264936D01*
X8072563Y-6283984D02*
X8072563Y-6083984D01*
X8158277Y-6283984D02*
X8158277Y-6179222D01*
X8158277Y-6179222D02*
X8148753Y-6160174D01*
X8148753Y-6160174D02*
X8129706Y-6150650D01*
X8129706Y-6150650D02*
X8101134Y-6150650D01*
X8101134Y-6150650D02*
X8082087Y-6160174D01*
X8082087Y-6160174D02*
X8072563Y-6169698D01*
X8282087Y-6283984D02*
X8263039Y-6274460D01*
X8263039Y-6274460D02*
X8253515Y-6264936D01*
X8253515Y-6264936D02*
X8243991Y-6245888D01*
X8243991Y-6245888D02*
X8243991Y-6188746D01*
X8243991Y-6188746D02*
X8253515Y-6169698D01*
X8253515Y-6169698D02*
X8263039Y-6160174D01*
X8263039Y-6160174D02*
X8282087Y-6150650D01*
X8282087Y-6150650D02*
X8310658Y-6150650D01*
X8310658Y-6150650D02*
X8329706Y-6160174D01*
X8329706Y-6160174D02*
X8339230Y-6169698D01*
X8339230Y-6169698D02*
X8348753Y-6188746D01*
X8348753Y-6188746D02*
X8348753Y-6245888D01*
X8348753Y-6245888D02*
X8339230Y-6264936D01*
X8339230Y-6264936D02*
X8329706Y-6274460D01*
X8329706Y-6274460D02*
X8310658Y-6283984D01*
X8310658Y-6283984D02*
X8282087Y-6283984D01*
X8463039Y-6283984D02*
X8443992Y-6274460D01*
X8443992Y-6274460D02*
X8434468Y-6255412D01*
X8434468Y-6255412D02*
X8434468Y-6083984D01*
X8615420Y-6274460D02*
X8596373Y-6283984D01*
X8596373Y-6283984D02*
X8558277Y-6283984D01*
X8558277Y-6283984D02*
X8539230Y-6274460D01*
X8539230Y-6274460D02*
X8529706Y-6255412D01*
X8529706Y-6255412D02*
X8529706Y-6179222D01*
X8529706Y-6179222D02*
X8539230Y-6160174D01*
X8539230Y-6160174D02*
X8558277Y-6150650D01*
X8558277Y-6150650D02*
X8596373Y-6150650D01*
X8596373Y-6150650D02*
X8615420Y-6160174D01*
X8615420Y-6160174D02*
X8624944Y-6179222D01*
X8624944Y-6179222D02*
X8624944Y-6198269D01*
X8624944Y-6198269D02*
X8529706Y-6217317D01*
X8701134Y-6274460D02*
X8720182Y-6283984D01*
X8720182Y-6283984D02*
X8758277Y-6283984D01*
X8758277Y-6283984D02*
X8777325Y-6274460D01*
X8777325Y-6274460D02*
X8786849Y-6255412D01*
X8786849Y-6255412D02*
X8786849Y-6245888D01*
X8786849Y-6245888D02*
X8777325Y-6226841D01*
X8777325Y-6226841D02*
X8758277Y-6217317D01*
X8758277Y-6217317D02*
X8729706Y-6217317D01*
X8729706Y-6217317D02*
X8710658Y-6207793D01*
X8710658Y-6207793D02*
X8701134Y-6188746D01*
X8701134Y-6188746D02*
X8701134Y-6179222D01*
X8701134Y-6179222D02*
X8710658Y-6160174D01*
X8710658Y-6160174D02*
X8729706Y-6150650D01*
X8729706Y-6150650D02*
X8758277Y-6150650D01*
X8758277Y-6150650D02*
X8777325Y-6160174D01*
X8853515Y-6360174D02*
X8863039Y-6350650D01*
X8863039Y-6350650D02*
X8882087Y-6322079D01*
X8882087Y-6322079D02*
X8891611Y-6303031D01*
X8891611Y-6303031D02*
X8901134Y-6274460D01*
X8901134Y-6274460D02*
X8910658Y-6226841D01*
X8910658Y-6226841D02*
X8910658Y-6188746D01*
X8910658Y-6188746D02*
X8901134Y-6141127D01*
X8901134Y-6141127D02*
X8891611Y-6112555D01*
X8891611Y-6112555D02*
X8882087Y-6093508D01*
X8882087Y-6093508D02*
X8863039Y-6064936D01*
X8863039Y-6064936D02*
X8853515Y-6055412D01*
D12*
X3697500Y-6456500D02*
G75*
G02*
X3637500Y-6456500I-30000J0D01*
G01*
X3637500Y-6456500D02*
G75*
G02*
X3697500Y-6456500I30000J0D01*
G01*
D11*
X3996372Y-6347984D02*
X4015420Y-6347984D01*
X4015420Y-6347984D02*
X4034467Y-6357508D01*
X4034467Y-6357508D02*
X4043991Y-6367031D01*
X4043991Y-6367031D02*
X4053515Y-6386079D01*
X4053515Y-6386079D02*
X4063039Y-6424174D01*
X4063039Y-6424174D02*
X4063039Y-6471793D01*
X4063039Y-6471793D02*
X4053515Y-6509888D01*
X4053515Y-6509888D02*
X4043991Y-6528936D01*
X4043991Y-6528936D02*
X4034467Y-6538460D01*
X4034467Y-6538460D02*
X4015420Y-6547984D01*
X4015420Y-6547984D02*
X3996372Y-6547984D01*
X3996372Y-6547984D02*
X3977324Y-6538460D01*
X3977324Y-6538460D02*
X3967801Y-6528936D01*
X3967801Y-6528936D02*
X3958277Y-6509888D01*
X3958277Y-6509888D02*
X3948753Y-6471793D01*
X3948753Y-6471793D02*
X3948753Y-6424174D01*
X3948753Y-6424174D02*
X3958277Y-6386079D01*
X3958277Y-6386079D02*
X3967801Y-6367031D01*
X3967801Y-6367031D02*
X3977324Y-6357508D01*
X3977324Y-6357508D02*
X3996372Y-6347984D01*
X4148753Y-6528936D02*
X4158277Y-6538460D01*
X4158277Y-6538460D02*
X4148753Y-6547984D01*
X4148753Y-6547984D02*
X4139229Y-6538460D01*
X4139229Y-6538460D02*
X4148753Y-6528936D01*
X4148753Y-6528936D02*
X4148753Y-6547984D01*
X4329705Y-6347984D02*
X4291610Y-6347984D01*
X4291610Y-6347984D02*
X4272563Y-6357508D01*
X4272563Y-6357508D02*
X4263039Y-6367031D01*
X4263039Y-6367031D02*
X4243991Y-6395603D01*
X4243991Y-6395603D02*
X4234467Y-6433698D01*
X4234467Y-6433698D02*
X4234467Y-6509888D01*
X4234467Y-6509888D02*
X4243991Y-6528936D01*
X4243991Y-6528936D02*
X4253515Y-6538460D01*
X4253515Y-6538460D02*
X4272563Y-6547984D01*
X4272563Y-6547984D02*
X4310658Y-6547984D01*
X4310658Y-6547984D02*
X4329705Y-6538460D01*
X4329705Y-6538460D02*
X4339229Y-6528936D01*
X4339229Y-6528936D02*
X4348753Y-6509888D01*
X4348753Y-6509888D02*
X4348753Y-6462269D01*
X4348753Y-6462269D02*
X4339229Y-6443222D01*
X4339229Y-6443222D02*
X4329705Y-6433698D01*
X4329705Y-6433698D02*
X4310658Y-6424174D01*
X4310658Y-6424174D02*
X4272563Y-6424174D01*
X4272563Y-6424174D02*
X4253515Y-6433698D01*
X4253515Y-6433698D02*
X4243991Y-6443222D01*
X4243991Y-6443222D02*
X4234467Y-6462269D01*
X4472563Y-6347984D02*
X4491610Y-6347984D01*
X4491610Y-6347984D02*
X4510658Y-6357508D01*
X4510658Y-6357508D02*
X4520182Y-6367031D01*
X4520182Y-6367031D02*
X4529705Y-6386079D01*
X4529705Y-6386079D02*
X4539229Y-6424174D01*
X4539229Y-6424174D02*
X4539229Y-6471793D01*
X4539229Y-6471793D02*
X4529705Y-6509888D01*
X4529705Y-6509888D02*
X4520182Y-6528936D01*
X4520182Y-6528936D02*
X4510658Y-6538460D01*
X4510658Y-6538460D02*
X4491610Y-6547984D01*
X4491610Y-6547984D02*
X4472563Y-6547984D01*
X4472563Y-6547984D02*
X4453515Y-6538460D01*
X4453515Y-6538460D02*
X4443991Y-6528936D01*
X4443991Y-6528936D02*
X4434467Y-6509888D01*
X4434467Y-6509888D02*
X4424944Y-6471793D01*
X4424944Y-6471793D02*
X4424944Y-6424174D01*
X4424944Y-6424174D02*
X4434467Y-6386079D01*
X4434467Y-6386079D02*
X4443991Y-6367031D01*
X4443991Y-6367031D02*
X4453515Y-6357508D01*
X4453515Y-6357508D02*
X4472563Y-6347984D01*
X4663039Y-6347984D02*
X4682086Y-6347984D01*
X4682086Y-6347984D02*
X4701134Y-6357508D01*
X4701134Y-6357508D02*
X4710658Y-6367031D01*
X4710658Y-6367031D02*
X4720182Y-6386079D01*
X4720182Y-6386079D02*
X4729705Y-6424174D01*
X4729705Y-6424174D02*
X4729705Y-6471793D01*
X4729705Y-6471793D02*
X4720182Y-6509888D01*
X4720182Y-6509888D02*
X4710658Y-6528936D01*
X4710658Y-6528936D02*
X4701134Y-6538460D01*
X4701134Y-6538460D02*
X4682086Y-6547984D01*
X4682086Y-6547984D02*
X4663039Y-6547984D01*
X4663039Y-6547984D02*
X4643991Y-6538460D01*
X4643991Y-6538460D02*
X4634467Y-6528936D01*
X4634467Y-6528936D02*
X4624944Y-6509888D01*
X4624944Y-6509888D02*
X4615420Y-6471793D01*
X4615420Y-6471793D02*
X4615420Y-6424174D01*
X4615420Y-6424174D02*
X4624944Y-6386079D01*
X4624944Y-6386079D02*
X4634467Y-6367031D01*
X4634467Y-6367031D02*
X4643991Y-6357508D01*
X4643991Y-6357508D02*
X4663039Y-6347984D01*
X4815420Y-6547984D02*
X4815420Y-6414650D01*
X4815420Y-6433698D02*
X4824944Y-6424174D01*
X4824944Y-6424174D02*
X4843991Y-6414650D01*
X4843991Y-6414650D02*
X4872563Y-6414650D01*
X4872563Y-6414650D02*
X4891610Y-6424174D01*
X4891610Y-6424174D02*
X4901134Y-6443222D01*
X4901134Y-6443222D02*
X4901134Y-6547984D01*
X4901134Y-6443222D02*
X4910658Y-6424174D01*
X4910658Y-6424174D02*
X4929705Y-6414650D01*
X4929705Y-6414650D02*
X4958277Y-6414650D01*
X4958277Y-6414650D02*
X4977325Y-6424174D01*
X4977325Y-6424174D02*
X4986848Y-6443222D01*
X4986848Y-6443222D02*
X4986848Y-6547984D01*
X5082086Y-6547984D02*
X5082086Y-6414650D01*
X5082086Y-6433698D02*
X5091610Y-6424174D01*
X5091610Y-6424174D02*
X5110658Y-6414650D01*
X5110658Y-6414650D02*
X5139229Y-6414650D01*
X5139229Y-6414650D02*
X5158277Y-6424174D01*
X5158277Y-6424174D02*
X5167801Y-6443222D01*
X5167801Y-6443222D02*
X5167801Y-6547984D01*
X5167801Y-6443222D02*
X5177325Y-6424174D01*
X5177325Y-6424174D02*
X5196372Y-6414650D01*
X5196372Y-6414650D02*
X5224944Y-6414650D01*
X5224944Y-6414650D02*
X5243991Y-6424174D01*
X5243991Y-6424174D02*
X5253515Y-6443222D01*
X5253515Y-6443222D02*
X5253515Y-6547984D01*
X5643991Y-6338460D02*
X5472563Y-6595603D01*
X5901134Y-6347984D02*
X5920182Y-6347984D01*
X5920182Y-6347984D02*
X5939229Y-6357508D01*
X5939229Y-6357508D02*
X5948753Y-6367031D01*
X5948753Y-6367031D02*
X5958277Y-6386079D01*
X5958277Y-6386079D02*
X5967801Y-6424174D01*
X5967801Y-6424174D02*
X5967801Y-6471793D01*
X5967801Y-6471793D02*
X5958277Y-6509888D01*
X5958277Y-6509888D02*
X5948753Y-6528936D01*
X5948753Y-6528936D02*
X5939229Y-6538460D01*
X5939229Y-6538460D02*
X5920182Y-6547984D01*
X5920182Y-6547984D02*
X5901134Y-6547984D01*
X5901134Y-6547984D02*
X5882086Y-6538460D01*
X5882086Y-6538460D02*
X5872563Y-6528936D01*
X5872563Y-6528936D02*
X5863039Y-6509888D01*
X5863039Y-6509888D02*
X5853515Y-6471793D01*
X5853515Y-6471793D02*
X5853515Y-6424174D01*
X5853515Y-6424174D02*
X5863039Y-6386079D01*
X5863039Y-6386079D02*
X5872563Y-6367031D01*
X5872563Y-6367031D02*
X5882086Y-6357508D01*
X5882086Y-6357508D02*
X5901134Y-6347984D01*
X6053515Y-6528936D02*
X6063039Y-6538460D01*
X6063039Y-6538460D02*
X6053515Y-6547984D01*
X6053515Y-6547984D02*
X6043991Y-6538460D01*
X6043991Y-6538460D02*
X6053515Y-6528936D01*
X6053515Y-6528936D02*
X6053515Y-6547984D01*
X6186848Y-6347984D02*
X6205896Y-6347984D01*
X6205896Y-6347984D02*
X6224944Y-6357508D01*
X6224944Y-6357508D02*
X6234467Y-6367031D01*
X6234467Y-6367031D02*
X6243991Y-6386079D01*
X6243991Y-6386079D02*
X6253515Y-6424174D01*
X6253515Y-6424174D02*
X6253515Y-6471793D01*
X6253515Y-6471793D02*
X6243991Y-6509888D01*
X6243991Y-6509888D02*
X6234467Y-6528936D01*
X6234467Y-6528936D02*
X6224944Y-6538460D01*
X6224944Y-6538460D02*
X6205896Y-6547984D01*
X6205896Y-6547984D02*
X6186848Y-6547984D01*
X6186848Y-6547984D02*
X6167801Y-6538460D01*
X6167801Y-6538460D02*
X6158277Y-6528936D01*
X6158277Y-6528936D02*
X6148753Y-6509888D01*
X6148753Y-6509888D02*
X6139229Y-6471793D01*
X6139229Y-6471793D02*
X6139229Y-6424174D01*
X6139229Y-6424174D02*
X6148753Y-6386079D01*
X6148753Y-6386079D02*
X6158277Y-6367031D01*
X6158277Y-6367031D02*
X6167801Y-6357508D01*
X6167801Y-6357508D02*
X6186848Y-6347984D01*
X6329706Y-6367031D02*
X6339229Y-6357508D01*
X6339229Y-6357508D02*
X6358277Y-6347984D01*
X6358277Y-6347984D02*
X6405896Y-6347984D01*
X6405896Y-6347984D02*
X6424944Y-6357508D01*
X6424944Y-6357508D02*
X6434467Y-6367031D01*
X6434467Y-6367031D02*
X6443991Y-6386079D01*
X6443991Y-6386079D02*
X6443991Y-6405127D01*
X6443991Y-6405127D02*
X6434467Y-6433698D01*
X6434467Y-6433698D02*
X6320182Y-6547984D01*
X6320182Y-6547984D02*
X6443991Y-6547984D01*
X6510658Y-6347984D02*
X6634467Y-6347984D01*
X6634467Y-6347984D02*
X6567801Y-6424174D01*
X6567801Y-6424174D02*
X6596372Y-6424174D01*
X6596372Y-6424174D02*
X6615420Y-6433698D01*
X6615420Y-6433698D02*
X6624944Y-6443222D01*
X6624944Y-6443222D02*
X6634467Y-6462269D01*
X6634467Y-6462269D02*
X6634467Y-6509888D01*
X6634467Y-6509888D02*
X6624944Y-6528936D01*
X6624944Y-6528936D02*
X6615420Y-6538460D01*
X6615420Y-6538460D02*
X6596372Y-6547984D01*
X6596372Y-6547984D02*
X6539229Y-6547984D01*
X6539229Y-6547984D02*
X6520182Y-6538460D01*
X6520182Y-6538460D02*
X6510658Y-6528936D01*
X6805896Y-6347984D02*
X6767801Y-6347984D01*
X6767801Y-6347984D02*
X6748753Y-6357508D01*
X6748753Y-6357508D02*
X6739229Y-6367031D01*
X6739229Y-6367031D02*
X6720182Y-6395603D01*
X6720182Y-6395603D02*
X6710658Y-6433698D01*
X6710658Y-6433698D02*
X6710658Y-6509888D01*
X6710658Y-6509888D02*
X6720182Y-6528936D01*
X6720182Y-6528936D02*
X6729706Y-6538460D01*
X6729706Y-6538460D02*
X6748753Y-6547984D01*
X6748753Y-6547984D02*
X6786848Y-6547984D01*
X6786848Y-6547984D02*
X6805896Y-6538460D01*
X6805896Y-6538460D02*
X6815420Y-6528936D01*
X6815420Y-6528936D02*
X6824944Y-6509888D01*
X6824944Y-6509888D02*
X6824944Y-6462269D01*
X6824944Y-6462269D02*
X6815420Y-6443222D01*
X6815420Y-6443222D02*
X6805896Y-6433698D01*
X6805896Y-6433698D02*
X6786848Y-6424174D01*
X6786848Y-6424174D02*
X6748753Y-6424174D01*
X6748753Y-6424174D02*
X6729706Y-6433698D01*
X6729706Y-6433698D02*
X6720182Y-6443222D01*
X6720182Y-6443222D02*
X6710658Y-6462269D01*
X6901134Y-6347984D02*
X6901134Y-6386079D01*
X6977325Y-6347984D02*
X6977325Y-6386079D01*
X7272563Y-6624174D02*
X7263039Y-6614650D01*
X7263039Y-6614650D02*
X7243991Y-6586079D01*
X7243991Y-6586079D02*
X7234468Y-6567031D01*
X7234468Y-6567031D02*
X7224944Y-6538460D01*
X7224944Y-6538460D02*
X7215420Y-6490841D01*
X7215420Y-6490841D02*
X7215420Y-6452746D01*
X7215420Y-6452746D02*
X7224944Y-6405127D01*
X7224944Y-6405127D02*
X7234468Y-6376555D01*
X7234468Y-6376555D02*
X7243991Y-6357508D01*
X7243991Y-6357508D02*
X7263039Y-6328936D01*
X7263039Y-6328936D02*
X7272563Y-6319412D01*
X7434468Y-6347984D02*
X7396372Y-6347984D01*
X7396372Y-6347984D02*
X7377325Y-6357508D01*
X7377325Y-6357508D02*
X7367801Y-6367031D01*
X7367801Y-6367031D02*
X7348753Y-6395603D01*
X7348753Y-6395603D02*
X7339229Y-6433698D01*
X7339229Y-6433698D02*
X7339229Y-6509888D01*
X7339229Y-6509888D02*
X7348753Y-6528936D01*
X7348753Y-6528936D02*
X7358277Y-6538460D01*
X7358277Y-6538460D02*
X7377325Y-6547984D01*
X7377325Y-6547984D02*
X7415420Y-6547984D01*
X7415420Y-6547984D02*
X7434468Y-6538460D01*
X7434468Y-6538460D02*
X7443991Y-6528936D01*
X7443991Y-6528936D02*
X7453515Y-6509888D01*
X7453515Y-6509888D02*
X7453515Y-6462269D01*
X7453515Y-6462269D02*
X7443991Y-6443222D01*
X7443991Y-6443222D02*
X7434468Y-6433698D01*
X7434468Y-6433698D02*
X7415420Y-6424174D01*
X7415420Y-6424174D02*
X7377325Y-6424174D01*
X7377325Y-6424174D02*
X7358277Y-6433698D01*
X7358277Y-6433698D02*
X7348753Y-6443222D01*
X7348753Y-6443222D02*
X7339229Y-6462269D01*
X7691610Y-6547984D02*
X7691610Y-6347984D01*
X7777325Y-6547984D02*
X7777325Y-6443222D01*
X7777325Y-6443222D02*
X7767801Y-6424174D01*
X7767801Y-6424174D02*
X7748753Y-6414650D01*
X7748753Y-6414650D02*
X7720182Y-6414650D01*
X7720182Y-6414650D02*
X7701134Y-6424174D01*
X7701134Y-6424174D02*
X7691610Y-6433698D01*
X7901134Y-6547984D02*
X7882087Y-6538460D01*
X7882087Y-6538460D02*
X7872563Y-6528936D01*
X7872563Y-6528936D02*
X7863039Y-6509888D01*
X7863039Y-6509888D02*
X7863039Y-6452746D01*
X7863039Y-6452746D02*
X7872563Y-6433698D01*
X7872563Y-6433698D02*
X7882087Y-6424174D01*
X7882087Y-6424174D02*
X7901134Y-6414650D01*
X7901134Y-6414650D02*
X7929706Y-6414650D01*
X7929706Y-6414650D02*
X7948753Y-6424174D01*
X7948753Y-6424174D02*
X7958277Y-6433698D01*
X7958277Y-6433698D02*
X7967801Y-6452746D01*
X7967801Y-6452746D02*
X7967801Y-6509888D01*
X7967801Y-6509888D02*
X7958277Y-6528936D01*
X7958277Y-6528936D02*
X7948753Y-6538460D01*
X7948753Y-6538460D02*
X7929706Y-6547984D01*
X7929706Y-6547984D02*
X7901134Y-6547984D01*
X8082087Y-6547984D02*
X8063039Y-6538460D01*
X8063039Y-6538460D02*
X8053515Y-6519412D01*
X8053515Y-6519412D02*
X8053515Y-6347984D01*
X8234468Y-6538460D02*
X8215420Y-6547984D01*
X8215420Y-6547984D02*
X8177325Y-6547984D01*
X8177325Y-6547984D02*
X8158277Y-6538460D01*
X8158277Y-6538460D02*
X8148753Y-6519412D01*
X8148753Y-6519412D02*
X8148753Y-6443222D01*
X8148753Y-6443222D02*
X8158277Y-6424174D01*
X8158277Y-6424174D02*
X8177325Y-6414650D01*
X8177325Y-6414650D02*
X8215420Y-6414650D01*
X8215420Y-6414650D02*
X8234468Y-6424174D01*
X8234468Y-6424174D02*
X8243991Y-6443222D01*
X8243991Y-6443222D02*
X8243991Y-6462269D01*
X8243991Y-6462269D02*
X8148753Y-6481317D01*
X8320182Y-6538460D02*
X8339230Y-6547984D01*
X8339230Y-6547984D02*
X8377325Y-6547984D01*
X8377325Y-6547984D02*
X8396373Y-6538460D01*
X8396373Y-6538460D02*
X8405896Y-6519412D01*
X8405896Y-6519412D02*
X8405896Y-6509888D01*
X8405896Y-6509888D02*
X8396373Y-6490841D01*
X8396373Y-6490841D02*
X8377325Y-6481317D01*
X8377325Y-6481317D02*
X8348753Y-6481317D01*
X8348753Y-6481317D02*
X8329706Y-6471793D01*
X8329706Y-6471793D02*
X8320182Y-6452746D01*
X8320182Y-6452746D02*
X8320182Y-6443222D01*
X8320182Y-6443222D02*
X8329706Y-6424174D01*
X8329706Y-6424174D02*
X8348753Y-6414650D01*
X8348753Y-6414650D02*
X8377325Y-6414650D01*
X8377325Y-6414650D02*
X8396373Y-6424174D01*
X8472563Y-6624174D02*
X8482087Y-6614650D01*
X8482087Y-6614650D02*
X8501134Y-6586079D01*
X8501134Y-6586079D02*
X8510658Y-6567031D01*
X8510658Y-6567031D02*
X8520182Y-6538460D01*
X8520182Y-6538460D02*
X8529706Y-6490841D01*
X8529706Y-6490841D02*
X8529706Y-6452746D01*
X8529706Y-6452746D02*
X8520182Y-6405127D01*
X8520182Y-6405127D02*
X8510658Y-6376555D01*
X8510658Y-6376555D02*
X8501134Y-6357508D01*
X8501134Y-6357508D02*
X8482087Y-6328936D01*
X8482087Y-6328936D02*
X8472563Y-6319412D01*
M02*
